<svg xmlns="http://www.w3.org/2000/svg" viewBox="0 0 512 512">
  <defs>
    <symbol id="sign-0">
      <path color="currentColor" d="M99.67 218.8 98 208.2a142.18 142.18 0 0 0-.29-46.2l1.27-10.56c15.45-25.28 25.75-53.92 51.14-72.51 55.64-40.73 116.1-46.48 177.51-19.22 62.16 27.59 89.34 80 86.45 147.14-2 47.09-26.81 84.51-68 102C301.16 328 282.25 354.34 290 402c2.83 17.36 1.18 35.45 1.58 53.21l-6.79 10.56c-46.18 7.62-49.63 4.78-51-42-.16-5.59-.93-11.25-.33-16.75 4.52-41.22-1.3-71.85-50.58-85.86-38.71-11-61.63-46.15-74.11-85.5-1.86-5.93-6-11.23-9.1-16.86Zm163.1-117.51a110.34 110.34 0 0 0-46.41 9.36c-32.92 14.77-54.65 39.4-58 76.33-3 32.2 9.55 58.6 36.34 77.17 22.25 15.42 31.38 10.92 33.24-15.7.92-13 .93-26.14 1.62-39.21.83-15.88 7.59-26.73 24.87-28.33 17.79-1.63 29.16 6.91 33 23.52 2.68 11.69 1.93 24.13 3.26 36.17 1.17 10.64-4.43 25 8.12 30.36s23-5.13 32.16-12.7c25.15-20.77 31-54.64 16.92-92.69-16.09-43.27-43.89-64.31-85.12-64.28Z"/>
    </symbol>

    <symbol id="sign-1">
      <path color="currentColor" d="M295 248.7a115 115 0 0 1 18 6.8 101.6 101.6 0 0 1 16.6 10.2 90.5 90.5 0 0 1 14.3 13.6l3 3.9 1.5 2 1.3 2 2.6 4.3a205 205 0 0 1 2.2 4.3 79.2 79.2 0 0 1 6.3 18 86.5 86.5 0 0 1 2 17.6 100.7 100.7 0 0 1-5 31l-1.6 5a53 53 0 0 1-1.8 5 21.8 21.8 0 0 1-5.5 8.5 13.8 13.8 0 0 1-2 1.4 13.5 13.5 0 0 1-2.3 1.1 16 16 0 0 1-5.7.9c-4.2 0-9.5-1.5-16.4-4.7a69.7 69.7 0 0 1-15.4-9.6 24.6 24.6 0 0 1-6.8-8.4 15.8 15.8 0 0 1-1.3-3.9 36.4 36.4 0 0 1-.4-3.6 28.2 28.2 0 0 1 .1-3.4v-3.3a59.5 59.5 0 0 0-1.6-13.7 11.3 11.3 0 0 1-.3-1.3 9.7 9.7 0 0 1-.4-1l-.1-.6-.2-.4c-.2-.3-.2-.6-.3-1l-1.6-3a28.1 28.1 0 0 0-2-2.8 26.8 26.8 0 0 0-3.4-3.1 33.4 33.4 0 0 0-11.4-5.4 52.4 52.4 0 0 0-11.3-1.7h-6l-3.5.3c-1.2 0-2.4.3-3.6.4a79 79 0 0 0-12.9 2.7c-1 .2-1.9.5-2.7.9l-2.5 1a34.8 34.8 0 0 0-4 2 15.4 15.4 0 0 0-4.3 3.7 11.4 11.4 0 0 0-2 4.4 28.5 28.5 0 0 0-.3 8.5 60.4 60.4 0 0 0 2.2 11.7c1 3.7 1.9 7.6-.5 12s-8 9.3-19.8 15.6-20.8 7.4-27.6 4.8-11.2-8.6-13.5-16a129.6 129.6 0 0 1-5.4-25.5 99.7 99.7 0 0 1-.4-14.4 85 85 0 0 1 2.1-15.4 78.2 78.2 0 0 1 5.4-15.6 76.5 76.5 0 0 1 8.9-14.4 82.8 82.8 0 0 1 11.3-11.8 89.8 89.8 0 0 1 12.4-9 109 109 0 0 1 24.8-10.7 133.2 133.2 0 0 1 23.1-4.7l2.8-.3 1.3-.1 1.5-.1 6.2-.4h6c2 0 4.2.3 6.2.4a98 98 0 0 1 23.7 5.3Zm-16.1-136-6.4-.6-3.1-.2-1.6-.2h-1.6l-6.4-.3h-13.2c-1.1 0-2.2 0-3.3.2l-3.3.2-6.7.6-6.7.9-3.3.4-3.4.6-6.6 1.3-6.6 1.5c-2.2.5-4.4 1-6.6 1.7-4.3 1.4-8.7 2.6-13 4.2l-6.3 2.4-6.3 2.6-3 1.4-3.1 1.4-6.2 3c-4 2.2-8 4.2-11.8 6.6a226 226 0 0 0-22.5 15.1l-5.3 4.2-5.2 4.3-2.6 2.2-2.5 2.2-5 4.6a261.9 261.9 0 0 0-18.5 19.6A246.2 246.2 0 0 0 72.3 214 226.3 226.3 0 0 0 58 238a162.6 162.6 0 0 0-11.4 27.7l-1.1 4.1-.5 2-.4 2-1.4 7.4c-.4 2.5-.8 5-1 7.4s-.5 5-.6 7.5a178.8 178.8 0 0 0 6 57.4c4.5 17 12.6 31.3 22.4 39.4s21.2 10.1 32.3 2.9c11.3-7.1 14.6-15.4 14.3-24.9s-3.9-20-6.7-30.6a116.5 116.5 0 0 1-4.2-35 86.2 86.2 0 0 1 2.2-16.4l.2-1 .2-.7.5-1.5.5-1.7c.1-.6.4-1.1.7-1.8l1.5-3.7 1.9-3.9a144.8 144.8 0 0 1 9.3-15.9 172.4 172.4 0 0 1 11.5-15.4 186.2 186.2 0 0 1 13.3-14.3A182.2 182.2 0 0 1 162 216c2.5-2.1 5.1-4 7.7-5.9 2.7-1.7 5.2-3.6 8-5.3a161.2 161.2 0 0 1 16.6-9.1 144.3 144.3 0 0 1 35.1-11.6l4.5-.9 4.6-.6c3-.5 6.1-.5 9.2-.8 1.5-.2 3-.1 4.6-.2h4.6l4.8.1c1.6 0 3.2 0 4.8.2 3.1.3 6.3.5 9.4 1 1.6.1 3.2.2 4.7.5l4.7.8 2.3.4 2.3.5 4.6 1 4.5 1.2 2.3.6 2.2.7a148.4 148.4 0 0 1 77.3 56.8 151.5 151.5 0 0 1 21.1 42.7c.7 1.9 1.1 3.7 1.6 5.6l.8 2.8.6 3a132 132 0 0 1 2 11.6 128.5 128.5 0 0 1 1.1 23.2 139 139 0 0 1-2 17 129.6 129.6 0 0 0-2.1 15.7c-.4 10 2.2 19 14.2 28.8a20 20 0 0 0 18.1 4 25.4 25.4 0 0 0 8.5-4.4 41.2 41.2 0 0 0 7.4-7.7 75.6 75.6 0 0 0 10.8-21.6 161.8 161.8 0 0 0 5.7-24.2 168.8 168.8 0 0 0 2-33.3v-4.2l-.4-4.1c0-1.4-.2-2.8-.4-4.1l-.4-4.1a189 189 0 0 0-2.8-16.5 196.4 196.4 0 0 0-25.7-62.2 214.6 214.6 0 0 0-113-89.1 209.7 209.7 0 0 0-49-11.7Z"/>
    </symbol>

    <symbol id="sign-2">
      <path color="currentColor" d="m289.6 306.3 1.3 50.2.3 11.6.1 5.6v4.1a1.2 1.2 0 0 1 0 .2v.1l-.3 2.7-.1 1a.8.8 0 0 0 .4.8 2 2 0 0 0 .8.3l1 .1 1.8.3H298.3l6.4.2 49.2 1c10.7.1 23.1-1 33 1.6 5 1.3 9.3 3.4 12.4 7.2a20.7 20.7 0 0 1 3.8 6.8 21.9 21.9 0 0 1 .6 2l.5 2.4v.8a26.7 26.7 0 0 0 .9 3.8l.1.5v.3a3 3 0 0 0 0 .4 2.7 2.7 0 0 0 .4.7 1.8 1.8 0 0 0 .2.3l.2.4.4.5a4.7 4.7 0 0 1 1 2.6 3.4 3.4 0 0 1-.4 1.4v1.3c0 .8-.5 1.7-.6 2.5a28.2 28.2 0 0 1-3.2 8.1 26.5 26.5 0 0 1-11.8 10.2c-9.8 4.7-23 5.7-35.5 7-17.6 2-35.1 3.3-52.7 4l-6.5.3-12.5.3-13 .2h-6.6l-3.1-.3-3-.5a43.1 43.1 0 0 1-10.4-3.6 44 44 0 0 1-4.2-2.4 43.4 43.4 0 0 1-8.6-7.2l-1-1-.7-.9-1.5-1.8a40.2 40.2 0 0 1-5-9.1c-.8-3.5-2-7-2.4-11s-.5-8-.7-12l-.5-12-.4-9.6-.8-24.3-1.6-48.5q-2-54.2-4.6-108.3l-2.9-54-.8-13.2v-2.2a4 4 0 0 0 0-.5 1.1 1.1 0 0 0-.5 0H210l-5.3.2-10.9.3-43.6 1.4c-22.5.7-45-1-45.7-27.6s21-34.7 46-36l42.7-2.5L204 63l2.7-.1 1.3-.1 2.2-.1 10-.4c6.6-.2 13.3-.5 19.9-.4l4.8.2c.8 0 1.5.3 2.2.4a16.2 16.2 0 0 1 2.2.4l8 2.4a34.4 34.4 0 0 1 4.6 2.4 24.4 24.4 0 0 1 3 2.2l.1.1-.9 1.1h.1l.3.3.4.5c2.3 2.3 4.6 4.5 7 7.1a23.3 23.3 0 0 1 2.5 5.2l.6 1.4.4 1.5a31.7 31.7 0 0 1 .8 3c.8 4.3 1.3 8.8 1.8 13.3l1.3 13.7.6 6.8.1 1.6V126.6l.3 1.8 1.3 14.4q2.7 28.6 4.6 56.3c2.7 37 4 72.9 3.4 107.2Z"/>
    </symbol>

    <symbol id="sign-3">
     <path color="currentColor" d="M461.75 244.9c-1.21 11.1-6.12 22-13.49 32-45.88 61.71-99.74 116.1-156.35 167.75-24.23 22.1-48.18 20.91-72.59-1.26q-74.65-67.8-147.89-137.16c-26.93-25.41-27.31-35.92-6.05-67.31 27.42-40.48 62.39-74.34 96.12-109.26 20.12-20.83 41.23-40.71 61.14-61.74 18.71-19.76 39.66-22.15 59.7-5.43 59.54 49.67 115.47 103.4 170.4 158.1 5.98 5.96 9.11 14.1 9.01 24.31ZM259.38 380.45c3.9-1.64 12.11-2.91 17.21-7.58C312.36 340.05 346.94 306 374.88 266c7.69-11 8.95-23.6-1.46-33.31-32-29.9-64.39-59.48-97.47-88.21C262.73 133 248.39 135.19 236 148c-30.51 31.55-61.28 62.84-91.55 94.6-15.62 16.4-15.67 32.45 2.11 48.26 28.6 25.41 56.64 51.46 84.82 77.34 7.08 6.45 14.62 11.63 28 12.25Z"/>
    </symbol>

    <symbol id="sign-4">
     <path color="currentColor" d="m219 457.88-10.83.1c-18.18-16.71-30.22-37.62-41-59.45C145.22 354.17 123 310 101.2 265.57c-25-51-51.29-101.58-74-153.64C14 81.81 25.05 66.41 55.89 63.86 187.36 53 319.09 53 450.85 55.12c5.58.09 11.33.37 16.68 1.79 13.8 3.65 24 11.06 22.64 27.28-1.28 15.32-10.21 24-25.32 24.82-17.71 1-35.7 2.6-53.2.65-29.53-3.27-44.51 10.85-54.58 36.58-19.4 49.54-39.08 99-61 147.5-24.85 55.08-40.95 114.35-77.07 164.14Zm-39.1-347.69c-18.24-8.16-36.91-1-55.28-.92-26.13.16-29.76 8.07-21.86 33.72 19.43 63 55.31 118 84.63 176.22 4.47 8.86 10.09 19.63 22.08 19.09s16.49-11.23 20.43-20.69q37.17-89.08 73.8-178.37c7.36-17.94.85-30.38-18.16-32.17-25.82-2.42-52.06-6-77.57 3.15Z"/>
    </symbol>

    <symbol id="sign-5">
      <path color="currentColor" d="M482.79 96.17c-.13 3-.38 6-.65 8.93l-.64 6.47-.15 1.67v1.13l-.17 4.61-.32 9.23-.66 18.46-2.59 73.85-5.05 147.7-1.25 36.93-.06 2v4.2l.13 4.46c.1 3 .15 5.95.1 8.88a80.48 80.48 0 0 1-.66 8.61 51.84 51.84 0 0 1-4.63 15.59 44.36 44.36 0 0 1-9.59 13 48.49 48.49 0 0 1-13.55 8.79 64 64 0 0 1-16.12 4.41 110.47 110.47 0 0 1-17.53 1c-1.48 0-3 0-4.45-.11l-3.48-.18-5.2-.34-8.89-.64-2-.11-1.88-.09-4.06-.1-18.47-.37-147.76-3c-52.25-1.07-104.56-4.49-103-29.32s52.45-30.56 110-29.85c50.15.62 100.3 1 150.19 1.25h14.35l2.78.08 2.68.11c3.51.16 6.76.37 9.75.54l4.23.22h1.76a6.9 6.9 0 0 0 1.83-.4 1.52 1.52 0 0 0 1.06-1.31 7.09 7.09 0 0 0-.21-1.71v-.2l-.05-1.92v-5.67l.17-9.25.68-36.92q1.39-73.67 3.15-145.5.92-35.85 2-71.09.28-8.81.58-17.57l.29-8.75.08-2.27c.05-1.28.12-2.41.19-3.41.15-2 .32-3.71.47-5.21v-.13a.27.27 0 0 0 .07-.12.32.32 0 0 0-.19-.3h-.41l-1.82.17-3.91.37c-2.75.25-5.78.54-9.5.72l-1.47.05h-4.2l-3.9-.05-7.77-.12q-31-.51-61.28-1.33l-124.22-.93-58.81-.52-14.41-.13-4.07-.05c-1.6 0-3.08-.1-4.46-.18-2.76-.15-5.23-.33-7.6-.49l-6.71-.45-3.12-.17-1.5-.06h-.24a12.47 12.47 0 0 0-1.84 0 4 4 0 0 0-1.81.5 2.43 2.43 0 0 0-.86 1.61 10.73 10.73 0 0 0-.2 1.9v1.47l.08 1.51c.13 2 .28 4.13.46 6.32l.56 6.88.29 3.87.13 2.18v2.49l.19 13.84.36 27.16 1.2 107.29c.47 49.76 6 116.39-22.21 120.3-29 4-31-58.5-34.61-116.47q-3.69-58.49-5.87-117l-1.07-29.26-.12-3.66v-.89l-.1-1.19c-.15-1.8-.39-4.12-.63-6.54l-.74-7.68-.34-4.09-.14-2.11-.21-3.56c-.42-9.7-.17-19.52 2-28.46A48.61 48.61 0 0 1 43.67 52.3a38.94 38.94 0 0 1 5-4.4 49.1 49.1 0 0 1 5.6-3.62 57.7 57.7 0 0 1 12.53-5.15c8.9-2.54 18.69-3.28 28.43-3.18h3.45l2.14.07 4.14.18 7.7.46c2.42.16 4.72.3 6.61.39l1.33.05h4.6l29.29.12 58.57.36 117.18.78 57.88.25h8.98l1.18-.08 1.37-.11c1.92-.16 4.23-.41 6.69-.66l4.37-.45c2.34-.22 4.69-.4 7-.54 9.35-.57 18.68-.2 27.14 2a53 53 0 0 1 22.47 11.69 43 43 0 0 1 5.49 6 44.9 44.9 0 0 1 4.22 6.85 53.16 53.16 0 0 1 4.83 15.51 85.38 85.38 0 0 1 .93 17.35ZM205.61 282.98a55.82 55.82 0 0 1-7.44-23.65c-.08-1.1-.14-2.2-.17-3.3s0-2.06.06-3.09.09-2 .17-3.05.24-2 .38-3 .32-2 .5-3 .44-1.93.68-2.88.51-1.91.79-2.85.61-1.79.93-2.68a63.38 63.38 0 0 1 9.89-17.5 79.72 79.72 0 0 1 11.11-11.41c3.25-2.76 6.93-4.59 11.55-2.63 3.33 1.38 13.42 3 15.75.62a16.36 16.36 0 0 1 9.26-4.43 39.56 39.56 0 0 1 10.92.05 48.44 48.44 0 0 1 27.55 13.15 52 52 0 0 1 10.18 13.63 54 54 0 0 1 5.28 15.61 57.84 57.84 0 0 1 .56 15.74 57.61 57.61 0 0 1-3.68 15.3 59.31 59.31 0 0 1-8 14.34 56.55 56.55 0 0 1-8.68 9.18c-1.07.91-2.13 1.72-3.21 2.55a59.42 59.42 0 0 1-21.35 10 58.18 58.18 0 0 1-23.94.81 56.93 56.93 0 0 1-12.3-3.65 58.06 58.06 0 0 1-10.88-6.2 57.75 57.75 0 0 1-15.91-17.66Z"/>
    </symbol>

    <symbol id="sign-6">
      <path color="currentColor" d="M237.77 57.25c20.09-8.42 36.46-1.09 51 12.48 39.84 37.07 72.9 80.15 107.41 121.92 8.85 10.72 10.55 21.83-.39 32.43-11.5 11.13-24.21 10.39-35.19.52-13.16-11.84-24.77-25.41-37.06-38.21-6.14-6.39-10.54-18.23-21.7-13.55-9.88 4.13-9 15.8-9.1 24.88-.38 33.66-1.79 67.45.49 101 2.79 41.24-1.48 82.25-.4 123.37.53 19.92-4.71 36.28-28.57 36.28-22.88 0-26.41-16.61-27.1-34.83-2.84-74.74-5.51-149.49-8.93-224.2-.43-9.41 3.11-23.35-9.69-26.56-9.84-2.47-15.42 8.95-21.78 15.48-8.47 8.7-15.8 18.56-24.55 27-24.22 23.24-40.71 22.61-63.66-1.56l.38-11q64.26-72.76 128.54-145.4Z"/>
    </symbol>

    <symbol id="sign-7">
      <path color="currentColor" d="m246.35 42.82 10.91-.29c11.43 12.37 23.26 24.6 29.57 40.55q68.06 172.1 135.76 344.34c4 10.18 5.09 20.46-4.74 28.06-10.14 7.84-21.11 5.95-31.71.53-10.95-5.6-14.95-16.23-18.79-26.87-17.77-49.24-35.29-98.58-53.35-147.72a6460.88 6460.88 0 0 0-41.8-110.06c-3.09-8-8.22-15.4-18-15.63-9.94-.24-14.46 7.3-18.15 15.17-2.78 5.93-6 11.72-8.06 17.9-16.33 48.74-32 97.71-48.73 146.31-13.09 38-27.09 75.64-41.36 113.18-7.25 19.08-23 25.4-41 18.43-17.64-6.83-8-22.09-6-34.17.91-5.47 3.29-10.71 5.23-16 29.1-78.92 56.63-158.48 88-236.5 18.65-46.5 30.53-96.48 62.22-137.23Z"/>
    </symbol>

    <symbol id="sign-8">
      <path color="currentColor" d="M110.14 235.27c0-62.18-.26-107.1.07-152C110.5 43.89 135 30.71 170.07 52c40.14 24.4 73.15 58.11 109.77 87.13 33.71 26.72 67.74 53 101.21 80 25.65 20.71 27.65 31.61 7.3 56-59.19 70.86-131.64 127.35-205.11 182-35 26-59.19 11.76-64.59-31.7-8.56-68.92-9.36-138.12-8.51-190.16Zm133 103.5c32.42-16.57 53.55-45.71 78-71 9.14-9.44 7.53-21.88-2.12-30.16-37.59-32.24-75.63-64.25-119.26-88-16.81-9.16-32.76-3.51-33.67 18.58-2.7 65.52 1.61 130.84 8.59 196 1.58 14.76 8.93 21.06 22.52 12.22 15.47-10.06 33.1-17.86 42.47-35.37a12 12 0 0 0 3.49-2.27Z"/>
    </symbol>

    <symbol id="sign-9">
      <path color="currentColor" d="M241 252a32 32 0 0 0 10-2 41 41 0 0 0 15 3c12 0 26-4 33-15 6-10 3-22-2-31-8-16-24-30-41-36a35 35 0 0 0-34 7c-10 8-14 22-12 35 2 17 10 38 31 39ZM493 312c-2-25-24-22-41-22l-155-5c-73-5-157 2-241 4-19 0-36 6-37 28s18 24 35 24l240 1c53 1 106 3 159-2 20-2 41-3 40-28Z"/>
    </symbol>

    <symbol id="sign-10">
      <path color="currentColor" d="M429.2 174.7c-30.3 20.5-57.1 46.6-87.8 57.7-17.4 9-32.3 17-47 24.2q4.4 8.2 8.5 16.4c29.3 51.8 54 94.4 77.5 137.5 8.2 15 23.8 32.6-1.6 49.2-26 17.2-37.6-1-50-16.9-33.6-42.6-58.9-90.2-86.1-136.7C201.6 236 159.3 166.6 117.4 97c-9.3-15.4-16.5-32.2 6.5-45.7s38.2-2.2 48.9 14.5c29.2 46 60.8 90.6 88.5 134.3 14-10.9 30.1-18.4 45.5-27 30.5-17.1 60.2-35.3 90.2-53.2 6.6-4 14.6-5.8 28.3 17s11 33 3.9 37.8ZM126 255.4a49 49 0 0 0-36.6 16.8A41.6 41.6 0 0 0 77.1 298a30.4 30.4 0 0 0 8.4 22.5l1 1c2 7.7 6.5 15 12 21.3 8 9.2 20.3 14.2 32.4 10.6 9.8-2.9 17.6-11 22-20 7.3-15.5 11.7-35.3 6.6-52.1a36.5 36.5 0 0 0-33.5-25.8Z"/>
    </symbol>

    <symbol id="sign-11">
      <path color="currentColor" d="M410.7 193.4a41.4 41.4 0 0 0-1.4-10.3l-1.3-4-.4-1-.4-.9-.7-1.6-.8-1.5-.8-1.4-1.5-2.5-1.5-2-.7-1-.7-1-2.6-3-1.2-1.3-1-1.1-2.1-2-3.2-2.9-.9-.8-3.2 3.3-1.8 1.9-1 .9 6-6.1-.1-.2-.4-.3-5-5-10-10-40.4-40.2-45-44.9a133.7 133.7 0 0 0-9.9-9.3 73.3 73.3 0 0 0-10.4-7.3 49.6 49.6 0 0 0-22.3-6.4 49 49 0 0 0-6 .2 49.8 49.8 0 0 0-6 1 45.2 45.2 0 0 0-10.5 4l-2.4 1.5-2.3 1.6a51.5 51.5 0 0 0-4.7 3.6 63.6 63.6 0 0 0-8.9 9.8l-23.2 32-16.4 22.5-48.3 65.9-.2.3-1.2 1.4-4 5a60.2 60.2 0 0 0-5.7 9 41.7 41.7 0 0 0-3.4 8.7l-.4 1.4-.1.7-.2.8-.6 3.5c-.2 1.1-.2 2-.2 3v2.8l.1 2.9.3 2.6a48.5 48.5 0 0 0 3.1 11.5l.8 1.8 1.7 3.4c.6 1.2 1.1 1.8 1.7 2.8a54.4 54.4 0 0 0 3.3 4.7l1.6 2 1.5 1.7 1.4 1.5 1.4 1.5 4.8 4.5 3.7 3.3 1.2 1.1.4.4 5.5 5.8 12.4 13.2q24.8 26.4 50 52.5l11.3 11.7-21.3 24.5-22.5 25.9-5 5.5-5.4 6c-3.6 4-7 8-10.2 12a142.5 142.5 0 0 0-15.5 23.4c-3.8 7.5-6 14.6-6.1 21.1a24 24 0 0 0 1.6 9.2 21.6 21.6 0 0 0 5.3 7.6 23.2 23.2 0 0 0 7.6 5 19.5 19.5 0 0 0 4 1 23 23 0 0 0 4.2.2 43 43 0 0 0 19-6.8 148.8 148.8 0 0 0 21.4-16q5.5-4.8 11-10.2a364 364 0 0 0 11.5-11.5l45.8-51q22.8 22.6 46 44.6l3.4 3.1 2 2 .9.8.9.8 1.8 1.6 1.7 1.5 3.5 3c4.5 3.9 9 7.5 13.4 11 8.7 7 17.3 13 25.2 17.5s15.3 7.1 21.8 7.2a24.2 24.2 0 0 0 4.8-.4 21.3 21.3 0 0 0 4.5-1.4 24.5 24.5 0 0 0 8.3-6.3 18.9 18.9 0 0 0 4.6-9.3 23.7 23.7 0 0 0-.4-10.2c-1.8-7-6.2-14.4-12-21.7a235.4 235.4 0 0 0-20.7-22L351.5 396c-3.8-3.6-6.1-6-9.8-10-15-16.5-30.2-32.9-45.5-49.5L392.6 229l1-.9 3.3-3.2a65.2 65.2 0 0 0 5-5.8l.7-1 .9-1.2.8-1.3 1-1.6.5-.8.2-.4.3-.5 1-2.1.5-1.1a45.4 45.4 0 0 0 1.4-4.3 40.7 40.7 0 0 0 1.5-11.4Zm-62.9-16.6Zm-202 32.7Zm-2.7-.2h.3-.3Zm110.3 76.4-2 2.4-2.4-2.5-49.6-53.4-13-14-6.5-7-1.7-1.7-.4-.5-.2-.2-.4-.4-.3-.3 40.5-54.8q9.4-12 18.9-24.5l9.4-12.5 1.2-1.5.6-.8.3-.4H248.1a.4.4 0 0 1 .4.2.5.5 0 0 1 0 .3l.2.2 1.3 1.2 2.5 2.5 10 10 20.2 19.8q20.3 20 41.2 40.2l7.5 7.2-33.7 39Zm93.5-76Zm24.9-15.6H371.4Z"/>
    </symbol>

    <symbol id="sign-12">
      <path color="currentColor" d="M222.05 181.78c0-29.93-.38-59.87.13-89.79.33-19.95 8.32-34.92 30.64-36.37 23.44-1.52 28.05 15.11 28.63 33.09 1.78 55.19 3.4 110.39 3.82 165.6.17 22.73 6.41 40.75 22.37 58 29.2 31.52 55.68 65.56 83.29 98.56 10.43 12.47 17.94 27.13 3 39.32-12.93 10.57-28.69 7.19-40.45-5.3q-35.58-37.8-70.36-76.36c-16.8-18.55-32.69-18.81-49.59.08-21.2 23.7-43 46.92-64.74 70.11-7 7.49-14.41 15-25.4 16.49-11.92 1.66-22.58-.69-29.69-11.3-7.56-11.31-3.73-21.28 4.56-30.42 27-29.81 53-60.64 81.38-89.12 22.2-22.3 32.35-46.32 28.1-78.09-2.82-21.14-.53-43-.53-64.47Z"/>
    </symbol>

    <symbol id="sign-13">
      <path color="currentColor" d="m351 318.55-3.44 16.14c-5.86 4.72-8 10.74-6.27 18.07L337 367.94c-4.29 2-5.15 5.83-5.31 10L287.71 430l-16.58 10.84c-12.59 3.55-25 7.73-37.78 10.54C138.52 472.3 61.4 425.48 41.7 330.9 25 250.61 35.76 168.65 34.61 87.43c-.25-18.05 11.48-27 29.46-26.27 18.59.71 26.58 12 26.71 29.39.44 58 .51 116.05.85 174.07.17 30.33 5 59.92 19.3 86.88 16 30.3 41.84 48.75 76.45 48.84 38.52.1 68.15-16.88 84.83-53.57 16.47-36.23 18.46-74.21 14.7-112.79-4.29-43.93-2.57-87.91-2.23-131.85.25-32.94 13.9-45.81 46.5-46.26 34.61-.48 69.24.09 103.86.16 38.95.07 42.49 3.47 44.72 43.21l-21.86 14c-29-5-57.58 2.12-86.37 3.12-11.68.41-21.81 6.79-18.18 22.11-1.62 18.63-5.63 37.29.5 55.85q-1 5.74-1.92 11.49c-3.39 26.4-5.64 52.78 1.3 79l-.82 22q-.69 5.89-1.41 11.74Z"/>
    </symbol>

    <symbol id="sign-14">
      <path color="currentColor" d="m405 156 2 6 2 7v3l1 3 2 6 2 13v6l1 7a170 170 0 0 1 0 26 110 110 0 0 1-5 28l-3 7-4 7c-2 2-2 4-3 7l-5 5a114 114 0 0 1-18 19l-1 1h-1l-1 1h-1l-1 1a15 15 0 0 1 2 2v2h1v1l2 3 16 32 27 57 12 21a211 211 0 0 1 11 20c3 6 5 12 5 18s-3 12-8 18-11 8-17 8-13-4-20-9-13-12-19-19l-17-25a831 831 0 0 1-51-90l-1-3-2-3-5-8a66 66 0 0 0-6-7l-3-3c0-2-2-3-3-4l-25-29 37-22 18-11 4-3 2-1 1-1 1-1 1-1a37 37 0 0 0 7-8 28 28 0 0 0 2-3 36 36 0 0 0 1-5 58 58 0 0 0 1-12 132 132 0 0 0-1-16v-3l-1-2v-4l-1-2v-2l-1-4v-2l-1-2-1-4-3-7-1-3-1-3-2-5-3-5-1-3-1-2-3-5-3-5a56 56 0 0 0-4-4l-1-3-2-2-8-8-2-2-1-1-1-1-4-4a114 114 0 0 0-18-13l-2-1-2-1-5-3a95 95 0 0 0-10-4l-5-1-3-1h-2a108 108 0 0 0-11-2 110 110 0 0 0-43 3 93 93 0 0 0-36 20l-2 2-1 2-2 1-2 2a92 92 0 0 0-6 9 106 106 0 0 0-10 19l-2 5-2 5-1 3v1l-1 1-1 6a52 52 0 0 0-1 5v3a23 23 0 0 0-1 2v12a127 127 0 0 0 1 22l3 11v3a25 25 0 0 0 1 2l2 6 1 2 1 2 1 5 2 4 2 5 2 4 1 2v2a63 63 0 0 1 2 6l1 2a35 35 0 0 1 1 8v4a25 25 0 0 1 0 4 27 27 0 0 1-8 14c-5 5-11 7-17 7a29 29 0 0 1-4 0 26 26 0 0 1-5-2 50 50 0 0 1-10-5 87 87 0 0 1-10-8 115 115 0 0 1-6-8l-2-3-4-6-2-4-2-3-4-8-2-7-2-4-1-5-2-8-2-9-1-4-1-5-1-8v-9l-1-9v-9l1-9v-5l1-4 3-18 1-4 2-5 1-4 1-4a179 179 0 0 1 7-17 168 168 0 0 1 19-31l6-8 3-3 3-4 4-3 3-3 4-3 4-3a165 165 0 0 1 15-11 166 166 0 0 1 33-15l9-3 4-1 3-1h2a176 176 0 0 1 88 3 167 167 0 0 1 17 6l2 1 2 1 4 2 4 2 2 1 2 1 8 4 2 1 1 1 4 3 4 2 1 1 2 2 7 5 1 1 2 2 3 3 3 3 2 1 1 1 6 6 2 2 1 2 3 3 2 3 3 3 5 7 4 7c1 3 3 4 5 6l3 7 2 4 2 3 3 8c2 2 2 5 3 7l6 15Z"/>
    </symbol>

    <symbol id="sign-15">
     <path color="currentColor" d="M317.08 302c0-41.12 2.46-82.41-.58-123.3-4.47-60.06-50.76-86.37-98.66-59.06-17.64 10.06-25 27-31.69 44.65-4.72 12.45-12.49 23-27.12 16s-9.18-17.6-1.23-27.45c2-2.47 2.9-6.78 2.55-10-4.32-40.05 11.21-64.46 48.74-76 70.4-21.61 133.39 19 143.47 91.52 7.76 55.86 5.15 112 5.19 168 0 32.56 9.05 64.93 1.18 97.71-3.17 13.2-4.61 27.51-22.05 27.07-17.94-.45-19.31-15.12-19.44-28.51-.37-40.18-.13-80.37-.13-120.55Z"/>
    </symbol>

    <symbol id="sign-16">
      <path color="currentColor" d="M182.1 229.86c0 43.91.15 87.82 0 131.73-.14 30.88 6.27 39 36.41 40.25 42.92 1.72 85.89 2.32 128.85 3.12 12.19.23 24.34-.16 35.71 5.26 12.87 6.14 16.36 17.57 15.55 30.31s-10.46 16.83-21.38 18.22c-74.6 9.5-149.18 7.16-223.64-1.4-19.23-2.21-29.71-14.34-31-33.92-7.43-113.78-11.74-227.65-7.68-341.68.72-20.16 10.22-34.2 32.38-34.63 22.77-.45 31.84 14.25 32.15 34.19.75 49.51.25 99 .25 148.55Z"/>
    </symbol>

    <symbol id="sign-17">
      <path color="currentColor" d="m155.4 257.39.13 16.65c-1.64 32.57-3.87 65.12-4.7 97.7-.45 17.62 7.22 32.67 26.55 33.49 52.13 2.23 104.42 5.79 156.34-3.77 23.1-4.25 33.35-17.77 32.42-41.24-1.47-37.3-1.76-74.64-3.19-111.93-1.7-44.76-4.17-89.5-6.12-134.25-.91-20.92 8.71-34.6 29.91-36.66 20.34-2 31 9.31 33.38 29.32.65 5.42 3.14 10.62 4.78 15.93l.89 16.28c-.56 12.06-1.66 24.13-1.59 36.19.39 74.58 1.85 149.16 1.3 223.72-.34 46.31-10.69 55.37-56.67 55.82-75.46.75-150.91 1.19-226.37 1.75l-10.82-.8c-30.37-9.37-38.74-31.68-41.55-61.44C85.69 347.52 87 301 86.51 254.4c-.56-55-.38-110.06.89-165 .65-27.9 24.73-42 45.43-28.7 12.45 8 10.58 20.68 11.89 32.49 6.07 54.54 1.28 109.81 10.68 164.2Z"/>
    </symbol>

    <symbol id="sign-18">
      <path color="currentColor" d="M231.36 224.22c0-46.41-.32-84.69.17-123 .18-13.38-3.09-31.23 17.09-32.61 20.73-1.43 21.5 15.35 23.52 30.9 5.44 41.81 4.48 83.78 5 125.76.83 63.28 2.58 126.56 4.05 189.84.33 14-1 28.13-18.79 28.29s-22.9-13.34-23.59-28.8c-2.92-66.13-10.23-132.12-7.45-190.38Z"/>
    </symbol>

    <symbol id="sign-19">
      <path color="currentColor" d="M435 416 324 275l-23-30c42-48 84-102 128-153 15-18 23-37 6-53s-33-2-47 14L260 196 143 64c-15-17-33-28-51-14s-7 33 6 48l120 145-20 22c-42 46-85 91-123 142-13 19-30 38-8 56l3 2c5 7 14 8 23 8l193 5c42 1 85 5 127 0 6-1 12-1 17-3 5 0 11-2 17-8 20-18 0-36-12-51Zm-293 0 100-108 16-16 17 20c29 36 58 74 90 108l-76-3c-45-6-96-3-147-1Z"/>
    </symbol>

    <symbol id="sign-20">
      <path color="currentColor" d="m77.78 247.2 1.62-22.11c11.11-20.59 11.47-44.48 23.13-65.59C152 69.81 274.8 42.92 356.94 105.27c7.38 5.61 15.6 10.1 23.43 15.11a9.55 9.55 0 0 0 2.13 3.46c11.61 26.29 30.24 49.23 35.32 78.69 6 34.56 7.51 68.74-1.34 103-1.77 6.86-5.8 15.13 2.23 20.56 6.35 4.3 12.52-.48 18.39-3.13 7.67-3.47 15.07-7.65 23-10.45 11.9-4.23 24.86-6.92 32.12 6.91 6.66 12.68 5.91 27.46-6.56 35.47-47.22 30.3-95.88 58.26-149.14 76.83-14.47 5-28.65.88-37.11-12.5-10.07-15.93 3.78-25 13.73-32 65.58-45.75 63.63-191.11 12.58-233.83-50.85-42.57-139.33-28.31-168.41 31.66-27.31 56.22-22.26 146.21 33.74 193.89a169.89 169.89 0 0 1 14.11 13.65c9.22 9.92 11.75 21.65 5.46 33.61-6.48 12.34-19 17.32-31.18 12.77C127.82 419.73 77 398.47 31.28 367c-13.46-9.26-21.1-23.73-11-38.71 9.29-13.75 25-9.13 38.59-5.46 4.45 1.2 8.62 3.61 12.76 5.77 18.71 9.81 21.92.36 18.33-15.4-4.96-21.82-10.96-43.44-12.18-66Z"/>
    </symbol>

    <symbol id="sign-21">
      <path color="currentColor" d="m292.7 429.69-2 10.95c-37.58 16.08-56.82 7.7-57.62-29.9-2.2-103.49-7-207-1.82-310.55.84-16.7 6.71-29.51 25.65-30.49 18.64-1 27.51 10.64 29.19 27.25a809.1 809.1 0 0 1 3.79 67c1.57 88.55-2.18 177.19 2.81 265.74ZM157.1 103.53c-1.44-18-4.91-35.13-27.28-35.32-21.4-.17-27.46 16.46-30.35 34-1 6.35-.28 13 0 19.58 3.12 64.46 8.25 128.82 7.53 193.46-.41 36.48.55 73 1 109.47.29 22.72 13.73 29.88 33.56 25.42 18-4 21.06-19.24 21.07-35.18V280.2c.15-58.94-.86-117.85-5.53-176.67Zm255 196.25c0-28.95 1.82-58-.43-86.83-3.35-42.77-.56-86-9-128.38C399.82 70 392 60.2 376.48 60.59S353.6 72.11 351.09 86c-1.65 9.11-1.75 18.59-1.69 27.9.36 63.52.6 127 1.59 190.55.61 39.2 2.32 78.4 3.85 117.58.53 13.47 6.21 23.36 21.06 25.31 14.59 1.92 25.61-3 32.29-16.51 4.73-9.57 4.77-19.9 4.81-30.16.11-33.63 0-67.26 0-100.89Z"/>
    </symbol>

    <symbol id="sign-22">
      <path color="currentColor" d="m210 457.88-45.3-2.28-10.28-1.22c-11.79-14.45-29.21-10-44.22-12.2-19.23-2.83-24.79-13.93-24.45-31 .36-18.49 10-27.73 28.14-27.13 19.59.65 39.27 1.25 58.69 3.66 49.66 6.15 99 3.45 147.93-5.12 13.32-2.32 30-6.76 30.85-23.71.74-14.66-14.55-17.26-25.62-21.95-20.49-8.69-42.26-6.12-63.56-8.13-49.07-4.64-99.09-5.44-144-30.17C96 286.34 83.34 269.09 85.35 241.9c2-26.22 17.32-39.73 39.24-49.45 14.7-6.51 30.13-9 45.68-12.33 46.76-10.12 95.26-4.48 141.58-17 12.12-3.27 25-7.94 23.5-23.23s-14.17-21.68-27.79-23.32c-20.34-2.45-40.66-4.64-61.44-3.51-43.85 2.39-87.78 3.29-131.7 4.06-13.58.24-26.42-2.72-28.64-20.12-2.14-17.11 5.35-26.16 22-29.67 8-1.7 15.51-6 23.24-9.17l11.11-1.24c27.13 2.9 54.07-.72 81.11-1.92 46.7-2.07 93.46-1.79 137.62 16.93 32.29 13.68 47.66 38.07 45.35 69.88-2.22 30.63-23.12 53.76-54.06 64.33-33.56 11.45-68 11.41-102.48 11.32a223.22 223.22 0 0 0-71.63 11.5c-8.49 2.82-15.46 7.92-15.65 17.59-.16 8.84 7 12.53 14.17 15.37 6.08 2.4 12.11 6.44 18.32 6.76 46.63 2.38 92.17 15.89 139.23 13.54l10.7 1.78c4.77 2.8 9.23 6.49 14.36 8.26 64.27 22.18 75.75 41.7 63.17 108.23l-.13.2c-8.44 2.59-14.32 7.91-17.37 16.25L390.35 425l-86.88 25.31-9.12 2.51-11.35 1.43-10.87 1.11c-20.78-1.36-41.66-4.25-62.13 2.52Z"/>
    </symbol>

    <symbol id="sign-23">
      <path color="currentColor" d="M240 61.55c29.53 0 53.84-.58 78.12.15 33.71 1 41.14 12.86 27.06 44.7-15.48 35-31.32 69.94-49.11 103.8-11.4 21.7-10.68 38.5 4.76 58.57 33 42.92 63.51 87.81 94.93 132 7.7 10.83 15.69 22.55 8.49 36.07-7 13.11-21.15 9.76-32.86 10.05q-91.05 2.29-182.13 3.75a269.3 269.3 0 0 1-33.61-1.29c-35.65-3.87-44.47-17.64-28.65-50.52 18.56-38.71 38.31-77.1 61-113.48 17.22-27.62 18.32-48.2-3.67-74.89-26.53-32.21-53.53-65-71.91-103.25-12.8-26.63-10.69-30.29 18.47-38.31 37.61-10.36 76.24-4.73 109.11-7.35Zm15 337.86c12.14 0 24.3.27 36.44-.1 8.32-.25 17.54.06 21.43-9.66 3.38-8.45-2.84-14.12-7.37-19.87-12.13-15.41-25.54-29.92-36.5-46.1-12.17-18-22.43-17.35-33.61-.08a298.38 298.38 0 0 0-11.49 19.23c-9.08 16.69-31.7 33.23-21.68 50.84 8.93 15.81 34.56 4.78 52.78 5.74ZM247.36 102c-14.51 9.35-43.15-7.35-50.82 21.71-3.5 13.22 35.78 59 46.57 58.65 11.31-.4 39.72-45.11 38.39-61.14-1.7-20.34-17.59-17.91-34.14-19.22Z"/>
    </symbol>

    <symbol id="sign-24">
      <path color="currentColor" d="M207 242a48 48 0 0 0-1 20 50 50 0 0 0 9 20 51 51 0 0 0 75 8 52 52 0 0 0 12-16 20 20 0 0 0 2-5 16 16 0 0 0 0-4 13 13 0 0 0-4-8c-2-2-5-4-10-5l-16-1h-14a2 2 0 0 1 0-1 1 1 0 0 1 0 1h20l17-2c4-1 6-4 7-7a13 13 0 0 0 0-8 26 26 0 0 0-2-4l-1-2-1-1a46 46 0 0 0-15-18 48 48 0 0 0-10-5 49 49 0 0 0-13-3 51 51 0 0 0-37 12 52 52 0 0 0-5 5 53 53 0 0 0-5 6 45 45 0 0 0-8 18Zm5-127a179 179 0 0 0-20 6l-4 2-3 1-2 1-5 3-4 2-2 1-2 1-5 3-4 2-2 2-2 1-4 3-4 3-2 1-1 2-4 3a198 198 0 0 0-26 27 207 207 0 0 0-20 31l-3 6-1 3-1 3-2 3-1 3a43 43 0 0 1-3 6 23 23 0 0 1-5 5 21 21 0 0 1-6 3c-4 2-10 2-17 1-8-1-13-4-17-8a21 21 0 0 1-4-6 26 26 0 0 1-2-7 40 40 0 0 1-1-5 42 42 0 0 1 1-4v-7l1-2 2-9 4-10 4-12 3-6 3-6 3-6 4-6 3-6 2-3 2-3 4-5 4-5 2-3 2-3 5-5 4-5 3-2 2-2 5-5 5-5 3-2 2-2 6-4 5-4 3-2 3-2 6-4 5-4 3-1 3-2 6-3 6-3 4-2 3-1 6-3 6-2 4-1 3-1 6-2 7-2 3-1 3-1a237 237 0 0 1 82-6 234 234 0 0 1 79 22 242 242 0 0 1 66 48 251 251 0 0 1 46 65l4 8 3 9a64 64 0 0 1 1 8 34 34 0 0 1 1 7 21 21 0 0 1-6 12c-3 4-7 7-14 8a40 40 0 0 1-17 1 30 30 0 0 1-7-2 32 32 0 0 1-5-3c-8-5-13-13-18-21a176 176 0 0 0-63-67 178 178 0 0 0-27-13 185 185 0 0 0-55-12 222 222 0 0 0-55 3Zm-6 349a230 230 0 0 1-55-20l-3-2-3-2-6-3-11-7-11-8-5-4-5-5-5-4-5-4-9-9a244 244 0 0 1-16-19 257 257 0 0 1-27-46l-2-4-3-8a59 59 0 0 1-5-17c0-5 1-10 3-14s8-8 15-10c7-3 13-3 18-2a23 23 0 0 1 7 2 27 27 0 0 1 6 4c6 6 11 16 17 24 15 22 32 42 53 58a186 186 0 0 0 32 21l9 4 5 2 4 1 5 2 4 1 5 2 5 1a158 158 0 0 0 29 3h14l4-1h7l4-1a160 160 0 0 0 55-20 178 178 0 0 0 45-38 194 194 0 0 0 32-51c4-8 7-16 13-22a23 23 0 0 1 10-6c5-1 10-1 16 1s12 4 16 7a25 25 0 0 1 7 13 35 35 0 0 1 1 8 58 58 0 0 1 0 8 78 78 0 0 1-2 9l-2 5-1 4a272 272 0 0 1-44 72 240 240 0 0 1-64 54 213 213 0 0 1-79 27h-7l-3 1h-30a192 192 0 0 1-38-7Z"/>
    </symbol>

    <symbol id="sign-25">
      <path color="currentColor" d="M318.72 322.4a7.89 7.89 0 0 0-3.41 2.88l-10.56 1.53c-24.59 5.27-18.3 24.8-17.63 40.51.71 16.95 14 20.19 28 20.79 16.78.71 33.64.6 50.33 2.2 14.08 1.34 21.65 10 21.15 24.67-.52 14.93-8.61 21.94-23.24 22-73.82.13-147.64.41-221.45.24-13.34 0-24.37-5.56-25.24-20.71-.92-16 9.26-24.31 23.81-25.83a473.78 473.78 0 0 1 53.15-2.34c18.68.15 33.28-3.45 36.65-25.39 3.22-20.95-4.2-33.15-24.94-40-55.92-18.5-80-62.41-85.12-117.12-5-53.51 16.47-94.55 67.06-117.88 4-1.83 6.85-6 10.24-9.11l10.29-2.2c26.84.24 53.37-4.67 80.63.61 49.36 9.56 92.42 51.4 104 105 10.8 50.23-8.64 94.44-54.52 124.58-6.92 4.5-15.42 7.17-19.2 15.57ZM255.09 281c49.47.65 88.46-30.55 88.22-70.6-.28-48-36.44-86.89-80.91-87-50.67-.09-90.89 36.35-91.47 82.84-.52 42.53 35.07 74.12 84.16 74.76Z"/>
    </symbol>

    <symbol id="sign-26">
      <path color="currentColor" d="M214.2 266h-13.6l-15.9-.2c-10.4-.2-20.7-.4-30.4-1a83.4 83.4 0 0 1-13.4-2 41.3 41.3 0 0 1-10.2-3.8 35.6 35.6 0 0 1-12-10.3l-1.7-3.2-.5-1v-.1c.2-.1-1.2.6-.7.2v-.1l-.1-.3-.2-.4a30 30 0 0 1-.6-1.7 30.2 30.2 0 0 1-1.3-6.8 28.9 28.9 0 0 1 .1-3.9l.2-4.2.1-2.2.3-2.3c0-.8.4-1.6.6-2.4l.7-2.5A57 57 0 0 1 121 207c2.2-3.7 4.7-7.5 7.3-11.3 5.1-7.6 10.5-15 15.8-22.4l8-11 4-5.5 2.1-3 8.7-11.5 17.3-22.7c11.4-15 22.9-29.6 34.5-44.2 8.2-10.2 16.8-22.8 26.7-30.9 5-4 10.4-6.8 16.1-7.6a22.8 22.8 0 0 1 9 .6 17.7 17.7 0 0 1 8.9 5.2c1.2 1.5 2.2 3 3.2 4.5l1.5 2 1.4 1.8a23.5 23.5 0 0 1 3.9 7.3 27 27 0 0 1-.8 16c-3.6 11.5-12.4 24.2-20.4 36.8q-16.2 25.5-33.3 50.3l-17.1 24.8-4.4 6.1-2.1 3.1-.3.4-.1.1a.8.8 0 0 0-.3.1 3.3 3.3 0 0 0-.4.3.6.6 0 0 0-.1.2c-.1.2 0 .3.1.5a2.3 2.3 0 0 0 .4.2h7.3l45.8-.2 22.9-.3 28.7-.5 22.3-.4 11-.1h11a46 46 0 0 1 17.3 4.2 41.9 41.9 0 0 1 10.8 7.1 35.9 35.9 0 0 1 3.8 4 32.2 32.2 0 0 1 2.2 3 30.8 30.8 0 0 1 1.9 3.7 31.7 31.7 0 0 1 1.9 5.6 39.7 39.7 0 0 1 .8 5l.3 3.2v3.5a28.9 28.9 0 0 1-.3 3.8 36.4 36.4 0 0 1-.7 4 47 47 0 0 1-3 9q-1 2.4-2.3 4.9l-1.5 2.4a9 9 0 0 1-1.9 2.4L286 439.2c-13.6 23.4-29.4 45.7-52.2 31.9s-15.8-40.3-1.3-66.3c14.7-26.5 29.1-53 43.4-79.5l21.2-39.5 5.3-9.8 2.6-5 1.3-2.4.3-.6.1-.1v-.1a3 3 0 0 0 0-1 .6.6 0 0 0-.5-.5 1 1 0 0 0-.3 0 2.3 2.3 0 0 0-1 .4v.1l-10.3.2-11.7.2h-23.2c-15.4-.2-30.5-.5-45.5-1.2Z"/>
    </symbol>

    <symbol id="sign-27">
      <path color="currentColor" d="M445.85 249c5.24 99.55-82 211.12-187.87 207.83-104.93-3.26-191.44-92.24-192-204.87C65.34 143 154.19 55.13 265 55.13c99.55-.01 180.15 86.4 180.85 193.87Zm-316.65.87c-.19 73.8 57.93 138 126.28 138.6 78.58.7 126.61-65.55 128-139.39 1.32-73.45-58.08-132.38-125.23-132.22-74.87.14-128.86 55.5-129.05 132.98Z"/>
    </symbol>

    <symbol id="sign-28">
      <path color="currentColor" d="M228 91c13.77-9.36 27.1-22.35 45.51-13.09 19.42 9.77 17.55 28.77 17.66 46.65.4 68.19.73 136.39 1.61 204.58.51 40 4.81 43.8 46 45 5.61.16 11.22.16 16.82.4 18.59.8 37.68 3 38.72 26.82 1.08 24.6-16.33 30.85-37.33 31.41-40.15 1.09-80.28 2.63-120.43 3.58-27.08.64-54.19 1.29-81.26.64-25.33-.61-39.3-14.2-37.38-35.34 2.13-23.45 20.12-23.58 37.42-23.8 81.42-1.06 73.1 7.85 72.94-74.4-.12-67.21-1-134.43-1.51-201.64q.57-5.39 1.23-10.81Z"/>
    </symbol>

    <symbol id="sign-29">
      <path color="currentColor" d="M407.19 279.8a10.69 10.69 0 0 0 3.63 2.19c11.17 41.39-2.65 76.52-31.37 104.79C324.86 440.51 258 449.33 187 430c-26.23-7.14-48.1-24.36-63.05-48.65-32.37-52.58-24.46-132.92 18.71-177.21 15-15.35 32.21-28.43 47.8-43.19 6.54-6.2 16.92-12.78 13.69-22.78-3.65-11.3-16-6.8-24.72-7.13-17.75-.66-35.57.28-53.32-.51-13.5-.59-28-3.33-28.75-20.33-.81-18.77 12.59-26.13 29.3-26.92q120.47-5.69 241-10.55c15.24-.6 32.11.66 34.48 20.47 2.07 17.32-11.87 22.18-25.5 28.27C323.92 145 267 159.51 220 195.35c-39.25 30-65.68 65.92-59.8 118.66 3.84 34.38 22.5 59.73 55.25 66.09 34.44 6.69 69 5.46 100.24-14.61 16.36-10.52 27.47-24.09 32.2-43.85 10.65-44.4 13.38-45.72 59.3-41.84Z"/>
    </symbol>

    <symbol id="sign-30">
      <path color="currentColor" d="M439.6 255.06c0 50.51.08 101-.08 151.51 0 8.38.05 17-1.85 25.06-3.81 16.06-13.18 26.82-31.33 26.19-18.5-.64-26.57-12.13-28-28.92-2.29-26.16-5.15-51.93-15.88-76.47-19.73-45.13-64.62-72.82-111.94-67.85-56.48 5.93-100.25 43.6-108.66 93.93a275.57 275.57 0 0 0-4 36.21c-.75 22.17-7.9 40.66-32.84 40.14s-30.8-20.18-32.21-41.55C67.2 328 118.16 255.63 200.55 231.15c49.21-14.63 96-10 140.9 14.94 27 15 30.61 13 30.79-19 .24-44-.22-87.9-.17-131.85 0-21.2 3.93-41.35 30.67-41.08 25.83.25 31.49 19.6 31.59 41.05.24 53.28.08 106.57.08 159.85Z"/>
    </symbol>

    <symbol id="sign-31">
      <path color="currentColor" d="M385 254a70 70 0 0 0-13-34l-3-3-2-4-3-2-3-3a103 103 0 0 0-11-9 131 131 0 0 0-22-13 163 163 0 0 0-23-8 180 180 0 0 0-23-5 169 169 0 0 0-28-1 129 129 0 0 0-29 4 96 96 0 0 0-16 6l-5 2a134 134 0 0 1 4-16 127 127 0 0 1 8-20l2-5 1-1v-1h1l1-2v-1l1-1 1-1 1-2 2-2a99 99 0 0 1 15-13 171 171 0 0 1 20-12l24-13a158 158 0 0 0 21-13c12-9 19-20 16-33s-14-18-30-17a110 110 0 0 0-26 5 197 197 0 0 0-30 12 254 254 0 0 0-27 15 169 169 0 0 0-26 22l-4 3-3 3-3 4-3 3-1 2-1 2-3 4-1 1v1l-1 2-2 4a195 195 0 0 0-14 30 207 207 0 0 0-12 64 172 172 0 0 0 3 33 125 125 0 0 0 4 19l1 1a201 201 0 0 0-14 46 165 165 0 0 0 0 55v4l1 3 1 4 1 3 1 4 1 3 1 2v2l2 3a197 197 0 0 0 10 23 150 150 0 0 0 16 24 125 125 0 0 0 21 20 115 115 0 0 0 27 15 122 122 0 0 0 28 8 145 145 0 0 0 40 0 110 110 0 0 0 31-10l6-3a47 47 0 0 0 5-3 39 39 0 0 0 5-4 26 26 0 0 0 3-4c3-6 4-12 0-20a23 23 0 0 0-13-13 37 37 0 0 0-10-2 53 53 0 0 0-6-1h-5l-24 1c-8 0-16 0-22-2a60 60 0 0 1-13-4 55 55 0 0 1-11-7c-7-5-12-12-17-21a122 122 0 0 1-7-15l-2-4-1-4-1-3-1-4a93 93 0 0 1-1-30 121 121 0 0 1 2-13 258 258 0 0 0 39 16 206 206 0 0 0 44 9l12 1a123 123 0 0 0 13 0 104 104 0 0 0 28-7 84 84 0 0 0 27-17 82 82 0 0 0 11-12 89 89 0 0 0 8-14l1-4 2-4 1-5 1-2v-2a68 68 0 0 0 1-19Zm-70 7-1 1v1l-1 1a10 10 0 0 1-3 3 24 24 0 0 1-8 2 57 57 0 0 1-12 1c-9 0-19-2-30-5a194 194 0 0 1-32-12l3-4 3-2 1-2h1a14 14 0 0 1 3-2 44 44 0 0 1 12-2 88 88 0 0 1 17 0 113 113 0 0 1 27 7 74 74 0 0 1 11 5 38 38 0 0 1 8 6v1h1v1Z"/>
    </symbol>

    <symbol id="sign-32">
      <path color="currentColor" d="M442.32 110.46c-9.56 60.93-48.09 112.43-113.13 141.27-26.64 11.81-37.1 25.47-35.24 54.37 2.45 38.23.65 76.73.48 115.11-.1 22.53-5.52 42.74-32.79 43.11-26.39.35-27.35-21.17-28.56-40.07-2.7-42-5.77-84.08-6.47-126.16-.34-20.71-6.91-31.78-27.18-39.12-61.38-22.24-105-63.22-124.82-127-5.69-18.33-5.94-37.06-3.43-55.64C74.06 55 87.76 46.69 108.9 47.77c21.83 1.13 22.12 16 22 31.71-.31 50.57 18.48 91.13 62.83 117.64 21.94 13.11 30.63 8.34 31.4-16.85.88-29 .78-58 1.32-87.05.36-19.45 8.75-32.74 29.63-33.57 21.54-.85 29.52 12.39 30.46 32 1.39 29 3.32 57.93 4.43 86.92.88 23 10.56 25.32 27.93 13.31 35.14-24.31 54.35-58.81 62-99.76 3.78-19.83 7.1-38.12 32.84-36.37 18.82 1.25 29.11 17.88 28.58 54.71Z"/>
    </symbol>

     <symbol id="sign-33">
      <path color="currentColor" d="m308.35 233-8 .48q-6.35-3.92-11.59 1.52l-92.57-2c-5-6.74-11.67-9.2-19.84-8.06-9.54-3.4-17.08-11.61-28-11.64l-9-5.39c-4.56-12.76-17-18.7-24.79-28.71-.74-6.32-4.43-10.28-10.12-12.65a9.51 9.51 0 0 0-1.72-4c0-6.49-3.13-11-8.84-13.82l-3.2-8.6c1.82-9.68.58-18.53-6.93-25.69L83.09 101c4.38-16.22 7.4-33 20.39-45.4l22.74-.87a7 7 0 0 0 2.85 3c4.16 29.79 1.41 62 29 83.64l17.44 16.51c2.83 9.15 10.84 12.87 18.51 15.68 45.84 16.83 92 16.72 135-6.47 27-14.55 46.72-37.88 44.13-72-2.15-29.36 11.61-41.25 39.53-39.83l6.32 5.31c12.88 54.43-2.89 98.69-46.67 133.43-8.63 6.85-16 15.34-23.88 23.07a6 6 0 0 0-3.45 1.63c-13.91.3-26.85 3.3-36.65 14.3ZM116.3 338.3c-25 27.11-34.71 59.46-26 96 3.35 14.19 12.42 23.33 27.78 22.93 16.46-.42 21.58-11.76 23.6-26.17 1.81-12.9 3.13-26.27 7.65-38.31 20.56-54.7 106.35-79.78 166.94-50.2 36.16 17.71 53.73 47.28 59.73 85.84 2.51 16.19 11 29.08 29.75 26.73 16.81-2.1 22.16-15.09 23-30.57 1.22-22.9-2.81-44.1-14.23-64.67-33.41-60.2-86.25-82.24-155.76-80.55-53.56-1.46-103.26 16.49-142.46 58.97Z"/>
    </symbol>

    <symbol id="sign-34">
      <path color="currentColor" d="M254 262.33c59.94.29 115 54.83 114.93 113.94 0 51.26-45.61 98.86-94.88 99.06-59.51.24-117.34-56.18-116.42-113.58.84-55.6 43.57-99.67 96.37-99.42Zm3.73 53.08c-25.77.18-47 23.86-46.79 52.22.18 27.32 25.77 51.15 55.35 51.56 29.21.41 49.33-17.73 49.69-44.8.37-31.39-27.04-59.19-58.3-58.98ZM113.34 69.93c37.7 50 74.13 101.44 123.25 141.42 13.48 11 30.39 13.61 43.25-.61 40.16-44.4 79.8-89.3 118.47-135 13.52-16 3.59-35.81-17.37-38.74-13.51-1.89-23.31 4.62-32 14-18.37 20-37.13 39.57-55.24 59.76-34.08 38-47.08 38.33-80.86 1-18.23-20.12-36.52-40.19-54.34-60.66-7.83-9-16.44-15.2-27.06-14.34-21.66.89-30.9 16.24-18.1 33.17Z"/>
    </symbol>

    <symbol id="sign-35">
      <path color="currentColor" d="m456 224-166-1v-5c0-52 3-104-3-157-2-19-3-40-33-39-29 1-25 23-26 40l-5 154v6h-5c-52 0-104-3-157 3-19 2-40 3-39 33 1 29 23 25 40 26l154 5h5c1 53 5 109 6 165 0 19 7 36 33 36s28-17 29-35V292c53-1 109-5 165-6 19 0 36-7 36-33s-17-28-34-28Z"/>
    </symbol>

    <symbol id="sign-36">
      <path color="currentColor" d="M206.67 122.81c-14.52.92-34.09 2.33-53.67 3.36-15.62.82-28.63-3.46-30.14-21.54-1.59-19 10.19-27.57 27.34-28.14 71.78-2.38 143.56-4.64 215.36-5.83 24.24-.4 26.88 15.86 21.21 35-8.39 28.29-27.74 50.68-42 75.8-43.72 77.2-88.5 153.81-133 230.59a134 134 0 0 1-11 16.22c-9 11.38-20.66 17.43-34.25 9.45s-18.19-20.28-11.46-36c15.93-37.16 40.6-69.21 60.34-104.14 25.27-44.71 51.6-88.83 76.46-133.77 16.21-29.3 9-40.69-24.09-41-18.62-.13-37.31 0-61.1 0Z"/>
    </symbol>

    <symbol id = "sign-37">
       <path color="currentColor" d="M279.67 222.55c-9-8.34-22-11.08-34-9.84-16.17 1.66-36.53 8.51-37.26 27.88a26.4 26.4 0 0 0 1.13 8.49 35.19 35.19 0 0 0-2.59 13.91c.19 11.82 4 23.76 14.92 29.68 9.73 5.28 20.75 2.74 30.21-1.65 14.95-6.94 29.7-21.29 35.42-36.9 3.98-10.82.63-23.78-7.83-31.57Zm-23.45 26.18a.32.32 0 0 0-.08-.09l.2.11Zm-.54-.36.24.14.23.21c-.17-.11-.32-.23-.47-.35ZM418.21 292.32c-2.28 51.3-3.8 93.63-6.26 135.92-.85 14.77 2.06 34.66-21.39 35.21-24.09.56-24.16-18-25.74-35.31-4.24-46.48-1.06-92.82.37-139.25 2.15-70 3.24-140 4.65-210 .32-15.52 2.58-31 23.17-30.35s25.87 15.86 25.91 33c.16 73.22 5.38 146.53-.71 210.78ZM129.07 288.61c-2.28 51.3-3.8 93.64-6.26 135.92-.86 14.77 2.06 34.66-21.39 35.21-24.09.56-24.16-18-25.74-35.3-4.24-46.49-1.06-92.83.37-139.26 2.15-70 3.24-140 4.65-210 .32-15.53 2.58-31.06 23.16-30.36s25.88 15.86 25.92 33c.15 73.23 5.38 146.54-.71 210.79Z"/>
    </symbol>

    <symbol id="sign-38">
      <path color="currentColor" d="M393.03 106.26c19.2-23.17 30.89-48.02 11.05-65.73-19.88-17.74-39.6 1.4-57.36 22.13-80.1 93.49-159.88 187.27-240.7 280.13-9.26 10.57-18.53 21.14-27.79 31.71-9.04 10.27-18.08 20.53-27.11 30.8h-.05l-.2.16-.7.62-.74.68-.92.89-.45.45-.56.59c-.78.83-1.44 1.55-2.43 2.79-.45.57-.88 1.14-1.32 1.73-.53.75-1.03 1.51-1.51 2.29l-.7 1.18-.37.66-.39.74c-.51.99-.99 2.01-1.42 3.04l-.32.79-.34.91c-.22.61-.42 1.23-.62 1.85-.38 1.27-.71 2.45-.97 3.82-.53 2.72-.82 5.57-.75 8.25.02 1.36.11 2.72.27 4.07.15 1.3.36 2.4.61 3.61a39.093 39.093 0 0 0 1.8 6.02c1.29 3.33 2.88 6.13 4.39 8.36 1.52 2.23 2.97 3.94 4.18 5.25 1.22 1.32 2.24 2.28 3.02 3l1.05.94c.39.34.97.84 1.73 1.45.78.62 1.73 1.34 2.94 2.15.6.4 1.26.82 1.99 1.25.73.43 1.51.86 2.27 1.24 3.05 1.55 5.76 2.46 7.88 3.05 1.05.29 1.98.51 2.76.68.77.16 1.42.28 1.93.37l1.73.29 1.5.24 2.31.33c1.66.22 3.32.38 4.99.48 1.67.1 3.34.12 5.01.08.83-.02 1.67-.06 2.5-.11l1.86-.12 10.01-.68c13.34-.93 26.68-1.97 40-3.15 13.32-1.19 26.63-2.53 39.93-4.07 13.3-1.54 26.59-3.21 39.85-5.17 30.09-4.43 62.65-7.11 58.74-38.06-3.81-30.13-38.31-23.61-64.3-22.66-12.38.46-24.77.92-37.31 1.48-12.54.6-25.25 1.2-38.28 1.82-.84.04-1.69.09-2.53.13l16.21-18.27c78.32-81.89 155.46-185.25 237.65-284.45Z" />
    </symbol>

    <symbol id="sign-39">
      <path color="currentColor" d="M53.5 259.6c5.27 14.74 13.45 27.61 23.42 38.56 4.98 5.5 10.44 10.52 16.35 15.06l2.23 1.69 2.29 1.62c1.57 1.13 2.97 2.03 4.43 2.99 2.9 1.9 5.89 3.71 8.94 5.44 12.2 6.95 25.6 12.32 39.28 15.95 6.84 1.83 13.76 3.24 20.65 4.29 6.23.93 12.51 1.8 18.86 2.53 12.7 1.47 25.65 2.5 38.86 3.06 13.21.55 26.69.59 40.42.14 3.44-.1 6.88-.3 10.35-.44 3.46-.22 6.95-.4 10.45-.68 3.5-.27 7.02-.53 10.55-.88 3.49-.3 7.16-.72 10.84-1.13 9.28-.86 18.84-2.17 28.61-4.2 9.77-2.03 19.78-4.8 29.77-8.58 9.99-3.77 19.95-8.57 29.44-14.44 4.75-2.93 9.36-6.15 13.83-9.56 2.19-1.76 4.43-3.48 6.56-5.31l3.15-2.8 1.57-1.41.78-.71.39-.35.2-.18.26-.25a85.01 85.01 0 0 0 14.41-18c3.95-6.58 6.91-13.53 8.99-20.36 2.08-6.84 3.33-13.58 3.98-20.03.69-6.33.69-13.17.64-17.44-.04-4.98-.16-10.39-.61-16.19-.46-5.81-1.22-12.03-2.75-18.81-.76-3.37-1.75-6.91-3.03-10.57-.29-.89-.65-1.83-1.03-2.77l-1.15-2.81c-.79-1.87-1.8-3.82-2.81-5.83-1.1-1.98-2.29-3.95-3.52-5.87-1.31-1.87-2.63-3.74-4.07-5.51a68.953 68.953 0 0 0-4.6-5.07c-.8-.82-1.64-1.59-2.48-2.37-.41-.39-.86-.77-1.31-1.16l-1.23-1.05c-6.44-5.31-12.47-8.73-17.44-11.38-1.26-.67-2.43-1.27-3.59-1.85l-3.49-1.75c-2.32-1.19-4.69-2.25-7.03-3.38-9.42-4.39-19.03-8.34-28.76-11.87-19.46-7.07-39.38-12.44-59.44-16.49-2.51-.49-5.02-1.01-7.53-1.45l-3.77-.69c-.61-.12-1.28-.22-1.96-.33l-2.02-.31-8.1-1.22c-2.71-.35-5.43-.59-8.14-.88l-4.07-.42c-1.36-.12-2.73-.17-4.09-.26l-8.18-.46-8.19-.09c-1.36 0-2.73-.04-4.09-.02l-4.09.14c-10.91.21-21.77 1.44-32.54 3.03l-8.04 1.4-2.01.36-1.99.44-3.98.88c-5.33 1.08-10.55 2.59-15.8 3.98-19.51 5.59-36.51 15.05-46.26 25.92-4.94 5.35-7.99 11.22-9.03 16.88-1.03 5.73.1 11.5 3.52 17.18 3.44 5.71 7.73 9.09 12.47 10.89 2.4.92 4.92 1.44 7.53 1.62 1.31.09 2.62.08 3.98.03 1.37-.02 2.77-.12 4.18-.29 1.41-.17 2.84-.4 4.28-.7 1.43-.32 2.95-.55 4.44-.92 1.5-.35 3.02-.75 4.54-1.2 1.52-.47 3.12-.82 4.69-1.3 1.58-.46 3.16-.96 4.76-1.5 1.62-.46 3.25-.94 4.88-1.46.81-.26 1.63-.52 2.45-.79.81-.28 1.64-.54 2.47-.76 1.66-.47 3.33-.96 4.98-1.47.94-.27 1.86-.6 2.81-.83l2.84-.71c1.89-.47 3.78-.98 5.68-1.43l5.73-1.17c.96-.19 1.91-.42 2.87-.58l2.89-.45c1.93-.29 3.85-.63 5.77-.9l5.8-.64c.97-.1 1.93-.24 2.9-.31l2.91-.18 5.82-.37 5.83-.09c.97-.01 1.94-.05 2.91-.05l2.91.1 5.82.17 5.8.46 2.9.22 2.89.37 5.78.72 5.73 1 2.87.49c.98.18 2.06.42 3.08.63 16.58 3.43 32.81 7.86 48.44 13.44a307.16 307.16 0 0 1 22.96 9.24c1.88.82 3.73 1.71 5.57 2.59 1.86.86 3.67 1.79 5.5 2.7 1.84.9 3.62 1.87 5.42 2.82 1.83.95 3.58 1.91 4.93 2.71 1.38.8 2.48 1.51 3.29 2.08l.55.4.42.34c.1.1.25.2.31.27l.03.03c.01.01.02.03.03.04.1.11.23.2.26.36.08.04.07.13.11.19.02.03.07.03.07.11 0 .05.04.12.1.22.4.85 1.01 2.7 1.46 5.21.46 2.51.79 5.65.96 9.17.17 3.53.18 7.42.14 11.75l-.02 1.65v.8l-.03.57c-.03.76-.03 1.53-.1 2.24-.04.73-.09 1.46-.17 2.13l-.1 1.04-.14.98c-.37 2.61-.92 4.86-1.57 6.71-.67 1.84-1.43 3.27-2.26 4.48l-.3.46c-.12.13-.24.27-.35.41-.2.3-.47.55-.7.82-.21.29-.53.51-.77.79l-.19.2-.49.43-.97.85c-1.3 1.13-2.55 2.34-3.92 3.36-1.36 1.04-2.64 2.19-4.06 3.14-5.51 4.03-11.42 7.48-17.79 10.4-12.7 5.85-27.33 9.55-43.33 11.83-5.27.79-10.73 1.33-16.41 1.88-2.81.26-5.63.47-8.45.69-2.82.17-5.64.38-8.46.52-11.28.59-22.58.75-33.85.53-11.28-.21-22.54-.88-33.76-1.89-5.61-.48-11.21-1.12-16.79-1.8-2.79-.33-5.58-.74-8.37-1.1l-3.61-.55c-1.16-.22-2.34-.4-3.49-.63-9.23-1.8-17.74-4.44-25.76-8.19-4.02-1.86-7.94-3.98-11.79-6.38a68.383 68.383 0 0 1-9.21-6.89c-5.7-5.12-10.4-11.15-13.27-17.04a39.224 39.224 0 0 1-3.15-8.63c-.29-1.39-.57-2.78-.66-4.14-.16-1.38-.14-2.73-.11-4.13.11-2.06.46-4.19 1.13-6.39.18-.56.37-1.11.55-1.66.16-.57.45-1.12.64-1.69.18-.56.5-1.19.77-1.81.25-.63.59-1.24.88-1.87 2.41-4.99 5.59-10.07 8.32-15.3 2.75-5.23 5.01-10.6 5.46-16.29.43-5.68-.95-11.72-5.56-18.03-4.47-6.12-10.03-9.06-16.53-9.25-6.48-.2-13.9 2.38-21.45 7.46-7.54 5.05-15.17 12.76-21.35 22.27-3.11 4.81-5.98 10.22-8.16 15.81-2.19 5.61-3.81 11.42-4.89 17.09-1.52 8.12-1.92 16.48-1.16 24.58.76 8.1 2.56 15.95 5.15 23.32ZM456.32 393.49c-.63-4.93-3.12-10.32-7.74-16.59-4.5-6.11-8.67-9.86-12.35-12.08-1.81-1.1-3.68-1.85-5.38-2.25-.87-.21-1.69-.33-2.54-.39-.86-.07-1.71-.06-2.54 0-.83.06-1.65.19-2.47.36-.84.16-1.68.37-2.5.63-.83.25-1.64.54-2.45.87-.84.31-1.67.65-2.5 1-.83.36-1.64.73-2.46 1.12-.83.38-1.66.75-2.49 1.13-1.64.75-3.26 1.49-4.89 2.1-18.51 7.04-38.12 13.14-58.9 18.46-10.4 2.65-21.14 5.09-32.25 7.21-11.11 2.13-22.61 3.86-34.39 5.03-7.43.18-14.82.34-21.92.27h-2.66l-2.59-.1c-.86-.03-1.74-.03-2.58-.07l-2.48-.14c-1.7-.05-3.22-.22-4.79-.34l-1.19-.09-1.36-.14-2.74-.28c-7.48-.84-15.51-1.91-23.68-3.1-8.18-1.2-16.55-2.54-24.98-4.01-16.87-2.94-34.06-6.39-50.96-10.7-8.45-2.16-16.82-4.55-24.98-7.23-8.15-2.69-16.1-5.68-23.52-9.04-6.96-3.15-13.56-4.78-20.49-3.21-3.4.76-7.13 2.35-11 4.87-3.91 2.55-8.2 6.08-12.56 11.11-4.37 5.03-6.9 9.61-7.74 14.03-.43 2.18-.43 4.42-.09 6.43.33 2.03 1.02 3.99 1.99 5.9.96 1.85 2.18 3.56 3.63 5.23 1.44 1.67 3.05 3.1 4.82 4.55 3.52 2.8 7.55 5.16 11.61 7.2 9.16 4.62 18.22 8.53 27.27 12.08 9.04 3.55 18.06 6.72 27.09 9.66 18.05 5.85 36.12 10.78 54.38 15.05 9.13 2.13 18.31 4.09 27.6 5.86 9.3 1.76 18.69 3.34 28.45 4.63 2.46.31 4.92.61 7.45.88l3.82.38c1.33.12 2.78.2 4.16.3 1.39.08 2.83.22 4.17.25l4.06.12c2.74.11 5.31.03 7.97.04 10.47-.14 20.44-.92 30.23-2 12.99-1.43 25.58-3.4 38.05-5.75 12.45-2.38 24.72-5.19 36.81-8.61 12.09-3.42 24.01-7.43 35.71-12.23 11.69-4.79 23.16-10.42 34.29-17.21 4.13-2.52 8.4-5.1 12.23-8.01 1.91-1.44 3.73-3.04 5.34-4.67 1.62-1.66 3.05-3.48 4.2-5.36 2.31-3.87 3.49-8.16 2.86-13.12Z" />
    </symbol>

    <symbol id="sign-40">
      <path color="currentColor" d="M432.09 177.22h-.13l-.51.02-1.03.03c-2.76.08-5.52.17-8.29.26-11.11.35-22.46.75-33.97 1.2-5.78.23-11.58.47-17.4.7l-4.38.19c-1.47.06-2.89.1-4.53.27l-9.55.81c-12.79 1.13-25.66 2.27-38.59 3.42-6.47.6-12.96 1.19-19.47 1.79-4.31.42-8.62.83-12.95 1.25-3.27.34-6.54.67-9.82 1.01-1.64.17-3.28.35-4.93.52l-.62.07-.31.03h-.07l-.01.03-.03.05c-.08.12-.25.33-.5.4-.18.05-.33.02-.52-.05-.08-.03-.22-.1-.28-.12h-.03l-.05-.09-.11-.2-.42-.8-.84-1.59-1.66-3.2c-2.22-4.27-4.39-8.58-6.53-12.91-1.06-2.17-2.12-4.35-3.19-6.53l-.79-1.64-.83-1.76c-.49-1.11-.99-2.22-1.51-3.32l-1.49-3.36c-1.93-4.5-3.86-9.01-5.8-13.52-1.84-4.6-3.73-9.09-5.53-13.73l-2.67-6.99-1.33-3.49c-.44-1.16-.86-2.39-1.3-3.57-1.71-4.78-3.43-9.57-5.14-14.36-6.67-18.87-13.36-37.8-20.07-56.77-.69.93-1.36 1.77-2.07 2.77l-2.2 3.31-4.39 6.6c-2.91 4.37-5.83 8.75-8.74 13.13-5.77 8.65-11.55 17.31-17.34 25.97-11.39 16.96-22.8 33.95-34.21 50.93-.88 1.32-1.76 2.63-2.64 3.94l-1.3 1.97-.64.98-.38.61c-.9 1.45-1.76 2.91-2.58 4.36-1.65 2.91-3.13 5.81-4.41 8.7-2.57 5.77-4.32 11.46-4.92 16.9-1.2 10.9 2.23 20.84 13.03 28.59 10.82 7.77 20.34 6.82 28.94 1.33 4.3-2.74 8.38-6.62 12.27-11.11 1.95-2.24 3.85-4.64 5.71-7.12.93-1.24 1.85-2.51 2.77-3.78l1.36-1.92.34-.48.03-.04.05-.07 1.46-2.01.7-.98.35-.48.17-.24.09-.12s.03.08.05.12c.44 1.41.94 2.77 1.45 4.07.04.08.06.16.1.27-.07-.2.32.72.56 1.27l.79 1.83 3.24 7.29c2.19 4.85 4.42 9.68 6.71 14.49l3.56 7.41c1.07 2.25 2.21 4.44 3.3 6.64 1.14 2.16 2.37 4.24 3.54 6.37 1.21 2.1 2.34 4.27 3.6 6.3a52.68 52.68 0 0 0 4.34 5.43c3.08 3.37 6.61 6.3 10.63 8.68 4.96 2.9 10.33 4.75 15.86 5.68 5.54.96 11.5.93 17.54.35l23.52-2.02 8.94-.75h1.57c.64.02 1.2.06 1.63.12l.3.05s-.02.05-.04.08l-.1.11-.19.22c-.25.29-.5.56-.74.8-.43.43-.89.79-1.25.98-.09.05-.18.09-.26.12l-.12.04s-.02 0-.04-.01h-.01v-.02c-.01.02.02-.04-.03.03l-.15.2c-1.64 2.15-3.32 4.26-4.99 6.38-1.67 2.12-3.34 4.24-5.04 6.33a928.09 928.09 0 0 1-20.7 24.89l-1.31 1.54-.66.77-1.25 1.42-5.09 5.79-5.09 5.8c-.8.93-1.82 2.03-2.76 3.07l-2.87 3.16-22.78 25.2 14.12 18.06 7.1 9.04c1.2 1.5 2.35 3.01 3.47 4.53l3.4 4.53 3.39 4.52 1.7 2.26.42.56.49.66.64.89 3.08 4.22c2.09 2.79 4.05 5.68 6.11 8.51 8.05 11.42 15.78 23.11 23.35 35.03 7.06 11.05 13.19 23.12 21.05 30.95 1.95 1.97 4.03 3.67 6.28 5.02 2.24 1.36 4.61 2.39 7.22 2.98 5.21 1.18 11.28.65 18.46-2.38 6.99-2.95 11.25-7.02 13.56-11.92 1.17-2.45 1.81-5.1 2.03-7.88.22-2.78.11-5.74-.41-8.74-1.92-12.1-8.98-25.36-14.46-36.84a465.265 465.265 0 0 0-21.35-39.79c-2.02-3.34-4.11-6.69-6.25-10.09-1.09-1.68-2.19-3.38-3.31-5.09l-.84-1.29-.42-.64c-.13-.19 0 0 .04.04.03.05.04.05.03.03v-.03l-.22-.4c-.54-1.08-1.1-2.07-1.63-3.01.54-.49 1.16-.95 1.69-1.4l.41-.33c.14-.12.21-.15.53-.47.51-.5 1.02-1.01 1.54-1.53l.19-.19.05-.05.02-.02.08-.09.33-.37 1.32-1.5c.88-1 1.77-2.01 2.66-3.03 1.79-2.02 3.58-4.08 5.36-6.18 3.6-4.16 7.19-8.48 10.85-12.86 3.61-4.42 7.29-8.92 10.94-13.57.92-1.16 1.84-2.32 2.76-3.49 1.18-1.53 2.36-3.08 3.54-4.62 3.4-4.43 6.63-8.88 9.9-13.42 6.63-9.05 13-18.33 19.37-27.75 3.08-4.7 6.19-9.44 9.31-14.2 3.01-4.74 6.05-9.52 9.1-14.32 6.35-9.55 12.74-19.28 19.23-29.27 3.27-5.06 6.55-10.13 9.84-15.23l2.48-3.86 1.24-1.93.16-.24.04-.06h-.06Z" />
    </symbol>

    <symbol id="sign-41">
      <path color="currentColor" d="M465.09 242.01c-6.8-10.32-14.51-20.05-23.48-29.23-4.48-4.59-9.34-9.01-14.67-13.21-5.33-4.2-11.13-8.19-17.65-11.75-6.52-3.55-13.78-6.7-21.98-8.84-8.16-2.14-17.36-3.2-26.77-2.38-2.35.24-4.7.44-7.04.94-2.32.45-4.72.93-6.8 1.55-2.22.59-4.09 1.26-6.06 1.93-.95.34-1.82.69-2.73 1.04-.91.35-1.81.71-2.63 1.07-6.79 2.91-12.56 6.04-17.93 9.24-10.67 6.4-19.91 13.09-28.79 19.83-8.84 6.74-17.23 13.57-25.35 20.26l-11.89 9.78c-1.93 1.57-3.81 3.09-5.6 4.48-1.77 1.32-3.51 2.71-5.3 3.99-7.12 5.18-14.46 9.75-21.95 13.6a124.25 124.25 0 0 1-30.31 10.97c-5.08 1.06-10.13 1.76-15.15 2.13-1.25.05-2.51.21-3.76.21l-3.75.09-3.73-.07c-1.24-.01-2.48-.15-3.72-.2-4.95-.34-9.88-.99-14.81-1.93-4.93-.99-9.85-2.3-14.8-3.85-4.96-1.52-9.92-3.47-14.94-5.58-5.03-2.09-10.06-4.55-15.17-7.18-1.21-.64-2.42-1.29-3.63-1.93-.2 0-.39.04-.67-.02-.27-.07-.59-.15-.92-.26-.65-.21-1.34-.46-1.97-.51-.32-.03-.62 0-.93.08-.09.01-.14.06-.22.09-.37.17-.73.33-1.09.5-.91.43-1.87.79-2.77 1.15-1.88.68-3.59 1.25-5.26 1.6-1.54.39-3.09.56-4.22.65-1.25.06-2.1.04-2.86-.08-.3-.03-.6-.09-.85-.15-.09-.01-.22-.05-.33-.08-.13-.16-.27-.32-.41-.48-.42-.51-.84-1.05-1.26-1.61-1.71-2.25-3.46-4.94-5.78-7.66-2.19-2.57-4.5-4.53-7.19-5.56-1.34-.48-2.78-.75-4.29-.68-1.51.09-3.11.44-4.69 1.22-3.18 1.48-6.35 4.63-8.42 8.7-2.11 4.05-3.1 8.81-3.17 13.18-.08 4.38.65 8.47 1.82 12.18 1.17 3.69 2.77 7.02 4.65 10.08 3.79 6.1 8.55 11.17 14.52 15.78 1.85 1.37 3.63 2.69 5.33 4.02 1.4 1.13 2.9 2.17 4.37 3.24 1.49 1.05 2.93 2.15 4.46 3.16 3.06 2.02 6.1 4.08 9.32 5.94 3.15 1.95 6.46 3.71 9.77 5.49 1.66.89 3.39 1.68 5.09 2.51l2.57 1.24c.86.4 1.75.77 2.63 1.15 6.98 3.13 14.36 5.71 21.96 7.88 7.61 2.19 15.53 3.76 23.64 4.78 16.23 2.12 33.27 1.58 50.24-1.45 16.97-3.08 33.79-8.75 50-16.57 10.41-4.44 20.4-9.97 29.9-16.28 2.34-1.61 4.74-3.19 7.03-4.88 1.14-.85 2.29-1.7 3.44-2.55 1.15-.86 2.31-1.72 3.36-2.56 4.3-3.37 8.23-6.6 12.13-9.84 7.47-6.26 15.04-12.6 22.68-19 7.43-6.14 14.85-12.1 22-17.19 3.56-2.53 7.05-4.84 10.18-6.68.8-.49 1.51-.84 2.26-1.29l1.02-.53.51-.27.45-.22c1.29-.67 2.15-1 2.66-1.25.8-.41 1.73-.74 3.39-.75 1.63 0 3.94.4 6.63 1.38 5.43 1.95 12.07 6.16 18.29 11.62 6.25 5.51 12.23 12.21 17.48 19.47 4.89 6.82 10.24 12.63 17.43 15.81 3.58 1.59 7.67 2.56 12.46 2.68 4.76.11 10.3-.6 16.61-2.71 6.32-2.11 10.78-4.91 13.7-8.5 2.91-3.56 4.23-7.83 4.32-12.42.19-9.21-4.55-19.42-10.61-28.52ZM73.17 260.55c.07.07.14.13.19.19l-.19-.19Z"/>
    </symbol>

    <symbol id="sign-42">
      <path color="currentColor" d="M434.72 423.22c-1.1-15.16-13-21.68-28.87-24.51-3.19-.57-6.54-.98-9.99-1.29l.03-28.8c-.01-11.96-.03-23.97-.04-36.06-.1-24.19-.19-48.72-.29-73.9-.14-25.18-.29-51-.44-77.76-.08-13.38-.15-27-.23-40.9l-.06-4.7c-.03-1.67-.07-3.34-.16-5.01-.17-3.33-.52-6.63-1.11-9.87-.58-3.24-1.4-6.41-2.51-9.47-1.11-3.06-2.42-6.07-4.17-8.84-3.14-5.76-7.56-10.82-12.67-15.04l-1.93-1.58c-.65-.51-1.36-.96-2.04-1.44l-2.06-1.43c-.71-.44-1.44-.86-2.17-1.28l-2.2-1.24-2.28-1.12-2.31-1.08-2.38-.97c-2-.86-4.08-1.57-6.18-2.26-1.04-.36-2.12-.62-3.19-.91l-3.23-.85c-2.18-.49-4.38-.95-6.6-1.32-1.11-.19-2.23-.36-3.34-.52l-2.59-.35c-3.06-.41-5.93-.66-8.68-.89l-7.06-.57c-9.44-.75-18.95-1.39-28.55-1.97-19.19-1.14-38.67-1.92-58.41-2.41-19.73-.49-39.72-.64-59.9-.52-5.05.05-10.1.09-15.17.14l-9.82.12-7.49.08-3.73.05c-.61.02-1.26-.01-1.85.05l-1.75.22c-4.66.6-9.33 1.2-14.01 1.8l-3.5.45-1.75.22c-.58.08-1.2.11-1.67.33-2.02.68-3.95 1.46-5.81 2.37-3.71 1.8-7.16 4.07-10.43 7-1.62 1.47-3.19 3.09-4.55 4.8-1.4 1.69-2.56 3.44-3.58 5.17-.52.86-.97 1.74-1.41 2.63-.45.88-.86 1.77-1.24 2.71-.39.92-.72 1.93-1.08 2.89-.31 1.02-.65 2.02-.91 3.1-1.14 4.23-1.66 9.05-1.62 14.05.07 5 .13 10.01.2 15.02l.1 7.49.05 2.71.05 1.92c.26 10.24.51 20.51.77 30.81.54 20.6 1.08 41.33 1.62 62.13 1.07 41.61 2.07 83.54 2.65 125.49.55 39.18 7.89 73.68 34.47 74.37 26.64.69 29.11-34.95 29.07-70.51l-.16-96.05c1.33.42 2.73.6 4.13.67 32.83 1.81 65.69 2.21 98.58 3 10.91.28 21.84.96 32.74.68 10.9-.34 21.78-1.62 32.48-5.48 5.18-1.85 10.65-2.95 13.17-12.05.47 24.95 1.15 49.89 2.18 74.82.54 13.01 1.18 26.03 1.93 39.04.38 6.51.78 13.01 1.22 19.51l.68 9.76.36 4.88.19 2.44.09 1.22.05.61.02.3.02.03c.03.05.06.11.09.16.01.03.03.05.04.1.01.07.02.23.02.39V407.32l-.03 1.72c-.02 1.42-.05 3.23-.02 5.16l.04 1.6.03.82.05.91c.04.63.06 1.16.12 1.88l.21 2.15c.03.32.09.78.16 1.22l.2 1.3.23 1.31.35 1.64c.27 1.14.46 2 .98 3.57.23.71.48 1.41.74 2.1l.4 1.04c.14.36.39.9.59 1.34.43.92.89 1.83 1.38 2.72.25.44.5.88.76 1.32l.21.34.28.43.58.85c.79 1.13 1.65 2.22 2.55 3.26.45.51.93 1.04 1.38 1.5.38.38.77.75 1.17 1.11.8.73 1.63 1.42 2.48 2.09.42.33.86.65 1.29.97.42.3.78.52 1.18.78.78.5 1.59.97 2.4 1.42.79.43 1.71.91 2.35 1.18 1.38.61 2.87 1.19 4.24 1.64 1.19.36 2.39.68 3.6.96l.45.1.37.07.75.14 1.5.24c1.08.17 1.82.22 2.68.3l1.26.09c.43.03.73.03 1.11.04.7.02 1.45.03 2.11.02l1.84-.06c.65-.02 1.1-.07 1.66-.1 1.12-.08 1.96-.18 2.9-.29.8-.11 1.66-.22 2.29-.33l.94-.16.78-.14c.19-.04.38-.08.46-.12l.14-.09.15-.09.07-.04s0-.03.2-.04l1.76-.18c1.17-.13 2.33-.26 3.48-.39 2.3-.28 4.55-.58 6.74-.93 4.38-.7 8.53-1.55 12.36-2.63 15.29-4.32 25.37-12.24 24.24-27.81Zm-123.73-219.3c-19.19-1.23-38.3-1.52-61.42-3-14.51-3.02-29.92-2.52-45.91-1.24-15.98 1.28-32.56 3.34-49.11 3.49-2.84.03-5.61.98-8.06 3.49l-.12-71.17c.03-.33-.03-.66.08-.97.14-.32.54-.38.85-.37l.98.03.45.02 7.36.02c19.84.07 39.68.31 59.52.76 19.84.45 39.67 1.07 59.49 1.92 9.91.41 19.82.88 29.72 1.4l14.86.81c2 .13 3.91.27 5.54.47l.43.05h.04l.07.03.14.05c.23.1.44.23.55.43.04.04.04.11.05.17.04.03.03.11.04.16 0 .11-.01.23-.04.33l-.05.15-.03.07s-.02.02-.02.03v.94l.09 9.77.16 19.55c.13 15.56.29 31.11.49 46.66-3.48-16.96-10.5-13.64-16.15-14.02Zm59.75 217.18s.04-.03.06-.05c-.01.01-.04.03-.08.08l.03-.03Zm.06-.05.03-.03c-.48.46-.09.09-.03.03Z"/>
    </symbol>

    <symbol id="sign-43">
      <path color="currentColor" d="M476.48 221.66c-1.47-8.55-4.15-16.9-7.84-24.7-.94-1.94-1.95-3.84-2.95-5.75-1.05-1.87-2.18-3.69-3.3-5.52-.3-.49-.54-.85-.79-1.22l-.75-1.12-1.51-2.23c-.99-1.5-2.09-2.95-3.15-4.42-8.63-11.69-19.04-22.8-31.57-32.27-12.49-9.46-27.11-17.3-43.25-22.12-16.11-4.87-33.69-6.51-50.87-4.62-2.63.27-5.27.54-7.88.98-1.3.21-2.62.39-3.91.65l-3.87.79-1.84.38-.47.09-.93.17-.11.02h-.02l-.04-.01-.07-.02-.14-.03c-.35-.09-.57-.15-.69-.22a.269.269 0 0 1-.12-.14c0-.02-.01-.02-.02-.06 0-.05.03-.1.05-.15l.11-.26.3-.7.06-.13v-.03l.03-.01s0 .02-.01-.03l-.1-.34c-.52-1.76-1.18-3.8-1.85-5.71-1.36-3.85-2.95-7.7-4.76-11.48-1.78-3.78-3.84-7.48-6.08-11.1-4.54-7.23-9.96-14.16-16.55-20.43-6.53-6.3-14.28-11.88-22.94-16.26-1.07-.56-2.2-1.04-3.3-1.56-1.1-.49-2.27-1.04-3.22-1.38-1.99-.78-3.99-1.54-6-2.28-2.03-.65-4.06-1.28-6.1-1.9-2.04-.6-4.11-1.05-6.17-1.56-8.27-1.85-16.66-2.8-24.99-2.9-8.34-.12-16.63.63-24.75 2.2a128.3 128.3 0 0 0-23.8 7c-7.71 3.12-15.18 6.98-22.25 11.7-7.06 4.72-13.73 10.25-19.78 16.6a109.95 109.95 0 0 0-15.94 21.36c-4.46 7.84-8.03 16.35-10.3 25.17-2.31 8.81-3.43 17.85-3.49 26.7.02 2.19 0 4.46.12 6.58l.2 3.16.29 3.16c.45 4.2 1.08 8.38 1.93 12.47 1.7 8.19 4.16 16.03 7.1 23.33.31.79.64 1.57.96 2.34-2.53 1.42-4.94 2.91-7.2 4.43-7.35 4.97-13.56 10.45-18.99 15.85-2.72 2.71-5.24 5.41-7.63 8.06-1.2 1.33-2.35 2.64-3.47 3.94l-.9 1.05-1.23 1.51-2.42 3.05c-6.24 8.34-10.63 17.85-13.29 27.17-2.7 9.37-3.63 18.5-3.68 27.13-.03 8.65.88 16.85 2.39 24.66.75 3.98 1.61 7.56 2.55 11.22.95 3.63 2.01 7.16 3.12 10.65 2.25 6.95 4.78 13.61 7.46 20.03 1.34 3.22 2.73 6.35 4.13 9.46l2.13 4.61 2.38 4.94c3.33 6.67 7.15 13.35 11.64 19.91 4.5 6.55 9.64 13.01 15.76 18.99 6.09 5.99 13.08 11.51 20.83 16.06 1.92 1.16 3.95 2.17 5.93 3.23 1.91.92 3.77 1.8 5.67 2.64 3.81 1.63 7.67 3.13 11.59 4.37 7.84 2.52 15.88 4.31 24.06 5.27 9.01 1.03 18.06 1.06 26.82-.1 2.19-.32 4.36-.6 6.51-1.07 1.07-.22 2.14-.44 3.2-.66 1.06-.27 2.11-.54 3.16-.81 1.95-.5 4.51-1.24 6.76-2.06 2.29-.81 4.49-1.72 6.6-2.72 9.46-4.48 17.18-10.43 23.16-17.06.81 1.4 1.69 2.8 2.63 4.19.34.5.69 1 1.03 1.5l.52.75c.17.24.21.32.32.49l.49.8.19.33.1.17.19.29c1.03 1.53 2.11 3.07 3.27 4.58 2.31 3.04 4.88 6.04 7.71 8.93 5.7 5.8 12.32 11.18 20.12 15.7 15.62 9.32 35.28 13.72 53.33 11.84 4.9-.4 9.75-1.4 14.52-2.63 4.72-1.38 9.4-3.01 13.79-5.15l1.66-.79.83-.4.7-.38 2.79-1.51c.92-.51 1.87-1 2.77-1.54l2.68-1.63 2.68-1.65 2.58-1.75 2.57-1.77c.86-.59 1.66-1.23 2.5-1.85 13.26-9.95 24.83-21.95 34.4-36.51 4.77-7.29 9.02-15.24 12.42-24.03 3.39-8.84 5.95-18.26 6.96-28.7.5-5.2.62-10.63.2-16.22a86.152 86.152 0 0 0-3.03-17.08c-.38-1.39-.88-2.97-1.38-4.38-.4-1.16-.83-2.28-1.26-3.37 1.6-.99 3.19-2.02 4.76-3.09 5.66-3.88 11.07-8.25 16.23-13.2 5.15-4.95 10-10.5 14.37-16.7 2.18-3.12 4.23-6.32 6.14-9.83.94-1.79 1.91-3.56 2.78-5.41.84-1.87 1.68-3.74 2.46-5.64a92.899 92.899 0 0 0 6.06-24.46c.92-8.51.65-17.25-.83-25.81Zm-67.16 77.07c.02-.01.02 0 0 0 0 0 0-.01 0 0Zm-271.46-79.19c1.23.44.74.27-.18-.06l.18.06ZM253.6 392.09s.04.03.02.02l-.02-.02Zm127.77-119.53s.04.01-.05.03l-.93.19-1.07.22-1.31.3-.65.16-.82.22-1.65.47c-.24.07-.67.21-1 .32l-1.06.36c-.73.26-1.3.45-2.32.88-.92.38-1.82.79-2.72 1.22l-.34.16-.45.23-.9.48c-.59.33-1.18.67-1.76 1.03-.59.36-1.13.7-1.74 1.11-.76.53-1.51 1.09-2.24 1.67a46.2 46.2 0 0 0-2.13 1.81l-1.02.95a42.4 42.4 0 0 0-3.64 4.13c-.37.49-.74.98-1.09 1.48l-.52.75c-.17.25-.33.5-.53.82-1.48 2.4-2.74 5.02-3.69 7.68-.93 2.62-1.51 5.28-1.88 8.03-.09.68-.16 1.36-.21 2.04l-.07 1.03-.03 1.29c-.01 1.72.09 3.46.3 5.17l.18 1.28c.08.49.13.76.17.97.09.49.2.97.31 1.46.22.97.48 1.93.76 2.88l.22.71.15.46.31.88c.21.58.44 1.16.67 1.73l.35.83.26.58.54 1.15.55 1.1.45.82c1.27 2.3 2.14 3.57 2.97 4.82l.59.86.54.75.99 1.35 1.35 1.79h.02v-.02l-.02-.01.06.09.3.47.58.92 1.07 1.74c.68 1.12 1.27 2.15 1.79 3.09 1.03 1.87 1.7 3.38 2.02 4.24.03.11.08.18.11.31l.12.41c.11.26.15.56.24.84.16.58.27 1.2.39 1.84.2 1.31.31 2.79.28 4.41-.02 1.63-.18 3.4-.48 5.28-.31 1.87-.79 3.88-1.4 5.83-1.18 3.95-2.97 8.12-5.28 12.25-4.61 8.27-11.28 16.31-18.8 22.72l-1.41 1.21c-.48.39-.97.74-1.45 1.12l-1.44 1.13c-.48.36-.98.68-1.47 1.03l-1.46 1.04-1.48.93-1.47.95c-.36.2-.67.37-1 .58l-.48.31-.5.24c-.33.16-.66.34-.99.52-.69.23-1.34.64-2.04.82-1.37.56-2.81.85-4.3 1.14-1.47.28-3.03.3-4.63.31-1.6-.11-3.26-.25-4.95-.62-1.68-.39-3.41-.83-5.11-1.52-.87-.28-1.7-.71-2.57-1.06-.88-.38-1.81-.88-2.71-1.36-3.63-1.97-7.21-4.44-10.6-7.13-.85-.67-1.68-1.36-2.52-2.05-.41-.35-.83-.7-1.23-1.05l-.97-.96-.88-.84c-.06-.05-.16-.15-.18-.16l-.08-.03-.15-.06-.31-.11c-.21-.08-.43-.16-.64-.23-.43-.16-.88-.35-1.32-.55-1.88-.83-3.2-2.19-4.88-3.83l-.32-.4c-.05-.04-.11-.22-.17-.34l-.17-.4c-.24-.56-.48-1.11-.71-1.65-.49-1.16-1.01-2.34-1.59-3.58-.29-.6-.61-1.31-.91-1.83-.31-.5-.65-1.29-1.07-2.22-.43-.96-.94-2.1-1.63-3.37s-1.56-2.65-2.64-3.95c-2.52-3.15-5.44-5.04-8.94-6.21-1.75-.56-3.68-.88-5.68-.83-1.97.04-4.04.5-5.68 1.25-.32.14-.61.3-.9.46-1.11-1.05-2.3-1.89-3.53-2.5-2.94-1.45-6.07-1.75-9.34-1.28-3.29.47-6.13 1.57-8.6 2.75-1.23.59-2.45 1.22-3.53 1.82-.99.55-2.06 1.13-3.22 1.77-4.12 2.28-7.42 3.95-11.22 6.22-1.89 1.12-3.98 2.34-6.24 3.51-2.26 1.17-4.75 2.23-7.15 2.97-1.2.37-2.37.65-3.46.83l-2.28.36c-.89.18-1.85.23-2.78.37-3.75.44-7.73.5-11.75.25-3.94-.26-7.93-.9-11.81-1.91a62.696 62.696 0 0 1-11.15-4.13c-.97-.43-1.55-.81-2.27-1.18-.36-.17-.7-.38-1.03-.6l-1.02-.63c-.68-.43-1.33-.96-2.02-1.4-.65-.55-1.33-1.04-1.99-1.6-2.64-2.25-5.23-5-7.73-8.24-2.5-3.23-4.9-6.94-7.13-11.06-1.11-2.06-2.21-4.18-3.25-6.42l-.79-1.67-.87-1.92-1.68-3.82c-4.39-10.14-7.98-19.98-10.24-29.34-.58-2.34-1.04-4.67-1.41-6.76l-.47-3.16c-.09-1.02-.26-2.07-.31-3.06-.32-4-.23-7.68.21-10.77.47-3.07 1.27-5.45 2.17-7.3.09-.26.23-.46.36-.67.13-.21.25-.42.35-.65.29-.38.54-.78.81-1.16.16-.17.32-.35.46-.54l.21-.29s.05-.07.12-.14l.17-.19.34-.38c.91-1.02 1.81-2.01 2.69-2.96 3.53-3.81 6.87-7.08 10-9.67 3.09-2.57 6.15-4.55 8.46-5.64.58-.28 1.11-.5 1.59-.68-.01 0 .17-.05.24-.07.1-.03.21-.04.31-.04h.04l.35-.03 1.43-.12.82-.08 1.06-.12 1.05-.12 1.3-.19 1.33-.21.33-.06.41-.08.82-.17c1.12-.24 2.07-.43 3.49-.85.66-.19 1.31-.39 1.96-.6.35-.11.61-.19 1.02-.34l1.16-.44c.77-.3 1.53-.62 2.29-.96.39-.18.71-.31 1.16-.54l1.28-.67c3.27-1.73 6.91-4.3 9.97-7.44 1.53-1.58 3.04-3.3 4.2-5.01.61-.86 1.19-1.75 1.74-2.65l.8-1.36c.23-.43.43-.83.64-1.25.41-.83.81-1.68 1.18-2.53l.54-1.29.26-.65c.08-.2.17-.44.27-.74.74-2.21 1.34-4.54 1.74-6.81.3-2.04.48-4.13.54-6.19 0-1.82-.1-3.51-.27-5.26-.36-3.09-.99-5.93-1.64-8.05l-.52-1.7-.5-1.41-.53-1.4-.27-.69-.25-.59-1.04-2.34-.98-1.99c-.35-.7-.63-1.21-.95-1.79-.31-.56-.63-1.16-.91-1.63l-.86-1.48-.78-1.29-1.34-2.18-.94-1.53c-.17-.3-.15-.26-.18-.32l-.65-1.31c-.28-.54-.52-1.08-.77-1.61-2.03-4.28-3.61-8.39-4.79-12.36-1.17-3.97-1.92-7.78-2.26-11.59l-.12-1.43-.07-1.43c-.04-.94.03-1.74 0-2.62-.06-.87.08-1.69.13-2.52l.07-1.25.2-1.2c.46-3.23 1.29-6.27 2.52-9.18 1.26-2.9 2.92-5.67 4.98-8.3 4.1-5.25 9.91-9.91 16.74-13.26 6.8-3.39 14.58-5.35 22.16-5.72 7.59-.36 14.97.8 21.31 3.48.48.16.62.28.9.4.25.13.53.2.78.37.25.15.51.29.78.42.26.13.51.33.77.48.53.28 1.03.72 1.57 1.04.5.44 1.05.78 1.55 1.27 2.09 1.77 4.13 4.15 5.98 6.88.91 1.39 1.77 2.87 2.56 4.41.76 1.58 1.49 3.14 2.11 4.87.32.87.59 1.67.89 2.62l.23.76.54 2.09.28 1.09.21 1.12c.13.75.29 1.49.41 2.24.15 1.56.47 3.02.33 4.74l-.03 1.25c0 .41 0 .82-.09 1.29l-.36 2.72c-.56 3.71-1.28 7.65-1.83 11.61-.53 4.69-.4 8.97.32 12.59.74 3.56 1.8 6.55 2.94 9.04 2.33 4.89 4.74 7.8 6.73 10.06 1.01 1.11 1.98 2.03 2.91 2.88.46.42.92.82 1.38 1.19.23.2.46.36.68.55.24.19.41.33.77.58.3.22 1.14.74 1.51.92.37.2.64.31.97.47.62.3 1.27.58 1.93.86 1.33.53 2.76 1.03 4.33 1.47 1.55.44 3.31.81 5.28 1.07 1.95.27 4.17.42 6.74.3 2.56-.14 5.4-.43 8.69-1.41.41-.12.79-.19 1.22-.35l1.28-.47 1.28-.47c.22-.08.42-.15.64-.25l.68-.39 5.46-3.1 2.73-1.55c.45-.26.91-.51 1.36-.78l1.34-.88 5.35-3.51 2.67-1.75.33-.22.32-.15.64-.31 1.29-.62 5.16-2.48 1.29-.62c.21-.1.44-.22.64-.3l.56-.18 2.24-.71 4.48-1.42.56-.18c.14-.04.17-.04.26-.06l.45-.09.89-.19c.6-.12 1.19-.28 1.79-.39 15.08-2.87 29.83-.15 43.27 7.78 6.7 3.95 13.02 9.18 18.65 15.46 2.82 3.13 5.49 6.51 7.98 10.09l1.83 2.72c.38.67.71 1.23 1.09 1.84.31.61.6 1.22.93 1.82.26.61.5 1.23.79 1.82 1.92 4.87 2.29 9.65 1.38 14.32-.46 2.34-1.26 4.67-2.43 7.01-.16.29-.31.58-.46.87l-.22.44-.28.48c-.37.65-.77 1.29-1.21 1.93-.86 1.29-1.82 2.57-2.88 3.85-4.22 5.08-10.11 9.91-16.6 13.51l-1.23.67-1.52.79c-1.32.67-.85.43-.93.48Zm1.93 39.45h-.06.06Z"/>
    </symbol>

    <symbol id="sign-44">
      <path color="currentColor" d="M85.28 197.87a55.965 55.965 0 0 1-7.45-23.64c-.08-1.1-.13-2.2-.17-3.3-.02-1.08.02-2.06.05-3.09.04-1.02.1-2.04.17-3.05.09-1.01.24-2.01.38-3.01.15-1 .32-2 .5-3 .2-.98.44-1.92.68-2.88.25-.96.51-1.91.78-2.85.3-.9.61-1.79.93-2.68 2.61-7.12 6.24-12.86 9.89-17.5 3.68-4.65 7.44-8.29 11.11-11.4 3.25-2.76 6.93-4.6 11.55-2.63 3.33 1.37 13.42 3.01 15.75.61 2.43-2.48 5.75-3.88 9.26-4.43 3.55-.61 7.25-.35 10.91.06 9.81 1.2 19.51 5.5 27.56 13.16 4 3.81 7.57 8.57 10.18 13.63a53.63 53.63 0 0 1 5.27 15.61c.93 5.27 1.09 10.55.56 15.74a58.094 58.094 0 0 1-3.68 15.3 59.687 59.687 0 0 1-8 14.34 77.38 77.38 0 0 1-2.69 3.3c-.95 1.05-1.92 2.08-2.92 3.08-1 .96-2.03 1.9-3.08 2.81a70.08 70.08 0 0 1-3.21 2.54c-6.58 4.83-13.76 8.14-21.35 9.97a58.181 58.181 0 0 1-23.94.81c-4.13-.71-8.3-1.98-12.3-3.66-3.92-1.71-7.58-3.8-10.88-6.2-6.58-4.82-11.9-10.74-15.91-17.65ZM325.06 159.02a55.744 55.744 0 0 1 9.53-22.88c.65-.89 1.32-1.77 2-2.63.68-.84 1.34-1.56 2.03-2.33.69-.75 1.39-1.49 2.1-2.22.72-.72 1.48-1.38 2.23-2.06.76-.67 1.53-1.33 2.31-1.97.78-.62 1.58-1.19 2.38-1.76.8-.57 1.62-1.13 2.44-1.68.81-.5 1.62-.98 2.44-1.45 6.58-3.76 13.06-5.82 18.83-7.02 5.81-1.19 11.03-1.55 15.84-1.57 4.26-.02 8.26.95 10.53 5.43 1.66 3.19 8.33 10.94 11.65 10.61 3.46-.33 6.89.74 9.94 2.58 3.11 1.82 5.77 4.4 8.31 7.07 6.73 7.24 11.38 16.78 12.6 27.82.61 5.49.27 11.43-.99 16.98a53.765 53.765 0 0 1-6.02 15.34 57.248 57.248 0 0 1-9.71 12.4 57.983 57.983 0 0 1-12.67 9.34 59.543 59.543 0 0 1-15.35 5.82c-1.39.3-2.79.57-4.19.79-1.4.19-2.81.35-4.22.48-1.39.09-2.78.14-4.16.17-1.37 0-2.73-.05-4.09-.12-8.14-.54-15.77-2.64-22.76-6.12a58.271 58.271 0 0 1-18.84-14.8c-2.7-3.2-5.08-6.86-7.05-10.72-1.9-3.84-3.35-7.79-4.33-11.75-1.92-7.92-2.19-15.88-.8-23.75ZM242.27 392.96a55.733 55.733 0 0 1-22.28-10.87c-.85-.7-1.69-1.42-2.51-2.15-.8-.73-1.48-1.43-2.2-2.17-.71-.73-1.41-1.47-2.09-2.23-.68-.76-1.29-1.56-1.92-2.35-.62-.8-1.24-1.61-1.83-2.42-.57-.82-1.09-1.64-1.62-2.48-.52-.84-1.03-1.68-1.53-2.53-.45-.83-.88-1.67-1.3-2.52-3.37-6.79-5.04-13.38-5.89-19.22-.84-5.87-.89-11.11-.63-15.91.24-4.26 1.44-8.19 6.04-10.19 3.29-1.47 11.41-7.67 11.28-11.01-.12-3.47 1.15-6.84 3.16-9.77 2-3 4.74-5.5 7.55-7.88 7.62-6.29 17.42-10.37 28.51-10.94 5.51-.28 11.43.41 16.9 1.99a53.898 53.898 0 0 1 14.96 6.92c4.46 2.96 8.4 6.47 11.81 10.42s6.29 8.36 8.57 13.2c2.28 4.83 3.98 10.1 4.9 15.67.21 1.41.41 2.82.54 4.22.11 1.41.18 2.83.23 4.24 0 1.39-.02 2.78-.08 4.16-.08 1.37-.21 2.72-.36 4.08-1.02 8.1-3.56 15.58-7.46 22.36a58.185 58.185 0 0 1-15.89 17.93c-3.36 2.5-7.14 4.66-11.12 6.41-3.94 1.67-7.97 2.89-11.98 3.62-8.02 1.45-15.98 1.24-23.75-.6Z" />
    </symbol>

    <symbol id="sign-45">
      <path color="currentColor" d="m477.79 430.71-.11-2.43-.03-.69c0-.11-.01-.22 0-.22v-.01.02-1.8c.08-9.06.09-18.18.04-27.37-.09-18.38-.39-37.02-.82-55.86-.43-18.84-.99-37.88-1.59-57.07-.08-2.4-.15-4.8-.23-7.2l-.06-1.8v-.45l-.03-.03c0-.02-.02-.05-.03-.05-.04-.16 0-1.25.05-2.77.05-1.55.12-3.6.04-6.32-.1-2.73-.3-6.15-1.35-10.79-.23-1.06-.63-2.48-1.02-3.71-.18-.6-.44-1.34-.71-2.05-.27-.71-.55-1.42-.85-2.12-.58-1.31-1.17-2.49-1.82-3.7-.61-1.18-1.43-2.44-2.2-3.62-3.19-4.78-7.55-9.04-11.94-12.01-4.4-3.01-8.72-4.85-12.44-6.03-3.71-1.17-6.93-1.75-9.79-2.11-2.88-.36-5.33-.46-7.57-.47-2.25-.02-4.27.07-6.09.2-3.68.25-6.73.66-9.18.98l-2.99.41-.47.07c-.12.02-.16.03-.19.04l-.2.06-23.12.72c-7.76.21-15.56.49-23.32.62-15.53.28-31.09.49-46.65.6-1.87.01-3.73.05-5.57.13-1.83.07-3.65.18-5.51.35-1.37.12-2.71.27-4.05.43 1.27-10.51.77-22.23 1.1-32.57.6-18.71 1.11-37.42 1.58-56.38.22-9.81.44-19.69.67-29.66.07-4.47.07-8.95.2-13.48.14-4.52.26-9.12.11-13.56-.23-8.97-2.43-16.67-5.69-22.94l-1.34-2.35-1.56-2.35c-1.14-1.57-2.43-3.13-3.93-4.55-2.95-2.96-6.12-4.96-9.26-6.65-3.19-1.64-6.6-2.92-10.57-3.92-3.96-1.01-8.6-1.56-13.35-1.63-2.38-.06-4.83.08-7.26.18-2.42.08-4.8-.02-7.22-.02l-13.42-.15-15.58-.3c-20.95-.42-42.65-.86-65.35-1.32-14.22-.86-28.69-1.47-43.37-1.88-1.84-.05-3.67-.1-5.52-.14l-2.77-.06-1.38-.03s0-.02-.03-.03l-.5-.03-.93-.05-1.31-.05-.83-.02h-.91c-2.6.04-6.17.06-11.74 1.38-2.65.64-6 1.75-9.42 3.47a45.126 45.126 0 0 0-3.81 2.17l-1.08.72c-1.44.99-2.79 1.99-4.15 3.17a53.518 53.518 0 0 0-3.89 3.79c-1.18 1.33-2.3 2.73-3.34 4.18-1.97 2.8-3.59 5.82-4.68 8.44-2.26 5.41-3.05 9.85-3.48 13.26-.38 3.31-.4 5.78-.4 7.65l.06 3.47-.02 1.72-.06 11.28c-.09 30.16.46 61.06 1.28 92.45l.66 23.63.09 2.97.04 1.48.05 2.66.09 5.77c.04.95-.02 1.95.09 2.85l.25 2.75c.67 7.29 1.34 14.58 2.01 21.89l.5 5.45.25 2.72.12 1.36.06.68c.01.11.02.23.04.33l.11.27c1.14 2.94 2.36 5.37 3.87 7.79.76 1.2 1.59 2.41 2.55 3.64a40.36 40.36 0 0 0 3.28 3.64c2.45 2.35 5.03 4.26 7.56 5.69 1.28.73 2.54 1.38 3.88 1.98 1.36.57 2.75 1.17 4.26 1.67 2.97 1.02 6.25 1.84 9.78 2.32 3.53.49 7.33.59 11.16.48 3.8-.06 7.6-.13 11.4-.19 3.78-.06 7.56-.13 11.35-.19l2.83-.05 1.53-.05 3.02-.09c4.03-.12 8.07-.24 12.1-.37 8.08-.23 16.16-.45 24.26-.68 16.18-.43 32.43-.79 48.61-1.04 4.48-.07 8.89-.3 13.14-.74-.05.32-.09.64-.14.97l-.14 1-.14.85c-.04.32-.1.47-.14.69l-.06.32c-.02.09-.04.38-.07.56-.35 3.33-.53 6.78-.63 10.25-.2 6.94-.07 13.97-.28 20.46-.6 18.56-1.11 37.12-1.57 55.93-.11 4.7-.23 9.42-.34 14.16-.05 2.37-.11 4.74-.16 7.12-.04.8-.03 3.37-.04 5.31 0 2.05-.01 4.11-.02 6.17-.02 8.27-.05 16.59-.07 24.95v3.15c.12 1.04.3 2.06.48 3.04.39 1.95.82 3.82 1.37 5.58 1.09 3.54 2.46 6.74 4.34 9.87.92 1.57 2.03 3.1 3.33 4.64 1.3 1.55 2.77 2.96 4.28 4.2 1.53 1.23 3.1 2.35 4.72 3.35 1.66.94 3.34 1.81 5.03 2.62a53.8 53.8 0 0 0 11.11 3.63c4.01.88 8.55 1.39 13.3 1.46 2.36.04 4.77-.03 7.17-.11 2.41-.11 4.77 0 7.16 0 2.39.02 4.79.05 7.19.07 1.67.02 3.35.05 5.02.07l15.46.3c20.79.42 42.31.86 64.83 1.32 8.36.51 16.81.93 25.35 1.28 4.27.15 8.56.31 12.88.46 4.24.12 8.5.23 12.78.35l.02.04c-.08 0 .22.02.44.04l1.02.08c1.6.1 4.1.29 8.15.06l1.69-.14.86-.09 1.02-.13c.71-.1 1.32-.19 2.11-.34.82-.16 1.65-.33 2.46-.53.37-.08.9-.23 1.39-.36l1.47-.43c.51-.16.93-.29 1.5-.5.58-.21 1.16-.43 1.74-.66.58-.23 1.15-.47 1.71-.73l.42-.19.34-.16.66-.33c.88-.44 1.75-.91 2.6-1.41s1.69-1.01 2.51-1.55c.87-.59 1.76-1.25 2.61-1.92 1.72-1.36 3.33-2.77 4.85-4.42.76-.81 1.5-1.65 2.2-2.51.35-.43.7-.86 1.03-1.3l.91-1.28c.6-.86 1.17-1.75 1.71-2.65.54-.9 1.07-1.84 1.46-2.63.42-.83.81-1.68 1.19-2.53l.54-1.29.26-.65.21-.57c.53-1.49 1.01-3.04 1.41-4.54.32-1.28.59-2.58.82-3.89l.14-.88.11-.81.2-1.63c.41-4.07.32-6.9.26-8.98ZM423.7 291.35s0 .02 0 0Zm7.98 114.07Zm-1.03-140.2-.09.04-.35.15h-.02c1.7-.74-.31.14.46-.2Zm-165.24 2.61.02.02-.01-.01Zm-.32-.36s-.05-.07 0 0Zm-.97-.87s.02.02.04.03c.29.27.58.54.86.81l.14.13s.05.08.07.12c.04.07.1.18.17.29-.46-.36-.93-.76-1.4-1.16.04-.08.09-.15.13-.22ZM88.04 74.37s.03.05.04.07c-.22-.36-.35-.56-.04-.07Zm33.36 144.56-1.74-.03c-.26-.02-.54.03-.78-.08-.27-.12-.28-.45-.25-.71l.05-1.59.05-18.95.34-91.07 23.63.21c20.53.21 41.06.58 61.58.9l15.39.23 7.69.1 1.92.02s.01.02.02.02l.02.04c.04.11-.01.18-.03.2 0 0 .04-.05.18-.03h.05l.03.02h.02V108.77l.16 7.69.42 15.38c.67 20.51 1.78 41.03 3.53 61.54.78 9.08 1.38 18.37 2.71 26.89-7.13-.97-14.88-1.2-22.63-1.22l-92.36-.14Zm257.74 185.81c-20.37-.21-40.73-.58-61.09-.9l-15.27-.23-7.63-.1-1.91-.02h-.95l-.24-.01h-.06l-.02-.05c-.04-.11 0-.18.02-.2l-.03.02h-.02v.01-.11l-.02-.27-.09-1.11-.12-1.13-.07-.58-.08-3.42-.42-15.26c-.67-20.35-1.78-40.7-3.53-61.05-.65-7.56-1.18-15.28-2.12-22.56-.24-1.82-.5-3.62-.79-5.37-.08-.44-.15-.88-.23-1.31l-.12-.65-.03-.25c1.87.34 3.79.61 5.76.83 3.11.34 6.31.55 9.57.68 1.64.04 3.29.09 4.94.13l5.12.09 48.4.5c8.08.11 16.1.06 24.14.09l20.36.02-.11 47.44-.22 56.3-.05 8.7-23.08-.21ZM402.32 434v-.01.02Zm31.16 3.63s-.04-.09-.07-.14c.08.16.11.23.07.14Z" />
    </symbol>

    <symbol id="sign-46">
      <path color="currentColor" d="M466.15 263.29c-1.98-7.07-4.48-14-7.41-20.75-1.42-3.4-3.07-6.69-4.69-10-1.73-3.25-3.45-6.51-5.38-9.65-1.85-3.19-3.92-6.24-5.97-9.31-2.14-3-4.28-6.01-6.6-8.86-2.25-2.92-4.71-5.66-7.13-8.43-2.52-2.68-4.95-5.34-7.84-8.02-2.77-2.74-5.63-5.12-8.5-7.58-1.44-1.18-2.9-2.29-4.36-3.43l-2.19-1.69-2.22-1.58-4.46-3.13-4.52-2.9-2.27-1.44-2.29-1.34-4.6-2.66c-12.37-6.74-25.18-12.1-38.41-16.09-13.26-3.92-26.91-6.6-40.98-7.6-3.54-.18-7.04-.45-10.62-.41-1.78 0-3.56-.02-5.35 0l-5.4.24-2.69.14-2.72.26-5.43.56c-1.82.25-3.64.55-5.46.83-1.81.28-3.62.58-5.46 1-10.8 2.2-21.95 5.64-31.87 10.8-7.08 3.66-13.49 8.15-18.57 13.13-34.54-37.25-79.31-71.18-120.89-108.57-11.39-10.25-26.75-13.69-47.31 7.57-20.62 21.32-12.62 32.86-2.73 42.41 39.86 38.51 79.69 77.31 118.78 116.96-.83 1.44-1.64 2.92-2.4 4.45-3.97 7.91-7.04 16.84-9.21 25.89-2.49 10.2-4.11 20.53-4.97 30.88-.42 5.16-.66 10.4-.73 15.52-.06 5.12.09 10.36.45 15.7.74 10.67 2.45 21.81 5.71 33.02 3.26 11.2 7.84 21.7 13.28 31.37 5.45 9.68 11.75 18.57 18.63 26.73 6.99 8.24 14.66 15.78 22.89 22.61 8.23 6.82 17 12.96 26.29 18.27 9.3 5.29 19.07 9.8 29.24 13.45 10.16 3.63 20.72 6.44 31.57 8.09 10.84 1.67 21.91 2.34 33.18 1.81 11.19-.49 22.21-2.28 32.95-5.09 10.74-2.82 21.22-6.71 31.28-11.7a152.706 152.706 0 0 0 28.59-18.57c8.92-7.35 17.16-15.91 24.24-25.65 1.71-2.5 3.39-5.01 5.04-7.54.44-.65.75-1.22 1.11-1.81l1.04-1.77 2.05-3.55c1.28-2.42 2.61-4.81 3.8-7.27 1.17-2.48 2.42-4.92 3.46-7.45a177.77 177.77 0 0 0 10.29-31.19c6.48-28.37 5.83-58.42-2.26-86.65Zm-71.69 66.83c-2.91 10.94-7.47 21.43-13.65 31.06-.19.29-.38.64-.56.88l-.52.68-1.01 1.39c-.35.46-.61.96-1.01 1.4l-1.15 1.34-1.11 1.37c-.36.46-.84.87-1.25 1.31l-1.25 1.32-.61.67c-.22.21-.47.41-.7.62-3.51 3.46-7.75 6.58-12.33 9.39-4.6 2.8-9.6 5.29-14.91 7.26a94.13 94.13 0 0 1-16.55 4.34l-2.12.33c-.71.12-1.42.24-2.13.28l-4.27.4c-1.42.02-2.83.07-4.26.14-1.43.05-2.92-.08-4.39-.08-5.9-.25-11.91-1.06-17.93-2.45-6.03-1.36-12.04-3.41-17.91-5.98-5.87-2.57-11.61-5.68-17.06-9.29-1.33-.94-2.72-1.82-4.04-2.8l-3.92-2.98-3.76-3.17c-1.24-1.08-2.39-2.23-3.61-3.33-.62-.54-1.19-1.13-1.74-1.72l-1.7-1.76c-1.15-1.15-2.27-2.4-3.34-3.65-2.16-2.5-4.17-5.07-6.03-7.69-3.72-5.24-6.78-10.7-9.05-16.2a66.382 66.382 0 0 1-2.85-8.4c-.79-2.92-1.41-6.03-1.89-9.29-.48-3.26-.79-6.67-.97-10.21-.09-1.77-.14-3.57-.16-5.4l.05-5.37c.15-4.61.56-9.2 1.18-13.75 15.25 15.15 31.23 29.56 49.29 41.89 12.9 8.82 25.23 19.97 48.71-5.53 22.88-24.83 6.98-33.7-1.81-43.5-17.85-19.86-36.17-39.31-56.43-60.87.93-.31 1.86-.63 2.82-.93 4.79-1.53 10.05-2.9 15.25-3.35 7.43-.63 15.32-.33 23.33.77 8.01 1.09 16.16 3 24.15 5.69 7.99 2.67 15.84 6.06 23.26 10.07 7.36 4.07 14.31 8.77 20.22 13.9 1.4 1.31 2.91 2.58 4.15 3.92l.98.99.5.49.5.56 2.03 2.25c2.61 3.08 5.15 6.24 7.39 9.64 2.23 3.4 4.35 6.89 6.17 10.59 1.81 3.69 3.45 7.51 4.82 11.46 5.45 15.79 6.89 33.71 3.18 51.35Z" />
    </symbol>

    <symbol id="sign-47">
      <path color="currentColor" d="m140 151.5 5.8 5.3 5.8 5.2 2.8 2.6 1.4 1.3 1.2 1.2 1.3 1.2.6.6.3.3.2.2 1.7 1.7c4.6 5.1 9.2 9.6 13.7 13.7 4.4 4.1 8.7 7.9 12.9 11.5l11.6 10.2 2.6 2.4 2.1 2c1 1 2 1.8 2.8 2.8 1.9 1.8 3.7 3.8 5.4 5.9 1.8 2 3.5 4.1 5.4 6 3.8 3.7 7.7 6.5 11.5 8.6a45.5 45.5 0 0 0 38.4 2.7l3-1.2 3-1.5a64 64 0 0 0 16.6-13.6c1.8-2 3.4-4.1 5-6.2l1.3-1.6 1.3-1.4 2.6-2.8 6.7-7.3 29.7-31.5a1912.7 1912.7 0 0 1 57.4-58.2c9.5-9.2 19.1-18 28.9-26.8 7.2-6.6 15.3-12.4 19.8-20 2.2-3.7 3.5-7.9 3.4-12.8-.1-5-1.8-10.8-5.6-17.6a28.5 28.5 0 0 0-12.3-12.6c-4.3-2-9-2.1-13.7-1-4.8 1-9.5 3.4-14 6-4.6 2.8-9 5.8-13.2 8.5-12 7.6-23.3 16-34.3 24.9-11 8.9-21.7 18.3-32.1 28.3a952.3 952.3 0 0 0-31 31.2L274.4 136l-15.9 16.6-5.3 5-1.3 1.3-.2.1-.4.1c-.4 0-.5-.2-.7-.4-.2-.2-.2-.6-.2-.6l-.2-.2-1.7-1.5-3.3-3-6.6-5.5c-8.6-7.2-16.6-13.5-23-19.4l-2.3-2.1-2.7-2.7-2.2-2.2-2-1.9-3.6-3.1-13.3-11.3L163.2 84A2400.2 2400.2 0 0 1 111 41a49.6 49.6 0 0 0-25.1-13 27.2 27.2 0 0 0-13.4 1.8 41.5 41.5 0 0 0-14 9.4 30.8 30.8 0 0 0-8.8 13.5 22.2 22.2 0 0 0 .5 12.6c.7 2 1.7 4 2.8 5.9 1.1 1.9 2.5 3.7 4 5.5 3 3.6 6.4 7 10 10.2 16.4 14.7 32.7 29 48.9 43.2 8 7.2 16.2 14.3 24 21.4ZM462.7 454a19.4 19.4 0 0 0-5.7-10.8c-5.6-5.7-14.3-9-21-13.2a347.9 347.9 0 0 1-54.8-42.3l-6.5-6.3-3.2-3.2-3.3-3.5-13.7-14.6c-9.4-10.2-19.6-21.3-31.6-32.8a215.2 215.2 0 0 0-18.3-17.1l-5-4.1-5.5-4-1.3-1-.9-.6-1.1-.8-4.8-3-4.9-3-2.4-1.5-2.5-1.4a50.3 50.3 0 0 0-44.3-3c-7.2 2.7-14 7-20.2 12.2-3.2 2.6-6.1 5.5-9 8.4l-4.3 4.2-2.4 2.4-5 4.2a545.3 545.3 0 0 0-29.3 27c-25.5 24.8-49.2 51.9-72.5 78.7-13.5 15.5-19.7 33.8.1 51.5 20 17.8 33.6 5.8 45.7-7.4a1001 1001 0 0 1 69.8-70.4 696 696 0 0 1 27.9-23.9l4.7-3.8 2.8-2.2 2-1.6 1.7-1.5 5.6-5.2 1.1-1.1.1-.2h.1l.2-.2.6-.4h.7c.3 0 .5.2.7.3 0 0 0 .2.2.2v.1h.1l.7.5 3.5 2.5 3.5 2.7c2.4 1.7 4.6 3.7 7 5.6l3.4 3 3.5 3.1c4.5 4 8.9 8.6 13.4 13.1l13.6 14.3c4.6 5 9.3 10 14.3 15.1 2.4 2.6 5 5.1 7.6 7.7l8.1 7.8c11.1 10.2 23 19.6 35.5 27.9a243.6 243.6 0 0 0 39.8 21.3c10.3 4.3 21 8.7 30.6 8.2a21 21 0 0 0 13-5c3.8-3.3 7-8.3 9.6-15.6 2.6-7.2 3-12.8 2.3-17.3Z" />
    </symbol>

     <symbol id="sign-48">
      <path color="currentColor" d="M281.7 120.8a129.8 129.8 0 0 1 41-34.2 90.7 90.7 0 0 1 34.5-9.5c4.2-.3 8.5-.2 12.8.3 2.1.2 4.2.6 6.3 1a86.8 86.8 0 0 1 27 10.7 143.3 143.3 0 0 1 21 15.3c2 1.7 4.2 3.5 6.3 5.5a111.2 111.2 0 0 1 19.5 23.2c1 1.6 1.9 3.3 2.7 5l1.3 2.8 1.1 2.7a75.5 75.5 0 0 1 3.7 43.8 77.6 77.6 0 0 1-19.6 38 82.7 82.7 0 0 1-65.1 25.8 54.2 54.2 0 0 1-20-5.7l-2.1-1.2-2-1.3a41.6 41.6 0 0 1-9.3-8.3c-4-4.8-6.5-10.2-7.6-15.4-1-5.2-.7-10.2.8-14.2 1.5-4.1 4.1-7 7.2-8.5 1.5-.7 3.2-1 4.9-1.1 1.7-.1 3.4.1 5.3.5 3.8 1 7 2.3 9.8 3.4a37.6 37.6 0 0 0 5.8 1.6l1.8.1h1.8l.9-.2 1-.3a9 9 0 0 0 2.6-1.2l-.4.3c0 .2-.3.4-.5.7l-.3.5 2.2-3.6.2-.3.2-.5.3-.6.3-.8.4-.9.3-1v-.2h.1v-.2l.2-.2 1-.5 1.4-.6a22.8 22.8 0 0 0 11.9-9.4 15.5 15.5 0 0 0 1.6-11.6l-.2-.4-.1-.3c0-.3-.2-.5-.3-.7l-.3-.6-.3-.5-1.3-1.7a87.4 87.4 0 0 0-14.7-12.8c-1.5-1.3-3-2.4-4.4-3.3a44 44 0 0 0-8.1-4.6c-.5 0-.9-.2-1.3-.3h-1.5l-1.9.1c-2.8.5-7.4 2.4-12 5.9a64.4 64.4 0 0 0-13.1 13.5l-1 1.4-1.2 1.8-2.3 3.6a125.7 125.7 0 0 0-15.9 40.3 162 162 0 0 0-3 19c-1 7.4-2.1 15.6-4.2 24.8l-.4 1.8-.5 1.7-1 3.6-2.3 7.4-3 7.5c-1.3 2.5-2.4 5-4 7.6-1.3 2.5-2.9 5-4.5 7.4l-2.6 3.5-2.7 3.4c-3.7 4.3-7.6 8.1-11.6 11.6a126.8 126.8 0 0 1-37.7 22.2 217 217 0 0 1-12 4.4c-7.8 2.7-15.1 4.8-21.8 6.9-6.8 2-12.8 4-18.3 6.2a156.1 156.1 0 0 0-52.9 34.3l-3 3-3 3.2a97 97 0 0 0-9.7 13c-2.5 3.8-4.5 7.6-6.5 10.9-2 3.3-3.8 6.1-6.3 8.6l-1.8 1.9-2.2 1.7a27.6 27.6 0 0 1-5.2 3.2c-3.9 2-9 3.7-15.6 4.2a24 24 0 0 1-16.7-4.1 23 23 0 0 1-7.8-10.9c-.5-1.5-1.1-3.2-1.4-4.9a57 57 0 0 1-1-11.1l.3-3a83.3 83.3 0 0 1 1.6-9.2c2-8.2 5.8-16.5 10.6-24 5.2-8 11-15.4 17-22.3l4.8-5 4.7-4.7a231 231 0 0 1 53.5-38.9l6-3a172.8 172.8 0 0 1 18.2-8c8-3 15.6-5.6 22.6-8 6.9-2.3 13.2-4.6 18.7-7a97.3 97.3 0 0 0 14-7.5c3.9-2.7 7-5.4 8.9-7.9a23.6 23.6 0 0 0 4.2-8 64.5 64.5 0 0 0 3.2-14l1.3-9.6.7-5.3.8-5.7a232.6 232.6 0 0 1 5-24.7 187.2 187.2 0 0 1 26.2-56.9l1.8-2.5 2-2.7 4.1-5.2Z" />
    </symbol>

    <symbol id="sign-49">
      <path color="currentColor" d="M212.3 300a1092 1092 0 0 0-45.8 20.8 70.3 70.3 0 0 0-14.1 9.1l-1.2 1.1-1 1.1-1 1.2c-.4.3-.8.7-1 1.1l-1 1.3-.9 1.4-.9 1.4-.8 1.5a59 59 0 0 0-5.3 14.9c-1.3 5.6-2.1 11.7-2.6 18.1-.4 6.5-.4 13-.2 20.2l.9 22.5c.2 5.4.7 11.5.7 17.8 0 6.2-.5 12.7-2.2 18.4a25.2 25.2 0 0 1-8.8 13.7c-4.4 3.2-10.1 4.4-17.6 3.4-7.7-1-13.3-3.5-17.4-6.4-4-3-6.7-6.6-8.6-10.7-1.9-4.1-3-8.8-4-14-1-5.2-1.8-11-2.9-16.8-1.3-8-2.7-16.3-3.8-25.2l-.7-6.8-.6-7.2a175 175 0 0 1-.3-7.3v-7.4a151.6 151.6 0 0 1 8.6-47.9 110 110 0 0 1 8-16.6c1.5-2.7 3.4-5.4 5.2-8l3-3.9 3-3.7c4.5-5 9.2-9.2 13.9-13a156.2 156.2 0 0 1 33.4-19.6l5.9-2.7 11.7-5.4 11.8-5.3 11.7-5.1c23.5-10.2 46.7-19.8 69.3-29.8 22.6-9.9 44.5-20.2 65.3-31.6 5.3-2.7 10.3-5.8 15.4-8.7 2.6-1.4 5-3 7.6-4.6l7.4-4.6 7.2-4.8c2.4-1.6 5-3.3 6.8-4.7a48.2 48.2 0 0 0 4.8-3.9h.1l.2-.3.3-.6v-.3l.1-.2v-.3a52 52 0 0 0 0-5.7l-.2-4.1-.3-4.7-2.3-37.6c-1.4-22.2-.2-44.7 26.4-46 26.5-1.1 35.1 20 37.1 44.5l3.5 39.2c.3 3.4.7 7.2.8 11.7v7.2l-.1 1-.1 1.1a58.5 58.5 0 0 1-.8 6.8 64 64 0 0 1-17.5 34.4L417 191l-2.8 2.6a113.4 113.4 0 0 1-14.6 11.8c-5.6 4-11.2 8.2-17 12L374 223l-8.7 5.4-4.3 2.7-4.4 2.6-8.7 5.1a750 750 0 0 1-69.5 34.6c-22.8 10-44.9 18.7-66.1 26.6Z" />
    </symbol>

    <symbol id="sign-50">
      <path color="currentColor" d="m135 399.2-5.2-74.6-4.7-70.3L121 189l-1-15.6-.8-14.3c-.3-4.7-.6-9.5-.7-14l.1-3.4c0-.5 0-1 .2-1.6v-.8l.2-.3.1-.3.4-.7.4-.5 1-1 2-2 3.5-3.3 1.5-1.6.4-.4.2-.2h.1v-.1c3.6 3-4.7-4.1-3.8-3.4l.8-.8 3.2-3.2.4-.3.2-.2.3-.2 1.3-.6 2.5-1.1c3-2 7.9-2 12.1-2.8l6.7-.5c2.1-.2 4.4-.3 6.5-.6l6.4-.8 1.5-.2.8-.2 1.5-.2 3-.6 2.7-.5 2.7-.7 2.7-.6 5-1.5 2.4-.8 2.3-1 1.1-.3 1.1-.5 2.1-1 2-1 1-.5.8-.5 1.8-1c.6-.5 1-.9 1.6-1.2l.8-.6.7-.6 1.4-1 1.6-1.7c.4-.6.9-1.1 1.2-1.7 1.4-2.5 1.8-5.1 1.5-6.7l-.2-1a5.4 5.4 0 0 0-2-2.6c-.8-.7-2-1.3-4-2-1.8-.5-4.2-1-7-1.4-2.8-.4-6-.6-9.4-.7l-11.1-.2a481 481 0 0 0-22 .2c-11.7.3-23.7 1.8-33.7 4.8l-3.7 1.1-3.5 1.3-1.7.7-1.5.6-1.3.6-1.3.7c-3.3 1.8-6.3 4-8.7 6.2-2.4 2.1-4.2 4.2-5.6 5.7-1.4 1.6-2.6 2.8-3.8 4.5a27 27 0 0 0-3.1 6.6c-1 2.5-2 5.3-3.9 8-1.9 2.5-4.2 4.3-7.4 4.6-3 .3-7-.8-11-4.5-2-1.8-4-4.2-5.5-7.2-1.6-3-2.8-6.7-3.4-10.6-.7-3.9-.7-8.1 0-12.3.5-4.3 1.7-8.5 3.3-12.6A64.6 64.6 0 0 1 72.6 58c3.5-3.2 7.3-6.2 11.6-8.8l3.2-2 3.1-1.5 3-1.6 3.2-1.3c8.4-3.6 17.1-6.1 25.7-7.9 8.6-1.7 17-2.8 25.1-3.5 9.2-.8 18-1.1 26.5-1.4l13.1-.3a147 147 0 0 1 24 2 84 84 0 0 1 9.4 2.4c1.6.6 3.2 1.1 5 1.9l2.4 1 2.5 1.3c1.7.8 3.3 1.8 5 2.8a93.6 93.6 0 0 1 4.7 3.4l2.4 1.9a148.6 148.6 0 0 1 4.4 4.2l2 2.3a58.5 58.5 0 0 1 13.8 33.1 65.7 65.7 0 0 1-18.3 51.5l-2 2-1.9 1.7-3.5 3c-1.2 1.1-2.4 2-3.7 2.9l-3.7 2.6c-2.4 1.5-5 3.2-7.5 4.5l-3.7 2-3.8 1.8-2 .8-1.8.8-3.8 1.5-3.7 1.4-3.7 1.2c-2.5.8-5 1.6-7.4 2.2l-3.7 1-3.7.7-7 1.4-1.4.3.6 7.7 1.1 17.4L183 264l4.8 69.6c1.7 23.2 3.3 46.4 5.2 69.6l1.2 15.8.1 3.7V428.7h-1.6l-2 .2-3 .2-3 .3-2.4.2-2.2.4-1 .1-.9.2a22.8 22.8 0 0 0-3.2.7l-.6.2-.7.2-1 .4-.6.3-.3.1-.8.4v.1h-.1l-2.2 1.4.5-.3.6-.5c1-.8 1.7-1.5 2.2-2.1l.3-.4a8.8 8.8 0 0 0 .6-.8l-.6 1.3c-.4 1-.7 2.4-.7 3.4v.6l.1.1c-.2-1 0-.3 0-.5v.4c-.2-.2-.8-1-2.7-1.8l-.8-.3-1-.4-1.1-.4-.3-.1h-.1l-.2-.1-1-.3-1.8-.6-.9-.2-1.7-.5a123 123 0 0 0-3.7-1l-2-.5-.9-.3h-.2l-6.1-1.6a49.6 49.6 0 0 1 1.6-5.3c.1-.6.4-1.1.6-1.7l.7-1.6.7-1.5 1-2a191.4 191.4 0 0 1 5.4-10.7l7-12.9c4.9-8.7 9.9-17.3 15-25.8a970 970 0 0 1 32.5-49.2c11.1-16 22.6-31.6 34.1-47l17.3-23 4.4-5.8 4.4-5.7 8.6-11.2c11.4-15 22.7-30.3 34.2-45.6l34.4-45.7 13.1-17.4 4.2-5.5 4.2-5.2 8.3-10.3 16.7-20.6.5-.6.2-.3.3-.2 1-.7 2-1.3 1.7-1.1 1.7-1a40 40 0 0 1 12.3-4 33.3 33.3 0 0 1 10.7.4 24.5 24.5 0 0 1 8.8 3.8s.2 0 .3.2l.2.3.6.7 8.6 11.4 4.3 5.6.5.7.2.2v.4l.2.7.7 2.9 1.3 5.7 4.5 46.5 2.3 23.3 1.2 14.2a2780.2 2780.2 0 0 1 8 166.7c.6 27 0 54-3.4 74.1-3.5 20.1-9.8 33.2-21 32.4-11-.8-17.8-14.2-22-34.5a480.6 480.6 0 0 1-6.7-77 2440.7 2440.7 0 0 0-9.6-159.2l-.6-6.5-.3-3.3-.2-1.6v-.6l-.6-4.3-1.1-8.2-.6-2c0-.2-.1-.4-.3-.4-.2 0-.5.1-.6.3a6 6 0 0 0-.8 1.3l-1.1 2.1-.4.8-.1.2-.6.8-1 1.5-4.4 6-34.5 46.9c-11.4 15.6-22.8 31.2-34.4 46.7l-8.7 11.5-8.4 11.3-16.8 22.6c-11 15-21.9 30-32.2 44.8a956.8 956.8 0 0 0-42.6 67.2l-6.4 11.6-2.8 5.3-1.3 2.4-.6 1.2v.1l-.1.1c-.4 1.4-1 3.6-2.5 7l-.3.5-.3.7a36 36 0 0 1-7.6 9.6 33 33 0 0 1-20.8 8h-1l-.6-.1h-.5l-1.8-.2h-1l-.7-.2a73.9 73.9 0 0 1-3-.6l-1.4-.4a42.8 42.8 0 0 1-10.1-4.8 37 37 0 0 1-3.6-2.8l-.9-.8a33.4 33.4 0 0 1-3.3-3.7l-.4-.4-.4-.5-.7-1-.3-.5-.3-.5-.4-.6c-.5-.8-1-1.7-1.3-2.5l-1-2.3a44 44 0 0 1-1.9-5.8l-.3-1.5-.1-.8-.1-.4v-.3c-.6-3.6-.6-6-.6-8.1l.2-4.7v-.7l-1.4-24Z"/>
    </symbol>

    <symbol id="sign-51">
      <path color="currentColor" d="M442.6 255.7a37.5 37.5 0 0 0-1.9-10l-.3-1-.2-.5-.2-.4a61.4 61.4 0 0 0-2-4.2l-.7-1.4-.5-.8-2.4-3.4-.3-.3-.2-.3-.5-.6-1-1-.9-1.1-.4-.4-1-1-3.8-4.2-7.5-8.3a647.5 647.5 0 0 1-29-35.4c-9.4-12.2-18.5-24.8-27.5-37.7l-3.4-4.8-1.6-2.3-3-4.6-12.7-19.9C333 99 324.5 86 315.9 73.6a389.4 389.4 0 0 0-20.3-26.1c-2.2-2.4-4.3-4.7-6.4-6.6a57.6 57.6 0 0 0-11.7-8.7l-1.4-.7-1.3-.6-2.5-1.1a51 51 0 0 0-9.2-2.6l-4.2-.4h-4.2c-.7.1-1.4.1-2 .3l-2.3.6-2.9.7-.8.3-.5.1-.3.1c0 .3-.3-.2-.3-.2l-1.8.7c-1.1.4-2 1-2.6 1.4l-2 1.2-3.1 2a43.3 43.3 0 0 0-5 4.2l-2.4 2.6a29.5 29.5 0 0 0-1.8 2.4l-.4.4-.1.3v.6l-.6 10-1.5 28.7c-1-1.4-2-2.7-3.3-4a18 18 0 0 0-16.8-4.8c-6.3 1.2-13.3 5-20.3 10.8a145.4 145.4 0 0 0-21.3 22.4c-6.9 8.7-13.5 18.5-19.8 28.4a1207 1207 0 0 0-14 23l-6.7 11.2-6.7 11c-4.4 7.2-8.8 14.3-13.3 21.2l-3.4 5.2-3.2 4.8-.2.2-.5.7-1.7 2.1-4.3 5.3a178.2 178.2 0 0 0-10.1 14l-.7 1-.7 1.2-1.4 2.5-1.4 2.8-.7 1.6-.7 1.7-.7 1.8-.7 2a51 51 0 0 0-2.3 17.6 51.1 51.1 0 0 0 1.6 8.8l.4 1.1.2.6.3.7a44.2 44.2 0 0 0 5.6 10.3l.9 1 .8 1a48 48 0 0 0 9.3 8 48.5 48.5 0 0 0 16.4 6.5 85.5 85.5 0 0 0 19.5 2.2 205.3 205.3 0 0 0 30-1.1l14-1.5 6.6-.8 3-.3 3-.3 54.8-6c2.2 29.2 4.2 58.1 5.7 87 1.3 24.5 1.2 49.8 4.4 69 1.6 9.5 4.1 17.5 8.1 23.2 4 5.7 9.6 9 17.4 9 15.2 0 23.2-14.8 27-35.3 2-10.2 3-21.8 3.4-33.5.5-11.8.5-23.7.6-34.6.4-30-.2-59.7-1.4-89.7a438.4 438.4 0 0 1 32-.3c8.4.1 16.7.3 25.1.9l25.1 1.3 2.3.3a141.9 141.9 0 0 0 12.1.6h2.4l2.6-.1a64 64 0 0 0 6.3-.7c1.4-.2 2.7-.4 4.5-.9l1.3-.3 1.6-.5 3.6-1.3 2-1 .6-.3.3-.1.3-.2a40.6 40.6 0 0 0 4.2-2.6l.4-.3.4-.2.9-.8a43.4 43.4 0 0 0 3.5-3.2l.8-.8.4-.5.5-.6a38.9 38.9 0 0 0 4.4-6.6l.4-.7.4-.8a37.8 37.8 0 0 0 2.7-8.6l.1-1 .1-.7c.3-2.1.4-4.3.3-6.4ZM133.5 270Zm45.7-34.1-6.4.8-3.5.4-3.3.5-10.8 1.4a876.7 876.7 0 0 0 25.7-43 1116 1116 0 0 1 13-22 699.4 699.4 0 0 0 17.2-29.6c4.5-8.3 8.3-16 11.2-23.3v.7l.3 3.1.9 12.6 1.8 25.1 1.7 22.3c1 14.8 2.2 29.6 3.4 44.4-17.2 2.1-34.3 4.4-51.2 6.6Zm130.5-13.2-12.3.5a5998.1 5998.1 0 0 0-2.8-43.1l-.1-3v-4c0-1.7.2-3.2.3-4.5l.1-1.7c0-.2.1-.3.3-.4l.6.3 1 1.3 2.5 4.7a20 20 0 0 1 .6 2.9v.4l.6.9.9 1.3a1034 1034 0 0 0 29.3 41.5l1.9 2.5c-7.6 0-15.2.1-22.9.4Z" />
    </symbol>

     <symbol id="sign-52">
      <path color="currentColor" d="M490.8 245.8c-1-30.3-23.4-26-40-26.9-14.8-.7-29.7-1.2-44.9-1.7a18.9 18.9 0 0 0 4.4-9.4 28.1 28.1 0 0 0 .2-9 52 52 0 0 0-.9-4.8c-3-13.5-13-29-25.3-41.7a184 184 0 0 0-102-54c-18.8-3.4-38-3.8-56.7-1.7l-7 1c-2.3.2-4.6.7-6.9 1a190.4 190.4 0 0 0-41.8 12.8c-9.1 4-18.2 9.2-26.8 15.4a134.6 134.6 0 0 0-42 49.6A154.2 154.2 0 0 0 87.6 217l-26.8.8c-19.2.4-36.2 7.7-36.5 34.3-.4 26.6 17.1 29.2 34.6 29.2l30 .1a148.6 148.6 0 0 0 23.7 51.5 193.3 193.3 0 0 0 26 30c4.7 4.4 9.3 8.5 14 12.4 2.4 2 4.8 4 7.2 5.8l7.6 5.7c10.2 7.3 21.3 14 33.4 19.5a149 149 0 0 0 39 11.9 128 128 0 0 0 42.2-.5l5.2-1 1.3-.2 1.3-.4 2.5-.7c3.4-1 6.8-1.8 10.2-3a133 133 0 0 0 19.3-8.7c12.1-6.7 22.9-15 32.5-24.2a176 176 0 0 0 39.2-56.4 85.4 85.4 0 0 0 6.8-25.6c.4-5 0-9.8-1.1-13.8 17.5-.5 35-1.6 52.5-3.8 19.4-2.4 40.3-3 39.2-34Zm-326.1-45c.8-1.1 1.4-2.3 2.3-3.3l1.2-1.6 1.3-1.6 2.7-3 1.4-1.5 1.5-1.5c4-3.7 8.6-7.3 13.8-10.3 5.1-3 10.8-5.7 16.9-8a140.5 140.5 0 0 1 60.3-7.7c13.6 1.4 27.1 4.7 39.7 10.3a119.7 119.7 0 0 1 34.4 23c4.6 4.6 9.1 9 13.5 13.1 2.3 2 4.4 4 6.7 5.8l1.6 1.3-64.2-1.9c-43.7-3.9-91-2.3-139.9 0a78 78 0 0 1 6.8-13Zm168.4 111.5a121.8 121.8 0 0 1-36.5 31 85.3 85.3 0 0 1-10 4.6l-2.6.9-2.5.7-5.3 1.3a71.7 71.7 0 0 1-21.6 1 83.8 83.8 0 0 1-22.4-5.6c-7.6-3-15.3-7.1-23-12.2l-5.8-4-5.7-4.4c-2-1.6-3.8-3-5.7-4.7l-3-2.5-2.7-2.5a163.6 163.6 0 0 1-19.6-21.3c-2.9-4.3-5.3-8.7-7.4-13 45.2 0 90.5.3 135.7 1 18.9.3 37.7.8 56.5 1.2-2.8 4-5.4 8.7-8.2 13.3-3.2 5.3-6.6 10.7-10.2 15.2Z" />
    </symbol>

    <symbol id="sign-53">
      <path color="currentColor" d="M441.2 275.6c18.4-2.2 38.1-2.6 37-30.6-1-27.2-22-23.4-37.8-24.1-30-1.3-60.1-2.2-93-3a206.5 206.5 0 0 1 17.4-61.8c7.4-15.8 17-30.7 28.9-43.7 5.5-6 10-12.3 11.6-19.6a26.8 26.8 0 0 0-.1-11.9 39 39 0 0 0-6.4-13.7c-3.5-4.9-7-8-10.8-9.6-3.7-1.7-7.6-2-11.5-1-2 .4-4 1-5.9 2a49 49 0 0 0-11.3 7.8l-5.2 5a256.2 256.2 0 0 0-69.4 144.2c-12.9-.8-26-1.2-39.4-1.3v-.5l-1-4.7-1-4.6-1-4.6-2.6-9.3-1.5-4.5-1.6-4.6-1.7-4.5-2-4.5c-.5-1.5-1.3-3-2-4.5l-1-2.2-1-2.2c-3-5.8-6.3-11.4-9.9-16.8-1.8-2.8-3.7-5.4-5.6-8-2-2.6-3.9-5.2-6-7.7a182 182 0 0 0-78.9-55.6 48.8 48.8 0 0 0-32.4-1.8A23 23 0 0 0 85.4 82c-2.6 3.8-4.1 8.5-4.6 14.5-.4 6 .4 10.6 1.8 14.3 1.4 3.7 3.4 6.5 5.9 8.7 4.9 4.3 11.6 6.4 18.4 9a119 119 0 0 1 69.4 68.2c.8 1.8 1.4 3.9 2 5.9.7 2 1.5 4 1.9 6l1.5 6.1.2 1c-36.2 1.4-73.4 3.5-110.6 4.3-18.2.4-34.2 6.9-34.6 30.7-.3 24 16.2 26.3 32.7 26.3l110.7.3-.4 1.5-.8 3.1-1 3.2-1 3-1 3.2-2.3 6c-4.4 10.8-10.1 21-16.8 30.2a181 181 0 0 1-23 26c-17.2 16-37.2 29.4-58.8 41.1l-12.2 6.3-2.9 1.6-2.8 1.7a32.5 32.5 0 0 0-8.9 8.5c-1.1 1.7-2 3.6-2.6 5.8-1.2 4.4-1.3 9.8.4 16.6 1.6 6.6 4.4 11 8 13.7 1.7 1.4 3.7 2.4 5.8 3 2.2.7 4.4 1 6.8 1 2.4 0 4.8-.2 7.3-.7 2.5-.5 5-1.1 7.6-1.9 2.5-.7 5-1.6 7.5-2.5 2.4-1 4.8-1.7 7.1-2.6a240.8 240.8 0 0 0 75-43.4 225 225 0 0 0 32.4-34.3c1.3-1.6 2.6-3.2 3.8-5a4345 4345 0 0 0 5.3-7.8l1-1.3.7-1.3 3.4-5.5c4.4-7.4 8.3-15.2 12-23.4l1-2 .8-1.9 1.6-3.9c1.1-2.6 2.3-5.2 3.2-8l2.9-8.1 2.4-8.4 1.1-4.3 1-4.3.8-4.3v-.3l40.2.4a254 254 0 0 0 8 37c4.1 14 9.4 27.7 15.9 40.8a233.8 233.8 0 0 0 36.9 54c2.4 2.6 5 5.2 7.6 7.7l4 3.8 4 3.6 4.2 3.5 4.3 3.4c2.9 2.3 5.9 4.3 8.9 6.4a178 178 0 0 0 33.3 17.9l3.7 1.3a58.4 58.4 0 0 0 7.1 1.5c1.2.2 2.4.2 3.5.2a18.4 18.4 0 0 0 12.3-4 30 30 0 0 0 9-13.8 31.1 31.1 0 0 0 2.1-15.5c-.6-4-2.4-7.3-4.9-9.8a43.1 43.1 0 0 0-8.7-6.8l-4.9-3-2.4-1.5-2.2-1.6A205.8 205.8 0 0 1 403 383l-2.7-2.7-2.7-2.8-5.3-5.8a199.3 199.3 0 0 1-19-25.8c-1.5-2.4-3-4.7-4.3-7.2l-2-3.6-2-3.8c-2.5-5-5-10.2-7-15.6-1.2-2.7-2.1-5.5-3.1-8.3-1-2.8-2-5.6-2.7-8.6-1.5-6.5-2.7-13-3.7-19.8 30.9.5 61.8.2 92.7-3.5Z" />
    </symbol>

    <symbol id="sign-54">
      <path color="currentColor" d="M463.5 175.4c-1.6-27.2-21.2-23-36-23.3-30.4-.7-60.9-.9-94.8-1l2.8-18.6 1.6-10.3.8-5.1.4-3 .4-3c.5-4.2 1-8.6 1-13.5v-4.1l-.2-5.1a60.7 60.7 0 0 0-9-29l-1.3-2-1.5-2.1-1.6-2-1.7-2-1.7-1.8-1.9-1.8c-1.3-1.1-2.5-2.2-4-3.2-3.8-3-8.2-5.5-12.8-7.4a65.6 65.6 0 0 0-22.4-4.7l-3.8-.2H266a3023.3 3023.3 0 0 0-48.8 1.3c-2.8 0-5.5.2-8.3.3l-12.1.5-67 2.8 7.7 41.2 4 20.7 3 16.1 7.8 39.6c-23 1.6-46.1 3.3-69.4 4.4-17 .8-31.8 7.6-31.6 31.5.2 24 15.8 25.9 31.2 25.5l81.9-1.7L170 242C182 299 194 357.2 205.3 415.5c7.4 38.1 20 70.6 43.6 67 13.5-2 18-14.3 18.1-30.9 23.4-3 25.9-45.2 31-76.6 7.6-47.5 15-95 22.6-145l2.7-17.6c35.5 0 71-.2 106.3-5.6 17-2.6 35.5-3.4 33.9-31.4Zm-249-26.3-7.8-43.3-1-5.4-.2-1.2v-.3l-.1-.6-.2-1.2H209.1l7.8-.4 15.6-.6 31.3-1.2 7.7-.3H277.6l.3.1c.2.2.4.4.4.6V97.2l-.1.8c-.1 2-.3 4.4-.7 7 0 .7-.2 1.4-.3 2l-.3 2.3-.7 4.9-3 19.5-2.4 16.1a800 800 0 0 0-56 1l-.2-1.7Zm11.8 64.2 35.3-.5c-5.3 38.4-10.3 76.8-14.3 115.4l-16.9-92.4-4.1-22.5Z" />
    </symbol>

    <symbol id="sign-55">
      <path color="currentColor" d="M452.6 461.2A28 28 0 0 1 438 471a42.8 42.8 0 0 1-18.2 2.9 23.9 23.9 0 0 1-14.2-6.1 32.1 32.1 0 0 1-4.1-4.3l-2-2.3-3.8-5-3.9-4.9c-3.4-4.3-7.2-8.5-11-12.5-1.9-2-3.7-4.1-5.7-6l-3-3-3-2.8-3-2.8-3-2.8-6.4-5.3a182 182 0 0 0-57.3-32.3l-8-2.3A135 135 0 0 0 235 379c-16 2.8-31.9 8.6-46.5 16.9a160.2 160.2 0 0 0-67.2 73l-2.3 5a43 43 0 0 1-8.9 12.6c-2.7 2.1-6 3.8-10.2 4.5-4.3.8-9.6.7-16-.7a36.6 36.6 0 0 1-15.4-6.8 24 24 0 0 1-7.8-11.5c-3-9-1.2-20.3 3.5-31A234.1 234.1 0 0 1 161 332.6c21.3-12.1 44.7-20.4 68.5-23.9a174 174 0 0 1 69.5 4.1c4.4 1 8.6 2.2 12.8 3.3 4.1 1.2 8.2 2.4 12.2 3.9a220 220 0 0 1 28.3 12.1l5.2 2.8c3.5 1.8 6.8 4 10.2 5.9a230 230 0 0 1 35.9 27.4l4 3.8 1.9 2 1.9 2 3.7 3.9 3.6 4c2.4 2.7 4.7 5.6 7 8.4l3.2 4.3 3.2 4.3a206.8 206.8 0 0 1 13.3 21.5l2 3.5c1.2 2.3 2.5 4.6 3.6 7.1a116.6 116.6 0 0 1 3 7.4 41 41 0 0 1 1.5 7.4c.4 4.8-.3 9.4-3 13.5ZM160.2 277c30 4.6 30.7-20.6 35-38.7 6.2-25.8 12-51.7 18.2-79l4.6-20.8 2.4-10.6 1.2-5.3 1.1-4.7c1.6-6.2 3.4-11.9 5.4-16.5 1-2.3 2.1-4.3 3.1-5.8s2-2.6 2.6-3c.7 0 1.1.2 1.4.4l.5.6 1 .4 1.7.8 2 1.2 1 .7 1.2 1c1.7 1.3 3.5 3.2 5.6 5.6 4.1 4.7 8.8 11.7 14 20l4 6.2 3.7 6.2c2.6 4.1 5 8.4 7.6 12.6a566 566 0 0 1 50.3 109.3 71 71 0 0 0 5.9 13.5c2.3 4.2 5.1 7.8 8.6 10.6 6.7 5.7 16 8.4 29 5.5 13-2.8 19-9.3 21-17.7 1-4.1 1-8.7.4-13.5-.7-4.8-2-9.8-3.4-14.7a698.4 698.4 0 0 0-57-135.5c-2.6-4.7-5.2-9.6-8-14.2l-8.6-14.3a234.9 234.9 0 0 0-10.8-15.6A126.6 126.6 0 0 0 285.6 42l-2.4-1.9a88 88 0 0 0-39.2-16 75.9 75.9 0 0 0-30.1 2.6 71.2 71.2 0 0 0-32.3 21.2 87.6 87.6 0 0 0-14.2 21.9c-4.6 9.4-7.5 18.3-9.8 26.8l-3 12.3-2.3 10.8c-1.5 7.1-3 14.3-4.3 21.4a770.7 770.7 0 0 0-12.8 86.5c-1.8 21.7-5.8 44.7 25 49.5Z" />
    </symbol>

    <symbol id="sign-56">
      <path color="currentColor" d="M432.6 68.3a68.9 68.9 0 0 1 48.2 40 78.3 78.3 0 0 1 6.5 37c-.2 5.8-1 11.4-2.4 17l-1 4.1-1.2 3.8-1.3 3.8-1.3 3.5c-2 4.8-4 9.1-6.3 13.2-4.5 8.2-9.2 15.3-13.7 21.6l-6.6 9.1-6.4 8.7a4799.2 4799.2 0 0 1-123.4 161.7c-11.4 14.4-24 32-36.8 44-12.7 11.9-25.7 18.1-38 10-25.3-16.9 2.8-53.2 26.7-88.5C308 310 341.4 263.4 375 217l25.2-34.8a661 661 0 0 0 11-16c3.2-4.9 5.6-9.3 7.2-13.3l1.1-2.8.4-1.4.4-1.2c.3-1.5.6-3 .7-4.5.2-3-.3-5.6-.7-7l-.6-1.2c-.1-.2 0-.3-.3-.5l-1.4-.7a13 13 0 0 0-3-.8 23 23 0 0 0-7 .3l-1.8.4-2.3.8c-1.5.5-3.1 1.2-4.8 2-6.7 3.1-14.4 8.7-22.9 15.7l-6.4 5.4-3.3 2.8-3.1 2.7-6.4 5.6-6.2 5.7-3 2.9-3 2.9-6.2 5.8-5.9 6-3 3-2.9 3.1-5.8 6.1-5.6 6.3-2.8 3.1-2.8 3.2-5.5 6.4-5.4 6.5-2.7 3.3-2.6 3.3-5.2 6.6-5 6.7c-1.8 2.3-3.4 4.6-5 6.9l-5 6.8-4.7 7-2.3 3.5-3.2 4.9-4.6 7.2-4.5 7.4-9 15.1-8.8 15-4.4 7.6-4.4 7.3-23.8-19.4-6-4.8-3-2.4-1.4-1.2-1.5-1.2-3-2.2-3-2-3-2-3-2-2.8-1.6-1.4-.9-.8-.4-.3-.2-2.6-1.3-2.5-1.3-2.6-1.2a95.8 95.8 0 0 0-10.2-4 64 64 0 0 0-19-3.2c-6 0-11.1 1-16 3-4.6 2-9 5-13.1 9.3-4 4.3-7.8 9.6-10.8 15.7-3 6.1-5.1 13-6.5 19.9-.4 1.7-.6 3.4-.9 5.2l-.3 2.8-.3 2.8c-.2 3.8-.4 7.7-.3 11.7.2 15.6 2.7 32.8 1.9 47-.9 14.2-5.5 25.2-18.2 27.8-12.6 2.5-22.9-4.7-31-18.6-4.1-7-7.6-15.7-10.2-25.9a141.8 141.8 0 0 1-4.2-34.4c0-2.8 0-5.7.2-8.6l.2-4.3.4-4.4c.2-2.9.7-6 1.1-9l.8-4.4.9-4.5c2.6-11.9 6.6-23.5 12.3-34.6a119.3 119.3 0 0 1 38.6-44l4.4-2.8c1.5-.8 3-1.8 4.6-2.5 3.1-1.5 6.3-3.2 9.5-4.4a102.1 102.1 0 0 1 40.2-7c13.3.2 25.9 2.6 37.5 6.3a163.7 163.7 0 0 1 24.6 10l3.4 1.7.6.3 1.4.3c.1.1.1-.1.2-.2v-.3l.2-.6v-.5l.1-.2v-.1l.1-.1v-.1l.4-.5a577 577 0 0 1 22.5-33l2.9-4 3-4 6-7.8c4.1-5.1 8.2-10.3 12.5-15.2 8.3-10.1 17.1-19.7 26.1-29l6.8-7c2.2-2.3 4.6-4.5 6.9-6.7 4.5-4.5 9.3-8.8 14-13.1l7.2-6.3 3.6-3.2 3.6-3 7.3-6a324 324 0 0 1 16-12.3c3-2 6-4 9.3-6 6.5-4 13.7-7.6 21.6-10.5 2-.7 4-1.5 6.1-2l3.2-1 3.3-.7a90 90 0 0 1 41.4.6Z" />
    </symbol>

    <symbol id="sign-57">
      <path color="currentColor" d="m465.6 417.5-.7-6-.2-1.5-.3-1.5-.5-2.4a136.8 136.8 0 0 0-11.6-31.3l-3.3-6.3-24.5-47c-19.1-38.6-39.6-78-61-118.2l-32.7-60.7-61.6-113-39.6 67.2L210 130 199.7 148l-40 69.4C133 264 106 311 78.4 357.6 54 399.2 38 439.1 58.9 452.7c2.3 1.5 4.7 2.4 7 2.8 1.4 5.1 4.7 9.1 9.7 12.3 6.1 4 14.7 6.5 24.6 8.2 19.7 3.3 44.4 2.8 65.3 3.3 30 .7 59.8 1 89.9 1.5a5394.3 5394.3 0 0 1 68.2 1.5l23 .9 11.5.6c3.9.1 7.7.4 11.6.7l12.1.7c4.6.3 9.5.4 14.7.3a107 107 0 0 0 16.8-1.8c7.4-1.5 14.9-4 21.6-7.7a60 60 0 0 0 30.7-58.5ZM163.8 422c-20.1.9-40.8 1.2-57.9 3.2a476 476 0 0 0 21.1-32.6l65.4-109c16.2 29.2 32.2 58.6 47.7 88.3 8.2 15.7 15.8 31.9 24.8 47.2h-3.2c-32.8.5-65.4 1.6-97.9 3Zm237.5-1.3-.3.2h-.5l-.7.1-.7.1-.8.1-.8.1h-1l-1.9.2c-2.7.1-5.8 0-9.2-.1l-11.8-.6-12.6-.7-25.9-.8c-11.4-24.1-23.5-48-37.8-77.2-14.6-38.8-44-76-68.9-116.2a26 26 0 0 0-.7-1l25.2-42.1 10.5-17.5 1-1.6.4-.6 1.4-2.2 1 2 .4 1 .3.4 3 5.8 31.2 58.5 62.3 117.1 22.8 43.4 5.7 10.8 1.3 2.5 1.2 2.3 2 4.3a67.6 67.6 0 0 1 3.8 10.9v.7c.1.1.1 0 0 0Z" />
    </symbol>

    <symbol id="sign-58">
      <path color="currentColor" d="M384.6 225.6c-28.5-2.4-57-3.8-90.7-5.7 0-14.1-.4-28.4-.8-42.9 7.6.4 15.3 0 23-2.6 6.3-2 12.9-2 14.5-33.2 1.7-30.3-5.6-26.5-10.7-27.6-9.4-2-19-3.6-29.2-5.2-.6-17.5-1.1-35-1.3-52.6-.3-19.8-7.4-37.2-34-37.9-26.6-.6-29.3 17.4-29.5 35.3l-.6 49.6c-9 .7-18.2 1.6-27.4 1.7-6 0-11.8 6.9-13.7 33.4-1.8 26.6 3.5 29.5 9 30l31.3 2.2-.6 46.5c-30.7.8-62.9 3.9-95 4.5-12.6.3-23.9 7.4-24.4 34-.6 26.6 10.8 29.4 22.3 29.6l95.8 1.6-.2 9.4-1 31.6c-7.9.5-15.9 1.1-23.8 1.1-6.2 0-12 6.8-14.2 33.3-2 26.6 3.3 29.5 8.8 30l28 2.3c.1 20.8 1 41.6 3.4 62.5 2.2 20 2.5 41.4 33.7 40.5 30.3-.8 26.3-23.8 27.2-40.8 1-18.1 1.8-36.2 2.6-54.8a69.9 69.9 0 0 0 29.4-1.8c6.3-2 13-2 15-33 1.8-30.3-5.5-26.6-10.7-27.8-10-2.3-20.1-4-31.1-5.8l1.3-33.8.9-10.8c30.8 1.4 61.6 3.7 92.5-1.8 12.7-2.3 26.5-2.6 26.1-33.8-.3-30.3-15-26.3-25.9-27.2Z" />
    </symbol>

    <symbol id="sign-59">
      <path color="currentColor" d="M436 164.8a240.2 240.2 0 0 0-4-35.3c-1.4-7-2.7-14.2-7.5-19.3-4.9-5.1-13.5-8-30-6.6-16.2 1.3-23 5.6-25.8 11a18.6 18.6 0 0 0-1.8 8.4l-.1 8.6c-1 18-2.1 36.1-4.2 55.3h-1a653 653 0 0 0-68.7-3.4l-.7-4.1c-6.3-39.5-14.9-79.7-22.9-120a64.9 64.9 0 0 0-4.3-13.2 31 31 0 0 0-7.9-10.2c-6.6-5.5-16.3-8-30.3-5.5s-20.9 8-24 15a28 28 0 0 0-2 11.4c0 4 .6 8.2 1.3 12.4 6.7 39.2 12.5 78.7 17 118.3l-5.2 1c-21 4.4-42.1 10.6-63.4 16a159 159 0 0 0-6.2-16.9c-2.2-5.2-3.9-10.7-9.2-14.2-5.2-3.5-14-5-30.4-2.1-16 2.8-22.3 7.3-24.6 12.4-2.2 5.1-.3 10.8.1 15.8 2.7 28.6 7.5 57 14.2 91.3 2.1 22 9 44.5 17.9 67 8.9 22.6 19.7 45.1 29.5 68 2.2 5.3 6.2 9.6 12.8 11.2 6.7 1.7 16 .6 29.2-4.7 26.4-10.6 25.3-20.8 21.7-30A958 958 0 0 1 166 274.1l-.6-3a869 869 0 0 1 60.7-9.6c.8 11.4 1.5 22.8 2 34.2l.9 19 .5 18.8.2 9.4.2 9.5a1186.3 1186.3 0 0 0 1.7 47.2l.6 9.4a482 482 0 0 0 3.7 37.8c1.4 9.4 2 19.1 6.5 26.5 4.5 7.3 12.9 12.3 29.5 12.1 16.3-.2 23.3-5.8 26.4-13.6a40 40 0 0 0 2.5-12.6c.2-4.4 0-9 .3-13 2.4-47.5 2.4-95 .5-152.7.3-12 0-24.3-.6-36.8 6.6 0 13.2.1 19.8-.1a256.4 256.4 0 0 0 20-1.1c3.3-.3 6.6-.8 10-1.4h.3c-3.4 16.2-6 33-9 50.5a561.2 561.2 0 0 1-17.6 78 28.2 28.2 0 0 0-1.3 9.2c.1 3.1 1 6.2 2.7 9.3 3.6 6.1 11 12.3 24 17.7 13.2 5.5 21.5 5.6 27.2 2.8 2.8-1.4 5-3.5 6.6-6a34 34 0 0 0 4.1-8.3 827.1 827.1 0 0 0 41.3-165l2-14 1.9-14.1.8-7 .7-7.1 1.1-14.1a371.7 371.7 0 0 0 .4-21.3Z" />
    </symbol>

    <symbol id="sign-60">
      <path color="currentColor" d="M131.7 312.4c.8 1.2 1.6 2.5 2.5 3.6 1.8 2.3 3.6 4.6 5.6 6.7l3 3 3.3 2.9 1.7 1.4 1.7 1.2 3.5 2.5a151 151 0 0 0 7.5 4.4 80.3 80.3 0 0 0 86.2-7.7l1.8-1.3 1.7-1.4 3.4-2.9c2.1-2 4.4-4 6.3-6.3a88.4 88.4 0 0 0 22.7-67 100.6 100.6 0 0 0-19.1-53.7 144.6 144.6 0 0 0-23.3-24.9c-11.1-9.3-22.3-16.7-32.3-23.6l-7.2-5-3.4-2.5a126.5 126.5 0 0 1-14.9-12.6 68.9 68.9 0 0 1-8.6-10.4c-.6-.8-1-1.7-1.5-2.5-.6-.9-1-1.7-1.4-2.6-.3-.8-.8-1.7-1-2.5l-.6-1.3-.2-.6-.1-.5a22.7 22.7 0 0 1 2-17.5c.6-1.2 1.3-2 2-2.8l.5-.5.5-.5c.3-.1.6-.5 1-.6l.4-.3.5-.2c.3-.3.5-.2.8-.4.5-.2 1.3-.2 2.3-.2.9 0 2 .4 3 .8l1.5.6 1.4 1c.8.6 1.6 1.2 2 1.8l1 1.8c0 .6.3 1.3.5 2.2 0 .8.3 1.9.4 3 .3 2.2.3 4.7.5 7.5l.7 9.9.3 3 .4 3c.4 2.2 1 4.6 1.9 7 1 2.4 2.1 4.4 3.8 6 1.6 1.4 3.7 2.5 6 3 4.9 1 11.2-.5 17.3-4.4 6-4 11.7-10.4 15.4-18.4a50.1 50.1 0 0 0 4.4-20.5l-.1-3.8-.4-3.7a123 123 0 0 0-.8-4.3L237 77c-.4-1.4-1-2.7-1.5-4.1-.6-1.4-1.1-2.8-1.8-4a61.5 61.5 0 0 0-38.5-30.7 62.5 62.5 0 0 0-17.1-2.5l-4.5.1-4.5.5a57.1 57.1 0 0 0-13.1 3.3c-1.4.5-2.7 1.2-4 1.8a139.7 139.7 0 0 0-7.6 4.2l-1.9 1.1-1.7 1.3-3.3 2.6-3 2.8-2.8 2.8a74.1 74.1 0 0 0-17.8 53.4c.3 2.4.5 4.8 1 7.1l.7 3.6.4 1.8.5 1.6c.6 2.1 1.2 4.3 2 6.3l1.2 3 1.4 3c3.6 8 8.2 15 13.2 21.3 10.1 12.5 21.6 22 32.8 30.4 11 8.2 21.5 15 30.3 22a93 93 0 0 1 20.5 20.8 55.3 55.3 0 0 1 9.3 31.2 38 38 0 0 1-1.1 7.3l-.2.8-.3.8-.5 1.6c-.5 1-.8 2.2-1.4 3.2-1 2-2.3 4-3.7 6-.8 1-1.4 1.9-2.3 2.7-.7 1-1.7 1.7-2.5 2.5-1.8 1.5-3.6 3-5.5 4l-.7.5-.7.4-1.4.7c-1 .3-2 .9-2.9 1.1-1.8.7-3.8 1-5.5 1.2l-1.2.1H196c-.8.1-1.7-.1-2.6-.1l-1.4-.3-.7-.1-.7-.2-1.4-.4-1.4-.5-.7-.2-.7-.3-1.4-.6c-.8-.6-1.8-.9-2.5-1.5-1.7-1-3-2.2-4.4-3.4l-.8-.9c-.4-.3-.5-.6-.8-1-.6-.5-.8-1.2-1.3-1.7l-.5-1-.3-.4-.1-.4-.5-1-.2-.6c-.3-.9-.5-2.2-.5-3.2V275.1h-.1l-.3-.2a11 11 0 0 1-2.8-3v.1l-.5-1.4a14 14 0 0 1 4-2c1.2-.5 1.9-.4 1.9-.4l.7.1c.5 0 1 .2 1.5.4l3.2 1.2c2.2 1 4.6 2.3 7.7 3.2 2.9.9 5.7 1 8.3 0 2.6-1.1 5-3.6 6.2-7.1 1.3-3.6 1.4-8.2 0-12.6a29.7 29.7 0 0 0-7.3-12.2 40.8 40.8 0 0 0-46.4-7.2c-1.4.6-2.6 1.4-3.9 2.1a49 49 0 0 0-21.2 28.4c-1.8 6-2.5 12.1-2.2 18.3l.4 4.6.4 2.4.5 2.2 1 4.3 1.5 4.2c1 2.9 2.4 5.5 3.7 8.1l2.3 3.8Zm35.9-46-.3-.6.3.5Zm0-.1Zm231.9 48.6a185.6 185.6 0 0 1-8.3 35.8 171.2 171.2 0 0 1-36.6 62l-4.7 5.4-4.8 5.2-5 4.9-2.5 2.4-2.7 2.3c-3.5 3-6.9 6-10.6 8.8l-5.5 4-2.8 2-2.9 2a187.1 187.1 0 0 1-97.3 29.6 170.5 170.5 0 0 1-52.7-7.2l-4.4-1.2c-3-1-5.9-1.8-8.7-3a47.4 47.4 0 0 1-15.2-9c-2-2-3.7-4-4.8-6.4a18.5 18.5 0 0 1-2-7.6c-.2-5.5 2-11.7 7-19a65.8 65.8 0 0 1 18.2-18.1 37.4 37.4 0 0 1 9.1-3.8c3.8-.8 7.4-1 11-.6 3.6.3 7.3.8 11 1 9.8.3 19.6-.2 29.3-1.5 9.8-1.4 19.4-3.7 28.5-7a103.7 103.7 0 0 0 47.2-33.2c9.6-11.8 17-26 21.7-41.3l1.7-5.8 1.3-5.8c.6-2 .8-4 1.2-6 .3-2 .7-3.9.9-5.9l.6-6 .4-6v-9l-.1-3c-1.5-32.7-13.7-66-32.8-96-4.2-6.8-8.2-13.6-8-21.2.3-7.5 4.7-16 17.6-25.4a54.3 54.3 0 0 1 18-9 31 31 0 0 1 29 6.9 55.5 55.5 0 0 1 10.7 12.2 324.7 324.7 0 0 1 33.6 64.3 264.5 264.5 0 0 1 12.6 44.3l1.4 9.2c.6 3 .8 6.1 1.1 9.2l.5 4.6.2 4.7c.8 12.5.2 25-1.4 37.2Z" />
    </symbol>
  </defs>
</svg>
