<svg xmlns="http://www.w3.org/2000/svg" viewBox="0 0 512 512">
  <defs>
    <symbol id="item-3073">
      <title>regeneration</title>
      <path fill="#b7e546" d="M291.9 35.5 264.4 8.9a5 5 0 0 0-8.4 3.6v11.2c-62 0-120.4 24.1-164.3 68-38 38-61.1 86.7-66.7 139.2l32.2 2.7A200.3 200.3 0 0 1 256 56v11.2a5 5 0 0 0 8.4 3.6l27.5-26.6a6 6 0 0 0 0-8.7Z" />
      <path fill="#abd641" d="m220.1 476.5 27.5 26.6a5 5 0 0 0 8.4-3.6v-11.2c62 0 120.4-24.1 164.3-68 38-38 61-86.7 66.7-139.2l-32.2-2.7A200.3 200.3 0 0 1 256 456v-11.2a5 5 0 0 0-8.4-3.6l-27.5 26.6a6 6 0 0 0 0 8.7Z" />
      <path fill="#e490d0" d="M407.5 216.3H295.7V104.5h-79.4v111.8H104.5v79.4h111.8v111.8h79.4V295.7h111.8v-79.4Z" />
      <path fill="#df73c1" d="M319.4 216.3A357.7 357.7 0 0 1 216.2 331v76.4h79.5V295.7h111.8v-79.4h-88Z" />
      <path fill="#dd4fb1" d="M490.4 102.5H458V70h-32.3v32.4h-32.3v32.3h32.3V167H458v-32.3h32.4v-32.3ZM118.6 377.2H86.3V345H54v32.3H21.6v32.4H54V442h32.3v-32.3h32.3v-32.4Z" />
      <path d="m24.4 238.4 32.2 2.7h.6c3.8 0 7-2.8 7.5-6.6A192.3 192.3 0 0 1 127.3 113a192 192 0 0 1 121.2-49.4v3.6a12.5 12.5 0 0 0 21.1 9l27.5-26.6a13.6 13.6 0 0 0 0-19.5L269.6 3.5a12.5 12.5 0 0 0-21.1 9v3.8A239.1 239.1 0 0 0 97.7 75.8a7.5 7.5 0 1 0 9.9 11.3c40.9-36 93.6-56 148.4-56 4.1 0 7.5-3.3 7.5-7.4v-5.2l22 21.3-22 21.4V56c0-4.2-3.4-7.5-7.5-7.5a207 207 0 0 0-138.7 53.3 207.3 207.3 0 0 0-66.6 123.7l-17.3-1.4a222.7 222.7 0 0 1 50.5-112.8 7.5 7.5 0 1 0-11.5-9.7 237.6 237.6 0 0 0-54.9 128.5 7.5 7.5 0 0 0 6.9 8.3Zm463.2 35.2-32.2-2.7c-4-.3-7.6 2.6-8.1 6.7a190.3 190.3 0 0 1-21.4 68.8 7.5 7.5 0 0 0 13.3 7 204 204 0 0 0 22-67l17.4 1.5A221.8 221.8 0 0 1 415 415a223.4 223.4 0 0 1-159 65.8 7.5 7.5 0 0 0-7.5 7.6v5.2l-22.1-21.4 22-21.4v5.2c0 4.2 3.4 7.5 7.6 7.5 64.1 0 123.6-29 163.3-79.7a7.5 7.5 0 0 0-11.8-9.2 191.4 191.4 0 0 1-144 73.8v-3.6a12.5 12.5 0 0 0-21.1-9l-27.5 26.6a13.6 13.6 0 0 0 0 19.5l27.5 26.7a12.4 12.4 0 0 0 21-9v-3.9a238.2 238.2 0 0 0 162.2-70 237 237 0 0 0 68.8-143.8 7.5 7.5 0 0 0-6.8-8.3Z" />
      <path d="M216.3 415h79.4c4.2 0 7.5-3.3 7.5-7.5V303.2h104.3c4.2 0 7.5-3.3 7.5-7.5v-79.4c0-4.2-3.3-7.5-7.5-7.5h-27.3a7.5 7.5 0 0 0 0 15H400v64.4H295.7a7.5 7.5 0 0 0-7.5 7.5V400h-64.4V295.7c0-4.1-3.4-7.5-7.5-7.5H112v-64.4h104.3c4.1 0 7.5-3.4 7.5-7.5V112h64.4v104.3c0 4.1 3.4 7.5 7.5 7.5h49.5a7.5 7.5 0 0 0 0-15h-42V104.5c0-4.2-3.3-7.5-7.5-7.5h-79.4a7.5 7.5 0 0 0-7.5 7.5v104.3H104.5a7.5 7.5 0 0 0-7.5 7.5v79.4c0 4.2 3.3 7.5 7.5 7.5h104.3v104.3c0 4.2 3.3 7.5 7.5 7.5ZM490.4 95h-24.9V70c0-4.1-3.3-7.5-7.5-7.5h-32.3a7.5 7.5 0 0 0-7.5 7.5v25h-24.8a7.5 7.5 0 0 0-7.5 7.5v32.3c0 4.1 3.3 7.5 7.5 7.5h24.8V167c0 4.1 3.4 7.5 7.5 7.5H458c4.2 0 7.5-3.4 7.5-7.5v-24.8h24.9c4.1 0 7.5-3.4 7.5-7.5v-32.3c0-4.2-3.4-7.5-7.5-7.5Zm-7.5 32.3H458a7.5 7.5 0 0 0-7.5 7.5v24.8h-17.3v-24.8c0-4.2-3.4-7.5-7.5-7.5h-24.8V110h24.8c4.1 0 7.5-3.4 7.5-7.5V77.6h17.3v24.9c0 4.1 3.4 7.5 7.5 7.5h25v17.3ZM126.1 409.6v-32.4c0-4.1-3.3-7.5-7.5-7.5H93.8V345c0-4.1-3.4-7.5-7.5-7.5H54a7.5 7.5 0 0 0-7.5 7.5v24.8H21.6a7.5 7.5 0 0 0-7.5 7.5v32.4c0 4 3.4 7.4 7.5 7.4h24.9V442c0 4.1 3.3 7.5 7.5 7.5h32.3c4.1 0 7.5-3.4 7.5-7.5v-25h24.8c4.2 0 7.5-3.4 7.5-7.6Zm-15-7.6H86.3a7.5 7.5 0 0 0-7.5 7.6v24.8H61.5v-24.8c0-4.2-3.4-7.6-7.5-7.6H29v-17.3h25c4.1 0 7.5-3.3 7.5-7.5v-24.8h17.3v24.8c0 4.2 3.4 7.5 7.5 7.5h24.8v17.4Zm58.5 64.7h-12.7V454a7.5 7.5 0 0 0-15 0v12.7h-12.7a7.5 7.5 0 0 0 0 15h12.7v12.7a7.5 7.5 0 0 0 15 0v-12.7h12.7a7.5 7.5 0 0 0 0-15ZM342.4 45.3h12.8V58a7.5 7.5 0 0 0 15 0V45.3h12.6a7.5 7.5 0 0 0 0-15h-12.7V17.6a7.5 7.5 0 0 0-15 0v12.7h-12.7a7.5 7.5 0 0 0 0 15Z" />
    </symbol>
    <symbol id="item-3074">
      <title>shapeshifter</title>
      <path fill="#9ec63d" d="M452.3 504.5H245.5V240.8h48.8l21.7 76.5 57 9.8a86.8 86.8 0 0 1 72.1 85.2A56 56 0 0 1 436 442s18.2 23.9 16.4 62.4Z" />
      <path fill="#8858b9" d="M452.3 504.5H245.5V240.8h48.8l21.7 76.5 57 9.8a86.8 86.8 0 0 1 72.1 85.2A56 56 0 0 1 436 442s18.2 23.9 16.4 62.4Z" />
      <path fill="#744b9c" d="M253.2 334.4c22.5 0 43.8-8.7 59.8-24.5l.7-.6-19.4-68.5h-48.9v93.6h7.8Zm182.7 107.7s9.2-12.8 9.2-29.8a86.8 86.8 0 0 0-72-85.2l-16.2-2.8a92.5 92.5 0 0 1 50.5 82c0 9.2-2.6 17.3-5 23-2.6 5.6-2.4 12 .5 17.5a113.8 113.8 0 0 1 12.1 57.7h37.3c1.8-38.5-16.4-62.4-16.4-62.4Z" />
      <path fill="#ad7fdd" d="M245.4 304.1h7.8a55 55 0 0 0 38.6-15.8l27.1-26.7a55 55 0 0 0 16.4-39.2v-140h-89.9V304Z" />
      <path fill="#9d66d6" d="M306.9 222.4a55 55 0 0 1-16.4 39.2l-27.2 26.7c-5.1 5.1-11.2 9-17.9 11.8v4h7.8a55 55 0 0 0 38.6-15.8l27-26.7a55 55 0 0 0 16.5-39.2v-140H307v140Z" />
      <path fill="#744b9c" d="M335.3 146.3v66l18.7-7.7a39.3 39.3 0 0 0 22.5-25l23.6-78c1.1-3.9-3.4-6.9-6.5-4.3l-58.3 49Z" />
      <path fill="#f6a96c" d="M245.4 281H200v45.7l45.4 45.5V281Z" />
      <path fill="#b2e5fb" d="m245.4 372.2-41.3 35.2 41.4 97.1V372.2Z" />
      <path fill="#3a67c1" d="m171.8 331.6-45.1 7.8a80.8 80.8 0 0 0-67.1 79.2v85.9h185.9l-73.7-173Z" />
      <path fill="#ea9b58" d="M245.4 335H237c-13 0-25.5-3-37-8.3V281h45.6v54Z" />
      <path fill="#fed2a4" d="M245.4 304.1h-7.7a55 55 0 0 1-38.6-15.8L172 261.6a55 55 0 0 1-16.4-39.2v-95h89.8V304Z" />
      <path fill="#e69642" d="M245.4 7.5A122.6 122.6 0 0 0 123 130.1v35.8h32.7v46.4L188 150h21.3c11 0 21.5-5 28.5-13.5l7.5-9.1V7.5Z" />
      <path fill="#f6a96c" d="M146.4 212.3a29.2 29.2 0 1 1 0-58.5h9.2v58.5h-9.2Z" />
      <circle cx="204.2" cy="176.4" r="26.4" fill="#b2e5fb" />
      <path fill="#e6f7fe" d="m200 326.7 45.5 45.5-41.4 35.2-32.3-75.8 28.2-4.9Z" />
      <path fill="#e69642" d="m245.4 127.4 33.1-7.4c10.5-2.3 21 3.3 25 13.2l31.8 79.1v-66l44.1-37 15.2-62.8-22.3 12-7-36.8-15.8 8.7-7-22.9-37.8 10.8L292 7.5l-23.8 13.4-22.8-13.4v119.9Z" />
      <path fill="#e38523" d="m372.3 58.4-7-36.7-15.8 8.7-7-22.9-12.6 3.6c10 28.9-5 72.8-39.2 109.8 5.7 2 10.4 6.4 12.8 12.3l31.8 79.1v-66l44.1-37 15.2-62.8-22.3 12Z" />
      <path d="M444.8 442a63.4 63.4 0 0 0 7.8-29.7v-.5a93.6 93.6 0 0 0-18.9-55.8 7.5 7.5 0 1 0-12 9 78.7 78.7 0 0 1 16 47.3v.3a49 49 0 0 1-7.9 25.1l-9.3 13.5a7.5 7.5 0 1 0 12.3 8.5l2.5-3.6a100 100 0 0 1 9.5 48c-.2 4.2 3 7.7 7.1 7.9h.4c4 0 7.3-3.2 7.5-7.2 1.5-31.5-9.6-53.9-15-62.9Zm-39.4-111a94 94 0 0 0-31-11.3l-52.5-9-9.2-32.5 11.5-11.2a62.9 62.9 0 0 0 18.6-44.6v-5l14.1-5.9a46.6 46.6 0 0 0 26.8-29.7l23.6-78c1.5-5-.4-10.2-4.7-13a11.5 11.5 0 0 0-10.7-1.1l10-41.5a7.5 7.5 0 0 0-10.8-8.3L377.8 47l-5.1-26.7a7.5 7.5 0 0 0-11-5.2l-7.7 4.2-4.2-14a7.5 7.5 0 0 0-9.2-5l-34 9.7-9.8-8.2a7.5 7.5 0 0 0-8.5-.9l-20 11.3-19-11.2c-1.2-.7-2.5-1-3.8-1a130 130 0 0 0-86.9 33.2 7.5 7.5 0 0 0 10 11.2A114.9 114.9 0 0 1 238 15.2v109.5l-5.9 7a29.4 29.4 0 0 1-22.7 10.8H188a7.5 7.5 0 0 0-6.6 4L163 181.8v-28c0-4.1-3.4-7.5-7.5-7.5h-9.1c-5.8 0-11.3 1.4-16.1 3.7v-20c0-21.4 6-42.3 17.2-60.5a7.5 7.5 0 0 0-12.8-8 129.8 129.8 0 0 0-19.4 68.5v33.5a36.8 36.8 0 0 0 31 56.3h1.7v2.6a63 63 0 0 0 18.6 44.5l25.8 25.4v28l-67 11.7A88.2 88.2 0 0 0 52 418.2v31.2a7.5 7.5 0 0 0 15 0v-30.8a73.2 73.2 0 0 1 60.8-71.9l39.3-6.7 71.3 167.4c3.3 7.5 14.4 5.2 14.5-3v-20.2c2.3.8 4.8 1.3 7.5 1.3h19.4c7.1 0 13.9-3.4 18.1-9.2a7.5 7.5 0 1 0-12-8.9c-1.5 2-3.8 3-6.1 3h-19.4a7.5 7.5 0 0 1-7.5-7.4v-30.7c4 2.2 8.6 3.4 13.5 3.4h31.2a65 65 0 0 1 16 40.5v28.3a7.5 7.5 0 0 0 15 0v-28.3a77 77 0 0 0-14-43 37.5 37.5 0 0 0 19.4-17.3l10.9-20.5a7.5 7.5 0 0 0-13.2-7l-11 20.4a22.5 22.5 0 0 1-19.8 11.9h-34.5c-7.5 0-13.5-6-13.5-13.5v-95.6h.2a62 62 0 0 0 43.8-18l3.5-3.4 8.2 29a7.5 7.5 0 0 0 6 5.4l57.1 9.9a79 79 0 0 1 26 9.4 7.5 7.5 0 0 0 10.3-2.8c2-3.6.8-8.1-2.7-10.2Zm-36-153.5a31.7 31.7 0 0 1-18.3 20.1l-8.3 3.5v-51.3l46.8-39.3-20.2 67Zm-97.5-150 19.2-11 8.8 7.5c2 1.6 4.5 2.2 6.9 1.5l30.7-8.8 4.8 15.8a7.5 7.5 0 0 0 10.8 4.4l6.7-3.7 5.1 26.6a7.5 7.5 0 0 0 11 5.2l7.5-4-10.7 44-42.2 35.5a7.6 7.6 0 0 0-2.7 5.8v27.3l-17.4-43.2a29.2 29.2 0 0 0-33.5-17.7l-24 5.3V20.6l11.5 6.7a7.5 7.5 0 0 0 7.4.1Zm-34 440.3-24.7-58.2 24.8-21.2v79.4Zm-55.5-130.4 15-2.6 37 37L207 395l-24.6-57.7Zm25.1-13.8v-19.8a62 62 0 0 0 30.2 7.8h.3v42.5l-30.5-30.5Zm-3.3-166.1a19 19 0 1 1 0 38 19 19 0 0 1 0-38Zm-79.5 25.6c0-12 9.8-21.8 21.8-21.8h1.6v43.5h-1.7c-12 0-21.7-9.7-21.7-21.7Zm38.4 39.3v-8.2l11.3-21.6a34 34 0 0 0 62.9-8.6h.6v112.6h-.2a47.3 47.3 0 0 1-33.3-13.6l-27.1-26.7a47.8 47.8 0 0 1-14.2-33.9Zm90 74.2h-.2V133.4l27.3-6a14.3 14.3 0 0 1 16.3 8.6l31.3 77.8v8.6c0 12.6-5.2 25-14.2 33.9L286.5 283a47.3 47.3 0 0 1-33.3 13.6Z" />
      <path d="M389.9 446.4a51.2 51.2 0 0 1-26.3-19.6 7.5 7.5 0 0 0-12.8 7.8c.3.5 4.8 7.9 14 15.1l-2.3 7.6a115.8 115.8 0 0 0-5.2 34.3v13a7.5 7.5 0 0 0 15 0v-13a101 101 0 0 1 4.5-29.8l1.2-4c2.3 1 4.7 2 7.4 2.9a7.5 7.5 0 0 0 4.5-14.3ZM129 424a7.5 7.5 0 1 0-10.5 10.6l10.3 10.4v59.5a7.5 7.5 0 0 0 15 0v-62.6c0-2-.8-4-2.2-5.3L129.1 424Zm-69.4 52.9a7.5 7.5 0 0 0-7.5 7.5v20.1a7.5 7.5 0 0 0 15 0v-20.1c0-4.1-3.4-7.5-7.5-7.5Zm138.2-17.5h-31a7.5 7.5 0 0 0 0 15h31a7.5 7.5 0 0 0 0-15Z" />
    </symbol>
    <symbol id="item-3075">
      <title>bulletproof</title>
      <path fill="#fed2a4" d="M504.5 263.1a108 108 0 0 0-89.7-106l-98-16.9V85.5H195.2v54.7l-98 17a108 108 0 0 0-89.7 106v241.3h97.7c10.5-50.6-4-81-4-81 7.6-14.8 10-29.2 10-29.2l21 19.8c6.2 6 10 14.2 10.7 22.8l4.6 67.6h217l4.6-67.6a35 35 0 0 1 10.7-22.8l21-19.8s2.4 14.4 10 29.1c0 0-14.5 30.5-4 81.1h97.7V263.1Z" />
      <path fill="#ffbd86" d="M504.5 263.1a108 108 0 0 0-89.7-106l-15.5-2.6A108 108 0 0 1 469.2 255v249.5h35.3V263.1ZM195.2 119.7a93.5 93.5 0 0 0 51.3 15.2h19c18.5 0 36.1-5.4 51.3-15.2V85.5H195.2v34.2Z" />
      <path fill="#fed2a4" d="M145.2 7.5v.3c0 18.2 7.3 35.6 20.3 48.4L198.9 89a67.8 67.8 0 0 0 47.6 19.5h19c17.8 0 35-7 47.6-19.5l33.4-33a67.8 67.8 0 0 0 20.3-48.3v-.3H145.2Z" />
      <path fill="#f7e365" d="M495.7 57 468 75.8l-18.2-26.7 27.6-18.8a20.2 20.2 0 0 1 19.5-1.8l4.9 2.2a4 4 0 0 1 2.4 3.5l.2 5.3c.3 7-3 13.6-8.8 17.5Z" />
      <path fill="#ffc250" d="m423 67.4 26.6-18.2 18.2 26.7L441.1 94 423 67.4Z" />
      <path fill="#f7e365" d="m165.3 190.8 29.3 16-15.5 28.4-29.3-16c-6.1-3.3-10-9.6-10.5-16.5l-.4-7.9 6.8-3.8c6-3.4 13.5-3.5 19.6-.2Z" />
      <path fill="#ffc250" d="M207.5 250.6 179.2 235l15.5-28.4 28.4 15.5-15.6 28.4Z" />
      <path d="M226 371.6a7.5 7.5 0 1 0-6.6-13.4l-20.5 10.2a47.6 47.6 0 0 0-26.6 42.9v93.2a7.5 7.5 0 0 0 15 0v-93.2c0-12.6 7-23.9 18.2-29.5l20.6-10.2Zm87.1-3.2-20.5-10.2a7.5 7.5 0 0 0-6.7 13.4l20.5 10.2a32.7 32.7 0 0 1 18.3 29.5v93.2a7.5 7.5 0 0 0 15 0v-93.2a47.6 47.6 0 0 0-26.6-42.9Z" />
      <path d="M306.9 405.3a7.5 7.5 0 0 0-10.5 1.6 14 14 0 0 1-11.3 5.7h-15c-3.6 0-6.6-3-6.6-6.7v-20.2a7.5 7.5 0 0 0-15 0v20.2c0 3.7-3 6.7-6.6 6.7h-15a14 14 0 0 1-11.3-5.7 7.5 7.5 0 0 0-12 8.9 29.1 29.1 0 0 0 23.3 11.8h15c5.4 0 10.3-2 14.1-5.3 3.8 3.3 8.7 5.3 14.1 5.3h15c9.2 0 17.9-4.5 23.3-11.8 2.5-3.4 1.8-8-1.5-10.5Zm0 64.2a7.5 7.5 0 0 0-10.5 1.6 14 14 0 0 1-11.3 5.7h-15c-3.6 0-6.6-3-6.6-6.6v-20.3a7.5 7.5 0 0 0-15 0v20.3c0 3.6-3 6.6-6.6 6.6h-15a14 14 0 0 1-11.3-5.7 7.5 7.5 0 0 0-12 9 29.1 29.1 0 0 0 23.3 11.7h15c5.4 0 10.3-2 14.1-5.3 3.8 3.3 8.7 5.3 14.1 5.3h15c9.2 0 17.9-4.4 23.3-11.8 2.5-3.3 1.8-8-1.5-10.5ZM23.3 391.7c-3-1-6.3.1-8.2 2.5v-29.7a7.5 7.5 0 1 0-15 0v140a7.5 7.5 0 0 0 15 0c0-60.6 13-103 13.1-103.4 1.3-4-1-8.2-4.9-9.4Z" />
      <path d="M435.5 307.4c-42.4-15.6-55.8-60.2-56-60.6a7.5 7.5 0 0 0-14.4 4.1 117 117 0 0 0 15.6 31.3l-13.9 26a35.4 35.4 0 0 1-31.3 18.8h-49.4a22.6 22.6 0 0 1-22.6-22.6V295a7.5 7.5 0 0 0-15 0v9.4a22.6 22.6 0 0 1-22.6 22.6h-49.4a35.4 35.4 0 0 1-31.3-18.8l-14-26a117 117 0 0 0 15.7-31.3 7.5 7.5 0 0 0-14.4-4.2c-.1.5-13.6 45.1-56 60.7a7.5 7.5 0 1 0 5.2 14 98.3 98.3 0 0 0 17.5-8.4c2.9 11.3 7 31.4 7 53.4 0 28.8-7.7 52.6-23 70.6a7.5 7.5 0 1 0 11.6 9.7l4-5.2c3.1 14 4.6 34.6-1 61.5a7.5 7.5 0 1 0 14.8 3c8.2-39.9 2-67.6-3.2-82.2 2.3-4.9 4.3-10 6-15.3l11.6 11a27 27 0 0 1 8.4 18l.9 12.7c.2 4 3.5 7 7.5 7h.5a7.5 7.5 0 0 0 7-8l-1-12.8a42 42 0 0 0-13-27.7l-18-17.1c1.3-8 2-16.4 2-25.2 0-28.1-6.2-52.9-9.1-62.9a104 104 0 0 0 8.9-8.6l10.9 20.4a50.4 50.4 0 0 0 44.5 26.7h49.4c12.3 0 23.3-6 30.1-15.1 6.9 9.2 17.8 15 30 15h49.5a50.4 50.4 0 0 0 44.6-26.6l10.8-20.4c2.7 3 5.7 5.8 9 8.6a233 233 0 0 0-9.1 62.9c0 8.8.6 17.2 2 25.2l-18.1 17.1a42 42 0 0 0-13 27.7L357 504a7.5 7.5 0 0 0 15 1l4.6-67.6a27 27 0 0 1 8.4-17.8l11.7-11c1.6 5.2 3.6 10.3 6 15.2-5.3 14.6-11.4 42.3-3.3 82.2a7.5 7.5 0 0 0 14.7-3 150 150 0 0 1-1-61.5l4.2 5.2a7.5 7.5 0 0 0 10.5.9 7.5 7.5 0 0 0 1-10.6c-15.3-18-23-41.8-23-70.6 0-22 4.2-42.1 7-53.4a98.4 98.4 0 0 0 17.5 8.5c.9.3 1.8.4 2.6.4a7.5 7.5 0 0 0 2.6-14.5Z" />
      <path d="M457.1 165.3a115 115 0 0 0-41-15.5l-59-10.2 44.8-30.5a7.5 7.5 0 1 0-8.4-12.4L335.8 136l-11.5-2V88.6l27.5-27a75.8 75.8 0 0 0 22.5-53.7v-.4a7.5 7.5 0 0 0-15 0v.4a61 61 0 0 1-18 43l-33.5 32.9a60 60 0 0 1-42.3 17.3h-19a60 60 0 0 1-42.3-17.3l-33.5-33a60.7 60.7 0 0 1-18-43v-.3c0-4.1-3.3-7.4-7.5-7.4s-7.5 3.3-7.5 7.4v.4c0 20 8.2 39.6 22.5 53.6l27.5 27.1V134l-9.5 1.7L74.4 63a7.5 7.5 0 1 0-8.6 12.3l91.4 63.9-61.3 10.6C40.7 159.3.5 206.8 0 262.7v66.8a7.6 7.6 0 0 0 15.1 0v-26c2.5 3.5 5.5 6.8 9 9.9a7.5 7.5 0 0 0 10.7-.8A7.5 7.5 0 0 0 34 302a62 62 0 0 1-19-39c.3-48.8 35.3-90.2 83.4-98.5l76.2-13.1 77 53.9a7.5 7.5 0 0 0 8.6 0l79-53.6 74.3 12.8a100 100 0 0 1 35.7 13.5 7.5 7.5 0 0 0 10.3-2.4 7.5 7.5 0 0 0-2.4-10.3Zm-201 24.8-60.5-42.3.9-.2a7.5 7.5 0 0 0 6.2-7.4v-38.1c12.7 9 27.9 14 43.8 14h19c15.9 0 31-5 43.8-14v38.1c0 3.7 2.6 6.8 6.2 7.4l2.4.4-61.9 42ZM512 262.7a116 116 0 0 0-26.8-73 7.5 7.5 0 1 0-11.5 9.6A100.8 100.8 0 0 1 497 263a61.3 61.3 0 0 1-19 39 7.5 7.5 0 0 0 9.8 11.3c3.6-3 6.6-6.3 9.2-9.8l-.2 90.7a7.5 7.5 0 0 0-13 6.9c.1.4 13.2 42.8 13.2 103.4a7.5 7.5 0 0 0 15 0V262.7ZM153.6 484a7.5 7.5 0 0 0-15 1l1.4 20c.3 4 3.6 7 7.5 7h.5a7.5 7.5 0 0 0 7-8l-1.4-20Z" />
      <path d="M252.7 262.7a7.5 7.5 0 0 0 8-.9l90.6-74.2a7.5 7.5 0 1 0-9.5-11.6L255 247.2l-8.6-4.2a7.5 7.5 0 1 0-6.6 13.4l12.9 6.3ZM435.1 98.3a7.5 7.5 0 0 0 10.4 2l54.4-37c8-5.5 12.5-14.5 12-24l-.1-5.4c-.2-4.4-3-8.3-7-10.1l-4.8-2.2c-8.8-3.8-18.8-3-26.8 2.5l-54.3 37a7.5 7.5 0 0 0-2 10.5L435 98.3Zm46.6-61.8c3.6-2.5 8.2-2.9 12.3-1.1l2.9 1.3v3.1c.3 4.4-1.8 8.6-5.4 11L470 65.4l-9.8-14.3 21.4-14.6Zm-33.9 23 9.8 14.4-14.3 9.8-9.8-14.4 14.3-9.7ZM146.2 225.8l57.8 31.5a7.5 7.5 0 0 0 10.1-3l15.5-28.3c2-3.7.7-8.2-3-10.2L169 184.2a27.6 27.6 0 0 0-26.8.2l-6.9 3.8a7.5 7.5 0 0 0-3.8 7l.5 7.9c.5 9.6 5.9 18 14.3 22.7Zm58.4 14.8-15.2-8.3 8.3-15.2 15.2 8.3-8.3 15.2Zm-55.2-43.1c3.8-2.2 8.4-2.2 12.3 0l22.7 12.3-8.3 15.2-22.7-12.4c-3.9-2.1-6.3-6-6.6-10.4l-.2-3.2 2.8-1.5Z" />
    </symbol>
    <symbol id="item-3076">
      <title>sun hat</title>
      <path fill="#ff8c50" d="M359.5 208.2c0-4.8 2.6-14 2.6-14A107 107 0 0 0 193.9 121l-6 5.2c-23.6 19.6-36 49-36 82h207.6Z" />
      <path fill="#dc6e41" d="m363 208.2-100.6 10.1L149 208.1c0-36 17.8-67.7 45-87.1a106.5 106.5 0 0 0-28.7 65.7 7 7 0 0 0 7 7.5H362c.6 4.5.9 9.2.9 14Z" />
      <path fill="#faf8f8" d="M369 208.2H149l-4.6 1.3a8 8 0 0 0-8 8l-.3 41.2h236l4.9-30.5v-12a8 8 0 0 0-8-8Z" />
      <path fill="#f0e9e6" d="M352.8 219.2a37 37 0 0 0-23 8 2 2 0 0 1-2.5 0 37 37 0 0 0-45.8 0 2 2 0 0 1-2.6 0 37 37 0 0 0-45.8 0 2 2 0 0 1-2.6 0 37 37 0 0 0-45.8 0 2 2 0 0 1-2.6 0 37 37 0 0 0-30.6-7.2 2 2 0 0 1-2.5-2v-9.9h-6a8 8 0 0 0-8 8v42.6h242v-30.5a37 37 0 0 0-24.2-9Z" />
      <path fill="#dc6e41" d="m280.2 259.1-26.3 6.1-22.1-6c0-14.4 10.8-26 24.2-26s24.2 11.6 24.2 26Z" />
      <path fill="#dc6e41" d="m231.8 259.1-24.2 6.1-24.2-6c0-14.4 10.8-26 24.2-26s24.2 11.6 24.2 26Zm-48.4 0-19 7.2-29.4-7.2c0-14.3 10.8-26 24.2-26s24.2 11.7 24.2 26Zm145.2 0-24.2 4.6-24.2-4.5c0-14.4 10.8-26 24.2-26s24.2 11.6 24.2 26Zm48.4 0-24.2 8.3-24.2-8.2c0-14.4 10.8-26 24.2-26s24.2 11.6 24.2 26ZM48.1 296a56.7 56.7 0 0 0-37 53.2c-.5 33.5 22.5 60.4 56.5 60.4 3 0 8.9.5 8.9.5 69.2-1.4 115.2-19.3 164.5-50.6l3.8-6.8 9.1-1.3s-39.4-53-94.7-68.1c-41.5-11.4-92.9 6.5-107.3 11.3-2.3.8-3.8 1.5-3.8 1.5Z" />
      <path fill="#d36037" d="M159.2 283.3c-41.5-11.4-95.3 5-109.6 9.8l-3.9 1.4a61 61 0 0 0-31.5 28.4 59.6 59.6 0 0 0 53.3 87.3l9.5-.1a59.6 59.6 0 0 1-53-79.8c2.7-7.8 9-13.8 16.9-16.5a156.5 156.5 0 0 1 67.5-7.6c61 6.7 97 29 132.6 53.3l3.6-2.3 9.3-5.8s-39.4-53-94.7-68.1Z" />
      <path fill="#ff8c50" d="M504.5 348.8c.4 33.7-33 59.4-65 61.4-179.3 11.1-177.1-115.3-360-120l-10.9-2.1 69.7-29H377s52 13.2 69.5 19c44.4 14.8 57.6 38.3 58 70.7Z" />
      <path fill="#dc6e41" d="m160.7 259.1-81.2 31.2L69 290h-.7c-7.5 0-14.8 1.4-21.4 4l88-35 17-5.6 8.7 5.6Z" />
      <path d="M506.9 318.4a7.5 7.5 0 0 0-14 5.3c2.6 7.1 4 15.3 4.1 25.2.3 29.5-30.3 52-58 53.8-89.4 5.5-132.1-24-177.4-55.1-42-29-85.5-59-167-64.2l41.8-16.3h239.7c6.8 1.7 52.2 12.9 68 18.1 12.4 4.2 22.1 8.9 29.9 14.5a7.5 7.5 0 0 0 10.4-1.6c2.5-3.4 1.8-8-1.6-10.5a121 121 0 0 0-34-16.6 1248 1248 0 0 0-64.3-17.2V216c0-8-6.3-14.8-14.2-15.4a114.3 114.3 0 0 0-28.3-68.2 7.5 7.5 0 1 0-11.2 10 99.3 99.3 0 0 1 24.4 58.1H225.5a7.5 7.5 0 0 0 0 15H369c.3 0 .5.3.5.5v14.6a30.3 30.3 0 0 0-40.9 6.8c-5.8-7.2-14.5-11.9-24.2-11.9s-18.3 4.7-24.2 12c-5.8-7.3-14.5-12-24.2-12s-18.3 4.7-24.2 12c-5.8-7.3-14.5-12-24.2-12s-18.3 4.7-24.2 12a30.3 30.3 0 0 0-40.9-6.9V216c0-.2.3-.5.5-.5h47.5a7.5 7.5 0 0 0 0-15h-33.7A99.6 99.6 0 0 1 306 122a7.5 7.5 0 0 0 7.5-13 114.5 114.5 0 0 0-171.7 91.7c-8 .6-14.3 7.3-14.3 15.4v38.4L44.2 287l-.5.3a67.9 67.9 0 0 0-43.7 62 67.2 67.2 0 0 0 67.5 68.4c13.5 0 26.5-.6 38.7-1.8a7.5 7.5 0 0 0-1.5-15 385.2 385.2 0 0 1-37.2 1.8A52.1 52.1 0 0 1 15 349.5a53.2 53.2 0 0 1 53.4-51.8c84-.3 131.4 25.8 171.8 53.4-37 23.8-67.4 37.2-101.8 44.6-4 1-6.7 5-5.8 9 .7 2.8 4.3 6.7 9 5.7 37-7.6 73.3-24.6 112.1-50 22.5 15.5 45.9 31.5 74.7 42.6 32.2 12.7 72.9 17.3 111.5 14.6 35.2-2.1 72.5-30.4 72.1-68.9a87.4 87.4 0 0 0-5.1-30.3Zm-154.1-77.7c7 0 13 4.7 15.4 11.5h-30.8a16.8 16.8 0 0 1 15.4-11.5Zm-48.4 0c7 0 13 4.7 15.4 11.5H289a16.8 16.8 0 0 1 15.5-11.5Zm-48.4 0c7 0 13 4.7 15.4 11.5h-30.8a16.8 16.8 0 0 1 15.4-11.5Zm-48.4 0c7 0 13 4.7 15.4 11.5h-30.9a16.8 16.8 0 0 1 15.5-11.5Zm-48.4 0c7 0 13 4.7 15.4 11.5h-30.9a16.8 16.8 0 0 1 15.5-11.5Z" />
    </symbol>
    <symbol id="item-3077">
      <title>multitasking</title>
      <path fill="#ffe177" d="M267.1 96.6V91c0-8 3.4-14.6 9.5-19.9a36.1 36.1 0 0 0-24.2-63.5 36.3 36.3 0 0 0-24 63.6c6 5.2 9.4 11.8 9.4 19.8v5.7H267Z" />
      <path fill="#685e68" d="M267.1 101.1v12a15 15 0 0 1-30 0v-12h30Z" />
      <path fill="#fe93d3" d="M136.7 352a29 29 0 0 1-5.5 17c-1.8 2.6-4.1 3-6.8 4.8-1.7 1.2-3.5 4.2-5.5 5a22.8 22.8 0 0 1-37.1 23.4c-4.6-4-7.5-23.7-7.5-30.4 0 6.7-2.9 26.3-7.5 30.5a22.7 22.7 0 0 1-38-17c0-2.2.3-4.4.9-6.4-2.4-1-4.6-4.4-6.7-6-2.1-1.7-4-1.7-5.6-3.9a29 29 0 0 1-.2-33.8c1.4-2 3-1.8 4.9-3.3 2.2-2 4.7-5.5 7.4-6.7a22.8 22.8 0 0 1 37.3-22.6c4.6 4.2 7.5 19.2 7.5 25.9 0-6.7 3-21.7 7.5-25.9a22.8 22.8 0 0 1 37.3 22.6c2.5 1.1 4.8 4.5 6.9 6.2 2 1.7 3.8 1.6 5.4 3.8a29 29 0 0 1 5.3 16.8Z" />
      <circle cx="429.3" cy="352.5" r="59.8" fill="#bde08c" />
      <path fill="#ffd15b" d="M113.6 183v54.5c0 4.3-3.5 7.8-7.9 7.8H20.2a7.8 7.8 0 0 1-7.8-7.8v-55.8c0-4.3 3.5-7.1 7.8-7.1h85.5c4.4 0 7.9 4 7.9 8.3Z" />
      <path fill="#ffe177" d="M113.6 179.7v3.2l-44.7 30.8a10.3 10.3 0 0 1-11.8 0l-44.7-32v-2c0-4.4 3.5-7.9 7.8-7.9h85.5c4.4 0 7.9 3.5 7.9 7.9Z" />
      <path fill="#eaf6ff" d="M391.3 243.4h97V171a8 8 0 0 0-8-8h-81a8 8 0 0 0-8 8v72.5Z" />
      <path fill="#7a6d79" d="M392.8 258.5h95c8.6 0 15.5-6.9 15.5-15.4v-5.7c0-3-2.4-5.3-5.3-5.3H382.7a5.2 5.2 0 0 0-5.3 5.3v5.7c0 8.5 7 15.4 15.4 15.4Z" />
      <path fill="#eaf6ff" d="M174.7 76.5v56.7c0 2.7-2.1 4.8-4.7 4.8H96.8a4.8 4.8 0 0 1-4.8-4.8V37.8c0-2.6 2.1-4.8 4.8-4.8H131c2.2 0 4.8 3.6 6.3 5.1L169.7 71c1.6 1.6 5 3.4 5 5.7Z" />
      <path fill="#d8ecfe" d="M174.7 75.4v1.1h-38.2c-3 0-5.4-2.4-5.4-5.3V33h1.3c2.2 0 4.3.9 5.9 2.5l34 34a8.3 8.3 0 0 1 2.4 5.9Z" />
      <path fill="#eaf6ff" d="M396.6 138H353c-7 0-12.6-5.6-12.6-12.5v-80c0-6.9 5.7-12.5 12.6-12.5h43.6c7 0 12.5 5.6 12.5 12.5v80c0 6.9-5.6 12.5-12.5 12.5Z" />
      <path fill="#d8ecfe" d="M383.1 65.6h-16.6a7.5 7.5 0 0 1 0-15H383a7.5 7.5 0 0 1 0 15Z" />
      <circle cx="195.5" cy="318.2" r="36.9" fill="#685e68" />
      <circle cx="307.7" cy="318.2" r="36.9" fill="#685e68" />
      <path fill="#ffb09e" d="M290.7 402.8a18.5 18.5 0 0 1-14.5-18v-42H227v42c0 8.6-6 16-14.5 18l39.1 36.2 39.1-36.2Z" />
      <path fill="#7a6d79" d="M333 235.2c0 26.3-10.2 49.2-35.2 62a100 100 0 0 1-46.2 11c-48.5 0-87.8-32.7-87.8-73.1 0-38.3 35.3-69.7 80.3-72.9 2.5-.2 5 3.2 7.5 3.2s5-3.4 7.5-3.2c39.2 3.5 73.8 34.7 73.8 73Z" />
      <path fill="#685e68" d="M339.4 235c0 26.3-16.6 49.4-41.6 62.3a54 54 0 0 1 3-21 95 95 0 0 0-41.7-114c45 3 80.3 34.5 80.3 72.8Z" />
      <path fill="#685e68" d="M259.1 162.2V226a7.5 7.5 0 0 1-15 0v-63.8l7.5-.3 7.5.3Z" />
      <path fill="#ffb09e" d="M320.4 310.4H182.7a28.2 28.2 0 0 1-28.3-28.3v-7.9a15 15 0 0 1 15-14.9h164.4a15 15 0 0 1 14.9 15v7.8a28.2 28.2 0 0 1-28.3 28.2Z" />
      <path fill="#ffcebf" d="M189.3 282.4v-10c0-35.6 36.9-59.7 62.3-64.5 26 4.8 62.4 28.4 62.4 64.5v12.7a86.9 86.9 0 0 1-54.7 80.7c-5 2-10.4 2-15.4 0a86.9 86.9 0 0 1-54.6-80.7v-2.7Z" />
      <path fill="#fe93d3" d="m369.6 441.6 1.3 55a5 5 0 0 1-5 5l-22.5 2.9h-208a5 5 0 0 1-5-5v-58.8c0-11.6 8-21.6 19.3-24l62.8-14 31.8 29.6 7.3 6.7 7.3-6.7 31.8-29.6 30.1 6.7 29.2 9a23.8 23.8 0 0 1 19.6 23.2Z" />
      <path fill="#fe73c5" d="M372.9 440.7v58.8a5 5 0 0 1-5 5h-24.5v-61.6c0-23.2-21.9-33.2-22.6-33.5l32.8 7.2a24.6 24.6 0 0 1 19.3 24ZM221 445.6l-38.6-36.2 10.3-16a14 14 0 0 1 23.2-1.4l35.7 47-20.2 8.4a9.8 9.8 0 0 1-10.3-1.8Z" />
      <path fill="#fe73c5" d="m282.1 445.6 38.7-36.2-10.2-16a14 14 0 0 0-23.3-1.4l-35.7 47 20.2 8.4c3.5 1.5 7.5.8 10.4-1.8Z" />
      <path d="M495.8 224.7v-54.1c0-8.4-6.9-15.2-15.2-15.2H449c-8.8-17-19.6-32.8-32.5-47V45.5c0-11-9-20-20-20H353c-11 0-20 9-20 20v4.8a219.6 219.6 0 0 0-36.7-10.7A43.5 43.5 0 0 0 252.1 0a43.4 43.4 0 0 0-30.7 12.7 43.4 43.4 0 0 0-12.8 26.9 217.7 217.7 0 0 0-42.5 13.1l-22.5-22.5c-3-3-7-4.7-11.2-4.7H96.8c-6.8 0-12.3 5.5-12.3 12.3v12.4a7.5 7.5 0 0 0 15 0v-9.7h24.1v36c0 4.2 3.4 7.6 7.5 7.6h36.1v46.4H99.5V85.2a7.5 7.5 0 0 0-15 0v27.4a220.8 220.8 0 0 0-33 51.7H20.2c-8.4 0-15.3 7-15.3 15.4v57.8c0 8.4 6.9 15.3 15.3 15.3h11.5c-.3 13.9.9 27.8 3.2 41.4a30.3 30.3 0 0 0-13.6 27 36.6 36.6 0 0 0 0 61.7v2.5a30.3 30.3 0 0 0 53 20 30.2 30.2 0 0 0 25.5 10.2 244 244 0 0 0 23.5 19.6c-.3 1.8-.4 3.6-.4 5.5v63.8a7.5 7.5 0 0 0 15 0v-63.8a17 17 0 0 1 13.4-16.7l28.9-6.4L216 451a17.4 17.4 0 0 0 18.3 3.3l9.8-4.1v54.2a7.5 7.5 0 0 0 15 0v-54.2l9.8 4a17.3 17.3 0 0 0 18.3-3.1v-.1l35.9-33.5L352 424a17 17 0 0 1 13.4 16.7v63.8a7.5 7.5 0 0 0 15 0v-63.8l-.3-4.5c8.9-6.3 17.4-13.3 25.3-20.9a66.8 66.8 0 0 0 65-9.5 7.5 7.5 0 0 0-9.2-11.9 52.3 52.3 0 1 1 17.8-25.1 7.5 7.5 0 0 0 14.2 4.7 67.1 67.1 0 0 0-24-75.2A222 222 0 0 0 473 266h12.1c12.4 0 22.5-10 22.5-22.5v-6.3c0-6.7-5.2-12.1-11.8-12.5ZM138.6 69V46.4L161.3 69h-22.7ZM348 45.5a5 5 0 0 1 5-5h43.7a5 5 0 0 1 5 5v80a5 5 0 0 1-5 5H353a5 5 0 0 1-5-5v-80ZM232 23.4a28.6 28.6 0 0 1 20.5-8.4 28.6 28.6 0 0 1 29.1 28.7c0 8.3-3.6 16.2-9.9 21.7a35 35 0 0 0-12 25.6h-14.4a35 35 0 0 0-12-25.6 28.7 28.7 0 0 1-1.3-42Zm27.7 82.6v7.1a7.5 7.5 0 0 1-15 0V106h15ZM105 179.3l-40.3 28.2c-1 .7-2.3.7-3.2 0L21 179.3h84Zm-84.7 58.5a.3.3 0 0 1-.3-.3v-40.7l32.9 23a17.8 17.8 0 0 0 20.4 0l32.9-23v40.7c0 .2-.2.3-.4.3H20.2Zm46.6 147.6a15.3 15.3 0 0 1-30.6 0c.2-4.8 2.1-10 6.2-12.7a7.5 7.5 0 0 0-8.4-12.4c-3 2-5.6 4.6-7.6 7.7a21.6 21.6 0 0 1-.1-31.8c2 3 4.5 5.6 7.5 7.6a7.5 7.5 0 0 0 10.4-2c2.3-3.4 1.4-8-2-10.4-3.9-2.5-6-7.4-6-11.9a15.3 15.3 0 0 1 30.6 0v65.9Zm39.4-12.7c4.1 2.7 6 8 6.2 12.7a15.3 15.3 0 0 1-30.6 0v-65.9a15.3 15.3 0 0 1 30.6 0c0 4.5-2.1 9.4-6 12a7.5 7.5 0 1 0 8.4 12.3c3-2 5.6-4.6 7.5-7.6a21.6 21.6 0 0 1-.1 31.8c-2-3-4.6-5.7-7.6-7.7a7.5 7.5 0 1 0-8.4 12.4Zm122.4 67.8c-.8.3-1.8.2-2.4-.4l-34.1-32 7-11c1.1-1.9 3-3 5.3-3.2 2.2 0 4.2.9 5.5 2.6l29.9 39.3-11.2 4.7Zm-45.2-137.6c-11.7.4-21.5-9-21.5-20.8v-7.9c0-4 3.4-7.4 7.4-7.4h12.8c-.2 1.9-.3 3.7-.3 5.6v12.7c0 6 .6 12 1.7 17.8Zm-17 11c4.9 2.5 10.4 4 16.3 4h5a95 95 0 0 0 16.6 28.4 29.4 29.4 0 0 1-38-32.4Zm30.4-28.8v-12.7c0-9.7 3.2-19 9.5-27.7a7.5 7.5 0 1 0-12-8.9 66.9 66.9 0 0 0-8.8 16H174c-1.8-5.4-2.7-11-2.7-16.7 0-34.2 32-62.3 72.8-65.4V202c-7 2-14.2 5-21 9a7.5 7.5 0 0 0 7.3 13 78 78 0 0 1 21.2-8.4c22.7 4.9 54.9 25.8 54.9 57V285a79 79 0 0 1-50 73.8 13.3 13.3 0 0 1-9.8 0 79.1 79.1 0 0 1-50-73.8ZM320.4 303h-.6a95 95 0 0 0 1.7-17.8v-12.7c0-1.9-.1-3.8-.3-5.6h12.6c4 0 7.4 3.3 7.4 7.4v8c0 11.3-9.3 20.6-20.8 20.6Zm16.8 15.3a29.5 29.5 0 0 1-38.1 28.1c7.1-8.4 12.7-18 16.6-28.4h4.8c5.9 0 11.4-1.5 16.4-4 .2 1.4.3 2.8.3 4.3Zm-8-66.4h-11.4c-9.5-26.3-36.4-43.8-58.7-49.9v-32.2c40.9 3 72.9 31.2 72.9 65.3 0 5.7-.9 11.3-2.6 16.7Zm-77.5 174.7h-.2l-21-27.8c2.6-4.1 4-9 4-14v-14.9l6.6 3a28 28 0 0 0 21 0c2.3-1 4.5-1.9 6.6-3v15c0 5 1.5 9.8 4.1 13.9l-21.1 27.8Zm25.4 13.6c-.7.6-1.6.7-2.4.4l-11.2-4.7 29.8-39.3a6.4 6.4 0 0 1 5.6-2.6c2.2.2 4.1 1.3 5.2 3.2.2.3 7 10.8 7 11l-34 32Zm178.3-149.7a67.3 67.3 0 0 0-64 117.5c-5.5 5-11.2 9.6-17 14a32 32 0 0 0-19.2-12.6l-29.7-6.6-8.5-13.3a21.5 21.5 0 0 0-33.3-4.6v-24.1l3.8-3a44.3 44.3 0 0 0 62-54.8c4.2-5.8 6.7-13 6.7-20.8v-7.9c0-8.6-5-16-12-19.8a69 69 0 0 0 2.7-19.3c0-44.5-42.7-80.7-95.3-80.7s-95.3 36.2-95.3 80.7c0 6.5 1 13 2.8 19.2a22.4 22.4 0 0 0-12.2 20v7.8c0 7.8 2.6 15 6.8 21a44.3 44.3 0 0 0 41.8 59.5c7.1 0 14-1.7 20.3-4.9l3.7 3v24.1a21.5 21.5 0 0 0-33.2 4.6l-8.5 13.3-29.7 6.6a32 32 0 0 0-18.6 11.8c-4.9-3.7-9.6-7.5-14.1-11.6a30.3 30.3 0 0 0 12-26.6 36.6 36.6 0 0 0 0-61.8v-1.6a30.3 30.3 0 0 0-53-19.9c-6-6.9-15.4-11-25-10.3-2-12-3-24.3-2.7-36.5h59c8.5 0 15.4-6.9 15.4-15.3v-57.8c0-8.5-6.9-15.4-15.3-15.4H68a217 217 0 0 1 16.9-28c1.4 5.3 6.1 9.2 11.8 9.2H170c6.7 0 12.2-5.5 12.2-12.3V75.4c0-4.3-1.6-8.2-4.5-11.2 10.4-4 21.1-7.3 32-9.6a43.7 43.7 0 0 0 13.7 22.1c4.2 3.6 6.6 8.8 6.9 14.3h-2.9a7.5 7.5 0 0 0 0 15h2.2v7.1a22.5 22.5 0 0 0 45 0V106h2.2a7.5 7.5 0 0 0 0-15h-2.1a20 20 0 0 1 6.8-14.3 43.7 43.7 0 0 0 13.6-22A204 204 0 0 1 333 66.4v59c0 11 9 20 20 20h43.7a20 20 0 0 0 19.2-14.6c6 7.8 11.4 16 16.2 24.5h-33c-8.4 0-15.2 6.8-15.2 15.2v54.2c-6.1.9-10.8 6.1-10.8 12.4v6.3c0 12.4 10 22.5 22.5 22.5h62.5a198 198 0 0 1-2.7 24.4Zm37.2-46.9c0 4.2-3.3 7.5-7.5 7.5h-89.5a7.5 7.5 0 0 1-7.5-7.5v-3.9h21a7.5 7.5 0 0 0 0-15h-10.3v-54l.2-.2h81.6s.2 0 .2.2v54h-36.6a7.5 7.5 0 0 0 0 15h48.4v4Z" />
      <path d="M366.5 65.6H383a7.5 7.5 0 0 0 0-15h-16.6a7.5 7.5 0 0 0 0 15ZM232 326a39.6 39.6 0 0 0 39.2 0 7.5 7.5 0 1 0-7.4-13 24.7 24.7 0 0 1-24.4 0 7.5 7.5 0 1 0-7.4 13Zm197.1 67.5c4.2 0 7.5-3.4 7.5-7.5v-3.3c6.6-2.4 11.5-8 13-15.1a20 20 0 0 0-12.1-22.5c-2.4-1-4.4-1.7-6.2-2.3-2.9-1-4.3-1.5-5-2.4-.9-.8-1.1-1.8-.9-2.8.3-1 1.1-2 2.2-2.4 3.5-1.2 7.5 1.2 7.5 1.2 1.2.8 2.6 1.2 4.2 1.2a7.5 7.5 0 0 0 4-13.7c-.4-.4-3-2-6.6-3V318a7.5 7.5 0 0 0-15 0v3.4a18.4 18.4 0 0 0-10.8 12.4c-1.5 6 0 12 4.2 16.6 3.4 3.8 7.5 5.2 11.4 6.5 1.6.6 3.2 1.1 5 2 3.6 1.4 3.6 4.1 3.3 5.6-.1.8-1 4.5-5.7 4.5-4 0-6.2-.8-9.1-2.5a7.5 7.5 0 0 0-7.5 13c2.9 1.7 5.7 3 9.1 3.8v2.6c0 4.2 3.4 7.5 7.5 7.5Z" />
    </symbol>
    <symbol id="item-3078">
      <title>meltdown</title>
      <path fill="#9857bd" d="M302.6 137v-36.3a93.2 93.2 0 1 0-186.4 0v36.2h186.4Z" />
      <path fill="#ffe5c2" d="M288.5 127.5a38 38 0 0 1-17-31.6 41.8 41.8 0 0 0-41.7-41.8H189c-23 0-41.7 18.7-41.7 41.8a38 38 0 0 1-17 31.6l-14 9.4v26a93.2 93.2 0 1 0 186.3 0v-26l-14.1-9.4Z" />
      <path fill="#814aa0" d="M209.4 7.5c-3.4 0-6.7.2-10 .5a93.2 93.2 0 0 1 83.2 92.7v36.2h20v-36.2a93.2 93.2 0 0 0-93.2-93.2Z" />
      <path fill="#fed2a4" d="M288.5 127.5c-2.2-1.4-4.1-3-6-4.8v40.1a93.1 93.1 0 0 1-83.1 92.7 93.2 93.2 0 0 0 103.2-92.7V137l-14.1-9.4Z" />
      <path fill="#ffe5c2" d="M38.6 395.8v77.6a31 31 0 0 0 62 0l15.6-93.2-77.6 15.6Z" />
      <path fill="#fed2a4" d="M80.7 391.8v81.6c0 6.1-5 11.1-11 11.1H40.5a31 31 0 0 0 60-11l15.6-93.3-35.5 11.6Z" />
      <path fill="#ffe5c2" d="M318.1 473.4a31 31 0 0 0 62.1 0v-77.6l-77.6-15.6 15.5 93.2Z" />
      <path fill="#fed2a4" d="M360.3 391.8v81.6c0 6.1-5 11.1-11.1 11.1h-29a31 31 0 0 0 60-11v-77.7l-20-4Z" />
      <path fill="#a2e62e" d="M315.3 287H103.6a65 65 0 0 0-65 65v43.8h62v103.7a5 5 0 0 0 5 5h207.5a5 5 0 0 0 5-5V395.8h62.1V352a65 65 0 0 0-65-65Z" />
      <path fill="#97d729" d="M360.3 305.2v34.5a5 5 0 0 1-5 5H303a5 5 0 0 0-5 5v129.8a5 5 0 0 1-5 5H100.7v15a5 5 0 0 0 5 5H313a5 5 0 0 0 5-5V395.8h62.1V352c0-18.5-7.6-35.1-20-47Z" />
      <path fill="#e94444" d="M234.2 205.5a4.3 4.3 0 0 0 6.3-3.9c0-7.7 0-38.8-31-38.8s-31.2 31-31.2 38.8c0 3.3 3.5 5.4 6.4 3.9a53.4 53.4 0 0 1 49.5 0Z" />
      <path fill="#ffe5c2" d="M386.3 442.4h-43.2a25 25 0 0 1-25-25v-37.1c0-8.6 7-15.6 15.5-15.6h62.2c8.5 0 15.5 7 15.5 15.6v37a25 25 0 0 1-25 25Z" />
      <path fill="#fed2a4" d="M395.8 364.7h-4.5v52.7a5 5 0 0 1-5 5h-67.7a25 25 0 0 0 24.5 20h43.2a25 25 0 0 0 25-25v-37.1c0-8.6-7-15.6-15.5-15.6Z" />
      <path fill="#ffe5c2" d="M395.8 333.7h-41.6a5 5 0 0 0-5 5v11a15 15 0 0 0 15 15h31.6a15.5 15.5 0 1 0 0-31Z" />
      <path fill="#fed2a4" d="M396.3 333.7v.5c0 8.6-7 15.5-15.5 15.5h-31.6a15 15 0 0 0 15 15h31.6a15.5 15.5 0 0 0 .5-31Z" />
      <path fill="#ffe5c2" d="M32.5 442.4h43.2a25 25 0 0 0 25-25v-37.1c0-8.6-7-15.6-15.5-15.6H23c-8.5 0-15.5 7-15.5 15.6v37a25 25 0 0 0 25 25Z" />
      <path fill="#fed2a4" d="M85.2 364.7h-4.5v52.7a5 5 0 0 1-5 5H8a25 25 0 0 0 24.5 20h43.2a25 25 0 0 0 25-25v-37.1c0-8.6-7-15.6-15.5-15.6Z" />
      <path fill="#ffe5c2" d="M23 333.7h41.6a5 5 0 0 1 5 5v11a15 15 0 0 1-15 15H23a15.5 15.5 0 1 1 0-31Z" />
      <path fill="#fed2a4" d="M64.6 333.7h-10v11a5 5 0 0 1-5 5H7.5c.3 8.4 7.1 15 15.5 15h31.6a15 15 0 0 0 15-15v-11a5 5 0 0 0-5-5Z" />
      <path fill="#ffc344" d="m502.6 138-69-119.4a14.2 14.2 0 0 0-24.6 0L340 138a14.2 14.2 0 0 0 12.4 21.3h137.8c11 0 17.8-11.8 12.4-21.3Z" />
      <path fill="#feb237" d="m502.6 138-69-119.4c-5.2-9-17.9-9.4-23.8-1.2L476 131.8a5 5 0 0 1-4.3 7.5H339.4c-4.1 9.3 2.6 20 13 20h137.8c11 0 17.8-11.8 12.4-21.3Z" />
      <path d="M176.6 211.8c3.5 2.1 7.9 2.2 11.5.3 6.4-3.3 13.7-5 21.3-5s15 1.7 21.3 5a11.8 11.8 0 0 0 17.3-10.5c0-4.1 0-15.1-4.6-25.3-4.2-9.6-13.6-21-34-21s-29.8 11.4-34 21c-4.5 10.2-4.5 21.2-4.5 25.4 0 4.2 2.1 8 5.7 10Zm32.8-41.5c9.5 0 21.9 2.9 23.4 26.3a61.9 61.9 0 0 0-46.8 0c1.5-23.4 14-26.3 23.4-26.3Zm-3-31h6c11 0 20-9 20-20v-18.6a7.5 7.5 0 0 0-15 0v18.5a5 5 0 0 1-5 5h-6a7.5 7.5 0 0 0 0 15Zm189.4 186.9H383a72.2 72.2 0 0 0-67.8-46.6H175a7.5 7.5 0 0 0 0 15h140.3a57.2 57.2 0 0 1 51.4 31.6h-12.4c-6.9 0-12.5 5.6-12.5 12.5v11c0 2.7.4 5.2 1.3 7.5h-9.3c-2.9 0-5.6.5-8 1.5v-9.5a7.5 7.5 0 0 0-15 0V497H108.1V349.2a7.5 7.5 0 0 0-15 0v9.5a23 23 0 0 0-8-1.5h-9.4c.9-2.3 1.3-4.8 1.3-7.5v-11c0-7-5.6-12.5-12.5-12.5H52.2a57.2 57.2 0 0 1 51.4-31.6H140a7.5 7.5 0 0 0 0-15h-36.4c-30.4 0-57 18.5-67.8 46.6H23a23 23 0 0 0-17 38.5 23 23 0 0 0-6 15.6v37a32.5 32.5 0 0 0 31 32.5v23.6a38.6 38.6 0 0 0 62.8 30c1.7 5 6.4 8.6 11.9 8.6H313c5.5 0 10.2-3.6 11.9-8.6a38.6 38.6 0 0 0 62.8-30v-23.6c17.2-.7 31-15 31-32.4v-37.1a23 23 0 0 0-6-15.6 23 23 0 0 0-17-38.5ZM23 341.2h39.1v8.5c0 4.2-3.3 7.5-7.5 7.5H23a8 8 0 0 1 0-16Zm-8 76.2v-37.1a8 8 0 0 1 8-8h8v23.5a7.5 7.5 0 0 0 15 0v-23.6h16.1v23.6a7.5 7.5 0 0 0 15 0v-23.6h8a8 8 0 0 1 8 8v37.2c0 9.6-7.8 17.5-17.4 17.5H32.5c-9.7 0-17.5-7.9-17.5-17.5ZM69.6 497c-13 0-23.5-10.6-23.5-23.6V450h29.6c6.4 0 12.4-1.9 17.5-5.1v28.6c0 13-10.6 23.6-23.6 23.6Zm287-155.8h39.2a8 8 0 0 1 0 16h-31.6a7.5 7.5 0 0 1-7.5-7.5v-8.5ZM349.3 497c-13 0-23.6-10.6-23.6-23.6v-28.6c5 3.2 11 5 17.5 5h29.6v23.6c0 13-10.5 23.6-23.5 23.6Zm54.6-79.6c0 9.6-7.8 17.5-17.5 17.5h-43.2c-9.6 0-17.5-7.9-17.5-17.5v-37.1a8 8 0 0 1 8-8h8v23.5a7.5 7.5 0 0 0 15 0v-23.6h16.1v23.6a7.5 7.5 0 0 0 15 0v-23.6h8a8 8 0 0 1 8.1 8v37.2Z" />
      <path d="M209.4 263.5c55.5 0 100.7-45.2 100.7-100.7v-62.1a100.8 100.8 0 0 0-152-86.6 7.5 7.5 0 0 0 7.6 12.9A85.6 85.6 0 0 1 295 100.7v22.2l-2.5-1.6A30.5 30.5 0 0 1 279 95.9a49.3 49.3 0 0 0-49.2-49.3H189a49.3 49.3 0 0 0-49.2 49.3c0 10.2-5.1 19.7-13.6 25.4l-2.5 1.6v-22.2c0-19 6.1-37 17.7-52.1a7.5 7.5 0 0 0-12-9.2 99.8 99.8 0 0 0-20.7 61.3v62.1c0 55.5 45.2 100.7 100.7 100.7Zm-85.7-122.6 10.8-7.2A45.5 45.5 0 0 0 154.8 96 34.3 34.3 0 0 1 189 61.5h40.8A34.3 34.3 0 0 1 264 95.8c0 15.3 7.6 29.5 20.3 38l10.8 7.1v22a85.8 85.8 0 0 1-171.4 0v-22Zm385.3-6.7L440.2 15c-3.9-7-11.1-11-18.9-11s-14.9 4-18.8 11l-69 119.3a21.7 21.7 0 0 0 19 32.6H436a7.5 7.5 0 0 0 0-15h-83.7a6.6 6.6 0 0 1-5.8-3.3c-.6-1-1.8-3.7 0-6.8l68.9-119.3a6.7 6.7 0 0 1 11.7 0L496 141.7c1.7 3 .6 5.8 0 6.8s-2.3 3.3-5.9 3.3H471a7.5 7.5 0 0 0 0 15h19.1a21.8 21.8 0 0 0 18.9-32.6Z" />
      <path d="M428.8 62.2a7.5 7.5 0 0 0-15 0v31a7.5 7.5 0 0 0 15 0v-31Z" />
      <circle cx="421.3" cy="124.4" r="7.5" />
    </symbol>
    <symbol id="item-3079">
      <title>part/piece</title>
      <path fill="#f44336" d="M85.8 109a230.6 230.6 0 1 0 393.7 163.1H248.9l-163-163Z" />
      <path fill="#ffec36" d="M99.4 76.8a230.6 230.6 0 0 1 393.7 163H262.5L99.4 76.9Z" />
      <path d="M92.3 103.1a8.8 8.8 0 0 0-12.4 0 239.4 239.4 0 1 0 408.8 169.4c0-4.9-4-8.8-8.8-8.8h-227L92.3 103Zm-6 18.9L243 278.7a8.9 8.9 0 0 0 6.2 2.6H471c-4.6 118.4-102.1 213-221.7 213S27.4 395 27.4 272.5c0-56 21-109.6 58.8-150.5Zm7.1-51.8a8.8 8.8 0 0 0 0 12.4l163.1 163.2a8.8 8.8 0 0 0 6.3 2.5h230.7c4.9 0 8.8-4 8.8-8.8A239.5 239.5 0 0 0 93.4 70.2Zm18.9 6.3a221.9 221.9 0 0 1 372.2 154.2h-218L112.3 76.5Z" />
    </symbol>
    <symbol id="item-3080">
      <title>scar</title>
      <path fill="#f5ebcd" d="M424.3 7.5H87.7a16 16 0 0 0-16 16v88c0 32 4.7 63.8 14.1 94.4l3.7 12a320.7 320.7 0 0 1 14.2 94.3v55.4c0 13.3 2.8 26.4 8 38.4l24 98.5h264.6V406c5.2-12 8-25.1 8-38.4v-55.4c0-32 4.8-63.7 14.2-94.3l3.7-12a320.6 320.6 0 0 0 14.2-94.3v-88a16 16 0 0 0-16-16.1Z" />
      <path fill="#f4dbb3" d="M159.8 143.8c-31 0-56.1-25.2-56.1-56.1V23.5a16 16 0 0 0-32 0v88c0 32 4.7 63.8 14.1 94.4l3.7 12a320.7 320.7 0 0 1 14.2 94.3v55.4c0 13.3 2.8 26.4 8 38.4v98.5h24v-52.4a16 16 0 0 0 22-9.7 17 17 0 0 0-3.1-15.4l-11.9-15.4a72.2 72.2 0 0 1-15-44v-55.4A345 345 0 0 0 112.6 211l-3.7-12a288.4 288.4 0 0 1-9-39.3c-.5-3.2.5-6.4 2.7-8 1.3-1 2.8-1.5 4.5-1.5 1.8 0 3.6.6 5 1.9 14 12 33.3 15.8 51.8 15.8h2.8c7.9 0 15.3-5 17-12.7.8-4.2 0-8.1-2-11.3h-21.8Z" />
      <path d="M138.5 113a7.5 7.5 0 1 0 10.6-10.6l-4-4a7.5 7.5 0 1 0-10.6 10.6l4 4ZM256 392.8a7.5 7.5 0 0 0-7.5 7.5v8a7.5 7.5 0 0 0 15 0v-8c0-4.1-3.4-7.5-7.5-7.5Z" />
      <path d="M129.6 421.6a89.2 89.2 0 0 1-18.4-54v-55.4a329 329 0 0 0-14.5-96.5l-3.7-12a312.8 312.8 0 0 1-14-92.1v-88a8.5 8.5 0 0 1 10-8.5c4 .7 7 4.7 7 9.3v63.3c0 35 28.6 63.6 63.7 63.6h24a7.5 7.5 0 0 0 0-15h-24a48.7 48.7 0 0 1-48.6-48.7V24.4A24 24 0 0 0 91.5.4a23.7 23.7 0 0 0-27.5 23v88c0 32.8 4.9 65.3 14.5 96.6l3.7 12a312.8 312.8 0 0 1 13.9 92.1v55.4a104 104 0 0 0 8 39.8v97.1a7.5 7.5 0 0 0 15 0v-71.7l18.6 24.2a7.5 7.5 0 1 0 12-9.2l-20.2-26.2Z" />
      <path d="m292.2 287.8-16-10.5 6.9-10.4a7.5 7.5 0 1 0-12.5-8.3l-6.9 10.4-15.2-10 6.8-10.4a7.5 7.5 0 1 0-12.5-8.2l-6.8 10.4-15.2-10 6.8-10.4A7.5 7.5 0 1 0 215 222l-6.9 10.4-15.2-10 6.8-10.4a7.5 7.5 0 1 0-12.5-8.3l-6.8 10.4-15.2-10 6.8-10.4a7.5 7.5 0 1 0-12.5-8.2l-6.9 10.4-16-10.5a7.5 7.5 0 1 0-8.2 12.5l16 10.5-6.9 10.4a7.5 7.5 0 1 0 12.6 8.2l6.8-10.4 15.2 10-6.8 10.4a7.5 7.5 0 1 0 12.5 8.3l6.9-10.4 15.2 10-6.9 10.4a7.5 7.5 0 1 0 12.6 8.3l6.8-10.4 15.2 10-6.8 10.4a7.5 7.5 0 1 0 12.5 8.2l6.9-10.4 15.2 10-6.9 10.5a7.5 7.5 0 1 0 12.6 8.2l6.8-10.4 16 10.5a7.5 7.5 0 0 0 8.3-12.5h-.1Zm76-172.6c2 0 3.9-.7 5.3-2.2l4-4A7.5 7.5 0 1 0 367 98.4l-4 4a7.5 7.5 0 0 0 5.3 12.8Zm72.2-19a7.5 7.5 0 0 0-7.5 7.5v7.9c0 31.2-4.7 62.2-13.9 92l-3.7 12.1a327.8 327.8 0 0 0-14.5 96.5v55.4c0 19.4-6.5 38.6-18.4 54l-20.1 26.2a7.5 7.5 0 0 0 11.9 9.2l18.6-24.2v71.7a7.5 7.5 0 0 0 15 0v-97a104 104 0 0 0 8-40v-55.3c0-31.2 4.7-62.2 13.9-92l3.7-12.1a327.8 327.8 0 0 0 14.5-96.5v-8c0-4-3.4-7.4-7.5-7.4Z" />
      <path d="M439.6 5.6A23.6 23.6 0 0 0 420.4.3a24.2 24.2 0 0 0-19.6 24v63.4a48.7 48.7 0 0 1-48.6 48.6h-24a7.5 7.5 0 0 0 0 15h24c35 0 63.6-28.6 63.6-63.6V24.4c0-4.6 3-8.6 7-9.3a8.5 8.5 0 0 1 10 8.4v48.1a7.5 7.5 0 0 0 15 0v-48c0-7-3-13.5-8.2-18Z" />
    </symbol>
    <symbol id="item-3081">
      <title>wheelchair ramp</title>
      <path fill="#62dbfb" d="M320.3 42.6V234a5 5 0 0 0 5 5h167.8a5 5 0 0 0 5-5V42.6a5 5 0 0 0-5-5H325.3a5 5 0 0 0-5 5Z" />
      <path fill="#01c0fa" d="M493.1 37.6h-27a5 5 0 0 1 5 5V234a5 5 0 0 1-5 5h27a5 5 0 0 0 5-5V42.6a5 5 0 0 0-5-5Z" />
      <circle cx="397.7" cy="82.9" r="16.4" fill="#d8ecfe" transform="rotate(-22.5 397.8 82.9)" />
      <path fill="#d8ecfe" d="m26.4 497 276.2-107.5H493a5 5 0 0 1 5 5v105a5 5 0 0 1-5 5H27.8c-4.2 0-5.4-6-1.4-7.5Z" />
      <path fill="#b3dafe" d="M493.1 389.5h-28a5 5 0 0 1 5 5v105a5 5 0 0 1-5 5h28a5 5 0 0 0 5-5v-105a5 5 0 0 0-5-5Z" />
      <path d="M378.3 156.1a7.5 7.5 0 1 0-10.2-10.9 40.2 40.2 0 1 0 64 46 7.5 7.5 0 1 0-13.7-6.2 25.2 25.2 0 1 1-40-28.8Z" />
      <path d="m437.5 168.6 11 28.1a7.5 7.5 0 1 0 14-5.4l-11-28.2c-2.4-6-8-9.9-14.5-9.9h-27l-3.3-10h15a7.5 7.5 0 0 0 0-15h-20l-2.3-7.3a7.5 7.5 0 1 0-14.3 4.7l10.8 33a14 14 0 0 0 13.2 9.7H437c.2 0 .4.1.5.3Z" />
      <path d="M493.1 30.1h-21V7.5a7.5 7.5 0 0 0-15 0v22.6h-43.3a7.5 7.5 0 0 0 0 15h76.8v186.4H327.8V45.1h51a7.5 7.5 0 0 0 0-15h-17.5V7.5a7.5 7.5 0 0 0-15 0v22.6h-21c-6.9 0-12.5 5.6-12.5 12.5V234c0 7 5.6 12.5 12.5 12.5h167.8c7 0 12.5-5.6 12.5-12.5V42.6c0-6.9-5.6-12.5-12.5-12.5Zm0 351.9h-55.9a7.5 7.5 0 0 0 0 15h53.5v100H47.1L304 397h98.3a7.5 7.5 0 0 0 0-15h-99.7a6 6 0 0 0-2.7.6l-72 28v-63.9l48.3-20.1a41.1 41.1 0 0 0-31.7-75.9l-212.9 89a41.1 41.1 0 0 0 31.6 75.7l16.7-6.9v59.7L23.7 490c-5.2 2-8 7.3-7 12.7 1 5.5 5.6 9.3 11.1 9.3h465.3c7 0 12.5-5.6 12.5-12.5v-105c0-6.8-5.6-12.5-12.5-12.5ZM250.3 264.6a26.1 26.1 0 0 1 20 48.1L228 330.4V274l22.4-9.3Zm-37.4 72.1L94.9 386v-56.5l118-49.3v56.5ZM57.5 401.6a26 26 0 1 1-20.1-48.1l42.5-17.8v56.6l-22.4 9.3Zm37.4.6 118-49.2v63.4l-118 46v-60.2Z" />
      <path d="M355.4 315c0 4.1 3.4 7.5 7.5 7.5h78.8l-10.3 12.9a7.5 7.5 0 0 0 11.7 9.3l16.9-21c4-5.2 4-12.3 0-17.4l-17-21.1a7.5 7.5 0 1 0-11.7 9.4l10.3 12.9H363a7.5 7.5 0 0 0-7.5 7.5Zm42.2-208.1a24 24 0 1 1 .1-47.9 24 24 0 0 1 0 47.9Zm0-32.8a9 9 0 0 0-8.9 8.9 9 9 0 1 0 17.9-.1c0-5-4-8.8-9-8.8Z" />
    </symbol>
    <symbol id="item-3082">
      <title>state of matter</title>
      <path fill="#f2f2f2" d="M328.8 79.4H320c-1.1 0-2-1-2-2.2a58.5 58.5 0 0 0-117.1 0c0 1.2-1 2.2-2 2.2h-8.2a42 42 0 0 0-42 42 41.2 41.2 0 0 0 41.2 40.3h139.7a41.1 41.1 0 1 0-.9-82.4Z" />
      <path fill="#e2e5e8" d="M328.8 79.4H320c-1.2 0-2.2-1-2.2-2.2a58.5 58.5 0 0 0-82.4-53.4 58.5 58.5 0 0 1 34.7 53.4c0 1.2 1 2.1 2.1 2.1h8.7a42 42 0 0 1 42 42 41.2 41.2 0 0 1-41.2 40.4h47.8c22.5 0 40.7-18 41.2-40.4.4-23-19-42-42-42Z" />
      <path fill="#00a5ff" d="M504.3 433.3a60 60 0 1 1-120 0c0-28.1 43.1-75.6 56.2-89.4 2-2.1 5.5-2.1 7.5 0 13.2 13.8 56.3 61.3 56.3 89.4Z" />
      <path fill="#0c90ea" d="M448 344a5.2 5.2 0 0 0-7.4 0c-2.9 3-7.2 7.5-12.1 13.1 17.8 20.3 44.2 54.2 44.2 76.2a60 60 0 0 1-44.2 57.9 60.1 60.1 0 0 0 75.8-58c0-28-43.1-75.5-56.2-89.3Z" />
      <path fill="#00a5ff" d="M434.2 382.8a35 35 0 1 1-70 0c0-16.4 25.2-44 32.8-52a3 3 0 0 1 4.4 0c7.7 8 32.8 35.6 32.8 52Z" />
      <path fill="#0c90ea" d="M401.4 330.8a3 3 0 0 0-4.3 0c-2 2-5.2 5.4-8.8 9.6 10.3 12 24.1 30.3 24.1 42.4a35 35 0 0 1-24 33.3 35 35 0 0 0 45.8-33.3c0-16.4-25.1-44-32.8-52Z" />
      <path fill="#c9e8fa" d="M133.2 389c-.5 12.1-3.5 13.5-3.5 28.3 0 16.3 1.3 16.3 1.3 32.6s-2.4 16.2-2.4 32.5c0 4.7-1 6.9-5.7 6.9l-35-.1c-9.7 0-14 .5-19 1-3.8.5-8.1.8-15.8.8-17.5 0-17.5 1.5-35 1.5-4.7 0-9.4-5.4-9.4-10C8.7 466 10 466 10 449.8v-32.6c0-16.3 1-16.3 1-32.6s-3.4-16.2-3.4-32.5c0-4.7 5.7-10 10.4-10 17.5 0 17.5 1.7 35 1.7s17.4-2.7 34.9-2.7 17.4 3.8 34.9 3.8c4.7 0 7.4 2.5 7.4 7.2 0 16.2 3 16.2 3 32.5v4.2Z" />
      <path fill="#c9e8fa" d="m168.3 490-36.9-.1c-18.5 0-18.4 1-36.9 1-3 0-6.2-2.4-6.2-5.3 0-18.5.3-18.5.3-37s.8-18.4.8-36.8a5 5 0 0 1 5.1-5.2c18.5 0 18.5.6 36.9.6s18.5-2 36.9-2c3 0 6.2 3.6 6.2 6.6 0 18.4-1 18.4-1 36.9s1.6 18.4 1.6 36.9c0 3-3.8 4.4-6.8 4.4Z" />
      <path fill="#a4e0f7" d="M129.7 417.3c0 16.3 1.3 16.3 1.3 32.5s-2.5 16.3-2.4 33c0 3.6-2.9 6.5-6.5 6.5-16.7 0-17-.2-34.1-.2-9.8 0-14 .6-19 1.1 0-15.5.4-19.4.4-41.3s.8-26 1.1-42.7c.2-10 8.4-18.1 18.5-18 16.3.2 20 .7 42.3.7h2c-.6 12.3-3.6 13.7-3.6 28.4Z" />
      <path fill="#c9e8fa" d="m168.3 490-36.9-.1c-18.5 0-18.4 1-36.9 1-3 0-6.2-2.4-6.2-5.3 0-18.5.3-18.5.3-37s.8-18.4.8-36.8a5 5 0 0 1 5.1-5.2c18.5 0 18.5.6 36.9.6s18.5-2 36.9-2c3 0 6.2 3.6 6.2 6.6 0 18.4-1 18.4-1 36.9s1.6 18.4 1.6 36.9c0 3-3.8 4.4-6.8 4.4Z" />
      <path fill="#a4e0f7" d="M99.5 359.7a4.4 4.4 0 1 1-8.9 0 4.4 4.4 0 0 1 8.9 0ZM35 411.5a5.1 5.1 0 1 1-10.2 0 5.1 5.1 0 0 1 10.2 0Zm80 9.7a3.3 3.3 0 1 1-6.7 0 3.3 3.3 0 0 1 6.7 0Zm2.5 52.3a5.9 5.9 0 1 1-11.7 0 5.9 5.9 0 0 1 11.8 0Zm47.9-47.4a5 5 0 1 1-10 0 5 5 0 0 1 10 0ZM45.7 371.6a2.2 2.2 0 1 1-4.4 0 2.2 2.2 0 0 1 4.4 0ZM24.8 475a3.8 3.8 0 1 1-7.5 0 3.8 3.8 0 0 1 7.5 0Z" />
      <path d="M211.2 161.7c0-4.2-3.5-7.6-7.7-7.6h-13.6a33.7 33.7 0 0 1-33.5-32.9 32.8 32.8 0 0 1 9.6-23.7A34.9 34.9 0 0 1 190.7 87h8.1a9.7 9.7 0 0 0 9.8-9.8 50.9 50.9 0 0 1 101.7 0 9.8 9.8 0 0 0 9.7 9.9h8.8a35 35 0 0 1 24.7 10.4 32.8 32.8 0 0 1 9.6 23.7 33.7 33.7 0 0 1-33.5 32.9h-91.8a7.7 7.7 0 1 0 0 15.3h91.8a49 49 0 0 0 48.8-47.9 48 48 0 0 0-14-34.8 50.3 50.3 0 0 0-35.6-15h-3.4a66.3 66.3 0 0 0-132 0h-2.7a50.3 50.3 0 0 0-35.7 15 48.1 48.1 0 0 0-14 34.8 49.1 49.1 0 0 0 48.9 47.9h13.6c4.2 0 7.6-3.4 7.6-7.7Zm242.4 176.9a13 13 0 0 0-18.6 0l-8.8 9.5a239.6 239.6 0 0 0-19.2-22.6 10.7 10.7 0 0 0-15.5 0c-13 13.7-35 39.3-35 57.3a42.7 42.7 0 0 0 85.4 0c0-6.4-2.8-13.8-7-21.3 3.8-4.3 7-8 9.4-10.4 38.5 41 52.3 69.2 52.3 82.2a52.4 52.4 0 0 1-102.3 15.5 7.7 7.7 0 1 0-14.7 4.6A67.8 67.8 0 0 0 512 433.3c0-30-40.9-76.2-58.4-94.7Zm-54.4 71.5c-15 0-27.3-12.2-27.3-27.3 0-8.1 10.9-25.2 27.3-43.1 16.5 18 27.3 35 27.3 43.1 0 15-12.2 27.3-27.3 27.3Zm-218 38.6c0-9 .2-13.4.5-18s.5-9.5.5-19c0-7.2-6.8-14.1-13.9-14.1-9.6 0-14.5.5-19.2 1-2.8.3-5.6.6-9.4.7.7-3.5 1.3-7.8 1.3-14.6 0-8.8-.9-13.5-1.6-17.7-.7-3.8-1.4-7.4-1.4-14.8 0-9-6-14.9-15-14.9-8 0-11.7-.8-16-1.7-4.4-1-9.4-2-19-2s-14 .7-18.7 1.4c-4.1.6-8.1 1.2-16.2 1.2s-12.4-.4-16.7-.8c-4.5-.4-9.1-.9-18.2-.9S0 343.5 0 352.2s1 13.6 1.8 17.8c.8 4 1.5 7.4 1.5 14.7 0 8-.2 11.8-.4 15.8-.3 4.2-.6 8.4-.6 16.8v16.3l.1 16.2c0 8.1-.3 11.6-.7 15.7-.3 4.1-.7 8.4-.7 16.9 0 9.1 8.3 17.7 17.1 17.7s13.7-.4 18.1-.7c4.4-.4 8.5-.7 16.9-.7 9.1 0 13.8-.5 18.3-1 4.2-.5 8.2-.9 16.3-.9a14 14 0 0 0 6.8 1.8c9.5 0 14.3-.3 19-.5 4.6-.3 9-.5 18-.5h36.8c8.3 0 14.5-5.2 14.5-12 0-9.6-.4-14.5-.8-19.1-.4-4.6-.8-9-.8-17.8Zm-31.3 33.6h-18.5c-9.3 0-14.2.2-18.9.5-4.4.2-8.5.5-16.5.5v-8c0-4.3-3.3-7.8-7.6-7.8a7.7 7.7 0 0 0-7.7 7.6v6.5c-4.7.2-7.9.5-11 .8-4.3.5-8.3 1-16.6 1-9 0-13.7.3-18.1.7-4.3.3-8.4.7-16.7.7a4.2 4.2 0 0 1-2-2.4c0-7.8.4-11.6.7-15.6.4-4.2.8-8.5.8-17v-16.3l-.1-16.2c0-8.2.2-11.8.5-15.8.2-4.1.5-8.4.5-16.8 0-8.9-1-13.6-1.8-17.8-.8-4-1.5-7.3-1.6-14.5.4-1 2-2.4 3-2.6 8.2 0 12.3.4 16.5.9a157.3 157.3 0 0 0 36.9-.6c4.2-.6 8.1-1.2 16.3-1.2s11.5.8 15.8 1.7c4.4 1 9.4 2 18.8 2 0 8.6 1 13.2 1.7 17.2a72.8 72.8 0 0 1-.3 29.5v.2c-4.5 0-7.6-.2-10.8-.3-4.6-.1-9.3-.3-18.7-.3-7.1 0-12.7 5.7-12.7 12.9 0 9-.2 13.4-.5 18L81 439c0 4.3 3.3 7.8 7.5 7.9h.2c4.2 0 7.6-3.4 7.7-7.5 0-3.6.2-6.1.3-8.9.2-4.1.4-8.5.4-16.2 7.4 0 11.4.1 15.6.3l18.7.2c9.3 0 14.5-.5 19.3-1 4.2-.4 8.3-.8 16.2-.9 0 8.3-.3 12.5-.5 16.9a265.8 265.8 0 0 0 .3 37.9c.3 4 .6 7.8.7 14.6H150Zm240.9-207.4-5.8-1.3a7.7 7.7 0 0 0-3.3 15l22.9 5a7.7 7.7 0 0 0 6.5-.5h.2l.2-.2.6-.4.6-.6a7 7 0 0 0 2.3-3.9l5.2-23.8a7.7 7.7 0 0 0-15-3.3l-1.3 6-39.5-61.5 3.9.8a7.7 7.7 0 1 0 3.2-15l-19.8-4.3a7.7 7.7 0 0 0-5.7-1.1 7.7 7.7 0 0 0-7.7 6l-5.2 23.9a7.7 7.7 0 0 0 15 3.2l1.7-7.8 41 63.8Zm-307.5 25c.8 3.6 4 6 7.5 6h.2a7.6 7.6 0 0 0 5.7-1l19.9-4.4a7.7 7.7 0 0 0-3.3-15l-3.9.9 39.5-61.5 1.3 6a7.7 7.7 0 0 0 15-3.3l-5.2-23.9c-.4-2-1.6-3.7-3.3-4.8h-.1a7.6 7.6 0 0 0-7-.8l-22.9 5a7.7 7.7 0 1 0 3.3 15l5.9-1.3-41 63.9-1.8-7.9a7.7 7.7 0 1 0-15 3.3l5.2 23.8ZM314.4 395a7.7 7.7 0 0 0-10.8 11l4 3.9-77 .2 4.2-4.3A7.7 7.7 0 0 0 224 395l-16.5 16.6a7.7 7.7 0 0 0-3.2 6.2v.1c0 2 .7 4 2.3 5.5l17.3 17.2a7.6 7.6 0 0 0 10.8 0c3-3 3-7.9 0-10.9l-4.3-4.3 77.6-.2-4.6 4.6a7.7 7.7 0 1 0 11 10.8l17.4-17.5c3-3 3-7.9 0-10.8L314.3 395Z" />
    </symbol>
    <symbol id="item-3083">
      <title>hollywood sign</title>
      <path fill="#b9f0ff" d="M51.2 94.6a87 87 0 0 1 169.1-29 58 58 0 0 1-.9 116H51a43.5 43.5 0 1 1 .2-87Zm418.1-24.4c-6-29.5-41-42.7-65-24a40.7 40.7 0 0 0-64.9 24.3 40.4 40.4 0 0 0 5.7 80.6H464a40 40 0 0 0 40.6-40.4v-.5a40.8 40.8 0 0 0-35.2-40Z" />
      <path fill="#30cd9c" d="M504.5 474.5V313.1a62.4 62.4 0 0 0-93.6-54.2 34 34 0 0 1-46.5-13.6l-25-46.2a96 96 0 0 0-23.4-28.3h-60L67.5 504.4h407a29.9 29.9 0 0 0 30-30Z" />
      <path fill="#0caf7b" d="M256 149.4a94.9 94.9 0 0 0-83.5 49.7l-38.8 72a35.4 35.4 0 0 1-62.4 0A72.5 72.5 0 0 0 7.5 233v241.5a30 30 0 0 0 30 30h143.1a95.8 95.8 0 0 1-2-94.6l114-210.8a96 96 0 0 1 23.4-28.3 94.9 94.9 0 0 0-60-21.5Z" />
      <path d="M512 313.1c0-52.4-55.9-88-104.8-60.8a26.5 26.5 0 0 1-36.2-10.5l-12-22.2a7.5 7.5 0 1 0-13.1 7.1l12 22.2a41.5 41.5 0 0 0 56.7 16.5 54.8 54.8 0 0 1 82.4 47.7v161.4c0 12-9.4 21.7-21 22.4H37.4A22.3 22.3 0 0 1 15 474.6V240.9a65 65 0 0 1 49.7 33.7 43 43 0 0 0 75.6 0l38.9-72A86.2 86.2 0 0 1 256 157a86.4 86.4 0 0 1 75.7 43.6 7.5 7.5 0 1 0 13-7.5 101 101 0 0 0-63.3-48 65.8 65.8 0 0 0-55.8-86.7A94.4 94.4 0 0 0 74.5 24.7a7.5 7.5 0 0 0 10 11.1A79.8 79.8 0 0 1 138.3 15a79.7 79.7 0 0 1 75 52.8c1 3 3.7 5.2 7 5.2a50.7 50.7 0 0 1 46.2 69.4c-31.8-3.1-63 7.9-85.2 31.7H51a36 36 0 0 1 0-72h.2c4.1 0 7.5-3.4 7.5-7.5 0-13 3.1-25.8 9.2-37.2a7.5 7.5 0 0 0-13.3-7 94.7 94.7 0 0 0-10.7 37.2A51.1 51.1 0 0 0 51 189.2h118.7a107 107 0 0 0-3.8 6.4l-38.8 71.8a28 28 0 0 1-49.2 0 80 80 0 0 0-70.4-42A7.5 7.5 0 0 0 0 233v241.5A37.5 37.5 0 0 0 37.5 512h439a37.5 37.5 0 0 0 35.5-37.5V313.1Z" />
      <path d="M70.7 424.8c4.1 0 7.5-3.4 7.5-7.5v-45a7.5 7.5 0 0 0-15 0v15h-14v-15a7.5 7.5 0 0 0-15 0v45a7.5 7.5 0 0 0 15 0v-15h14v15c0 4.1 3.3 7.5 7.5 7.5Zm81-58a7.5 7.5 0 0 0-7.5 7.5v45c0 4.2 3.3 7.5 7.5 7.5h18a7.5 7.5 0 0 0 0-15h-10.5v-37.5c0-4.1-3.4-7.5-7.5-7.5Zm28.7-4.5v45c0 4.1 3.4 7.5 7.5 7.5h18a7.5 7.5 0 0 0 0-15h-10.5v-37.5a7.5 7.5 0 0 0-15 0Zm44.4 42.5c4.2 0 7.5-3.3 7.5-7.5v-20.1l13.8-20.7a7.5 7.5 0 0 0-12.5-8.3l-8.8 13.2-8.8-13.2a7.5 7.5 0 1 0-12.5 8.3l13.8 20.7v20.1c0 4.2 3.4 7.5 7.5 7.5Zm35.6 23.2a7.5 7.5 0 0 0 14 0l4-10.7 4 10.6a7.5 7.5 0 0 0 14 0l17-45a7.5 7.5 0 1 0-14.1-5.2l-9.9 26.3-4-10.6a7.5 7.5 0 0 0-14 0l-4 10.6-9.8-26.3a7.5 7.5 0 1 0-14 5.3l16.8 45Zm187.4 4.8a30 30 0 0 0 0-60h-12.5a7.5 7.5 0 0 0-7.5 7.5v45c0 4.2 3.4 7.5 7.5 7.5h12.5Zm-5-45h5a15 15 0 0 1 0 30h-5v-30Zm-331.6-23a25 25 0 0 0-25 25v10a25 25 0 0 0 50 0v-10a25 25 0 0 0-25-25Zm10 35a10 10 0 0 1-20 0v-10a10 10 0 0 1 20 0v10Zm216 43a25 25 0 0 0 25-25v-10a25 25 0 0 0-50 0v10a25 25 0 0 0 25 25Zm-10-35a10 10 0 0 1 20 0v10a10 10 0 0 1-20 0v-10Zm92 10v-10a25 25 0 0 0-50 0v10a25 25 0 0 0 50 0Zm-35 0v-10a10 10 0 0 1 20 0v10a10 10 0 0 1-20 0Zm91.2-354A48.3 48.3 0 0 0 404.3 37a48.2 48.2 0 0 0-71 27.1 48.2 48.2 0 0 0-32.5 65.4 47.1 47.1 0 0 0 44.3 29.1H464c27-.1 48.1-21.1 48.1-47.9v-.6a48.5 48.5 0 0 0-36.6-46.4Zm21.6 47a32.6 32.6 0 0 1-33.1 32.7l-118.8.1a32 32 0 0 1-30.5-19.9A33 33 0 0 1 340.5 78a7.5 7.5 0 0 0 6.3-6 33.2 33.2 0 0 1 53-20 7.1 7.1 0 0 0 9.1 0 33.3 33.3 0 0 1 53 19.7 7.5 7.5 0 0 0 6.4 6 33.3 33.3 0 0 1 28.7 32.5v.5Z" />
    </symbol>
    <symbol id="item-3084">
      <title>guava</title>
      <path fill="#96d7a5" d="M190.1 21.7a105.3 105.3 0 0 0-49.8 60c24 6 51.9 2.7 77.1-11.4 21.4-12 37.2-29.8 45.9-49.4a9 9 0 0 0-7-12.6A107.2 107.2 0 0 0 190 21.7Z" />
      <path fill="#78c3a5" d="M256.2 8.3a107.2 107.2 0 0 0-66 13.4 105.3 105.3 0 0 0-49.9 60l122.7-69a9 9 0 0 0-6.7-4.5Z" />
      <path fill="#e1f587" d="M212.2 174.6A98 98 0 0 1 181 140c-7.2-12-19.3-19.8-33-19.8s-25.9 7.9-33 19.8a98 98 0 0 1-31.4 34.7c-42.7 26-71.8 77-71.8 135.8 0 85 52.1 154 136.2 154s136.1-69 136.1-154c0-58.8-29-109.8-71.8-135.8Z" />
      <path fill="#cdeb96" d="M180 432.4c-84.1 0-136.2-69-136.2-154a166 166 0 0 1 31.1-98c-38 27.3-63.2 75.3-63.2 130 0 85.1 52.1 154 136.2 154 46.7 0 83.5-21.3 107-54.8a129 129 0 0 1-75 22.8Z" />
      <path fill="#fff6d8" d="M428.5 214.7A98 98 0 0 1 397 180c-7.1-12-19.2-19.9-33-19.9s-25.8 8-33 19.9a98 98 0 0 1-31.3 34.7c-42.8 26-71.8 77-71.8 135.7 0 85.1 52 154.1 136.1 154.1s136.2-69 136.2-154c0-58.8-29-109.8-71.8-135.8Z" />
      <path fill="#ff9ba0" d="M411.8 242c-13-7.9-24.2-18.9-34.9-34.2a15 15 0 0 0-12.3-6.7h-1a15 15 0 0 0-12.3 6.7 115.6 115.6 0 0 1-34.9 34.2c-34.8 21.2-56.4 62.7-56.4 108.4 0 71.9 42.8 122 104.1 122s104.1-50.1 104.1-122c0-45.7-21.6-87.2-56.4-108.4Z" />
      <path fill="#ff8087" d="M420.2 352.3c0-39.8-25.1-72-56-72s-56.1 32.2-56.1 72 25 72.1 56 72.1 56-32.3 56-72Z" />
      <path d="M432.5 208a89.3 89.3 0 0 1-28.8-32.2c-8.8-14.7-23.6-23.5-39.5-23.5s-30.6 8.8-39.5 23.5A89.6 89.6 0 0 1 296 208c-9 5.4-17.2 11.8-24.8 19a152.6 152.6 0 0 0-55-59.1 89.3 89.3 0 0 1-28.9-32.2 47 47 0 0 0-32.1-22.8c-.5-8-1.8-15.5-3.8-22.2A116.7 116.7 0 0 0 221 76.4a112.8 112.8 0 0 0 53-63.8 7.5 7.5 0 0 0-5.3-9.5 112.8 112.8 0 0 0-82 12 115.4 115.4 0 0 0-47 48.8 93.8 93.8 0 0 0-10.5-14.6 7.5 7.5 0 0 0-11 10.1c.2.2 19.7 22 21.9 53.5a47.2 47.2 0 0 0-31.8 22.8A89.3 89.3 0 0 1 79.5 168C32.9 196.2 4 250.7 4 310.2c0 44.1 13.6 84.6 38.4 113.9a133.6 133.6 0 0 0 105.4 47.8c36 0 67.9-12 92.9-34.8a149 149 0 0 0 18.1 27c26.4 31.3 62.9 47.9 105.4 47.9s79-16.6 105.5-47.8c24.7-29.4 38.3-69.8 38.3-114 0-59.4-29-114-75.5-142.2ZM194 28.2A99.2 99.2 0 0 1 256.8 16a99.2 99.2 0 0 1-43 47.3 99.2 99.2 0 0 1-63 12.2A99.3 99.3 0 0 1 194 28.2Zm-46.2 428.7a119 119 0 0 1-94-42.5C31.4 387.8 19 350.8 19 310.2c0-54.3 26.2-103.9 68.3-129.5a103.4 103.4 0 0 0 33.9-37.3c6-10.1 16-16.2 26.6-16.2s20.5 6 26.6 16.2a103.4 103.4 0 0 0 33.9 37.3c22 13.3 39.8 33.3 52 58a172.8 172.8 0 0 0-39.8 111.6c0 26 4.7 50.6 13.6 72.4a119.8 119.8 0 0 1-86.3 34.2Zm310.4-2.4c-23.5 27.8-56 42.5-94 42.5s-70.5-14.7-94-42.5c-22.4-26.6-34.8-63.6-34.8-104.2 0-54.3 26.2-104 68.3-129.5a103.3 103.3 0 0 0 34-37.3c6-10.1 16-16.2 26.5-16.2s20.6 6 26.6 16.2a103.3 103.3 0 0 0 34 37.3c42 25.6 68.2 75.2 68.2 129.5 0 40.6-12.4 77.6-34.8 104.2Z" />
      <path d="M415.9 235.4a7.5 7.5 0 0 0-7.8 12.8c32.6 19.8 52.8 59 52.8 102 0 29.6-8.6 58.3-23.7 78.8a87.1 87.1 0 0 1-73 36 89.2 89.2 0 0 1-51.8-15.3A7.5 7.5 0 1 0 304 462a104 104 0 0 0 60.3 18c35.3 0 64.7-14.6 85-42.1a148 148 0 0 0 26.7-87.6c0-48.4-23-92.4-60-115ZM267.5 350.3c0-43.2 20.3-82.3 52.9-102.1 13.9-8.4 26-20.4 37.2-36.4a7.6 7.6 0 0 1 6.2-3.4h.9c2.4 0 4.7 1.2 6.2 3.4 2.9 4.1 5.9 8 8.9 11.6a7.5 7.5 0 1 0 11.4-9.6 151 151 0 0 1-8-10.6 22.6 22.6 0 0 0-18.5-9.8h-1c-7.2 0-14.2 3.6-18.5 9.8a107.6 107.6 0 0 1-32.6 32.2c-37 22.5-60 66.5-60 114.9 0 32.8 9.3 63.7 26.2 87a7.5 7.5 0 0 0 10.5 1.6c3.3-2.4 4-7 1.6-10.4a135.2 135.2 0 0 1-23.4-78.2Z" />
      <path d="M321 357.5c0-4.1-3.4-7.5-7.5-7.5h-16a7.5 7.5 0 0 0 0 15h16c4.1 0 7.5-3.3 7.5-7.5Zm-8.1-47.9a7.5 7.5 0 1 0-7.5 13l12.5 7.2a7.5 7.5 0 0 0 7.5-13l-12.5-7.2Zm18.9-14.6a7.5 7.5 0 1 0 11.4-9.8l-4-4.7a7.5 7.5 0 1 0-11.4 9.8l4 4.6ZM309 403.6a7.5 7.5 0 0 0 10.6 1.3l12.4-9.5a7.5 7.5 0 0 0-9.2-12l-12.4 9.6a7.5 7.5 0 0 0-1.3 10.6Zm28 24.5a7.4 7.4 0 0 0 10.5-1l5-6.1a7.5 7.5 0 1 0-11.7-9.5l-5 6.1a7.5 7.5 0 0 0 1.1 10.6Zm101.5-70.6c0-4.1-3.3-7.5-7.5-7.5h-16a7.5 7.5 0 0 0 0 15h16c4.2 0 7.5-3.3 7.5-7.5Zm-22.9-47.9-12.5 7.2a7.5 7.5 0 1 0 7.4 13l12.5-7.1a7.5 7.5 0 0 0-7.4-13Zm-26.3-29.1-4 4.7a7.5 7.5 0 1 0 11.3 9.7l4-4.6a7.5 7.5 0 1 0-11.3-9.8Zm7.2 114.9 12.4 9.5a7.5 7.5 0 0 0 10.5-1.3c2.5-3.3 2-8-1.4-10.6l-12.4-9.5a7.5 7.5 0 1 0-9.1 11.9Zm-8.9 16.1A7.5 7.5 0 1 0 376 421l5 6a7.5 7.5 0 0 0 10.5 1.1 7.5 7.5 0 0 0 1-10.5l-4.9-6.1Z" />
    </symbol>
    <symbol id="item-3085">
      <title>contest</title>
      <path fill="#b5adb6" d="M489.6 439.1H22.4a15 15 0 1 1 0-30h467.2a15 15 0 1 1 0 30Z" />
      <path fill="#a79ba7" d="M489.6 409h-30a15 15 0 1 1 0 30.1h30a15 15 0 1 0 0-30Z" />
      <path fill="#fe99a0" d="M177.6 219H94.2a9.3 9.3 0 0 1-9.3-9.3v-16.3c0-19 15.4-34.5 34.4-34.5h33.2c19 0 34.5 15.5 34.5 34.5v16.3c0 5.1-4.2 9.3-9.4 9.3Z" />
      <path fill="#fd8087" d="M152.6 159h-30c19 0 34.3 15.3 34.3 34.3v16.3c0 5.2-4.1 9.4-9.3 9.4h30c5.2 0 9.4-4.2 9.4-9.4v-16.2c0-19-15.4-34.5-34.4-34.5Z" />
      <path fill="#fead8a" d="M121 127.8h30v31.1h-30v-31.1Z" />
      <path fill="#ffd1be" d="M146 135h-20a16 16 0 0 1-16-16V88.8a16 16 0 0 1 16-16h20a16 16 0 0 1 16 16v30a16 16 0 0 1-16 16Z" />
      <path fill="#ffc5ad" d="M146 72.9h-20a16 16 0 0 0-3.6.4 16 16 0 0 1 12.4 15.6v30a16 16 0 0 1-12.4 15.6c1.1.3 2.3.4 3.5.4h20a16 16 0 0 0 16-16V89a16 16 0 0 0-16-16Z" />
      <path fill="#b3ceec" d="M220.5 339H51.4c-5.8 0-10.5-4.6-10.5-10.5v-111c0-5.8 4.7-10.5 10.5-10.5h169c5.9 0 10.6 4.7 10.6 10.5v111c0 5.8-4.7 10.6-10.5 10.6Z" />
      <path fill="#98bce5" d="M220.5 207h-30c5.8 0 10.5 4.7 10.5 10.5v111c0 5.8-4.7 10.5-10.5 10.5h30c5.8 0 10.5-4.7 10.5-10.5v-111c0-5.8-4.7-10.5-10.5-10.5Z" />
      <path fill="#fe99a0" d="M74.5 339h122.9v70H74.5v-70Z" />
      <path fill="#fd8087" d="M167.3 339h30v70h-30v-70Z" />
      <path fill="#fead8a" d="M417.8 219h-83.4a9.3 9.3 0 0 1-9.4-9.3v-16.3c0-19 15.4-34.5 34.4-34.5h33.3c19 0 34.4 15.5 34.4 34.5v16.3c0 5.1-4.2 9.3-9.3 9.3Z" />
      <path fill="#fd9468" d="M392.7 159h-30c19 0 34.4 15.3 34.4 34.3v16.3c0 5.2-4.2 9.4-9.3 9.4h30c5.1 0 9.3-4.2 9.3-9.4v-16.2c0-19-15.4-34.5-34.4-34.5Z" />
      <path fill="#fead8a" d="M361 127.8h30v31.1h-30v-31.1Z" />
      <path fill="#ffd1be" d="M386 135h-20a16 16 0 0 1-16-16V88.8a16 16 0 0 1 16-16h20a16 16 0 0 1 16 16v30a16 16 0 0 1-16 16Z" />
      <path fill="#ffc5ad" d="M386 72.9h-20a16 16 0 0 0-3.5.4A16 16 0 0 1 375 88.9v30a16 16 0 0 1-12.5 15.6c1.1.3 2.3.4 3.6.4h20a16 16 0 0 0 16-16V89a16 16 0 0 0-16-16Z" />
      <path fill="#b3ceec" d="M460.6 339h-169c-5.9 0-10.6-4.6-10.6-10.5v-111c0-5.8 4.7-10.5 10.5-10.5h169.1c5.8 0 10.5 4.7 10.5 10.5v111c0 5.8-4.7 10.6-10.5 10.6Z" />
      <path fill="#98bce5" d="M460.6 207h-30c5.8 0 10.5 4.7 10.5 10.5v111c0 5.8-4.7 10.5-10.5 10.5h30c5.8 0 10.5-4.7 10.5-10.5v-111c0-5.8-4.7-10.5-10.5-10.5Z" />
      <path fill="#fead8a" d="M314.6 339h122.9v70H314.7v-70Z" />
      <path fill="#fd9468" d="M407.5 339h30v70h-30v-70Z" />
      <path d="M489.6 401.6H445v-55h15.6c10 0 18-8.1 18-18v-48.3c-.3-10-14.7-10-15 0v48.2a3 3 0 0 1-3 3h-169a3 3 0 0 1-3-3v-111a3 3 0 0 1 3-3h169a3 3 0 0 1 3 3v26.8c.3 10 14.7 10 15 0v-26.8c0-10-8-18-18-18h-26v-6.1a42 42 0 0 0-36-41.5v-13c6.6-4.2 11-11.6 11-20V89c0-13-10.6-23.5-23.5-23.5h-20c-13 0-23.5 10.5-23.5 23.5v30c0 8.4 4.4 15.8 11 20v13a42 42 0 0 0-36 41.5v6h-26a18 18 0 0 0-18 18v111.1c0 10 8 18 18 18h15.6v55H204.9v-55h15.6c10 0 18-8 18-18v-111c0-10-8-18-18-18h-26v-6.1a42 42 0 0 0-36-41.5v-13c6.6-4.2 11-11.6 11-20V89c0-13-10.6-23.5-23.5-23.5h-20c-13 0-23.6 10.5-23.6 23.5v30c0 8.4 4.4 15.8 11 20v13a42 42 0 0 0-36 41.5v6h-26a18 18 0 0 0-18 18v111.1c0 10 8 18 18 18H67v55H22.4c-29.9 1.2-29.8 44 0 45.1h51.3c9.9-.3 9.9-14.7 0-15H22.4c-10-.3-10-14.7 0-15h467.2c10 .3 10 14.7 0 15H109.2c-10 .3-10 14.7 0 15h380.4c29.9-1.1 29.8-43.9 0-45Zm-121-259.2h15v9h-15v-9Zm-11-53.5c0-4.7 3.8-8.5 8.5-8.5h20c4.7 0 8.5 3.8 8.5 8.5v30c0 4.7-3.9 8.5-8.5 8.5h-20a8.5 8.5 0 0 1-8.5-8.5V89Zm-25 104.5a27 27 0 0 1 26.8-27h33.3a27 27 0 0 1 26.9 27v6h-87v-6Zm-204.2-51h15v9h-15v-9Zm-11-53.5c0-4.7 3.8-8.5 8.5-8.5h20c4.7 0 8.5 3.8 8.5 8.5v30c0 4.7-3.8 8.5-8.5 8.5h-20a8.5 8.5 0 0 1-8.5-8.5V89Zm-25 104.5a27 27 0 0 1 27-27h33.2a27 27 0 0 1 26.9 27v6h-87v-6Zm-44 135.1v-111a3 3 0 0 1 3-3h169a3 3 0 0 1 3 3v111a3 3 0 0 1-3 3h-169a3 3 0 0 1-3-3Zm33.6 73v-55h107.8v55H82Zm240.1 0v-55H430v55H322Z" />
      <path d="M111 305a7.5 7.5 0 0 0 9.7-4.4l3.4-9h23.7l3.3 9a7.5 7.5 0 1 0 14-5.3l-20.9-55.6v-.2a8.8 8.8 0 0 0-16.2 0l-.2.2-21.1 55.5a7.5 7.5 0 0 0 4.3 9.7Zm25-44.6 6.1 16.2h-12.3l6.2-16.2ZM379 234h-16.3a7.5 7.5 0 0 0-7.5 7.6v56.3a7.5 7.5 0 0 0 7.5 7.5s15 0 19.2 0c21.2 0 30.6-26.8 14.5-40.1A20.5 20.5 0 0 0 379 234Zm0 15c7.2.3 7.2 10.8 0 11h-8.9v-11h9Zm2.9 41.3h-11.7V275h11.7c10.1.3 10.1 15 0 15.3Z" />
    </symbol>
    <symbol id="item-3086">
      <title>encryption</title>
      <path fill="#ffeecf" d="M390 256a134 134 0 1 1-268 .1 134 134 0 0 1 268-.1Z" />
      <path fill="#f5dcaa" d="M307.6 132.3a134 134 0 0 1-140.6 224 134.3 134.3 0 0 0 89 33.8 134 134 0 0 0 51.6-257.8Z" />
      <path fill="#ffcd74" d="m310.5 203.3-1 21.8c0 .5-.3 1-.6 1.3L265 270.2a37 37 0 1 1-23.4-23.4l43.9-43.9c.3-.3.7-.5 1.2-.5l21.8-1a2 2 0 0 1 2 2Z" />
      <circle cx="223.8" cy="288" r="7.9" fill="#ffeecf" />
      <path d="M9.1 71.8c4.2 0 7.5-3.3 7.5-7.5V10.8a7.5 7.5 0 1 0-15 0v53.5c0 4.2 3.3 7.5 7.5 7.5Zm93.2 0c4.2 0 7.6-3.3 7.6-7.5V10.8a7.5 7.5 0 1 0-15 0v53.5c0 4.2 3.3 7.5 7.4 7.5Zm-47 0h.9c12.4 0 22.5-10 22.5-22.5V22.5A22.5 22.5 0 0 0 56.2 0h-1a22.5 22.5 0 0 0-22.4 22.5v26.8c0 12.4 10 22.5 22.5 22.5Zm-7.5-49.3c0-4.1 3.4-7.5 7.5-7.5h.9c4.1 0 7.4 3.4 7.4 7.5v26.8c0 4.2-3.3 7.5-7.4 7.5h-1a7.5 7.5 0 0 1-7.4-7.5V22.5Zm100.7 49.3h1c12.3 0 22.4-10 22.4-22.5V22.5A22.3 22.3 0 0 0 149.4 0h-.9C136.1 0 126 10 126 22.5v26.8a22.5 22.5 0 0 0 22.5 22.5ZM141 22.5c0-4.1 3.4-7.5 7.5-7.5h1c4 0 7.4 3.4 7.4 7.5v26.8c0 4.2-3.4 7.5-7.5 7.5h-.9a7.5 7.5 0 0 1-7.5-7.5V22.5Zm69.6 49.3h.9c12.4 0 22.5-10 22.5-22.5V22.5A22.5 22.5 0 0 0 211.5 0h-1c-12.3 0-22.4 10-22.4 22.5v26.8a22.5 22.5 0 0 0 22.5 22.5ZM203 22.5c0-4.1 3.4-7.5 7.5-7.5h.9c4.1 0 7.4 3.4 7.4 7.5v26.8c0 4.2-3.3 7.5-7.4 7.5h-1a7.5 7.5 0 0 1-7.4-7.5V22.5ZM71.7 90.1a7.5 7.5 0 0 0-7.5 7.5v53.5a7.5 7.5 0 1 0 15 0V97.6c0-4.1-3.4-7.5-7.5-7.5ZM9.1 246.3c4.2 0 7.5-3.4 7.5-7.5v-53.5a7.5 7.5 0 1 0-15 0v53.5c0 4.1 3.3 7.5 7.5 7.5Zm23.1-61v53.5a7.5 7.5 0 1 0 15 0v-53.5a7.5 7.5 0 1 0-15 0Zm38.2 61c4.1 0 7.5-3.4 7.5-7.5v-53.5a7.5 7.5 0 1 0-15 0v53.5c0 4.1 3.3 7.5 7.5 7.5ZM2 109.3V136a22.6 22.6 0 0 0 22.6 22.5h.9A22.5 22.5 0 0 0 48 136v-26.8a22.5 22.5 0 0 0-22.5-22.5h-1c-12.3 0-22.4 10-22.4 22.5Zm15.1 0c0-4.2 3.4-7.5 7.5-7.5h.9c4.1 0 7.5 3.3 7.5 7.5V136c0 4.1-3.4 7.5-7.5 7.5h-.9a7.5 7.5 0 0 1-7.5-7.5v-26.8Zm78.2 0V136a22.5 22.5 0 0 0 22.5 22.5h1a22.5 22.5 0 0 0 22.4-22.5v-26.8c0-12.4-10-22.5-22.5-22.5h-.9c-12.4 0-22.5 10-22.5 22.5Zm15 0c0-4.2 3.4-7.5 7.5-7.5h1c4 0 7.4 3.3 7.4 7.5V136c0 4.1-3.3 7.5-7.5 7.5h-.9a7.5 7.5 0 0 1-7.4-7.5v-26.8ZM9.1 333.7c4.2 0 7.5-3.4 7.5-7.5v-53.5a7.5 7.5 0 1 0-15 0v53.5c0 4.1 3.3 7.5 7.5 7.5Zm93.2 0c4.2 0 7.6-3.4 7.6-7.5v-53.5a7.5 7.5 0 1 0-15 0v53.5c0 4.1 3.3 7.5 7.4 7.5Zm-23.6-22.5v-26.8a22.5 22.5 0 0 0-22.5-22.5h-1c-12.3 0-22.4 10-22.4 22.5v26.8c0 12.4 10 22.5 22.5 22.5h.9a22.5 22.5 0 0 0 22.5-22.5Zm-15 0c0 4.1-3.4 7.5-7.5 7.5h-1a7.5 7.5 0 0 1-7.4-7.5v-26.8c0-4.1 3.4-7.5 7.5-7.5h.9c4.1 0 7.5 3.4 7.5 7.5v26.8Zm8 40.8a7.5 7.5 0 0 0-7.5 7.5V413a7.5 7.5 0 1 0 15 0v-53.5c0-4.2-3.4-7.5-7.5-7.5ZM9.1 439.6a7.5 7.5 0 0 0-7.5 7.6v53.4a7.5 7.5 0 1 0 15 0v-53.4c0-4.2-3.4-7.6-7.5-7.6Zm30.6 0a7.5 7.5 0 0 0-7.5 7.6v53.4a7.5 7.5 0 1 0 15 0v-53.4c0-4.2-3.3-7.6-7.5-7.6Zm30.7 0a7.5 7.5 0 0 0-7.5 7.6v53.4a7.5 7.5 0 1 0 15 0v-53.4c0-4.2-3.4-7.6-7.5-7.6Zm94.6 0a7.5 7.5 0 0 0-7.6 7.6v53.4a7.5 7.5 0 1 0 15 0v-53.4c0-4.2-3.3-7.6-7.5-7.6Zm-139.5-91h-.9a22.5 22.5 0 0 0-22.5 22.5V398c0 12.5 10 22.6 22.5 22.6h.9A22.6 22.6 0 0 0 48 398v-26.8a22.5 22.5 0 0 0-22.5-22.5ZM33 398c0 4-3.4 7.4-7.5 7.4h-.9a7.5 7.5 0 0 1-7.5-7.4v-27c0-4 3.4-7.4 7.5-7.4h.9c4.1 0 7.5 3.3 7.5 7.4v27Zm85.7 40h-.9c-12.4 0-22.5 10-22.5 22.5v26.8a22.5 22.5 0 0 0 22.5 22.5h1a22.5 22.5 0 0 0 22.4-22.5v-26.8a22.5 22.5 0 0 0-22.5-22.5Zm7.5 49.3c0 4.1-3.3 7.5-7.5 7.5h-.9a7.5 7.5 0 0 1-7.4-7.5v-26.8c0-4.1 3.3-7.5 7.4-7.5h1c4 0 7.4 3.4 7.4 7.5v26.8Zm85.4-49.3h-1c-12.3 0-22.4 10-22.4 22.5v26.8a22.5 22.5 0 0 0 22.5 22.5h.9a22.5 22.5 0 0 0 22.5-22.5v-26.8a22.5 22.5 0 0 0-22.5-22.5Zm7.5 49.3c0 4.1-3.4 7.5-7.5 7.5h-1a7.5 7.5 0 0 1-7.4-7.5v-26.8c0-4.1 3.4-7.5 7.5-7.5h.9c4.1 0 7.5 3.4 7.5 7.5v26.8ZM118.7 348.6h-.9a22.5 22.5 0 0 0-22.5 22.5V398a22.5 22.5 0 0 0 22.5 22.6h1a22.5 22.5 0 0 0 22.4-22.6v-26.8a22.5 22.5 0 0 0-22.5-22.5Zm7.5 49.4c0 4-3.3 7.4-7.5 7.4h-.9a7.5 7.5 0 0 1-7.4-7.4v-27c0-4 3.3-7.4 7.4-7.4h1c4 0 7.4 3.3 7.4 7.4v27Zm159-327a9 9 0 0 0 3.6.8c2.6 0 5.2-1.4 6.6-3.9l8.8-16.2 8.7 16.2a7.5 7.5 0 1 0 13.2-7.2L312.7 36l13.4-24.8A7.5 7.5 0 1 0 313 4l-8.7 16.2L295.4 4a7.5 7.5 0 0 0-13.2 7.1l13.4 24.8-13.4 24.8c-2 3.7-.6 8.3 3 10.2Zm61.1 0a9 9 0 0 0 3.6.8c2.7 0 5.2-1.4 6.6-3.9l8.8-16.2 8.7 16.2a7.5 7.5 0 1 0 13.3-7.2L373.8 36l13.5-24.8A7.5 7.5 0 1 0 374 4l-8.7 16.2L356.5 4a7.5 7.5 0 0 0-13.2 7.1l13.4 24.8-13.4 24.8c-2 3.7-.6 8.3 3 10.2Zm99.1-70c-3.7-2-8.2-.7-10.2 3l-8.8 16.2-8.8-16.3a7.5 7.5 0 0 0-13.2 7.2L418 35.9l-13.5 24.8a7.5 7.5 0 1 0 13.2 7.2l8.8-16.2 8.8 16.2a7.5 7.5 0 1 0 13.2-7.2L434.9 36l13.5-24.8c2-3.7.6-8.2-3-10.2ZM496 36l13.5-25a7.5 7.5 0 1 0-13.2-7l-8.8 16-8.8-16a7.5 7.5 0 0 0-13.2 7.2L479 35.9l-13.5 24.8a7.5 7.5 0 1 0 13.2 7.2l8.8-16.2 8.8 16.2a7.5 7.5 0 1 0 13.2-7.2L496.1 36Zm-50.6 55c-3.7-2-8.2-.6-10.2 3l-8.8 16.2-8.8-16.2a7.5 7.5 0 1 0-13.2 7.2L418 126l-13.5 24.8a7.5 7.5 0 1 0 13.2 7.2l8.8-16.2 8.8 16.2a7.5 7.5 0 1 0 13.2-7.2L434.9 126l13.5-24.8c2-3.7.6-8.2-3-10.2Zm61.1 0c-3.7-2-8.2-.6-10.2 3l-8.8 16.2-8.8-16.2a7.5 7.5 0 1 0-13.2 7.2L479 126l-13.5 24.8a7.5 7.5 0 1 0 13.2 7.2l8.8-16.2 8.8 16.2a7.5 7.5 0 1 0 13.2-7.2L496.1 126l13.4-24.8c2-3.7.6-8.2-3-10.2Zm-61.1 86c-3.7-2-8.2-.6-10.2 3l-8.8 16.3-8.8-16.2a7.5 7.5 0 1 0-13.2 7.1L418 212l-13.5 24.8a7.5 7.5 0 1 0 13.2 7.2l8.8-16.2 8.8 16.2a7.5 7.5 0 1 0 13.2-7.2L434.9 212l13.5-24.8c2-3.6.6-8.2-3-10.2Zm61.1 0c-3.7-2-8.2-.6-10.2 3l-8.8 16.3-8.8-16.2a7.5 7.5 0 1 0-13.2 7.1L479 212l-13.5 24.8a7.5 7.5 0 1 0 13.2 7.2l8.8-16.2 8.8 16.2a7.5 7.5 0 1 0 13.2-7.2L496.1 212l13.4-24.8c2-3.6.6-8.2-3-10.2Zm-61.1 85.8c-3.7-2-8.2-.6-10.2 3l-8.8 16.2-8.8-16.2a7.5 7.5 0 0 0-13.2 7.2l13.5 24.8-13.5 24.8a7.5 7.5 0 1 0 13.2 7.2l8.8-16.3 8.8 16.3a7.5 7.5 0 1 0 13.2-7.2l-13.5-24.8 13.5-24.8c2-3.7.6-8.3-3-10.2Zm61.1 0c-3.7-2-8.2-.6-10.2 3l-8.8 16.2-8.8-16.2a7.5 7.5 0 0 0-13.2 7.2l13.5 24.8-13.5 24.8a7.5 7.5 0 1 0 13.2 7.2l8.8-16.3 8.8 16.3a7.5 7.5 0 1 0 13.2-7.2l-13.4-24.8 13.4-24.8c2-3.7.6-8.3-3-10.2Zm-61.1 90.1c-3.7-2-8.2-.6-10.2 3l-8.8 16.2-8.8-16.2a7.5 7.5 0 1 0-13.2 7.2l13.5 24.8-13.5 24.8a7.5 7.5 0 1 0 13.2 7.2l8.8-16.3 8.8 16.3a7.5 7.5 0 1 0 13.2-7.2l-13.5-24.8 13.5-24.8c2-3.7.6-8.3-3-10.2Zm61.1 0c-3.7-2-8.2-.6-10.2 3l-8.8 16.2-8.8-16.2a7.5 7.5 0 1 0-13.2 7.2l13.5 24.8-13.5 24.8a7.5 7.5 0 1 0 13.2 7.2l8.8-16.3 8.8 16.3a7.5 7.5 0 1 0 13.2-7.2l-13.4-24.8 13.4-24.8c2-3.7.6-8.3-3-10.2Zm-183.4 86c-3.6-2-8.2-.6-10.2 3l-8.7 16.2-8.8-16.2a7.5 7.5 0 1 0-13.2 7.2l13.4 24.8-13.4 24.8a7.5 7.5 0 1 0 13.2 7.2l8.8-16.2 8.7 16.2a7.5 7.5 0 1 0 13.3-7.2L312.6 474l13.4-24.8c2-3.7.7-8.2-3-10.2Zm61.1 0c-3.6-2-8.2-.6-10.1 3l-8.8 16.2-8.8-16.2a7.5 7.5 0 1 0-13.2 7.2l13.4 24.8-13.4 24.8a7.5 7.5 0 1 0 13.2 7.2l8.8-16.2 8.8 16.2a7.5 7.5 0 1 0 13.2-7.2L373.8 474l13.5-24.8c2-3.7.6-8.2-3-10.2Zm61.2 0c-3.7-2-8.2-.6-10.2 3l-8.8 16.2-8.8-16.2a7.5 7.5 0 1 0-13.2 7.2l13.5 24.8-13.5 24.8a7.5 7.5 0 1 0 13.2 7.2l8.8-16.2 8.8 16.2a7.5 7.5 0 1 0 13.2-7.2L434.9 474l13.5-24.8c2-3.7.6-8.2-3-10.2Zm61.1 0c-3.7-2-8.2-.6-10.2 3l-8.8 16.2-8.8-16.2a7.5 7.5 0 1 0-13.2 7.2l13.5 24.8-13.5 24.8a7.5 7.5 0 1 0 13.2 7.2l8.8-16.2 8.8 16.2a7.5 7.5 0 1 0 13.2-7.2L496.1 474l13.4-24.8c2-3.7.6-8.2-3-10.2Z" />
      <path d="m383.4 194.3 3.9-7.1a7.5 7.5 0 0 0-12.5-8.2c-5.2-8-11.1-15.3-17.7-22l8.2-15.2L374 158a7.5 7.5 0 1 0 13.2-7.2L373.8 126l13.5-24.8A7.5 7.5 0 1 0 374 94l-8.8 16.3-8.8-16.3a7.5 7.5 0 1 0-13.2 7.2l13.4 24.8-11 20.5a152 152 0 0 0-5.3-4.2 7.5 7.5 0 0 0-9 12 126.7 126.7 0 0 1 38 158.1l-1 2a126.5 126.5 0 0 1-172.7 52.9 126.5 126.5 0 0 1 108.8-228.2h.2l2.8 1.3a7.5 7.5 0 0 0 6-13.8l-.6-.3-.2-.3 13.5-24.8A7.5 7.5 0 1 0 313 94l-8.8 16.3-8.8-16.3a7.5 7.5 0 0 0-13.2 7.2l9.7 17.8c-8.8-2.3-17.8-3.7-27-4.3V7.5c0-4.1-3.4-7.5-7.6-7.5s-7.5 3.4-7.5 7.5v107c-5.7.3-11.3.9-16.8 1.8V97.6a7.5 7.5 0 1 0-15 0v22c-5 1.4-10 3-14.7 5v-15.3c0-12.4-10-22.5-22.5-22.5h-.9c-12.4 0-22.5 10-22.5 22.5V136c0 5.1 1.8 10 4.8 14-10.7 9.4-20 20.5-27.4 32.8-4-4.2-9.8-6.8-16-6.8h-1c-12.4 0-22.4 10-22.4 22.5v26.8c0 11.3 8.4 20.7 19.3 22.3a142.3 142.3 0 0 0 11.4 64.4c.2 6.6 3.4 12.7 8.5 16.8a145 145 0 0 0 25.6 31.3c-1.8 3.3-2.8 7-2.8 11v26.7a22.5 22.5 0 0 0 22.5 22.5h1c12.3 0 22.4-10 22.4-22.5v-10.5c4.8 2 9.7 3.6 14.7 5v20.5a7.5 7.5 0 1 0 15 0v-17.2a143 143 0 0 0 16.8 1.7v107a7.5 7.5 0 1 0 15 0V397.4c9.6-.6 19-2.2 28.2-4.7l-10.8 20a7.5 7.5 0 1 0 13.2 7.2l8.8-16.2 8.7 16.2a7.5 7.5 0 1 0 13.3-7.1L312.7 388l1.5-2.9a141 141 0 0 0 30.8-18.9l11.7 21.8-13.4 24.8a7.5 7.5 0 1 0 13.2 7.1l8.8-16.2 8.8 16.2a7.5 7.5 0 1 0 13.2-7.1L373.8 388l13.5-24.9A7.5 7.5 0 1 0 374 356l-8.8 16.2-8.8-16.2v-.1a147 147 0 0 0 19.1-24 7.5 7.5 0 0 0 8.6 1c3.7-2 5-6.5 3-10.2l-3.2-6a141.7 141.7 0 0 0-.6-122.3Zm-211-58.2v-26.8c0-4.2 3.4-7.5 7.5-7.5h1c4 0 7.4 3.4 7.4 7.5v22.4c-5 2.7-9.7 5.7-14.3 9a7.5 7.5 0 0 1-1.6-4.6Zm-62 89.3v-26.8c0-4.1 3.3-7.5 7.4-7.5h1c4 0 7.4 3.4 7.4 7.5v.8c-4.6 10.5-8 21.7-9.9 33.4-3.4-.7-6-3.8-6-7.4Zm70.4 180h-.9a7.5 7.5 0 0 1-7.5-7.4v-27.7c5 3.7 10.4 7 15.9 10V398c0 4.2-3.4 7.5-7.5 7.5Z" />
      <circle cx="223.8" cy="288" r="7.9" />
      <path d="m291.2 254.7 23-23a9.4 9.4 0 0 0 2.7-6.2l1-21.8a9.4 9.4 0 0 0-9.8-9.9l-21.8 1c-2.3.2-4.5 1.2-6.2 2.8l-40.8 40.8a44.5 44.5 0 1 0-9.5 88.1 7.5 7.5 0 1 0 0-15 29.6 29.6 0 1 1 9.4-57.6c2.7 1 5.7.2 7.7-1.8l42.3-42.3 13.5-.7-.7 13.5-1.3 1.3a7.5 7.5 0 0 0-10.5 10.6l-4.3 4.2a7.5 7.5 0 0 0-10.6 10.6L259.7 265c-2 2-2.7 5-1.8 7.7 3.5 10.7.8 22.3-7.2 30.3a7.5 7.5 0 0 0 10.7 10.6 44.3 44.3 0 0 0 12-41l17.8-17.8Z" />
    </symbol>
    <symbol id="item-3087">
      <title>giant</title>
      <path fill="#77bc4d" d="M334.4 467.4a41.6 41.6 0 1 0-70-41.9 28.7 28.7 0 0 0-34.3 41.9h104.3Z" />
      <path fill="#f72d2d" d="M298.5 359h155.3v113.8H298.6V358.9Z" />
      <path fill="#4d78a0" d="M335.5 389.4h81.3v83.4h-81.3v-83.4Z" />
      <path fill="#db1212" d="M435.9 359h18v113.8h-18V358.9Z" />
      <path fill="#ff5656" d="m292.5 338.8-2.5 10.5a9.8 9.8 0 0 0 9.5 12h153.3c6.3 0 11-5.9 9.5-12l-2.5-10.5a48.1 48.1 0 0 0-46.8-37h-73.7a48.1 48.1 0 0 0-46.8 37Z" />
      <path fill="#f72d2d" d="M452.8 361.3h-25c6.3 0 11-5.9 9.5-12l-2.5-10.5a48.1 48.1 0 0 0-46.8-37h25a48.1 48.1 0 0 1 46.8 37l2.5 10.5a9.8 9.8 0 0 1-9.5 12Z" />
      <path fill="#f7e4d7" d="M357.2 332.8h38v28.5h-38v-28.5Z" />
      <path fill="#a2d962" d="M504.5 503H7.5v-9.3a31 31 0 0 1 31-31.1h434.9a31 31 0 0 1 31 31v9.3Z" />
      <path fill="#ffb38d" d="M125.6 9 192 113a20 20 0 0 0 12.8 9l82.4 18.2c27.9 6.1 56.8 5 84.2-3 22-6.4 49.8-8.3 66.8 14.3 10.6 14 13.8 64-87.5 83.3C228.3 258.3 232 264 138.2 314S96.5 211.9 67.4 168c-18.3-27.3-43-65.2-59-89.8" />
      <path fill="#e78f70" d="M350.7 234.8C228.3 258.3 232 264 138.2 314 106 331 91 324.5 84 306.6c8.6 1.7 20.3-1 36.2-9.5 93.8-50 90.1-55.7 212.6-79.2 94-18 98-62.3 89.6-79.8 5.9 3 11.2 7.3 15.8 13.4 10.6 14 13.8 64-87.5 83.3Z" />
      <path fill="#ead2c1" d="m366 132.5 49.2-14.7a9.4 9.4 0 0 1 12 8.3c1.2 13-4.5 34.4-48.3 45.4a6 6 0 0 1-7.1-3.8l-9.8-27.5a6 6 0 0 1 4-7.7Z" />
      <path d="M473.4 455h-12v-88.5a17.2 17.2 0 0 0 8.2-19l-2.5-10.4a55.4 55.4 0 0 0-54-42.7h-73.8a55.4 55.4 0 0 0-54 42.7l-2.5 10.4a17.2 17.2 0 0 0 8.2 19V392a49.3 49.3 0 0 0-31 24.7 36.4 36.4 0 0 0-41.5 38.4h-44.6v-12.9h13.3a7.5 7.5 0 0 0 0-15h-13.3v-4.6a7.5 7.5 0 0 0-15 0v4.6h-25v-4.6a7.5 7.5 0 0 0-15 0v4.6h-25v-4.6a7.5 7.5 0 0 0-15 0v4.6H53.7v-4.6a7.5 7.5 0 0 0-15 0v4.6H25.5a7.5 7.5 0 0 0 0 15h13.3v12.9h-.2A38.6 38.6 0 0 0 0 493.6v9.3c0 4.2 3.4 7.5 7.5 7.5h108.3a7.5 7.5 0 0 0 0-15H15v-1.7c0-13 10.6-23.6 23.6-23.6h434.8c13 0 23.6 10.5 23.6 23.5v1.8H150.3a7.5 7.5 0 0 0 0 15h354.2c4.1 0 7.5-3.3 7.5-7.5v-9.2a38.6 38.6 0 0 0-38.6-38.6ZM343 421.5h66.3v9.4H343v-9.4Zm66.4-15H343V397h66.4v9.5ZM343 445.8h66.3v9.3H343v-9.3Zm73.9-63.9h-81.4a7.5 7.5 0 0 0-7.5 7.5v65.7h-22v-86.3h140.4v86.3h-22v-65.7c0-4.1-3.4-7.5-7.5-7.5Zm-52.2-28.1v-13.5h23v13.5h-23Zm-67.4-2.8 2.5-10.4a40.5 40.5 0 0 1 39.5-31.2H413a40.5 40.5 0 0 1 39.5 31.2L455 351c.2 1-.2 1.6-.4 2-.3.3-.8.8-1.8.8h-50.1v-21c0-4.2-3.4-7.5-7.5-7.5h-38a7.5 7.5 0 0 0-7.5 7.5v21h-50.2a2.3 2.3 0 0 1-2.2-2.8Zm-64 101.6a21.2 21.2 0 0 1 28.5-20 7.5 7.5 0 0 0 9.6-4.5 34.2 34.2 0 0 1 19.6-20.4v47.4h-57.5l-.1-2.5ZM159 442.2v12.9h-25v-12.9h25Zm-40 0v12.9H94v-12.9h25Zm-65.1 0h25v12.9h-25v-12.9Zm7.2-269.9c9.2 13.8 9.2 42.4 9.3 70.2 0 37.2 0 72.4 20.7 84.8a30 30 0 0 0 15.9 4.2 77 77 0 0 0 34.7-10.9l36.6-19.8c15.5-8.5 27.7-15.2 39.2-20.9a7.5 7.5 0 1 0-6.6-13.4 1022 1022 0 0 0-39.8 21.1l-13.2 7.2-5.7-9.8a7.5 7.5 0 0 0-13 7.5l5.5 9.5-10 5.4c-4.3 2.3-8.3 4.1-12 5.6l-1.3-9.1a7.5 7.5 0 1 0-14.8 2l1.4 10.6c-3.6 0-6.7-.6-9.2-2-13.4-8-13.4-42-13.4-72s-.1-61-11.8-78.5c-17.8-26.7-41.8-63.5-58.9-89.7a7.5 7.5 0 1 0-12.5 8.2c17 26.2 41 63 59 89.8Zm73.4-135.5a7.5 7.5 0 0 0 12.6-8L132 5a7.5 7.5 0 1 0-12.7 8l15.2 23.8Zm51.2 80.3c4 6.3 10.2 10.7 17.5 12.3l82.4 18.1a174.5 174.5 0 0 0 71.4.9l7.7 21.8a13.4 13.4 0 0 0 16 8.5c26.3-6.6 40.3-17 47.4-27.5 1.4 1.5 2.8 3 4.2 4.8 2.4 3.2 5.8 12.4 1.3 24.2-4.5 11.7-19.8 32-71.4 44.5.6-4.1.6-9-.5-14.6A7.5 7.5 0 1 0 347 213c1.4 7.2 0 12.4-1.2 15.1l-15.8 3.1-1.7-6.8a7.5 7.5 0 0 0-14.6 3.7l1.6 6c-33.6 7-54.1 12.4-72 18.7a7.5 7.5 0 0 0 5 14.1c22.4-7.9 49.6-14.3 103.8-24.7 65.8-12.6 88.2-37.7 95.5-56.6a40.8 40.8 0 0 0-3.4-38.7c-3-3.9-6.3-7.3-10-10.2.8-4.3.8-8.2.5-11.6a16.8 16.8 0 0 0-21.6-14.5l-49.3 14.7a13.5 13.5 0 0 0-8.8 8.2 160.1 160.1 0 0 1-66.2-.6l-82.4-18.2c-3.4-.7-6.2-2.7-8-5.6L166 58.6a7.5 7.5 0 0 0-12.6 8l32.2 50.5Zm231.7 8a2 2 0 0 1 1.6.2c.3.2.7.6.8 1.2 1.5 17-12.8 29.9-41.4 37.3l-8.8-24.6 47.8-14.2Z" />
      <path d="M155 237.4c21 0 38.2-17.2 38.2-38.2a7.5 7.5 0 0 0-15 0 23.2 23.2 0 0 1-46.3 0 7.5 7.5 0 0 0-15 0c0 21 17 38.2 38.1 38.2Zm309.7 50.9c1.9 0 3.8-.7 5.3-2.1l8-8a7.5 7.5 0 1 0-10.7-10.6l-7.9 8a7.5 7.5 0 0 0 5.3 12.7Zm-17.4-41.1c-4-1-8.2 1.3-9.3 5.3l-2.9 10.8a7.5 7.5 0 1 0 14.5 4l3-10.9c1-4-1.4-8-5.4-9.2Zm25.6 58a7.5 7.5 0 0 0 9.1 5.3l10.9-2.9a7.5 7.5 0 0 0-3.9-14.5l-10.8 2.9c-4 1-6.4 5.2-5.3 9.2Z" />
    </symbol>
    <symbol id="item-3088">
      <title>equal</title>
      <path fill="#1eba68" d="m459.5 298.5-30 45 30 45h30a15 15 0 0 0 15-15v-60a15 15 0 0 0-15-15h-30Z" />
      <path fill="#25dd82" d="M7.5 313.5v60a15 15 0 0 0 15 15h437a15 15 0 0 0 15-15v-60a15 15 0 0 0-15-15h-437a15 15 0 0 0-15 15Z" />
      <path d="M489.5 291h-467C10.1 291 0 301 0 313.5v60C0 386 10 396 22.5 396h15a7.5 7.5 0 0 0 0-15h-15a7.5 7.5 0 0 1-7.5-7.5v-60c0-4.1 3.4-7.5 7.5-7.5h467c4.1 0 7.5 3.4 7.5 7.5v60c0 4.2-3.4 7.5-7.5 7.5h-422a7.5 7.5 0 0 0 0 15h422c12.4 0 22.5-10 22.5-22.5v-60c0-12.4-10-22.5-22.5-22.5Z" />
      <path fill="#1eba68" d="m459.5 115-30 45 30 45h30a15 15 0 0 0 15-15v-60a15 15 0 0 0-15-15h-30Z" />
      <path fill="#25dd82" d="M7.5 130v60a15 15 0 0 0 15 15h437a15 15 0 0 0 15-15v-60a15 15 0 0 0-15-15h-437a15 15 0 0 0-15 15Z" />
      <path d="M489.5 107.5h-467C10.1 107.5 0 117.5 0 130v60c0 12.4 10 22.5 22.5 22.5h15a7.5 7.5 0 0 0 0-15h-15A7.5 7.5 0 0 1 15 190v-60c0-4.1 3.4-7.5 7.5-7.5h467c4.1 0 7.5 3.4 7.5 7.5v60c0 4.1-3.4 7.5-7.5 7.5h-422a7.5 7.5 0 0 0 0 15h422c12.4 0 22.5-10 22.5-22.5v-60c0-12.4-10-22.5-22.5-22.5Z" />
    </symbol>
    <symbol id="item-3089">
      <title>different unequal</title>
      <path fill="#8651dd" d="M459.5 231.5h30a15 15 0 0 0 15-15v-60a15 15 0 0 0-15-15h-51.9l15.3-15.3a15 15 0 0 0 0-21.2l-42.4-42.4a15 15 0 0 0-21.2 0L368 83.8l-57.7 57.7H22.5a15 15 0 0 0-15 15v60a15 15 0 0 0 15 15h197.9l-63.8 63.8H22.5a15 15 0 0 0-15 15v60a15 15 0 0 0 15 15h44l-7.4 7.5a15 15 0 0 0 0 21.2l42.4 42.4a15 15 0 0 0 21.2 0l71.1-71.1h295.7a15 15 0 0 0 15-15v-60a15 15 0 0 0-15-15H283.8l63.8-63.8h111.9Z" />
      <path fill="#5f37a3" d="M489.5 295.3h-30a15 15 0 0 1 15 15v60a15 15 0 0 1-15 15h30a15 15 0 0 0 15-15v-60a15 15 0 0 0-15-15Zm0-153.8h-30a15 15 0 0 1 15 15v60a15 15 0 0 1-15 15h30a15 15 0 0 0 15-15v-60a15 15 0 0 0-15-15Z" />
      <path d="M112.1 468.3c-6 0-11.7-2.3-16-6.6l-42.3-42.4c-7.2-7.2-8.5-18-4-26.5H22.5C10 392.8 0 382.8 0 370.3v-60c0-12.4 10-22.5 22.5-22.5h131l48.8-48.8H68.2a7.5 7.5 0 0 1 0-15h152.2a7.5 7.5 0 0 1 5.3 12.8l-63.8 63.8a7.5 7.5 0 0 1-5.3 2.2H22.5a7.5 7.5 0 0 0-7.5 7.5v60c0 4.1 3.4 7.5 7.5 7.5h44a7.5 7.5 0 0 1 5.4 12.8l-7.5 7.5c-3 3-3 7.7 0 10.6l42.4 42.4a7.4 7.4 0 0 0 10.6 0l71.1-71.1a7.5 7.5 0 0 1 5.3-2.2h204.7a7.5 7.5 0 0 1 0 15H197l-68.9 69a22.4 22.4 0 0 1-16 6.5Z" />
      <path d="M489.5 392.8h-57.7a7.5 7.5 0 0 1 0-15h57.7c4.1 0 7.5-3.4 7.5-7.5v-60c0-4.1-3.4-7.5-7.5-7.5H283.8a7.5 7.5 0 0 1-5.3-12.8l63.8-63.8a7.5 7.5 0 0 1 5.3-2.2h141.9c4.1 0 7.5-3.4 7.5-7.5v-60c0-4.1-3.4-7.5-7.5-7.5h-51.9a7.5 7.5 0 0 1-5.3-12.8l15.3-15.3c3-3 3-7.7 0-10.6l-42.4-42.4c-3-3-7.7-3-10.6 0l-79 78.9a7.5 7.5 0 0 1-5.2 2.2H22.5a7.5 7.5 0 0 0-7.5 7.5v60c0 4.1 3.4 7.5 7.5 7.5h13.7a7.5 7.5 0 0 1 0 15H22.5C10.1 239 0 229 0 216.5v-60C0 144.1 10 134 22.5 134h284.8L384 57.3c8.8-8.8 23-8.8 31.8 0l42.4 42.4c8.8 8.8 8.8 23 0 31.8l-2.4 2.5h33.7a22.5 22.5 0 0 1 22.5 22.5v60c0 12.4-10 22.5-22.5 22.5H350.7L302 287.8h187.5a22.5 22.5 0 0 1 22.5 22.5v60c0 12.4-10 22.5-22.5 22.5Z" />
    </symbol>
    <symbol id="item-3090">
      <title>angle</title>
      <path fill="#df75a5" d="M210 420.5H28.5v-27.7L154.3 267h28.2c30.9 36.6 51 82.7 55.2 133.3l-27.6 20.3Z" />
      <path fill="#9dc6fb" d="M484.2 440.8H47.4a39.7 39.7 0 0 1-28.2-68L314.9 77.1a20.3 20.3 0 1 1 28.7 28.7L49.2 400.2h435a20.3 20.3 0 0 1 0 40.6Z" />
      <path fill="#80b4fb" d="M38.9 372.8a39.7 39.7 0 0 0 28.1 68H47.3a39.7 39.7 0 0 1-28.1-68L314.9 77.2a20.3 20.3 0 0 1 24.2-3.4c-1.7.8-3.2 2-4.6 3.4L39 372.8Z" />
      <path fill="#ffe07d" d="M363 376.5c-7.3 0-13.7-5.3-15-12.8A352.6 352.6 0 0 0 285.8 214a15.2 15.2 0 0 1 24.7-17.9 383.2 383.2 0 0 1 67.6 162.6 15.2 15.2 0 0 1-15 17.7Z" />
      <path d="M484.2 392.7H244.5c-5.2-46-23-89-52-125.3L349 111.1a27.8 27.8 0 0 0-39.3-39.3L13.9 367.5a47.2 47.2 0 0 0 16 77.5 7.5 7.5 0 1 0 5.5-14 32.3 32.3 0 0 1-10.9-53L320.2 82.5a12.7 12.7 0 0 1 18 0c5 5 5 13.1 0 18.1L44 395a7.5 7.5 0 0 0 5.3 12.8h435a12.8 12.8 0 0 1 0 25.6H62.4a7.5 7.5 0 0 0 0 15h421.8a27.8 27.8 0 0 0 0-55.6ZM182 278.1a228.6 228.6 0 0 1 47.5 114.6H67.3l114.6-114.6Z" />
      <path d="M293.6 198.9a7.7 7.7 0 0 1 10.8 1.7c4 5.4 7.7 11 11.4 16.7a7.5 7.5 0 1 0 12.6-8.1c-3.8-6-7.8-11.8-11.8-17.4a22.8 22.8 0 0 0-36.8 26.7 344.8 344.8 0 0 1 60.8 146.4 22.6 22.6 0 0 0 40.9 9.6c3.5-4.9 5-11 4-17a391 391 0 0 0-41.6-122 7.5 7.5 0 1 0-13.2 7c19.9 37 33.3 76.5 40 117.5a7.7 7.7 0 0 1-15.3 2.5A360 360 0 0 0 292 209.7a7.7 7.7 0 0 1 1.7-10.8ZM450.7 258h.6a30.8 30.8 0 0 0 21.7-52c-5.8-6-14-9.5-22.3-9.5-2.4 0-4.5 0-6.4.3l2.6-16h22.2a7.5 7.5 0 0 0 0-15h-28.5a7.5 7.5 0 0 0-7.4 6.3l-5.7 34a7.5 7.5 0 0 0 10.8 8 27.5 27.5 0 0 1 12.4-2.7c4.4 0 8.4 1.8 11.4 5 3 3.1 4.5 7.2 4.3 11.6a15.8 15.8 0 0 1-29.5 6.8 7.5 7.5 0 0 0-13 7.2 30.7 30.7 0 0 0 26.8 15.9Zm-94.1-30a7.5 7.5 0 0 0 6.5 3.7h30.4l-.1 18.7a7.5 7.5 0 1 0 15 .1l.1-18.8h2.2a7.5 7.5 0 0 0 0-15h-2.1v-41.4a13.2 13.2 0 0 0-8.6-11.7c-4.7-1.4-9.6.5-13.3 5a939 939 0 0 0-30.2 52 7.5 7.5 0 0 0 .1 7.4Zm37-42.6v31.3h-17.8c6.8-12.2 13.5-24 17.9-31.3Zm92.6-20.6a19.8 19.8 0 1 0 0-39.5 19.8 19.8 0 0 0 0 39.5Zm0-24.5a4.8 4.8 0 1 1 0 9.5 4.8 4.8 0 0 1 0-9.5Z" />
    </symbol>
    <symbol id="item-3091">
      <title>math operations</title>
      <path fill="#fff" fill-rule="evenodd" d="M180 120c0-11-9-20-20-20h-20V80a20 20 0 1 0-40 0v20H80a20 20 0 1 0 0 40h20v20a20 20 0 1 0 40 0v-20h20c11 0 20-9 20-20Z" />
      <path fill="#ff5d7d" fill-rule="evenodd" d="M160 100a20 20 0 1 1 0 40h-20v20a20 20 0 1 1-40 0v-20H80a20 20 0 1 1 0-40h20V80a20 20 0 1 1 40 0v20h20Zm30-90H50c-22 0-40 18-40 40v140c0 22 18 40 40 40h140c22 0 40-18 40-40V50c0-22-18-40-40-40Z" />
      <path fill="#ffea60" fill-rule="evenodd" d="M190 282H50c-22 0-40 18-40 40v140c0 22 18 40 40 40h140c22 0 40-18 40-40V322c0-22-18-40-40-40ZM80 372h80a20 20 0 1 1 0 40H80a20 20 0 1 1 0-40Z" />
      <path fill="#fff" fill-rule="evenodd" d="M160 372H80a20 20 0 1 0 0 40h80a20 20 0 1 0 0-40Z" />
      <path fill="#8690af" fill-rule="evenodd" d="M190 282c22 0 40 18 40 40v140h52V322c0-22 18-40 40-40h140v-52H322c-22 0-40-18-40-40V50h-52v140c0 22-18 40-40 40H50v52h140Z" />
      <path fill="#cbe558" fill-rule="evenodd" d="M282 190c0 22 18 40 40 40h140c22 0 40-18 40-40V50c0-22-18-40-40-40H322c-22 0-40 18-40 40v140Zm95.9-27.6a20 20 0 1 1-28.3-28.3l56.6-56.5a20 20 0 1 1 28.2 28.3L378 162.4Z" />
      <path fill="#fff" fill-rule="evenodd" d="M349.6 162.4a20 20 0 0 0 28.3 0l56.5-56.5a20 20 0 1 0-28.3-28.3l-56.5 56.6a20 20 0 0 0 0 28.2Z" />
      <path fill="#66e0f7" fill-rule="evenodd" d="M462 282H322c-22 0-40 18-40 40v140c0 22 18 40 40 40h140c22 0 40-18 40-40V322c0-22-18-40-40-40Zm-112.4 67.6a20 20 0 0 1 28.3 0l14.1 14.1 14.1-14.1a20 20 0 1 1 28.3 28.3L420.3 392l14.1 14.1a20 20 0 1 1-28.3 28.3L392 420.3l-14.1 14.1a20 20 0 1 1-28.3-28.3l14.1-14.1-14.1-14.1a20 20 0 0 1 0-28.3Z" />
      <path fill="#fff" fill-rule="evenodd" d="M434.4 349.6a20 20 0 0 0-28.2 0L392 363.7l-14-14.1a20 20 0 1 0-28.3 28.3l14.1 14.1-14.1 14.1a20 20 0 1 0 28.3 28.3l14.1-14.1 14.1 14.1a20 20 0 1 0 28.3-28.3L420.3 392l14.1-14.1a20 20 0 0 0 0-28.3Z" />
      <path d="M512 190V50a50 50 0 0 0-50-50H322a50 50 0 0 0-49 40h-34a50 50 0 0 0-49-40H50A50 50 0 0 0 0 50v140a50 50 0 0 0 40 49v34a50 50 0 0 0-40 49v140a50 50 0 0 0 50 50h140a50 50 0 0 0 49-40h34a50 50 0 0 0 49 40h140a50 50 0 0 0 50-50V322a50 50 0 0 0-40-49v-34a50 50 0 0 0 40-49ZM322 20h140a30 30 0 0 1 30 30v140a30 30 0 0 1-30 30H322a30 30 0 0 1-30-30V50a30 30 0 0 1 30-30ZM20 190V50a30 30 0 0 1 30-30h140a30 30 0 0 1 30 30v140a30 30 0 0 1-30 30H50a30 30 0 0 1-30-30Zm170 302H50a30 30 0 0 1-30-30V322a30 30 0 0 1 30-30h25a10 10 0 0 0 0-20H60v-32h130a50 50 0 0 0 50-50V60h32v130a50 50 0 0 0 50 50h130v32H322a50 50 0 0 0-50 50v130h-32V322a50 50 0 0 0-50-50h-25a10 10 0 0 0 0 20h25a30 30 0 0 1 30 30v140a30 30 0 0 1-30 30Zm302-170v140a30 30 0 0 1-30 30H322a30 30 0 0 1-30-30V322a30 30 0 0 1 30-30h140a30 30 0 0 1 30 30Z" />
      <path d="M80 150h10v10a30 30 0 0 0 60 0v-10h10a30 30 0 0 0 0-60h-10V80a30 30 0 0 0-60 0v10H80a30 30 0 0 0 0 60Zm0-40h20a10 10 0 0 0 10-10V80a10 10 0 0 1 20 0v20a10 10 0 0 0 10 10h20a10 10 0 0 1 0 20h-20a10 10 0 0 0-10 10v20a10 10 0 0 1-20 0v-20a10 10 0 0 0-10-10H80a10 10 0 0 1 0-20Zm80 252H80a30 30 0 0 0 0 60h80a30 30 0 0 0 0-60Zm0 40H80a10 10 0 0 1 0-20h80a10 10 0 0 1 0 20Zm281.5-59.5a30 30 0 0 0-42.4 0l-7.1 7-7-7a30 30 0 0 0-42.5 42.4l7 7.1-7 7a30 30 0 0 0 42.4 42.5l7-7 7.2 7a30 30 0 0 0 42.4-42.4l-7-7.1 7-7a30 30 0 0 0 0-42.5Zm-28.3 56.6 14.1 14.1a10 10 0 0 1-14 14.1l-14.2-14a10 10 0 0 0-14.2 0l-14.1 14a10 10 0 0 1-14.1 0 10 10 0 0 1 0-14l14-14.2a10 10 0 0 0 0-14.2l-14-14.1a10 10 0 0 1 0-14.1 9.7 9.7 0 0 1 14 0l14.2 14a10 10 0 0 0 14.2 0l14.1-14a10 10 0 0 1 14.1 14l-14 14.2a10 10 0 0 0 0 14.2Zm-49.5-220.8a30 30 0 0 0 21.2-8.8l56.6-56.6a30 30 0 0 0-42.4-42.4l-56.6 56.6a30 30 0 0 0 21.2 51.2Zm-7-37 56.5-56.7c2-2 4.5-2.9 7-2.9s5.2 1 7.2 3a10 10 0 0 1 0 14l-56.6 56.7a10 10 0 0 1-14.2 0 10 10 0 0 1 0-14.2ZM120 292a10 10 0 0 0 0-20 10 10 0 0 0 0 20Z" />
    </symbol>
    <symbol id="item-3092">
      <title>aaa</title>
    </symbol>
    <symbol id="item-3093">
      <title>aaa</title>
    </symbol>
    <symbol id="item-3094">
      <title>aaa</title>
    </symbol>
    <symbol id="item-3095">
      <title>aaa</title>
    </symbol>
    <symbol id="item-3096">
      <title>aaa</title>
    </symbol>
    <symbol id="item-3097">
      <title>aaa</title>
    </symbol>
    <symbol id="item-3098">
      <title>aaa</title>
    </symbol>
    <symbol id="item-3099">
      <title>aaa</title>
    </symbol>
    <symbol id="item-3100">
      <title>aaa</title>
    </symbol>
    <symbol id="item-3101">
      <title>aaa</title>
    </symbol>
    <symbol id="item-3102">
      <title>aaa</title>
    </symbol>
    <symbol id="item-3103">
      <title>aaa</title>
    </symbol>
    <symbol id="item-3104">
      <title>aaa</title>
    </symbol>
    <symbol id="item-3105">
      <title>aaa</title>
    </symbol>
    <symbol id="item-3106">
      <title>aaa</title>
    </symbol>
    <symbol id="item-3107">
      <title>aaa</title>
    </symbol>
    <symbol id="item-3108">
      <title>aaa</title>
    </symbol>
    <symbol id="item-3109">
      <title>aaa</title>
    </symbol>
    <symbol id="item-3110">
      <title>aaa</title>
    </symbol>
    <symbol id="item-3111">
      <title>aaa</title>
    </symbol>
    <symbol id="item-3112">
      <title>aaa</title>
    </symbol>
    <symbol id="item-3113">
      <title>aaa</title>
    </symbol>
    <symbol id="item-3114">
      <title>aaa</title>
    </symbol>
    <symbol id="item-3115">
      <title>aaa</title>
    </symbol>
    <symbol id="item-3116">
      <title>aaa</title>
    </symbol>
    <symbol id="item-3117">
      <title>aaa</title>
    </symbol>
    <symbol id="item-3118">
      <title>aaa</title>
    </symbol>
    <symbol id="item-3119">
      <title>aaa</title>
    </symbol>
    <symbol id="item-3120">
      <title>aaa</title>
    </symbol>
    <symbol id="item-3121">
      <title>aaa</title>
    </symbol>
    <symbol id="item-3122">
      <title>aaa</title>
    </symbol>
    <symbol id="item-3123">
      <title>aaa</title>
    </symbol>
    <symbol id="item-3124">
      <title>aaa</title>
    </symbol>
    <symbol id="item-3125">
      <title>aaa</title>
    </symbol>
    <symbol id="item-3126">
      <title>aaa</title>
    </symbol>
    <symbol id="item-3127">
      <title>aaa</title>
    </symbol>
    <symbol id="item-3128">
      <title>aaa</title>
    </symbol>
    <symbol id="item-3129">
      <title>aaa</title>
    </symbol>
    <symbol id="item-3130">
      <title>aaa</title>
    </symbol>
    <symbol id="item-3131">
      <title>aaa</title>
    </symbol>
    <symbol id="item-3132">
      <title>aaa</title>
    </symbol>
    <symbol id="item-3133">
      <title>aaa</title>
    </symbol>
    <symbol id="item-3134">
      <title>aaa</title>
    </symbol>
    <symbol id="item-3135">
      <title>aaa</title>
    </symbol>
    <symbol id="item-3136">
      <title>aaa</title>
    </symbol>
  </defs>
</svg>
