<svg xmlns="http://www.w3.org/2000/svg" viewBox="0 0 512 512">
  <defs>
    <symbol id="item-2945">
      <title>blinds</title>
<path fill="#62dbfb" d="M443.7 60.5H68.3a12 12 0 0 1-12.1-12.1V19.6a12 12 0 0 1 12.1-12h375.4a12 12 0 0 1 12 12v28.8a12 12 0 0 1-12 12.1Z"/>
  <path fill="#01d0fb" d="M443.7 7.5h-30a12 12 0 0 1 12 12.1v28.8a12 12 0 0 1-12 12.1h30a12 12 0 0 0 12.1-12.1V19.6a12 12 0 0 0-12.1-12Z"/>
  <path fill="#dff6fd" d="M418 60.5H94a9.4 9.4 0 0 0-9.4 9.4v15.4c0 5.2 4.2 9.4 9.4 9.4h324c5.2 0 9.4-4.2 9.4-9.4V69.9c0-5.2-4.2-9.4-9.4-9.4Z"/>
  <path fill="#f2fbff" d="M418 94.7H94a9.4 9.4 0 0 0-9.4 9.3v15.5c0 5.1 4.2 9.3 9.4 9.3h324c5.2 0 9.4-4.2 9.4-9.4V104c0-5.1-4.2-9.3-9.4-9.3Z"/>
  <path fill="#dff6fd" d="M418 128.8H94a9.4 9.4 0 0 0-9.4 9.4v15.4c0 5.2 4.2 9.4 9.4 9.4h324c5.2 0 9.4-4.2 9.4-9.4v-15.4c0-5.2-4.2-9.4-9.4-9.4Z"/>
  <path fill="#f2fbff" d="M418 163H94a9.4 9.4 0 0 0-9.4 9.3v15.5c0 5.1 4.2 9.3 9.4 9.3h324c5.2 0 9.4-4.2 9.4-9.3v-15.5c0-5.1-4.2-9.3-9.4-9.3Z"/>
  <path fill="#dff6fd" d="M418 197.1H94a9.4 9.4 0 0 0-9.4 9.4v15.4c0 5.2 4.2 9.4 9.4 9.4h324c5.2 0 9.4-4.2 9.4-9.4v-15.4c0-5.2-4.2-9.4-9.4-9.4Z"/>
  <path fill="#f2fbff" d="m418 299.6-189.5-8.2L94 299.6a9.4 9.4 0 0 0-9.4 9.3v15.5c0 5.1 4.2 9.3 9.4 9.3h324c5.2 0 9.4-4.1 9.4-9.3V309c0-5.2-4.2-9.4-9.4-9.4Zm0-68.3H94a9.4 9.4 0 0 0-9.4 9.3v15.5c0 5.1 4.2 9.3 9.4 9.3h324c5.2 0 9.4-4.2 9.4-9.3v-15.5c0-5.1-4.2-9.3-9.4-9.3Z"/>
  <path fill="#dff6fd" d="M418 265.4H94a9.4 9.4 0 0 0-9.4 9.4v15.4c0 5.2 4.2 9.4 9.4 9.4h324c5.2 0 9.4-4.2 9.4-9.4v-15.4c0-5.2-4.2-9.4-9.4-9.4Zm0 68.3H94a9.4 9.4 0 0 0-9.4 9.4v15.4c0 5.2 4.2 9.4 9.4 9.4h324c5.2 0 9.4-4.2 9.4-9.4v-15.4c0-5.2-4.2-9.4-9.4-9.4Z"/>
  <path fill="#f2fbff" d="M418 367.9H94a9.4 9.4 0 0 0-9.4 9.4v15.4c0 5.2 4.2 9.4 9.4 9.4h324c5.2 0 9.4-4.2 9.4-9.4v-15.4c0-5.2-4.2-9.4-9.4-9.4Z"/>
  <path fill="#dff6fd" d="M418 402H94a9.4 9.4 0 0 0-9.4 9.4v15.4c0 5.2 4.2 9.4 9.4 9.4h324c5.2 0 9.4-4.2 9.4-9.4v-15.4c0-5.2-4.2-9.4-9.4-9.4Z"/>
  <path fill="#f2fbff" d="M418 436.2H94a9.4 9.4 0 0 0-9.4 9.4V461c0 5.2 4.2 9.4 9.4 9.4h324c5.2 0 9.4-4.2 9.4-9.4v-15.4c0-5.2-4.2-9.4-9.4-9.4Z"/>
  <path fill="#dff6fd" d="M418 470.4H94a9.4 9.4 0 0 0-9.4 9.3v15.4c0 5.2 4.2 9.4 9.4 9.4h324c5.2 0 9.4-4.2 9.4-9.4v-15.4c0-5.1-4.2-9.3-9.4-9.3Z"/>
  <path fill="#c8effe" d="M427.4 69.9v15.4c0 5.2-4.2 9.4-9.4 9.4h-30.3c5.2 0 9.4-4.2 9.4-9.4V69.9c0-5.2-4.2-9.4-9.4-9.4H418c5.2 0 9.4 4.2 9.4 9.4Z"/>
  <path fill="#dff6fd" d="M427.4 104v15.4c0 5.2-4.2 9.4-9.4 9.4h-30.3c5.2 0 9.4-4.2 9.4-9.4V104c0-5.1-4.2-9.3-9.4-9.3H418c5.2 0 9.4 4.2 9.4 9.3Z"/>
  <path fill="#c8effe" d="M427.4 138.2v15.4c0 5.2-4.2 9.4-9.4 9.4h-30.3c5.2 0 9.4-4.2 9.4-9.4v-15.4c0-5.2-4.2-9.4-9.4-9.4H418c5.2 0 9.4 4.2 9.4 9.4Z"/>
  <path fill="#dff6fd" d="M427.4 172.3v15.5c0 5.1-4.2 9.3-9.4 9.3h-30.3c5.2 0 9.4-4.2 9.4-9.3v-15.5c0-5.1-4.2-9.3-9.4-9.3H418c5.2 0 9.4 4.2 9.4 9.3Z"/>
  <path fill="#c8effe" d="M427.4 206.5v15.4c0 5.2-4.2 9.4-9.4 9.4h-30.3c5.2 0 9.4-4.2 9.4-9.4v-15.4c0-5.2-4.2-9.4-9.4-9.4H418c5.2 0 9.4 4.2 9.4 9.4Z"/>
  <path fill="#dff6fd" d="M427.4 309v15.4c0 5.2-4.2 9.3-9.4 9.3h-30.3c5.2 0 9.4-4.1 9.4-9.3V306c0-3-1.4-5.8-3.7-7.5l24.6 1c5.2 0 9.4 4.3 9.4 9.4Zm0-68.4v15.5c0 5.1-4.2 9.3-9.4 9.3h-30.3c5.2 0 9.4-4.2 9.4-9.3v-15.5c0-5.1-4.2-9.3-9.4-9.3H418c5.2 0 9.4 4.2 9.4 9.3Z"/>
  <path fill="#c8effe" d="M427.4 274.8v15.4c0 5.2-4.2 9.4-9.4 9.4h-30.3c5.2 0 9.4-4.2 9.4-9.4v-15.4c0-5.2-4.2-9.4-9.4-9.4H418c5.2 0 9.4 4.2 9.4 9.4Zm0 68.3v15.4c0 5.2-4.2 9.4-9.4 9.4h-30.3c5.2 0 9.4-4.2 9.4-9.4v-15.4c0-5.2-4.2-9.4-9.4-9.4H418c5.2 0 9.4 4.2 9.4 9.4Z"/>
  <path fill="#dff6fd" d="M427.4 377.3v15.4c0 5.2-4.2 9.3-9.4 9.3h-30.3c5.2 0 9.4-4.1 9.4-9.3v-15.4c0-5.2-4.2-9.4-9.4-9.4H418c5.2 0 9.4 4.2 9.4 9.4Z"/>
  <path fill="#c8effe" d="M427.4 411.4v15.4c0 5.2-4.2 9.4-9.4 9.4h-30.3c5.2 0 9.4-4.2 9.4-9.4v-15.4c0-5.2-4.2-9.4-9.4-9.4H418c5.2 0 9.4 4.2 9.4 9.4Z"/>
  <path fill="#dff6fd" d="M427.4 445.6V461c0 5.2-4.2 9.3-9.4 9.3h-30.3c5.2 0 9.4-4.1 9.4-9.3v-15.4c0-5.2-4.2-9.4-9.4-9.4H418c5.2 0 9.4 4.2 9.4 9.4Z"/>
  <path fill="#c8effe" d="M427.4 479.7v15.4c0 5.2-4.2 9.4-9.4 9.4h-30.3c5.2 0 9.4-4.2 9.4-9.4v-15.4c0-5.1-4.2-9.3-9.4-9.3H418c5.2 0 9.4 4.2 9.4 9.3Z"/>
  <path d="M471.7 26.5h-8.4v-6.9c0-10.8-8.8-19.6-19.6-19.6H68.3a19.6 19.6 0 0 0-19.6 19.6v6.9h-8.4a7.5 7.5 0 0 0 0 15h8.4v6.9c0 10.8 8.8 19.6 19.6 19.6h8.8v17.3c0 3.4 1 6.7 2.9 9.4a16.7 16.7 0 0 0-3 9.3v15.4c0 3.5 1 6.7 2.9 9.4a16.7 16.7 0 0 0-2.9 9.4v15.4c0 3.5 1 6.7 2.9 9.4a16.7 16.7 0 0 0-2.9 9.3v15.5c0 3.4 1 6.6 2.9 9.3a16.7 16.7 0 0 0-2.9 9.4v15.4c0 3.5 1 6.7 2.9 9.4a16.7 16.7 0 0 0-2.9 9.4V256c0 3.4 1 6.7 2.9 9.3a16.7 16.7 0 0 0-2.9 9.4v15.4c0 3.5 1 6.7 2.9 9.4A16.7 16.7 0 0 0 77 309v15.4c0 3.5 1 6.7 2.9 9.4A16.7 16.7 0 0 0 77 343v15.5c0 3.4 1 6.7 2.9 9.3a16.7 16.7 0 0 0-2.9 9.4v15.4c0 3.5 1 6.7 2.9 9.4a16.7 16.7 0 0 0-2.9 9.4v15.4c0 3.4 1 6.7 2.9 9.4a16.7 16.7 0 0 0-2.9 9.3V461c0 3.5 1 6.7 2.9 9.4a16.7 16.7 0 0 0-2.9 9.4v15.4a17 17 0 0 0 16.9 16.9h324a17 17 0 0 0 16.9-16.9v-15.4c0-3.5-1-6.7-2.9-9.4 1.8-2.7 2.9-5.9 2.9-9.4v-15.4c0-3.4-1-6.7-2.9-9.3 1.8-2.7 2.9-6 2.9-9.4v-15.4c0-3.5-1-6.7-2.9-9.4 1.8-2.7 2.9-6 2.9-9.4v-15.4c0-3.5-1-6.7-2.9-9.4 1.8-2.6 2.9-5.9 2.9-9.3V343c0-3.4-1-6.6-2.9-9.3 1.8-2.7 2.9-6 2.9-9.4V309c0-3.5-1-6.7-2.9-9.4 1.8-2.7 2.9-5.9 2.9-9.4v-15.4c0-3.4-1-6.7-2.9-9.4 1.8-2.6 2.9-5.8 2.9-9.3v-15.4c0-3.5-1-6.7-2.9-9.4 1.8-2.7 2.9-6 2.9-9.4v-15.4c0-3.5-1-6.7-2.9-9.4 1.8-2.6 2.9-5.9 2.9-9.3v-15.5c0-3.4-1-6.7-2.9-9.3 1.8-2.7 2.9-6 2.9-9.4v-15.4c0-3.5-1-6.7-2.9-9.4 1.8-2.7 2.9-5.9 2.9-9.4V104c0-3.4-1-6.7-2.9-9.4 1.8-2.6 2.9-5.9 2.9-9.3V68h8.8c1.6 0 3.1-.2 4.6-.6v138.2a7.5 7.5 0 0 0 15 0v-164h8.4a7.5 7.5 0 0 0 0-15ZM325.3 15l-3.8 5.6a13.5 13.5 0 0 1-11.2 6H201.7c-4.5 0-8.7-2.3-11.2-6l-3.8-5.6h138.6ZM139.7 497H94c-1 0-1.9-.8-1.9-1.9v-15.4c0-1 .9-1.8 1.9-1.8h45.7V497Zm0-34.1H94c-1 0-1.9-.9-1.9-2v-15.3a2 2 0 0 1 1.9-1.9h45.7V463Zm0-34.2H94c-1 0-1.9-.8-1.9-1.9v-15.4c0-1 .9-1.8 1.9-1.8h45.7v19.1Zm0-34.1H94c-1 0-1.9-.9-1.9-2v-15.3a2 2 0 0 1 1.9-1.9h45.7v19.2Zm0-34.2H94c-1 0-1.9-.8-1.9-1.9v-15.4c0-1 .9-1.8 1.9-1.8h45.7v19.1Zm0-34.1H94c-1 0-1.9-.9-1.9-2V309a2 2 0 0 1 1.9-1.9h45.7v19.2Zm0-34.2H94c-1 0-1.9-.8-1.9-1.9v-15.4c0-1 .9-1.8 1.9-1.8h45.7v19Zm0-34.1H94c-1 0-1.9-.9-1.9-2v-15.3a2 2 0 0 1 1.9-1.9h45.7V258Zm0-34.2H94c-1 0-1.9-.8-1.9-1.9v-15.4c0-1 .9-1.8 1.9-1.8h45.7v19.1Zm0-34.1H94c-1 0-1.9-.9-1.9-2v-15.3a2 2 0 0 1 1.9-1.9h45.7v19.2Zm0-34.2H94c-1 0-1.9-.8-1.9-1.9v-15.4c0-1 .9-1.8 1.9-1.8h45.7v19.1Zm0-34.1H94c-1 0-1.9-.9-1.9-2v-15.3a2 2 0 0 1 1.9-1.9h45.7v19.2Zm0-34.2H94c-1 0-1.9-.8-1.9-1.9V70c0-1 .9-1.8 1.9-1.8h45.7v19.1ZM357.3 497H154.7v-19h202.6v19Zm0-34.1H154.7v-19.2h202.6V463Zm0-34.2H154.7v-19.1h202.6v19.1Zm0-34.1H154.7v-19.2h202.6v19.2Zm0-34.2H154.7v-19.1h202.6v19.1Zm0-68.3H182.5a7.5 7.5 0 0 0 0 15h174.8v19.2H154.7V273h202.6v19Zm0-34.1H154.7v-19.2h202.6V258Zm0-34.2H154.7v-19.1h202.6v19.1Zm0-34.1H154.7v-19.2h202.6v19.2Zm0-34.2H154.7v-19.1h202.6v19.1Zm0-34.1H154.7v-19.2h202.6v19.2Zm0-34.2H154.7V68.1h202.6v19.1Zm62.6 408a2 2 0 0 1-1.9 1.9h-45.7v-19.2H418c1 0 1.9.9 1.9 1.9v15.4Zm0-34.1c0 1-.9 1.8-1.9 1.8h-45.7v-19.1H418c1 0 1.9.8 1.9 1.8v15.5Zm0-34.2a2 2 0 0 1-1.9 1.9h-45.7v-19.2H418c1 0 1.9.9 1.9 1.9v15.4Zm0-34.1c0 1-.9 1.8-1.9 1.8h-45.7v-19.1H418c1 0 1.9.8 1.9 1.8v15.5Zm0-34.2a2 2 0 0 1-1.9 1.9h-45.7v-19.2H418c1 0 1.9.9 1.9 1.9v15.4Zm0-34.1c0 1-.9 1.8-1.9 1.8h-45.7v-19.1H418c1 0 1.9.8 1.9 1.8v15.5Zm0-34.2a2 2 0 0 1-1.9 1.9h-45.7V273H418c1 0 1.9.9 1.9 1.9v15.4Zm0-34.1c0 1-.9 1.8-1.9 1.8h-45.7v-19H418c1 0 1.9.8 1.9 1.8v15.5Zm0-34.2a2 2 0 0 1-1.9 1.9h-45.7v-19.2H418c1 0 1.9.9 1.9 1.9V222Zm0-34.1c0 1-.9 1.8-1.9 1.8h-45.7v-19.1H418c1 0 1.9.8 1.9 1.8V188Zm0-34.2a2 2 0 0 1-1.9 1.9h-45.7v-19.2H418c1 0 1.9.9 1.9 1.9v15.4Zm0-34.1c0 1-.9 1.8-1.9 1.8h-45.7v-19.1H418c1 0 1.9.8 1.9 1.8v15.5Zm0-34.2a2 2 0 0 1-1.9 1.9h-45.7V68H418c1 0 1.9.9 1.9 1.9v15.4Zm28.4-36.9c0 2.6-2 4.6-4.6 4.6H68.3c-2.5 0-4.6-2-4.6-4.6V19.8c0-2.6 2-4.7 4.6-4.7h100.2l9.6 14.1a28.5 28.5 0 0 0 23.6 12.4h108.6c9.5 0 18.3-4.6 23.6-12.4l9.6-14h100.2c2.5 0 4.6 2 4.6 4.6v28.7Z"/>
  <path d="M455.8 233.2a7.5 7.5 0 0 0-7.5 7.5V270a7.5 7.5 0 0 0 15 0v-29.2c0-4.1-3.4-7.5-7.5-7.5Z"/>
    </symbol>
    <symbol id="item-2946">
      <title>lyre</title>
<path fill="#e08d63" d="M404.6 54.6a32.2 32.2 0 1 0 28.6-47.1c-57.5 0-66.9 68-66.9 68-73.5-9.3-147-9.3-220.6 0 0 0-9.2-66.6-65-68a32.8 32.8 0 0 0-34 32.6 32.2 32.2 0 0 0 60.7 14.5l8.8 60.5c1.9 12.8.8 25.9-3.2 38.2L61.8 310a143.8 143.8 0 0 0 138.3 183.3H312A143.8 143.8 0 0 0 450.3 310L399 153.3a84.2 84.2 0 0 1-3.3-38.2l8.8-60.5Z"/>
  <path fill="#d77f4a" d="M112.6 60a23 23 0 0 0 21.3 15.4c5.1.2 9.8.2 11.8 0 0 0-9.2-66.5-65-67.9-4.9 0-9.5.8-13.7 2.6 27 8 40 33.2 45.6 49.9Zm292-5.4 1.6 2.7c-.2-1-.7-2-1.6-2.7Zm-5.6 98.7a84.2 84.2 0 0 1-3.2-38.2l8.8-60.5h-16.1c-8 0-14.8 5.8-16 13.8l-6.8 46.7a84.2 84.2 0 0 0 3.3 38.2L420.1 310a143.8 143.8 0 0 1-138.3 183.3h30A143.8 143.8 0 0 0 450.2 310L399 153.3ZM433.1 7.5c-6.5 0-12.4.9-17.7 2.4a32.2 32.2 0 0 1 2.7 58.3 32.2 32.2 0 1 0 15-60.7Z"/>
  <path fill="#ffe177" d="M340 453.5H172a14.6 14.6 0 0 1 0-29.3h168a14.6 14.6 0 0 1 0 29.3Z"/>
  <path fill="#ffd15b" d="M340 424.2h-27a14.6 14.6 0 0 1 0 29.3h27a14.6 14.6 0 0 0 0-29.3Z"/>
  <circle cx="129.1" cy="365" r="22.3" fill="#ffe177"/>
  <circle cx="382.9" cy="365" r="22.3" fill="#ffe177"/>
  <ellipse cx="256" cy="220.3" fill="#8680c1" rx="100.7" ry="53.4"/>
  <path fill="#7171b5" d="M256 167c-4.2 0-8.4 0-12.5.3 49.7 3.3 88.1 25.8 88.1 53s-38.4 49.8-88.1 53c4 .3 8.3.4 12.5.4 55.6 0 100.7-23.9 100.7-53.4S311.7 167 256 167Z"/>
  <path d="M409.6 71.8A39.8 39.8 0 1 0 433.1 0c-26.6 0-48 13.3-61.8 38.4a7.5 7.5 0 0 0 13.1 7.3C395.6 25.3 412 15 433.1 15a24.6 24.6 0 0 1 24.6 26.5 24.7 24.7 0 0 1-46.6 9.6 7.5 7.5 0 0 0-14 2.4l-8.8 60.5a93 93 0 0 0 3.6 41.6l51 156.7a136 136 0 0 1-38.2 137.1 135.8 135.8 0 0 1-77.4 35.7V461H340a22.1 22.1 0 0 0 0-44.3h-12.7V266.5c22.7-11 36.9-27.5 36.9-46.2s-14.2-35-37-46.2V145h27.5a7.5 7.5 0 0 0 0-15h-27.4V79a885 885 0 0 1 38 4 7.5 7.5 0 0 0 2-15c-71.6-9-144-9.2-215.6-.8-1.7-6.9-5-17.8-11-28.8C127.2 14 106.5.7 80.8 0c-11-.3-22 4-29.9 11.8a38.9 38.9 0 0 0-11.8 28.3 39.8 39.8 0 0 0 63.2 31.6l6.5 44.5c1.7 11.6.7 23.6-3 34.7l-51 156.9-.2.2a150.8 150.8 0 0 0 42.5 152.4c22.7 21.1 51 34.6 81.2 39l-.5.5a7.5 7.5 0 1 0 12 9.1l2.4-3.2 2.5 3.2a7.5 7.5 0 0 0 12.6-8h12.4a7.5 7.5 0 0 0 12.5 8l2.5-3.2 2.5 3.2a7.5 7.5 0 0 0 12.6-8h12.4a7.5 7.5 0 0 0 12.5 8l2.5-3.2 2.5 3.2a7.5 7.5 0 0 0 12.6-8h12.4a7.5 7.5 0 0 0 12.5 8l2.5-3.2 2.5 3.3a7.5 7.5 0 1 0 12-9.2l-.5-.5a150.8 150.8 0 0 0 129-138.7 151 151 0 0 0-5.4-53L406 151a77.2 77.2 0 0 1-3-34.8l6.5-44.4Zm-97.3 414.1h-27.5v-25h27.5v25Zm-112.6 0v-25h27.5v25h-27.5Zm0-54.2h27.5V446h-27.5v-14.3Zm-15 14.3H172a7.1 7.1 0 0 1 0-14.3h12.8V446Zm42.5-301v16.5c-9.8 1.5-19 3.7-27.5 6.6v-23.2h27.5Zm-27.5-15V77.7c9.2-.5 18.3-1 27.5-1.3V130h-27.5Zm42.5 15h27.6v14.9c-8-.5-18-.7-27.6 0v-15Zm-57.5 104.4c-14-8.3-21.9-18.7-21.9-29s8-20.8 22-29.2v58.2Zm15-65.4c8.4-3.2 17.7-5.7 27.5-7.3V264c-9.8-1.7-19.1-4.1-27.5-7.4V184Zm42.5-9c8-.6 17.9-.8 27.6 0v90.7c-8 .6-17.9.8-27.6 0V175Zm70 81.6a139 139 0 0 1-27.4 7.4v-87.3c9.8 1.7 19.1 4.1 27.5 7.4v72.6ZM256 281.3c4.7 0 9.3-.2 13.8-.5v136h-27.6v-136c4.5.3 9.1.4 13.8.4Zm13.8 150.5V446h-27.6v-14.2h27.6Zm15 0h27.5V446h-27.5v-14.2ZM242.2 461h27.6v25h-27.6v-25Zm97.9-29.2a7.1 7.1 0 0 1 0 14.2h-12.8v-14.2H340Zm-27.8-15h-27.5V279.2c9.8-1.5 19-3.7 27.5-6.6v144.2Zm36.9-196.4c0 10.3-8 20.7-22 29v-58.1c14 8.3 22 18.7 22 29Zm-37-52.3a157 157 0 0 0-27.4-6.6V145h27.5v23.2Zm0-38.2h-27.4V76.5c9.1.3 18.3.8 27.5 1.4v52Zm-42.4-53.7v53.7h-27.6V76.2c9.2-.2 18.4-.2 27.6 0ZM64.2 359.5c-1.2-16 .4-31.8 4.8-47.2l51-156.7a92.1 92.1 0 0 0 3.6-41.6L115 53.5a7.5 7.5 0 0 0-14.1-2.4 24.7 24.7 0 1 1-39.4-28.6c5-5 12-7.7 19-7.5 20.3.5 36 10.7 47 30.3a101 101 0 0 1 10.9 31.1c.5 4.1 4.3 7 8.3 6.5a820 820 0 0 1 38.1-4v51h-27.4a7.5 7.5 0 0 0 0 15h27.4v29.3c-22.7 11-36.9 27.5-36.9 46.2s14.2 35 37 46.1v80.9a7.5 7.5 0 0 0 15 0v-74.8a157 157 0 0 0 27.4 6.6v137.6h-27.5v-34.3a7.5 7.5 0 0 0-15 0v34.3H172a22.1 22.1 0 0 0 0 44.2h12.7v24A136 136 0 0 1 64.2 359.7Z"/>
  <path d="M158.9 365a29.8 29.8 0 0 0-39.7-28.1 87.3 87.3 0 0 1 12-20.7 29 29 0 0 0 6.7-22 33.7 33.7 0 0 0-13-21 7.5 7.5 0 0 0-8.8 12.2s6 4.6 7 10.9c.4 3.4-.8 7-3.7 10.7-22.3 28.7-20.5 54.6-20 58.5a29.8 29.8 0 0 0 59.5-.5ZM129 379.8a14.8 14.8 0 1 1 0-29.6 14.8 14.8 0 0 1 0 29.6ZM353.1 365a29.8 29.8 0 0 0 59.6.5c.4-3.9 2.2-29.8-20.1-58.5-3-3.7-4.1-7.2-3.7-10.7.9-6.3 7-10.9 7-10.9a7.5 7.5 0 1 0-8.8-12.2c-1.1.9-11.2 8.5-13 21a29 29 0 0 0 6.6 22 87.3 87.3 0 0 1 12.1 20.7 29.7 29.7 0 0 0-39.7 28Zm29.8 14.8a14.8 14.8 0 1 1 0-29.6 14.8 14.8 0 0 1 0 29.6Z"/>
    </symbol>
    <symbol id="item-2947">
      <title>book shelves</title>
<path fill="#e19974" d="M498 430H14a6.4 6.4 0 0 1-6.5-6.5v-22.8c0-3.6 2.9-6.5 6.4-6.5h484.2c3.5 0 6.4 3 6.4 6.5v22.8c0 3.6-2.9 6.5-6.4 6.5Zm0-285.8H160a6.4 6.4 0 0 1-6.4-6.5V115c0-3.6 3-6.5 6.5-6.5h338c3.5 0 6.4 3 6.4 6.5v22.8c0 3.6-2.9 6.5-6.4 6.5Z"/>
  <path fill="#d77f4a" d="M199 144.2h47.3v52.2a14.2 14.2 0 0 1-27.7 4.6L199 144.1Zm212.8 0h47.4v52.2a14.2 14.2 0 0 1-27.7 4.6l-19.7-56.9Z"/>
  <path fill="#dc8758" d="M498 394.2h-30c3.6 0 6.5 3 6.5 6.5v22.8c0 3.6-2.9 6.5-6.4 6.5h30c3.5 0 6.4-3 6.4-6.5v-22.8c0-3.6-2.9-6.5-6.4-6.5Z"/>
  <path fill="#d77f4a" d="M54.4 430h47.3v52a14.2 14.2 0 0 1-27.7 4.7l-19.6-56.9Zm356 0h47.3v52a14.2 14.2 0 0 1-27.7 4.7l-19.6-56.9Z"/>
  <path fill="#6c7fd8" d="M451.6 394.2h-24.4c-5 0-9-4-9-9V261.7c0-5 4-9 9-9h24.4c5 0 9 4 9 9v123.5c0 5-4 9-9 9Z"/>
  <path fill="#62dbfb" d="M409.1 394.2h-24.4c-5 0-9-4-9-9V261.7c0-5 4-9 9-9h24.4c5 0 9 4 9 9v123.5c0 5-4 9-9 9Z"/>
  <path fill="#ffe177" d="M282 394.2h-24.4c-5 0-9-4-9-9V261.7c0-5 4-9 9-9H282c5 0 9 4 9 9v123.5c0 5-4 9-9 9Z"/>
  <path fill="#cb97e7" d="m319.6 393.6-22.8-8.6a9 9 0 0 1-5.2-11.7L335.4 258a9 9 0 0 1 11.7-5.3l22.8 8.7a9 9 0 0 1 5.2 11.6l-43.8 115.5a9 9 0 0 1-11.7 5.2Z"/>
  <circle cx="137.8" cy="321.7" r="47.7" fill="#fff6ce" transform="rotate(-85.9 137.8 321.7)"/>
  <path fill="#ffe177" d="m116.2 279.1-38.8 18.1-4.7-10.1a21.4 21.4 0 0 1 38.8-18.1l4.7 10.1Zm43.2 0 38.8 18.1 4.7-10.1a21.4 21.4 0 0 0-38.8-18.1l-4.7 10.1Z"/>
  <path fill="#6c7fd8" d="M319 99.4V75c0-5 4.1-9 9-9h123.6c5 0 9 4 9 9v24.4c0 5-4 9-9 9H328c-5 0-9-4-9-9Z"/>
  <path fill="#62dbfb" d="M319 57V32.4c0-5 4.1-9 9-9h123.6c5 0 9 4 9 9V57c0 5-4 9-9 9H328c-5 0-9-4-9-9Z"/>
  <path fill="#4f66d0" d="M460.6 75v24.4c0 5-4 9-9 9h-30c5 0 9-4 9-9V75c0-5-4-9-9-9h30c5 0 9 4 9 9Z"/>
  <path fill="#01d0fb" d="M460.6 32.5V57c0 5-4 9-9 9h-30c5 0 9-4 9-9V32.5c0-5-4-9-9-9h30c5 0 9 4 9 9Z"/>
  <path fill="#dc8758" d="M498 108.4h-30c3.6 0 6.5 3 6.5 6.5v22.8c0 3.6-2.9 6.5-6.4 6.5h30c3.5 0 6.4-3 6.4-6.5V115c0-3.6-2.9-6.5-6.4-6.5Z"/>
  <path fill="#4f66d0" d="M451.6 252.7h-24.7a9 9 0 0 1 8.7 9v123.5a9 9 0 0 1-8.7 9h24.7c5 0 9-4 9-9V261.7c0-5-4-9-9-9Z"/>
  <path fill="#01d0fb" d="M409.1 252.7h-24.7a9 9 0 0 1 8.7 9v123.5a9 9 0 0 1-8.7 9h24.7c5 0 9-4 9-9V261.7c0-5-4-9-9-9Z"/>
  <path fill="#ffd15b" d="M282 252.7h-24.7a9 9 0 0 1 8.7 9v123.5a9 9 0 0 1-8.7 9H282c5 0 9-4 9-9V261.7c0-5-4-9-9-9Z"/>
  <path fill="#bd80e1" d="m369.9 261.3-22.8-8.7a9 9 0 0 0-11.6 5.1l9.4 3.6a9 9 0 0 1 5.2 11.6l-43.8 115.5v.1l13.3 5.1a9 9 0 0 0 11.7-5.2L375 273a9 9 0 0 0-5.2-11.6Z"/>
  <path fill="#fff1b6" d="M137.8 274c-5 0-10 .8-14.5 2.2a47.7 47.7 0 0 1 0 90.9 47.7 47.7 0 1 0 14.5-93.1Z"/>
  <path fill="#dff6fd" d="M243.3 108.4H202c-8 0-14.4-6.4-14.4-14.4V30c0-8 6.5-14.4 14.5-14.4h41.3c8 0 14.5 6.5 14.5 14.5v63.8c0 8-6.5 14.5-14.5 14.5Z"/>
  <path fill="#c8effe" d="M257.8 30v64c0 8-6.5 14.4-14.5 14.4h-30c8 0 14.5-6.5 14.5-14.5V30.1c0-8-6.5-14.5-14.5-14.5h30c8 0 14.5 6.5 14.5 14.5Z"/>
  <path d="M498 101h-29.9V75c0-3.3-1-6.4-2.7-9 1.7-2.6 2.7-5.7 2.7-9V32.4c0-9-7.4-16.5-16.5-16.5H328c-9.1 0-16.6 7.4-16.6 16.5V57c0 3.4 1 6.5 2.7 9a16.5 16.5 0 0 0-2.7 9.1v26h-47.3c.7-2.3 1.1-4.6 1.1-7v-8.7l21-9.1a20.2 20.2 0 0 0 12.3-18.6V42.8c0-11.2-9.1-20.2-20.2-20.2H264A22 22 0 0 0 243.3 8H202a22 22 0 0 0-22 22v63.8c0 2.5.5 4.8 1.2 7h-21a14 14 0 0 0-14 14v22.8a14 14 0 0 0 14 14h33.5l18 51.8a21.7 21.7 0 0 0 42.2-7.2V144c0-4-3.4-7.5-7.5-7.5h-85.2V116H497v20.7H281.4a7.5 7.5 0 0 0 0 15h125l18 51.8a21.8 21.8 0 0 0 42.3-7v-44.8H498a14 14 0 0 0 13.9-13.9v-22.9a14 14 0 0 0-14-13.9ZM265.4 37.5h13c3 0 5.3 2.3 5.3 5.2v14.8c0 2-1.3 4-3.2 4.8l-15 6.5V37.6Zm-26.5 114v44.8a6.7 6.7 0 0 1-13 2.2l-16.3-47h29.3ZM250.3 94a7 7 0 0 1-7 7H202a7 7 0 0 1-7-7V30a7 7 0 0 1 7-6.9h41.3a7 7 0 0 1 7 7v63.8Zm160.4 7H328c-.8 0-1.5-.8-1.5-1.6V75c0-.9.6-1.6 1.5-1.6h82.6V101Zm0-42.5H328c-.8 0-1.5-.7-1.5-1.6V32.5c0-.8.6-1.5 1.5-1.5h82.6v27.4ZM453 99.4c0 .8-.7 1.5-1.5 1.5h-26V73.5h26c.8 0 1.5.7 1.5 1.5v24.4Zm0-42.5c0 .9-.7 1.6-1.5 1.6h-26V31h26c.8 0 1.5.7 1.5 1.5V57Zm-1.4 139.4a6.7 6.7 0 0 1-13.1 2.2l-16.3-46.9h29.4v44.7ZM498 386.7h-29.9V355c0-4.1-3.3-7.5-7.5-7.5h-35v-85.7c0-.9.8-1.5 1.6-1.5h24.4c.8 0 1.5.6 1.5 1.5v58a7.5 7.5 0 0 0 15 0v-58c0-9.1-7.4-16.5-16.5-16.5h-24.4c-3.3 0-6.4 1-9 2.7a16.4 16.4 0 0 0-9-2.7h-24.5c-6 0-11.4 3.3-14.3 8.3l-20.7-7.9a16.4 16.4 0 0 0-21.3 9.6l-29.8 78.6v-72.1c0-9.1-7.4-16.5-16.6-16.5h-24.4c-9 0-16.5 7.4-16.5 16.5v125h-53l-16-22a55 55 0 0 0 17-63.4l6 2.7c2.4 1.4 7.4 1 9.9-3.6l4.7-10.1a28.7 28.7 0 0 0-14-38.5 28.7 28.7 0 0 0-31.2 4.5l-5.4-7.7a26 26 0 0 0-42.5 0l-5.4 7.7a29 29 0 0 0-45.3 34l4.7 10.1c1.9 2 1.5 3.7 6.8 4.3 1.1 0 2.2-.2 3.2-.7l6-2.7a54.9 54.9 0 0 0 17.3 63.9l-12.8 21.5H13.9a14 14 0 0 0-13.9 14v22.8a14 14 0 0 0 14 14h35l18 51.8a21.8 21.8 0 0 0 42.2-7.1v-44.7H405l18 51.8a21.8 21.8 0 0 0 42.2-7.1v-44.7h32.9a14 14 0 0 0 13.9-14v-22.8a14 14 0 0 0-14-14Zm-72.3-24.3H453v22.8c0 .8-.7 1.5-1.5 1.5h-24.4c-.9 0-1.5-.7-1.5-1.5v-22.8Zm-42.5-100.7c0-.9.7-1.5 1.5-1.5h24.4c.9 0 1.6.6 1.6 1.5v123.5c0 .8-.7 1.5-1.6 1.5h-24.4c-.8 0-1.5-.7-1.5-1.5V261.7Zm-15 125H340l28.3-74.4v74.4Zm-69.6-10.6v-.1l43.8-115.5c.2-.5.6-.7.8-.8l.7-.2.5.1 22.8 8.7c.8.3 1.2 1.2 1 2l-44 115.4c-.1.5-.4.8-.7.9-.3.1-.7.2-1.2 0l-22.8-8.6a2 2 0 0 1-1-1v-.9ZM256 261.7c0-.9.7-1.5 1.5-1.5H282c.9 0 1.6.6 1.6 1.5v123.5c0 .8-.7 1.5-1.6 1.5h-24.3c-.9 0-1.6-.7-1.6-1.5V261.7ZM171 272a13.8 13.8 0 0 1 18.5-6.7 14 14 0 0 1 6.7 18.5l-1.5 3.4-25.2-11.8 1.5-3.4Zm-42-15c2-3 5.3-4.6 9-4.6s6.8 1.7 8.8 4.6l8.5 12.2a54.9 54.9 0 0 0-34.8 0L129 257Zm-48 30.3-1.6-3.4a14 14 0 0 1 25.2-11.8l1.6 3.4L81 287.3Zm16.5 34.4a40.2 40.2 0 1 1 80.5 0 40.2 40.2 0 0 1-80.5 0Zm72 65h-61l8.3-14a54.8 54.8 0 0 0 42.4-.2l10.2 14.2Zm-75.4 95.5a6.7 6.7 0 0 1-13 2.2l-16.3-47h29.3v44.8Zm356 0a6.7 6.7 0 0 1-13.1 2.2l-16.2-47h29.3v44.8Zm46.8-59.7H15v-20.8h482v20.8Z"/>
  <path d="M137.8 329.2H149a7.5 7.5 0 0 0 0-15h-3.7v-9.5a7.5 7.5 0 0 0-15 0v17c0 4.1 3.4 7.5 7.5 7.5Z"/>
    </symbol>
  <symbol id="item-2948">
    <title>manual</title>
    <path fill="#8d9fad" d="M462.4 344.7v139.1h-93.7V354.2l93.7-9.5Z"/>
  <path fill="#f1f4f6" d="M434.9 463.1a53.5 53.5 0 0 1 0-57.3L286.2 378H87.6v105.7h264.6l82.7-20.7Z"/>
  <path fill="#bbcfd4" d="M462.4 28.2v356.9l-342.8 8.5-20.1.6-50 40.2V77.6a70.2 70.2 0 0 1 70.1-70.1h322.1c11.5 0 20.7 9.3 20.7 20.7Z"/>
  <path fill="#a3b8bf" d="M119.6 7.5v386.1l-20.1.6-50 40.2V77.6a70.2 70.2 0 0 1 70.1-70.1Z"/>
  <path fill="#a3b8bf" d="M441.7 504.5h-322a70.1 70.1 0 0 1 0-140.1h322a20.7 20.7 0 0 1 0 41.4H204.4L168.5 420l-35.8-14.3h-13a28.7 28.7 0 0 0 0 57.3h322a20.7 20.7 0 0 1 0 41.4Z"/>
  <path fill="#dd636e" d="M204.4 405.8v67.8c0 8.5-9.9 13.4-16.6 8l-12.9-10c-3.7-3-9-3-12.7 0l-12.9 10c-6.7 5.4-16.6.5-16.6-8v-67.8h71.7Z"/>
  <path fill="#da4a54" d="M132.7 405.8h71.7v28.6h-71.7v-28.6Z"/>
  <path fill="#4e5959" d="M159.6 287.4V84.5a37 37 0 0 1 37-37h188.8a37 37 0 0 1 37 37v202.9a37 37 0 0 1-37 37H196.7a37 37 0 0 1-37-37Z"/>
  <path fill="#454b4b" d="M219.5 324.4h-22.8a37 37 0 0 1-37-37V84.5a37 37 0 0 1 37-37h22.8a37 37 0 0 0-37 37v202.9a37 37 0 0 0 37 37Z"/>
  <path fill="#f1f4f6" d="M372 186c0-4.4-.4-8.6-1-12.7a8.8 8.8 0 0 1 4.2-9l11.6-6.7a8.8 8.8 0 0 0 3.2-12l-14.5-25.2a8.8 8.8 0 0 0-12-3.2l-11.6 6.7a8.8 8.8 0 0 1-10-.9 83 83 0 0 0-22-12.7 8.5 8.5 0 0 1-5.5-8V88.9c0-4.8-4-8.8-8.9-8.8h-29c-4.9 0-8.8 4-8.8 8.9v13.5c0 3.5-2.2 6.7-5.5 8-8 3-15.5 7.3-22 12.6a8.8 8.8 0 0 1-10 .9l-11.6-6.7a8.8 8.8 0 0 0-12 3.2l-14.6 25a8.8 8.8 0 0 0 3.2 12.1l11.6 6.7a8.8 8.8 0 0 1 4.3 9 80.8 80.8 0 0 0 0 25.3 8.8 8.8 0 0 1-4.3 9l-11.6 6.7a8.8 8.8 0 0 0-3.2 12l14.5 25.2a8.8 8.8 0 0 0 12 3.2l11.7-6.7a8.8 8.8 0 0 1 10 .8 81 81 0 0 0 22 12.8 8.5 8.5 0 0 1 5.5 8V283c0 5 4 8.9 8.8 8.9h29a9 9 0 0 0 8.9-8.9v-13.5c0-3.5 2.1-6.7 5.4-8 8.1-3 15.5-7.3 22.1-12.7a8.8 8.8 0 0 1 10-.8l11.6 6.7c4.2 2.4 9.6 1 12-3.2l14.5-25.2c2.5-4.2 1-9.6-3.2-12l-11.6-6.7a8.8 8.8 0 0 1-4.2-9c.6-4.2 1-8.4 1-12.7Zm-81 40a40 40 0 1 1 0-80 40 40 0 0 1 0 80Z"/>
  <path d="M470 28.2A28.2 28.2 0 0 0 441.6 0h-322A77.6 77.6 0 0 0 42 77.6v357a77.6 77.6 0 0 0 77.5 77.4h322.1a28.2 28.2 0 0 0 28.2-28.2V28.2ZM197 473.6c0 1.5-1 2.2-1.7 2.5-.5.3-1.7.6-3-.3l-12.8-10.1a17.7 17.7 0 0 0-22 0l-12.8 10c-1.2 1-2.3.7-3 .4-.5-.3-1.5-1-1.5-2.6v-60.1h56.7v60.2Zm-71.8-60.3v42.3h-5.6a21.2 21.2 0 0 1 0-42.3h5.6Zm86.7 0h211c-5 13.6-5 28.7 0 42.3h-211v-42.3Zm229.8 42.3h-2.4a46.2 46.2 0 0 1 0-42.3h2.4A28 28 0 0 0 455 410v48.9a28 28 0 0 0-13.2-3.3Zm-384.6-89c0-31.9 24-58.3 55-62v52.7a77.5 77.5 0 0 0-55 31.4v-22Zm55-285a77.5 77.5 0 0 0-53.8 29.9 62.7 62.7 0 0 1 53.8-49.8v20Zm-55-4c0-32 24-58.4 55-62.1v31.1a77.5 77.5 0 0 0-55 31.5v-.5Zm0 81.3c0-32 24-58.4 55-62.1v192.7a77.6 77.6 0 0 0-55 31.4V159ZM441.7 497h-322a62.6 62.6 0 0 1 0-125.1h40a7.5 7.5 0 0 0 0-15H127V15h314.6c7.3 0 13.2 6 13.2 13.2v332a28 28 0 0 0-13.2-3.3h-252a7.5 7.5 0 0 0 0 15h252a13 13 0 0 1 13.2 13v.3c0 7.2-6 13-13.2 13h-322a36.2 36.2 0 0 0 0 72.4h5.5v3a17.7 17.7 0 0 0 17.8 17.7c3.9 0 7.7-1.2 11-3.8l12.8-10c1-.9 2.4-.9 3.5 0l12.8 10c5.4 4.3 12.6 5 18.8 2 6.2-3 10-9.1 10-16v-3h229.8c7.3 0 13.2 6 13.2 13.2v.1c0 7.3-6 13.2-13.2 13.2Z"/>
  <path d="M385.4 331.9c24.5 0 44.5-20 44.5-44.5V84.5A44.5 44.5 0 0 0 385.4 40H196.7C172 40 152 60 152 84.5v202.9c0 24.5 20 44.5 44.6 44.5h188.7ZM167 287.4V84.5A29.6 29.6 0 0 1 196.7 55h188.7a29.6 29.6 0 0 1 29.5 29.5v202.9a29.6 29.6 0 0 1-29.5 29.5H196.7a29.6 29.6 0 0 1-29.6-29.5Z"/>
  <path d="M291 233.4a47.5 47.5 0 0 0 46.4-57.4 7.5 7.5 0 0 0-14.6 3.1 32.5 32.5 0 1 1-13.2-19.8 7.5 7.5 0 0 0 8.6-12.3 47.5 47.5 0 1 0-27.2 86.4Z"/>
  <path d="M210 262.8c4.2 1.2 8.6.6 12.4-1.6l11.5-6.7c.5-.2 1-.2 1.5.2a88.2 88.2 0 0 0 24.1 13.9c.4.1.7.5.7 1V283c0 9 7.3 16.4 16.3 16.4h29c9 0 16.4-7.3 16.4-16.4v-13.5c0-.4.2-.8.6-1 8.7-3.2 16.9-8 24.1-13.8.5-.4 1-.4 1.5-.2l11.6 6.7a16.2 16.2 0 0 0 22.3-6l14.5-25.1a16.2 16.2 0 0 0-6-22.3L379 201c-.5-.2-.7-.8-.6-1.4a88.7 88.7 0 0 0 0-27.5c-.1-.6.1-1.2.6-1.4l11.5-6.7a16.2 16.2 0 0 0 6-22.3l-14.5-25a16.2 16.2 0 0 0-22.3-6l-11.6 6.7c-.4.2-1 .2-1.5-.2a88.3 88.3 0 0 0-24-13.9 1 1 0 0 1-.7-1V88.9c0-9-7.4-16.3-16.4-16.3h-29c-9 0-16.3 7.3-16.3 16.3v13.5c0 .5-.3.8-.7 1a86 86 0 0 0-24 13.9c-.5.4-1.1.4-1.6.1l-11.6-6.6a16.2 16.2 0 0 0-22.3 6l-14.5 25a16.3 16.3 0 0 0 6 22.4l11.5 6.7c.5.2.8.8.7 1.3a88.9 88.9 0 0 0 0 27.6c0 .6-.2 1.1-.7 1.4l-11.5 6.7a16.3 16.3 0 0 0-6 22.3l14.5 25.1a16 16 0 0 0 10 7.6Zm-11-42 11.6-6.7c5.8-3.3 9-10 8-16.7a73.6 73.6 0 0 1 0-23c1-6.6-2.2-13.3-8-16.6L199 151c-.6-.4-.8-1.2-.5-1.8L213 124l.8-.6c.3 0 .7 0 1 .2l11.6 6.6A16.4 16.4 0 0 0 245 129a73 73 0 0 1 20-11.6 16.1 16.1 0 0 0 10.3-15V88.8c0-.7.6-1.3 1.3-1.3h29c.8 0 1.4.6 1.4 1.3v13.6c0 6.5 4.1 12.6 10.3 15 7.2 2.7 14 6.6 20 11.5a16.4 16.4 0 0 0 18.5 1.4l11.5-6.6c.4-.3.8-.2 1-.2.3.1.6.2.8.6l14.6 25.2c.2.4.2.7 0 1s-.1.6-.5.8l-11.6 6.7c-5.8 3.3-9 10-8 16.7a73.2 73.2 0 0 1 0 22.9c-1 6.6 2.2 13.3 8 16.7l11.6 6.7c.4.2.5.5.6.8l-.1 1-14.6 25.1c-.2.4-.5.6-.8.6h-1l-11.5-6.8a16.4 16.4 0 0 0-18.5 1.5 73 73 0 0 1-20 11.5 16.1 16.1 0 0 0-10.3 15V283c0 .8-.6 1.4-1.3 1.4h-29c-.8 0-1.4-.6-1.4-1.4v-13.5a16 16 0 0 0-10.3-15c-7.2-2.7-14-6.6-20-11.5a16.4 16.4 0 0 0-18.5-1.5l-11.5 6.7c-.4.2-.8.2-1 .1-.3 0-.6-.2-.8-.6l-14.6-25.1c-.3-.7-.1-1.5.5-1.8Z"/>
  </symbol>
  <symbol id="item-2949">
    <title>eee</title>
  </symbol>
  <symbol id="item-2950">
    <title>fff</title>
  </symbol>
  <symbol id="item-2951">
    <title>ggg</title>
  </symbol>
  <symbol id="item-2952">
    <title>hhh</title>
  </symbol>
  <symbol id="item-2953">
    <title>iii</title>
  </symbol>
  <symbol id="item-2954">
    <title>jjj</title>
  </symbol>
  <symbol id="item-2955">
    <title>kkk</title>
  </symbol>
  <symbol id="item-2956">
    <title>lll</title>
  </symbol>
  <symbol id="item-2957">
    <title>mmm</title>
  </symbol>
  <symbol id="item-2958">
    <title>nnn</title>
  </symbol>
  <symbol id="item-2959">
    <title>ooo</title>
  </symbol>
  <symbol id="item-2960">
    <title>ppp</title>
  </symbol>
  <symbol id="item-2961">
    <title>qqq</title>
  </symbol>
  <symbol id="item-2962">
    <title>rrr</title>
  </symbol>
  <symbol id="item-2963">
    <title>sss</title>
  </symbol>
  <symbol id="item-2964">
    <title>ttt</title>
  </symbol>
  <symbol id="item-2965">
    <title>uuu</title>
  </symbol>
  <symbol id="item-2966">
    <title>vvv</title>
  </symbol>
  <symbol id="item-2967">
    <title>www</title>
  </symbol>
  <symbol id="item-2968">
    <title>xxx</title>
  </symbol>
  <symbol id="item-2969">
    <title>yyy</title>
  </symbol>
  <symbol id="item-2970">
    <title>zzz</title>
  </symbol>
  <symbol id="item-2971">
    <title>aaa1</title>
  </symbol>
  <symbol id="item-2972">
    <title>bbb1</title>
  </symbol>
  <symbol id="item-2973">
    <title>ccc1</title>
  </symbol>
  <symbol id="item-2974">
    <title>ddd1</title>
  </symbol>
  <symbol id="item-2975">
    <title>eee1</title>
  </symbol>
  <symbol id="item-2976">
    <title>fff1</title>
  </symbol>
  <symbol id="item-2977">
    <title>ggg1</title>
  </symbol>
  <symbol id="item-2978">
    <title>hhh1</title>
  </symbol>
  <symbol id="item-2979">
    <title>iii1</title>
  </symbol>
  <symbol id="item-2980">
    <title>jjj1</title>
  </symbol>
  <symbol id="item-2981">
    <title>kkk1</title>
  </symbol>
  <symbol id="item-2982">
    <title>lll1</title>
  </symbol>
  <symbol id="item-2983">
    <title>mmm1</title>

  </symbol>
  <symbol id="item-2984">
    <title>nnn1</title>
  </symbol>
  <symbol id="item-2985">
    <title>ooo1</title>
  </symbol>
  <symbol id="item-2986">
    <title>ppp1</title>
  </symbol>
  <symbol id="item-2987">
    <title>qqq1</title>
  </symbol>
  <symbol id="item-2988">
    <title>rrr1</title>
  </symbol>
  <symbol id="item-2989">
    <title>sss1</title>
  </symbol>
  <symbol id="item-2990">
    <title>ttt1</title>
  </symbol>
  <symbol id="item-2991">
    <title>uuu1</title>
  </symbol>
  <symbol id="item-2992">
    <title>vvv1</title>
  </symbol>
  <symbol id="item-2993">
    <title>www1</title>
  </symbol>
  <symbol id="item-2994">
    <title>xxx1</title>
  </symbol>
  <symbol id="item-2995">
    <title>yyy1</title>
  </symbol>
  <symbol id="item-2996">
    <title>zzz1</title>
  </symbol>
  <symbol id="item-2997">
    <title>aaa2</title>
  </symbol>
  <symbol id="item-2998">
    <title>bbb2</title>
  </symbol>
  <symbol id="item-2999">
    <title>ccc2</title>
  </symbol>
  <symbol id="item-3000">
    <title>ddd2</title>
  </symbol>
  <symbol id="item-3001">
    <title>eee2</title>
  </symbol>
  <symbol id="item-3002">
    <title>fff2</title>
  </symbol>
  <symbol id="item-3003">
    <title>ggg2</title>
  </symbol>
  <symbol id="item-3004">
    <title>hhh2</title>
  </symbol>
  <symbol id="item-3005">
    <title>iii2</title>
  </symbol>
  <symbol id="item-3006">
    <title>jjj2</title>
  </symbol>
  <symbol id="item-3007">
    <title>kkk2</title>
  </symbol>
  <symbol id="item-3008">
    <title>lll2</title>
  </symbol>
  </defs>
  </svg>
