<svg xmlns="http://www.w3.org/2000/svg" viewBox="0 0 512 512">
  <defs>
    <symbol id="item-2945">
      <title>blinds</title>
<path fill="#62dbfb" d="M443.7 60.5H68.3a12 12 0 0 1-12.1-12.1V19.6a12 12 0 0 1 12.1-12h375.4a12 12 0 0 1 12 12v28.8a12 12 0 0 1-12 12.1Z"/>
  <path fill="#01d0fb" d="M443.7 7.5h-30a12 12 0 0 1 12 12.1v28.8a12 12 0 0 1-12 12.1h30a12 12 0 0 0 12.1-12.1V19.6a12 12 0 0 0-12.1-12Z"/>
  <path fill="#dff6fd" d="M418 60.5H94a9.4 9.4 0 0 0-9.4 9.4v15.4c0 5.2 4.2 9.4 9.4 9.4h324c5.2 0 9.4-4.2 9.4-9.4V69.9c0-5.2-4.2-9.4-9.4-9.4Z"/>
  <path fill="#f2fbff" d="M418 94.7H94a9.4 9.4 0 0 0-9.4 9.3v15.5c0 5.1 4.2 9.3 9.4 9.3h324c5.2 0 9.4-4.2 9.4-9.4V104c0-5.1-4.2-9.3-9.4-9.3Z"/>
  <path fill="#dff6fd" d="M418 128.8H94a9.4 9.4 0 0 0-9.4 9.4v15.4c0 5.2 4.2 9.4 9.4 9.4h324c5.2 0 9.4-4.2 9.4-9.4v-15.4c0-5.2-4.2-9.4-9.4-9.4Z"/>
  <path fill="#f2fbff" d="M418 163H94a9.4 9.4 0 0 0-9.4 9.3v15.5c0 5.1 4.2 9.3 9.4 9.3h324c5.2 0 9.4-4.2 9.4-9.3v-15.5c0-5.1-4.2-9.3-9.4-9.3Z"/>
  <path fill="#dff6fd" d="M418 197.1H94a9.4 9.4 0 0 0-9.4 9.4v15.4c0 5.2 4.2 9.4 9.4 9.4h324c5.2 0 9.4-4.2 9.4-9.4v-15.4c0-5.2-4.2-9.4-9.4-9.4Z"/>
  <path fill="#f2fbff" d="m418 299.6-189.5-8.2L94 299.6a9.4 9.4 0 0 0-9.4 9.3v15.5c0 5.1 4.2 9.3 9.4 9.3h324c5.2 0 9.4-4.1 9.4-9.3V309c0-5.2-4.2-9.4-9.4-9.4Zm0-68.3H94a9.4 9.4 0 0 0-9.4 9.3v15.5c0 5.1 4.2 9.3 9.4 9.3h324c5.2 0 9.4-4.2 9.4-9.3v-15.5c0-5.1-4.2-9.3-9.4-9.3Z"/>
  <path fill="#dff6fd" d="M418 265.4H94a9.4 9.4 0 0 0-9.4 9.4v15.4c0 5.2 4.2 9.4 9.4 9.4h324c5.2 0 9.4-4.2 9.4-9.4v-15.4c0-5.2-4.2-9.4-9.4-9.4Zm0 68.3H94a9.4 9.4 0 0 0-9.4 9.4v15.4c0 5.2 4.2 9.4 9.4 9.4h324c5.2 0 9.4-4.2 9.4-9.4v-15.4c0-5.2-4.2-9.4-9.4-9.4Z"/>
  <path fill="#f2fbff" d="M418 367.9H94a9.4 9.4 0 0 0-9.4 9.4v15.4c0 5.2 4.2 9.4 9.4 9.4h324c5.2 0 9.4-4.2 9.4-9.4v-15.4c0-5.2-4.2-9.4-9.4-9.4Z"/>
  <path fill="#dff6fd" d="M418 402H94a9.4 9.4 0 0 0-9.4 9.4v15.4c0 5.2 4.2 9.4 9.4 9.4h324c5.2 0 9.4-4.2 9.4-9.4v-15.4c0-5.2-4.2-9.4-9.4-9.4Z"/>
  <path fill="#f2fbff" d="M418 436.2H94a9.4 9.4 0 0 0-9.4 9.4V461c0 5.2 4.2 9.4 9.4 9.4h324c5.2 0 9.4-4.2 9.4-9.4v-15.4c0-5.2-4.2-9.4-9.4-9.4Z"/>
  <path fill="#dff6fd" d="M418 470.4H94a9.4 9.4 0 0 0-9.4 9.3v15.4c0 5.2 4.2 9.4 9.4 9.4h324c5.2 0 9.4-4.2 9.4-9.4v-15.4c0-5.1-4.2-9.3-9.4-9.3Z"/>
  <path fill="#c8effe" d="M427.4 69.9v15.4c0 5.2-4.2 9.4-9.4 9.4h-30.3c5.2 0 9.4-4.2 9.4-9.4V69.9c0-5.2-4.2-9.4-9.4-9.4H418c5.2 0 9.4 4.2 9.4 9.4Z"/>
  <path fill="#dff6fd" d="M427.4 104v15.4c0 5.2-4.2 9.4-9.4 9.4h-30.3c5.2 0 9.4-4.2 9.4-9.4V104c0-5.1-4.2-9.3-9.4-9.3H418c5.2 0 9.4 4.2 9.4 9.3Z"/>
  <path fill="#c8effe" d="M427.4 138.2v15.4c0 5.2-4.2 9.4-9.4 9.4h-30.3c5.2 0 9.4-4.2 9.4-9.4v-15.4c0-5.2-4.2-9.4-9.4-9.4H418c5.2 0 9.4 4.2 9.4 9.4Z"/>
  <path fill="#dff6fd" d="M427.4 172.3v15.5c0 5.1-4.2 9.3-9.4 9.3h-30.3c5.2 0 9.4-4.2 9.4-9.3v-15.5c0-5.1-4.2-9.3-9.4-9.3H418c5.2 0 9.4 4.2 9.4 9.3Z"/>
  <path fill="#c8effe" d="M427.4 206.5v15.4c0 5.2-4.2 9.4-9.4 9.4h-30.3c5.2 0 9.4-4.2 9.4-9.4v-15.4c0-5.2-4.2-9.4-9.4-9.4H418c5.2 0 9.4 4.2 9.4 9.4Z"/>
  <path fill="#dff6fd" d="M427.4 309v15.4c0 5.2-4.2 9.3-9.4 9.3h-30.3c5.2 0 9.4-4.1 9.4-9.3V306c0-3-1.4-5.8-3.7-7.5l24.6 1c5.2 0 9.4 4.3 9.4 9.4Zm0-68.4v15.5c0 5.1-4.2 9.3-9.4 9.3h-30.3c5.2 0 9.4-4.2 9.4-9.3v-15.5c0-5.1-4.2-9.3-9.4-9.3H418c5.2 0 9.4 4.2 9.4 9.3Z"/>
  <path fill="#c8effe" d="M427.4 274.8v15.4c0 5.2-4.2 9.4-9.4 9.4h-30.3c5.2 0 9.4-4.2 9.4-9.4v-15.4c0-5.2-4.2-9.4-9.4-9.4H418c5.2 0 9.4 4.2 9.4 9.4Zm0 68.3v15.4c0 5.2-4.2 9.4-9.4 9.4h-30.3c5.2 0 9.4-4.2 9.4-9.4v-15.4c0-5.2-4.2-9.4-9.4-9.4H418c5.2 0 9.4 4.2 9.4 9.4Z"/>
  <path fill="#dff6fd" d="M427.4 377.3v15.4c0 5.2-4.2 9.3-9.4 9.3h-30.3c5.2 0 9.4-4.1 9.4-9.3v-15.4c0-5.2-4.2-9.4-9.4-9.4H418c5.2 0 9.4 4.2 9.4 9.4Z"/>
  <path fill="#c8effe" d="M427.4 411.4v15.4c0 5.2-4.2 9.4-9.4 9.4h-30.3c5.2 0 9.4-4.2 9.4-9.4v-15.4c0-5.2-4.2-9.4-9.4-9.4H418c5.2 0 9.4 4.2 9.4 9.4Z"/>
  <path fill="#dff6fd" d="M427.4 445.6V461c0 5.2-4.2 9.3-9.4 9.3h-30.3c5.2 0 9.4-4.1 9.4-9.3v-15.4c0-5.2-4.2-9.4-9.4-9.4H418c5.2 0 9.4 4.2 9.4 9.4Z"/>
  <path fill="#c8effe" d="M427.4 479.7v15.4c0 5.2-4.2 9.4-9.4 9.4h-30.3c5.2 0 9.4-4.2 9.4-9.4v-15.4c0-5.1-4.2-9.3-9.4-9.3H418c5.2 0 9.4 4.2 9.4 9.3Z"/>
  <path d="M471.7 26.5h-8.4v-6.9c0-10.8-8.8-19.6-19.6-19.6H68.3a19.6 19.6 0 0 0-19.6 19.6v6.9h-8.4a7.5 7.5 0 0 0 0 15h8.4v6.9c0 10.8 8.8 19.6 19.6 19.6h8.8v17.3c0 3.4 1 6.7 2.9 9.4a16.7 16.7 0 0 0-3 9.3v15.4c0 3.5 1 6.7 2.9 9.4a16.7 16.7 0 0 0-2.9 9.4v15.4c0 3.5 1 6.7 2.9 9.4a16.7 16.7 0 0 0-2.9 9.3v15.5c0 3.4 1 6.6 2.9 9.3a16.7 16.7 0 0 0-2.9 9.4v15.4c0 3.5 1 6.7 2.9 9.4a16.7 16.7 0 0 0-2.9 9.4V256c0 3.4 1 6.7 2.9 9.3a16.7 16.7 0 0 0-2.9 9.4v15.4c0 3.5 1 6.7 2.9 9.4A16.7 16.7 0 0 0 77 309v15.4c0 3.5 1 6.7 2.9 9.4A16.7 16.7 0 0 0 77 343v15.5c0 3.4 1 6.7 2.9 9.3a16.7 16.7 0 0 0-2.9 9.4v15.4c0 3.5 1 6.7 2.9 9.4a16.7 16.7 0 0 0-2.9 9.4v15.4c0 3.4 1 6.7 2.9 9.4a16.7 16.7 0 0 0-2.9 9.3V461c0 3.5 1 6.7 2.9 9.4a16.7 16.7 0 0 0-2.9 9.4v15.4a17 17 0 0 0 16.9 16.9h324a17 17 0 0 0 16.9-16.9v-15.4c0-3.5-1-6.7-2.9-9.4 1.8-2.7 2.9-5.9 2.9-9.4v-15.4c0-3.4-1-6.7-2.9-9.3 1.8-2.7 2.9-6 2.9-9.4v-15.4c0-3.5-1-6.7-2.9-9.4 1.8-2.7 2.9-6 2.9-9.4v-15.4c0-3.5-1-6.7-2.9-9.4 1.8-2.6 2.9-5.9 2.9-9.3V343c0-3.4-1-6.6-2.9-9.3 1.8-2.7 2.9-6 2.9-9.4V309c0-3.5-1-6.7-2.9-9.4 1.8-2.7 2.9-5.9 2.9-9.4v-15.4c0-3.4-1-6.7-2.9-9.4 1.8-2.6 2.9-5.8 2.9-9.3v-15.4c0-3.5-1-6.7-2.9-9.4 1.8-2.7 2.9-6 2.9-9.4v-15.4c0-3.5-1-6.7-2.9-9.4 1.8-2.6 2.9-5.9 2.9-9.3v-15.5c0-3.4-1-6.7-2.9-9.3 1.8-2.7 2.9-6 2.9-9.4v-15.4c0-3.5-1-6.7-2.9-9.4 1.8-2.7 2.9-5.9 2.9-9.4V104c0-3.4-1-6.7-2.9-9.4 1.8-2.6 2.9-5.9 2.9-9.3V68h8.8c1.6 0 3.1-.2 4.6-.6v138.2a7.5 7.5 0 0 0 15 0v-164h8.4a7.5 7.5 0 0 0 0-15ZM325.3 15l-3.8 5.6a13.5 13.5 0 0 1-11.2 6H201.7c-4.5 0-8.7-2.3-11.2-6l-3.8-5.6h138.6ZM139.7 497H94c-1 0-1.9-.8-1.9-1.9v-15.4c0-1 .9-1.8 1.9-1.8h45.7V497Zm0-34.1H94c-1 0-1.9-.9-1.9-2v-15.3a2 2 0 0 1 1.9-1.9h45.7V463Zm0-34.2H94c-1 0-1.9-.8-1.9-1.9v-15.4c0-1 .9-1.8 1.9-1.8h45.7v19.1Zm0-34.1H94c-1 0-1.9-.9-1.9-2v-15.3a2 2 0 0 1 1.9-1.9h45.7v19.2Zm0-34.2H94c-1 0-1.9-.8-1.9-1.9v-15.4c0-1 .9-1.8 1.9-1.8h45.7v19.1Zm0-34.1H94c-1 0-1.9-.9-1.9-2V309a2 2 0 0 1 1.9-1.9h45.7v19.2Zm0-34.2H94c-1 0-1.9-.8-1.9-1.9v-15.4c0-1 .9-1.8 1.9-1.8h45.7v19Zm0-34.1H94c-1 0-1.9-.9-1.9-2v-15.3a2 2 0 0 1 1.9-1.9h45.7V258Zm0-34.2H94c-1 0-1.9-.8-1.9-1.9v-15.4c0-1 .9-1.8 1.9-1.8h45.7v19.1Zm0-34.1H94c-1 0-1.9-.9-1.9-2v-15.3a2 2 0 0 1 1.9-1.9h45.7v19.2Zm0-34.2H94c-1 0-1.9-.8-1.9-1.9v-15.4c0-1 .9-1.8 1.9-1.8h45.7v19.1Zm0-34.1H94c-1 0-1.9-.9-1.9-2v-15.3a2 2 0 0 1 1.9-1.9h45.7v19.2Zm0-34.2H94c-1 0-1.9-.8-1.9-1.9V70c0-1 .9-1.8 1.9-1.8h45.7v19.1ZM357.3 497H154.7v-19h202.6v19Zm0-34.1H154.7v-19.2h202.6V463Zm0-34.2H154.7v-19.1h202.6v19.1Zm0-34.1H154.7v-19.2h202.6v19.2Zm0-34.2H154.7v-19.1h202.6v19.1Zm0-68.3H182.5a7.5 7.5 0 0 0 0 15h174.8v19.2H154.7V273h202.6v19Zm0-34.1H154.7v-19.2h202.6V258Zm0-34.2H154.7v-19.1h202.6v19.1Zm0-34.1H154.7v-19.2h202.6v19.2Zm0-34.2H154.7v-19.1h202.6v19.1Zm0-34.1H154.7v-19.2h202.6v19.2Zm0-34.2H154.7V68.1h202.6v19.1Zm62.6 408a2 2 0 0 1-1.9 1.9h-45.7v-19.2H418c1 0 1.9.9 1.9 1.9v15.4Zm0-34.1c0 1-.9 1.8-1.9 1.8h-45.7v-19.1H418c1 0 1.9.8 1.9 1.8v15.5Zm0-34.2a2 2 0 0 1-1.9 1.9h-45.7v-19.2H418c1 0 1.9.9 1.9 1.9v15.4Zm0-34.1c0 1-.9 1.8-1.9 1.8h-45.7v-19.1H418c1 0 1.9.8 1.9 1.8v15.5Zm0-34.2a2 2 0 0 1-1.9 1.9h-45.7v-19.2H418c1 0 1.9.9 1.9 1.9v15.4Zm0-34.1c0 1-.9 1.8-1.9 1.8h-45.7v-19.1H418c1 0 1.9.8 1.9 1.8v15.5Zm0-34.2a2 2 0 0 1-1.9 1.9h-45.7V273H418c1 0 1.9.9 1.9 1.9v15.4Zm0-34.1c0 1-.9 1.8-1.9 1.8h-45.7v-19H418c1 0 1.9.8 1.9 1.8v15.5Zm0-34.2a2 2 0 0 1-1.9 1.9h-45.7v-19.2H418c1 0 1.9.9 1.9 1.9V222Zm0-34.1c0 1-.9 1.8-1.9 1.8h-45.7v-19.1H418c1 0 1.9.8 1.9 1.8V188Zm0-34.2a2 2 0 0 1-1.9 1.9h-45.7v-19.2H418c1 0 1.9.9 1.9 1.9v15.4Zm0-34.1c0 1-.9 1.8-1.9 1.8h-45.7v-19.1H418c1 0 1.9.8 1.9 1.8v15.5Zm0-34.2a2 2 0 0 1-1.9 1.9h-45.7V68H418c1 0 1.9.9 1.9 1.9v15.4Zm28.4-36.9c0 2.6-2 4.6-4.6 4.6H68.3c-2.5 0-4.6-2-4.6-4.6V19.8c0-2.6 2-4.7 4.6-4.7h100.2l9.6 14.1a28.5 28.5 0 0 0 23.6 12.4h108.6c9.5 0 18.3-4.6 23.6-12.4l9.6-14h100.2c2.5 0 4.6 2 4.6 4.6v28.7Z"/>
  <path d="M455.8 233.2a7.5 7.5 0 0 0-7.5 7.5V270a7.5 7.5 0 0 0 15 0v-29.2c0-4.1-3.4-7.5-7.5-7.5Z"/>
    </symbol>
    <symbol id="item-2946">
      <title>lyre</title>
<path fill="#e08d63" d="M404.6 54.6a32.2 32.2 0 1 0 28.6-47.1c-57.5 0-66.9 68-66.9 68-73.5-9.3-147-9.3-220.6 0 0 0-9.2-66.6-65-68a32.8 32.8 0 0 0-34 32.6 32.2 32.2 0 0 0 60.7 14.5l8.8 60.5c1.9 12.8.8 25.9-3.2 38.2L61.8 310a143.8 143.8 0 0 0 138.3 183.3H312A143.8 143.8 0 0 0 450.3 310L399 153.3a84.2 84.2 0 0 1-3.3-38.2l8.8-60.5Z"/>
  <path fill="#d77f4a" d="M112.6 60a23 23 0 0 0 21.3 15.4c5.1.2 9.8.2 11.8 0 0 0-9.2-66.5-65-67.9-4.9 0-9.5.8-13.7 2.6 27 8 40 33.2 45.6 49.9Zm292-5.4 1.6 2.7c-.2-1-.7-2-1.6-2.7Zm-5.6 98.7a84.2 84.2 0 0 1-3.2-38.2l8.8-60.5h-16.1c-8 0-14.8 5.8-16 13.8l-6.8 46.7a84.2 84.2 0 0 0 3.3 38.2L420.1 310a143.8 143.8 0 0 1-138.3 183.3h30A143.8 143.8 0 0 0 450.2 310L399 153.3ZM433.1 7.5c-6.5 0-12.4.9-17.7 2.4a32.2 32.2 0 0 1 2.7 58.3 32.2 32.2 0 1 0 15-60.7Z"/>
  <path fill="#ffe177" d="M340 453.5H172a14.6 14.6 0 0 1 0-29.3h168a14.6 14.6 0 0 1 0 29.3Z"/>
  <path fill="#ffd15b" d="M340 424.2h-27a14.6 14.6 0 0 1 0 29.3h27a14.6 14.6 0 0 0 0-29.3Z"/>
  <circle cx="129.1" cy="365" r="22.3" fill="#ffe177"/>
  <circle cx="382.9" cy="365" r="22.3" fill="#ffe177"/>
  <ellipse cx="256" cy="220.3" fill="#8680c1" rx="100.7" ry="53.4"/>
  <path fill="#7171b5" d="M256 167c-4.2 0-8.4 0-12.5.3 49.7 3.3 88.1 25.8 88.1 53s-38.4 49.8-88.1 53c4 .3 8.3.4 12.5.4 55.6 0 100.7-23.9 100.7-53.4S311.7 167 256 167Z"/>
  <path d="M409.6 71.8A39.8 39.8 0 1 0 433.1 0c-26.6 0-48 13.3-61.8 38.4a7.5 7.5 0 0 0 13.1 7.3C395.6 25.3 412 15 433.1 15a24.6 24.6 0 0 1 24.6 26.5 24.7 24.7 0 0 1-46.6 9.6 7.5 7.5 0 0 0-14 2.4l-8.8 60.5a93 93 0 0 0 3.6 41.6l51 156.7a136 136 0 0 1-38.2 137.1 135.8 135.8 0 0 1-77.4 35.7V461H340a22.1 22.1 0 0 0 0-44.3h-12.7V266.5c22.7-11 36.9-27.5 36.9-46.2s-14.2-35-37-46.2V145h27.5a7.5 7.5 0 0 0 0-15h-27.4V79a885 885 0 0 1 38 4 7.5 7.5 0 0 0 2-15c-71.6-9-144-9.2-215.6-.8-1.7-6.9-5-17.8-11-28.8C127.2 14 106.5.7 80.8 0c-11-.3-22 4-29.9 11.8a38.9 38.9 0 0 0-11.8 28.3 39.8 39.8 0 0 0 63.2 31.6l6.5 44.5c1.7 11.6.7 23.6-3 34.7l-51 156.9-.2.2a150.8 150.8 0 0 0 42.5 152.4c22.7 21.1 51 34.6 81.2 39l-.5.5a7.5 7.5 0 1 0 12 9.1l2.4-3.2 2.5 3.2a7.5 7.5 0 0 0 12.6-8h12.4a7.5 7.5 0 0 0 12.5 8l2.5-3.2 2.5 3.2a7.5 7.5 0 0 0 12.6-8h12.4a7.5 7.5 0 0 0 12.5 8l2.5-3.2 2.5 3.2a7.5 7.5 0 0 0 12.6-8h12.4a7.5 7.5 0 0 0 12.5 8l2.5-3.2 2.5 3.3a7.5 7.5 0 1 0 12-9.2l-.5-.5a150.8 150.8 0 0 0 129-138.7 151 151 0 0 0-5.4-53L406 151a77.2 77.2 0 0 1-3-34.8l6.5-44.4Zm-97.3 414.1h-27.5v-25h27.5v25Zm-112.6 0v-25h27.5v25h-27.5Zm0-54.2h27.5V446h-27.5v-14.3Zm-15 14.3H172a7.1 7.1 0 0 1 0-14.3h12.8V446Zm42.5-301v16.5c-9.8 1.5-19 3.7-27.5 6.6v-23.2h27.5Zm-27.5-15V77.7c9.2-.5 18.3-1 27.5-1.3V130h-27.5Zm42.5 15h27.6v14.9c-8-.5-18-.7-27.6 0v-15Zm-57.5 104.4c-14-8.3-21.9-18.7-21.9-29s8-20.8 22-29.2v58.2Zm15-65.4c8.4-3.2 17.7-5.7 27.5-7.3V264c-9.8-1.7-19.1-4.1-27.5-7.4V184Zm42.5-9c8-.6 17.9-.8 27.6 0v90.7c-8 .6-17.9.8-27.6 0V175Zm70 81.6a139 139 0 0 1-27.4 7.4v-87.3c9.8 1.7 19.1 4.1 27.5 7.4v72.6ZM256 281.3c4.7 0 9.3-.2 13.8-.5v136h-27.6v-136c4.5.3 9.1.4 13.8.4Zm13.8 150.5V446h-27.6v-14.2h27.6Zm15 0h27.5V446h-27.5v-14.2ZM242.2 461h27.6v25h-27.6v-25Zm97.9-29.2a7.1 7.1 0 0 1 0 14.2h-12.8v-14.2H340Zm-27.8-15h-27.5V279.2c9.8-1.5 19-3.7 27.5-6.6v144.2Zm36.9-196.4c0 10.3-8 20.7-22 29v-58.1c14 8.3 22 18.7 22 29Zm-37-52.3a157 157 0 0 0-27.4-6.6V145h27.5v23.2Zm0-38.2h-27.4V76.5c9.1.3 18.3.8 27.5 1.4v52Zm-42.4-53.7v53.7h-27.6V76.2c9.2-.2 18.4-.2 27.6 0ZM64.2 359.5c-1.2-16 .4-31.8 4.8-47.2l51-156.7a92.1 92.1 0 0 0 3.6-41.6L115 53.5a7.5 7.5 0 0 0-14.1-2.4 24.7 24.7 0 1 1-39.4-28.6c5-5 12-7.7 19-7.5 20.3.5 36 10.7 47 30.3a101 101 0 0 1 10.9 31.1c.5 4.1 4.3 7 8.3 6.5a820 820 0 0 1 38.1-4v51h-27.4a7.5 7.5 0 0 0 0 15h27.4v29.3c-22.7 11-36.9 27.5-36.9 46.2s14.2 35 37 46.1v80.9a7.5 7.5 0 0 0 15 0v-74.8a157 157 0 0 0 27.4 6.6v137.6h-27.5v-34.3a7.5 7.5 0 0 0-15 0v34.3H172a22.1 22.1 0 0 0 0 44.2h12.7v24A136 136 0 0 1 64.2 359.7Z"/>
  <path d="M158.9 365a29.8 29.8 0 0 0-39.7-28.1 87.3 87.3 0 0 1 12-20.7 29 29 0 0 0 6.7-22 33.7 33.7 0 0 0-13-21 7.5 7.5 0 0 0-8.8 12.2s6 4.6 7 10.9c.4 3.4-.8 7-3.7 10.7-22.3 28.7-20.5 54.6-20 58.5a29.8 29.8 0 0 0 59.5-.5ZM129 379.8a14.8 14.8 0 1 1 0-29.6 14.8 14.8 0 0 1 0 29.6ZM353.1 365a29.8 29.8 0 0 0 59.6.5c.4-3.9 2.2-29.8-20.1-58.5-3-3.7-4.1-7.2-3.7-10.7.9-6.3 7-10.9 7-10.9a7.5 7.5 0 1 0-8.8-12.2c-1.1.9-11.2 8.5-13 21a29 29 0 0 0 6.6 22 87.3 87.3 0 0 1 12.1 20.7 29.7 29.7 0 0 0-39.7 28Zm29.8 14.8a14.8 14.8 0 1 1 0-29.6 14.8 14.8 0 0 1 0 29.6Z"/>
    </symbol>
    <symbol id="item-2947">
      <title>book shelves</title>
<path fill="#e19974" d="M498 430H14a6.4 6.4 0 0 1-6.5-6.5v-22.8c0-3.6 2.9-6.5 6.4-6.5h484.2c3.5 0 6.4 3 6.4 6.5v22.8c0 3.6-2.9 6.5-6.4 6.5Zm0-285.8H160a6.4 6.4 0 0 1-6.4-6.5V115c0-3.6 3-6.5 6.5-6.5h338c3.5 0 6.4 3 6.4 6.5v22.8c0 3.6-2.9 6.5-6.4 6.5Z"/>
  <path fill="#d77f4a" d="M199 144.2h47.3v52.2a14.2 14.2 0 0 1-27.7 4.6L199 144.1Zm212.8 0h47.4v52.2a14.2 14.2 0 0 1-27.7 4.6l-19.7-56.9Z"/>
  <path fill="#dc8758" d="M498 394.2h-30c3.6 0 6.5 3 6.5 6.5v22.8c0 3.6-2.9 6.5-6.4 6.5h30c3.5 0 6.4-3 6.4-6.5v-22.8c0-3.6-2.9-6.5-6.4-6.5Z"/>
  <path fill="#d77f4a" d="M54.4 430h47.3v52a14.2 14.2 0 0 1-27.7 4.7l-19.6-56.9Zm356 0h47.3v52a14.2 14.2 0 0 1-27.7 4.7l-19.6-56.9Z"/>
  <path fill="#6c7fd8" d="M451.6 394.2h-24.4c-5 0-9-4-9-9V261.7c0-5 4-9 9-9h24.4c5 0 9 4 9 9v123.5c0 5-4 9-9 9Z"/>
  <path fill="#62dbfb" d="M409.1 394.2h-24.4c-5 0-9-4-9-9V261.7c0-5 4-9 9-9h24.4c5 0 9 4 9 9v123.5c0 5-4 9-9 9Z"/>
  <path fill="#ffe177" d="M282 394.2h-24.4c-5 0-9-4-9-9V261.7c0-5 4-9 9-9H282c5 0 9 4 9 9v123.5c0 5-4 9-9 9Z"/>
  <path fill="#cb97e7" d="m319.6 393.6-22.8-8.6a9 9 0 0 1-5.2-11.7L335.4 258a9 9 0 0 1 11.7-5.3l22.8 8.7a9 9 0 0 1 5.2 11.6l-43.8 115.5a9 9 0 0 1-11.7 5.2Z"/>
  <circle cx="137.8" cy="321.7" r="47.7" fill="#fff6ce" transform="rotate(-85.9 137.8 321.7)"/>
  <path fill="#ffe177" d="m116.2 279.1-38.8 18.1-4.7-10.1a21.4 21.4 0 0 1 38.8-18.1l4.7 10.1Zm43.2 0 38.8 18.1 4.7-10.1a21.4 21.4 0 0 0-38.8-18.1l-4.7 10.1Z"/>
  <path fill="#6c7fd8" d="M319 99.4V75c0-5 4.1-9 9-9h123.6c5 0 9 4 9 9v24.4c0 5-4 9-9 9H328c-5 0-9-4-9-9Z"/>
  <path fill="#62dbfb" d="M319 57V32.4c0-5 4.1-9 9-9h123.6c5 0 9 4 9 9V57c0 5-4 9-9 9H328c-5 0-9-4-9-9Z"/>
  <path fill="#4f66d0" d="M460.6 75v24.4c0 5-4 9-9 9h-30c5 0 9-4 9-9V75c0-5-4-9-9-9h30c5 0 9 4 9 9Z"/>
  <path fill="#01d0fb" d="M460.6 32.5V57c0 5-4 9-9 9h-30c5 0 9-4 9-9V32.5c0-5-4-9-9-9h30c5 0 9 4 9 9Z"/>
  <path fill="#dc8758" d="M498 108.4h-30c3.6 0 6.5 3 6.5 6.5v22.8c0 3.6-2.9 6.5-6.4 6.5h30c3.5 0 6.4-3 6.4-6.5V115c0-3.6-2.9-6.5-6.4-6.5Z"/>
  <path fill="#4f66d0" d="M451.6 252.7h-24.7a9 9 0 0 1 8.7 9v123.5a9 9 0 0 1-8.7 9h24.7c5 0 9-4 9-9V261.7c0-5-4-9-9-9Z"/>
  <path fill="#01d0fb" d="M409.1 252.7h-24.7a9 9 0 0 1 8.7 9v123.5a9 9 0 0 1-8.7 9h24.7c5 0 9-4 9-9V261.7c0-5-4-9-9-9Z"/>
  <path fill="#ffd15b" d="M282 252.7h-24.7a9 9 0 0 1 8.7 9v123.5a9 9 0 0 1-8.7 9H282c5 0 9-4 9-9V261.7c0-5-4-9-9-9Z"/>
  <path fill="#bd80e1" d="m369.9 261.3-22.8-8.7a9 9 0 0 0-11.6 5.1l9.4 3.6a9 9 0 0 1 5.2 11.6l-43.8 115.5v.1l13.3 5.1a9 9 0 0 0 11.7-5.2L375 273a9 9 0 0 0-5.2-11.6Z"/>
  <path fill="#fff1b6" d="M137.8 274c-5 0-10 .8-14.5 2.2a47.7 47.7 0 0 1 0 90.9 47.7 47.7 0 1 0 14.5-93.1Z"/>
  <path fill="#dff6fd" d="M243.3 108.4H202c-8 0-14.4-6.4-14.4-14.4V30c0-8 6.5-14.4 14.5-14.4h41.3c8 0 14.5 6.5 14.5 14.5v63.8c0 8-6.5 14.5-14.5 14.5Z"/>
  <path fill="#c8effe" d="M257.8 30v64c0 8-6.5 14.4-14.5 14.4h-30c8 0 14.5-6.5 14.5-14.5V30.1c0-8-6.5-14.5-14.5-14.5h30c8 0 14.5 6.5 14.5 14.5Z"/>
  <path d="M498 101h-29.9V75c0-3.3-1-6.4-2.7-9 1.7-2.6 2.7-5.7 2.7-9V32.4c0-9-7.4-16.5-16.5-16.5H328c-9.1 0-16.6 7.4-16.6 16.5V57c0 3.4 1 6.5 2.7 9a16.5 16.5 0 0 0-2.7 9.1v26h-47.3c.7-2.3 1.1-4.6 1.1-7v-8.7l21-9.1a20.2 20.2 0 0 0 12.3-18.6V42.8c0-11.2-9.1-20.2-20.2-20.2H264A22 22 0 0 0 243.3 8H202a22 22 0 0 0-22 22v63.8c0 2.5.5 4.8 1.2 7h-21a14 14 0 0 0-14 14v22.8a14 14 0 0 0 14 14h33.5l18 51.8a21.7 21.7 0 0 0 42.2-7.2V144c0-4-3.4-7.5-7.5-7.5h-85.2V116H497v20.7H281.4a7.5 7.5 0 0 0 0 15h125l18 51.8a21.8 21.8 0 0 0 42.3-7v-44.8H498a14 14 0 0 0 13.9-13.9v-22.9a14 14 0 0 0-14-13.9ZM265.4 37.5h13c3 0 5.3 2.3 5.3 5.2v14.8c0 2-1.3 4-3.2 4.8l-15 6.5V37.6Zm-26.5 114v44.8a6.7 6.7 0 0 1-13 2.2l-16.3-47h29.3ZM250.3 94a7 7 0 0 1-7 7H202a7 7 0 0 1-7-7V30a7 7 0 0 1 7-6.9h41.3a7 7 0 0 1 7 7v63.8Zm160.4 7H328c-.8 0-1.5-.8-1.5-1.6V75c0-.9.6-1.6 1.5-1.6h82.6V101Zm0-42.5H328c-.8 0-1.5-.7-1.5-1.6V32.5c0-.8.6-1.5 1.5-1.5h82.6v27.4ZM453 99.4c0 .8-.7 1.5-1.5 1.5h-26V73.5h26c.8 0 1.5.7 1.5 1.5v24.4Zm0-42.5c0 .9-.7 1.6-1.5 1.6h-26V31h26c.8 0 1.5.7 1.5 1.5V57Zm-1.4 139.4a6.7 6.7 0 0 1-13.1 2.2l-16.3-46.9h29.4v44.7ZM498 386.7h-29.9V355c0-4.1-3.3-7.5-7.5-7.5h-35v-85.7c0-.9.8-1.5 1.6-1.5h24.4c.8 0 1.5.6 1.5 1.5v58a7.5 7.5 0 0 0 15 0v-58c0-9.1-7.4-16.5-16.5-16.5h-24.4c-3.3 0-6.4 1-9 2.7a16.4 16.4 0 0 0-9-2.7h-24.5c-6 0-11.4 3.3-14.3 8.3l-20.7-7.9a16.4 16.4 0 0 0-21.3 9.6l-29.8 78.6v-72.1c0-9.1-7.4-16.5-16.6-16.5h-24.4c-9 0-16.5 7.4-16.5 16.5v125h-53l-16-22a55 55 0 0 0 17-63.4l6 2.7c2.4 1.4 7.4 1 9.9-3.6l4.7-10.1a28.7 28.7 0 0 0-14-38.5 28.7 28.7 0 0 0-31.2 4.5l-5.4-7.7a26 26 0 0 0-42.5 0l-5.4 7.7a29 29 0 0 0-45.3 34l4.7 10.1c1.9 2 1.5 3.7 6.8 4.3 1.1 0 2.2-.2 3.2-.7l6-2.7a54.9 54.9 0 0 0 17.3 63.9l-12.8 21.5H13.9a14 14 0 0 0-13.9 14v22.8a14 14 0 0 0 14 14h35l18 51.8a21.8 21.8 0 0 0 42.2-7.1v-44.7H405l18 51.8a21.8 21.8 0 0 0 42.2-7.1v-44.7h32.9a14 14 0 0 0 13.9-14v-22.8a14 14 0 0 0-14-14Zm-72.3-24.3H453v22.8c0 .8-.7 1.5-1.5 1.5h-24.4c-.9 0-1.5-.7-1.5-1.5v-22.8Zm-42.5-100.7c0-.9.7-1.5 1.5-1.5h24.4c.9 0 1.6.6 1.6 1.5v123.5c0 .8-.7 1.5-1.6 1.5h-24.4c-.8 0-1.5-.7-1.5-1.5V261.7Zm-15 125H340l28.3-74.4v74.4Zm-69.6-10.6v-.1l43.8-115.5c.2-.5.6-.7.8-.8l.7-.2.5.1 22.8 8.7c.8.3 1.2 1.2 1 2l-44 115.4c-.1.5-.4.8-.7.9-.3.1-.7.2-1.2 0l-22.8-8.6a2 2 0 0 1-1-1v-.9ZM256 261.7c0-.9.7-1.5 1.5-1.5H282c.9 0 1.6.6 1.6 1.5v123.5c0 .8-.7 1.5-1.6 1.5h-24.3c-.9 0-1.6-.7-1.6-1.5V261.7ZM171 272a13.8 13.8 0 0 1 18.5-6.7 14 14 0 0 1 6.7 18.5l-1.5 3.4-25.2-11.8 1.5-3.4Zm-42-15c2-3 5.3-4.6 9-4.6s6.8 1.7 8.8 4.6l8.5 12.2a54.9 54.9 0 0 0-34.8 0L129 257Zm-48 30.3-1.6-3.4a14 14 0 0 1 25.2-11.8l1.6 3.4L81 287.3Zm16.5 34.4a40.2 40.2 0 1 1 80.5 0 40.2 40.2 0 0 1-80.5 0Zm72 65h-61l8.3-14a54.8 54.8 0 0 0 42.4-.2l10.2 14.2Zm-75.4 95.5a6.7 6.7 0 0 1-13 2.2l-16.3-47h29.3v44.8Zm356 0a6.7 6.7 0 0 1-13.1 2.2l-16.2-47h29.3v44.8Zm46.8-59.7H15v-20.8h482v20.8Z"/>
  <path d="M137.8 329.2H149a7.5 7.5 0 0 0 0-15h-3.7v-9.5a7.5 7.5 0 0 0-15 0v17c0 4.1 3.4 7.5 7.5 7.5Z"/>
    </symbol>
  <symbol id="item-2948">
    <title>manual</title>
    <path fill="#8d9fad" d="M462.4 344.7v139.1h-93.7V354.2l93.7-9.5Z"/>
  <path fill="#f1f4f6" d="M434.9 463.1a53.5 53.5 0 0 1 0-57.3L286.2 378H87.6v105.7h264.6l82.7-20.7Z"/>
  <path fill="#bbcfd4" d="M462.4 28.2v356.9l-342.8 8.5-20.1.6-50 40.2V77.6a70.2 70.2 0 0 1 70.1-70.1h322.1c11.5 0 20.7 9.3 20.7 20.7Z"/>
  <path fill="#a3b8bf" d="M119.6 7.5v386.1l-20.1.6-50 40.2V77.6a70.2 70.2 0 0 1 70.1-70.1Z"/>
  <path fill="#a3b8bf" d="M441.7 504.5h-322a70.1 70.1 0 0 1 0-140.1h322a20.7 20.7 0 0 1 0 41.4H204.4L168.5 420l-35.8-14.3h-13a28.7 28.7 0 0 0 0 57.3h322a20.7 20.7 0 0 1 0 41.4Z"/>
  <path fill="#dd636e" d="M204.4 405.8v67.8c0 8.5-9.9 13.4-16.6 8l-12.9-10c-3.7-3-9-3-12.7 0l-12.9 10c-6.7 5.4-16.6.5-16.6-8v-67.8h71.7Z"/>
  <path fill="#da4a54" d="M132.7 405.8h71.7v28.6h-71.7v-28.6Z"/>
  <path fill="#4e5959" d="M159.6 287.4V84.5a37 37 0 0 1 37-37h188.8a37 37 0 0 1 37 37v202.9a37 37 0 0 1-37 37H196.7a37 37 0 0 1-37-37Z"/>
  <path fill="#454b4b" d="M219.5 324.4h-22.8a37 37 0 0 1-37-37V84.5a37 37 0 0 1 37-37h22.8a37 37 0 0 0-37 37v202.9a37 37 0 0 0 37 37Z"/>
  <path fill="#f1f4f6" d="M372 186c0-4.4-.4-8.6-1-12.7a8.8 8.8 0 0 1 4.2-9l11.6-6.7a8.8 8.8 0 0 0 3.2-12l-14.5-25.2a8.8 8.8 0 0 0-12-3.2l-11.6 6.7a8.8 8.8 0 0 1-10-.9 83 83 0 0 0-22-12.7 8.5 8.5 0 0 1-5.5-8V88.9c0-4.8-4-8.8-8.9-8.8h-29c-4.9 0-8.8 4-8.8 8.9v13.5c0 3.5-2.2 6.7-5.5 8-8 3-15.5 7.3-22 12.6a8.8 8.8 0 0 1-10 .9l-11.6-6.7a8.8 8.8 0 0 0-12 3.2l-14.6 25a8.8 8.8 0 0 0 3.2 12.1l11.6 6.7a8.8 8.8 0 0 1 4.3 9 80.8 80.8 0 0 0 0 25.3 8.8 8.8 0 0 1-4.3 9l-11.6 6.7a8.8 8.8 0 0 0-3.2 12l14.5 25.2a8.8 8.8 0 0 0 12 3.2l11.7-6.7a8.8 8.8 0 0 1 10 .8 81 81 0 0 0 22 12.8 8.5 8.5 0 0 1 5.5 8V283c0 5 4 8.9 8.8 8.9h29a9 9 0 0 0 8.9-8.9v-13.5c0-3.5 2.1-6.7 5.4-8 8.1-3 15.5-7.3 22.1-12.7a8.8 8.8 0 0 1 10-.8l11.6 6.7c4.2 2.4 9.6 1 12-3.2l14.5-25.2c2.5-4.2 1-9.6-3.2-12l-11.6-6.7a8.8 8.8 0 0 1-4.2-9c.6-4.2 1-8.4 1-12.7Zm-81 40a40 40 0 1 1 0-80 40 40 0 0 1 0 80Z"/>
  <path d="M470 28.2A28.2 28.2 0 0 0 441.6 0h-322A77.6 77.6 0 0 0 42 77.6v357a77.6 77.6 0 0 0 77.5 77.4h322.1a28.2 28.2 0 0 0 28.2-28.2V28.2ZM197 473.6c0 1.5-1 2.2-1.7 2.5-.5.3-1.7.6-3-.3l-12.8-10.1a17.7 17.7 0 0 0-22 0l-12.8 10c-1.2 1-2.3.7-3 .4-.5-.3-1.5-1-1.5-2.6v-60.1h56.7v60.2Zm-71.8-60.3v42.3h-5.6a21.2 21.2 0 0 1 0-42.3h5.6Zm86.7 0h211c-5 13.6-5 28.7 0 42.3h-211v-42.3Zm229.8 42.3h-2.4a46.2 46.2 0 0 1 0-42.3h2.4A28 28 0 0 0 455 410v48.9a28 28 0 0 0-13.2-3.3Zm-384.6-89c0-31.9 24-58.3 55-62v52.7a77.5 77.5 0 0 0-55 31.4v-22Zm55-285a77.5 77.5 0 0 0-53.8 29.9 62.7 62.7 0 0 1 53.8-49.8v20Zm-55-4c0-32 24-58.4 55-62.1v31.1a77.5 77.5 0 0 0-55 31.5v-.5Zm0 81.3c0-32 24-58.4 55-62.1v192.7a77.6 77.6 0 0 0-55 31.4V159ZM441.7 497h-322a62.6 62.6 0 0 1 0-125.1h40a7.5 7.5 0 0 0 0-15H127V15h314.6c7.3 0 13.2 6 13.2 13.2v332a28 28 0 0 0-13.2-3.3h-252a7.5 7.5 0 0 0 0 15h252a13 13 0 0 1 13.2 13v.3c0 7.2-6 13-13.2 13h-322a36.2 36.2 0 0 0 0 72.4h5.5v3a17.7 17.7 0 0 0 17.8 17.7c3.9 0 7.7-1.2 11-3.8l12.8-10c1-.9 2.4-.9 3.5 0l12.8 10c5.4 4.3 12.6 5 18.8 2 6.2-3 10-9.1 10-16v-3h229.8c7.3 0 13.2 6 13.2 13.2v.1c0 7.3-6 13.2-13.2 13.2Z"/>
  <path d="M385.4 331.9c24.5 0 44.5-20 44.5-44.5V84.5A44.5 44.5 0 0 0 385.4 40H196.7C172 40 152 60 152 84.5v202.9c0 24.5 20 44.5 44.6 44.5h188.7ZM167 287.4V84.5A29.6 29.6 0 0 1 196.7 55h188.7a29.6 29.6 0 0 1 29.5 29.5v202.9a29.6 29.6 0 0 1-29.5 29.5H196.7a29.6 29.6 0 0 1-29.6-29.5Z"/>
  <path d="M291 233.4a47.5 47.5 0 0 0 46.4-57.4 7.5 7.5 0 0 0-14.6 3.1 32.5 32.5 0 1 1-13.2-19.8 7.5 7.5 0 0 0 8.6-12.3 47.5 47.5 0 1 0-27.2 86.4Z"/>
  <path d="M210 262.8c4.2 1.2 8.6.6 12.4-1.6l11.5-6.7c.5-.2 1-.2 1.5.2a88.2 88.2 0 0 0 24.1 13.9c.4.1.7.5.7 1V283c0 9 7.3 16.4 16.3 16.4h29c9 0 16.4-7.3 16.4-16.4v-13.5c0-.4.2-.8.6-1 8.7-3.2 16.9-8 24.1-13.8.5-.4 1-.4 1.5-.2l11.6 6.7a16.2 16.2 0 0 0 22.3-6l14.5-25.1a16.2 16.2 0 0 0-6-22.3L379 201c-.5-.2-.7-.8-.6-1.4a88.7 88.7 0 0 0 0-27.5c-.1-.6.1-1.2.6-1.4l11.5-6.7a16.2 16.2 0 0 0 6-22.3l-14.5-25a16.2 16.2 0 0 0-22.3-6l-11.6 6.7c-.4.2-1 .2-1.5-.2a88.3 88.3 0 0 0-24-13.9 1 1 0 0 1-.7-1V88.9c0-9-7.4-16.3-16.4-16.3h-29c-9 0-16.3 7.3-16.3 16.3v13.5c0 .5-.3.8-.7 1a86 86 0 0 0-24 13.9c-.5.4-1.1.4-1.6.1l-11.6-6.6a16.2 16.2 0 0 0-22.3 6l-14.5 25a16.3 16.3 0 0 0 6 22.4l11.5 6.7c.5.2.8.8.7 1.3a88.9 88.9 0 0 0 0 27.6c0 .6-.2 1.1-.7 1.4l-11.5 6.7a16.3 16.3 0 0 0-6 22.3l14.5 25.1a16 16 0 0 0 10 7.6Zm-11-42 11.6-6.7c5.8-3.3 9-10 8-16.7a73.6 73.6 0 0 1 0-23c1-6.6-2.2-13.3-8-16.6L199 151c-.6-.4-.8-1.2-.5-1.8L213 124l.8-.6c.3 0 .7 0 1 .2l11.6 6.6A16.4 16.4 0 0 0 245 129a73 73 0 0 1 20-11.6 16.1 16.1 0 0 0 10.3-15V88.8c0-.7.6-1.3 1.3-1.3h29c.8 0 1.4.6 1.4 1.3v13.6c0 6.5 4.1 12.6 10.3 15 7.2 2.7 14 6.6 20 11.5a16.4 16.4 0 0 0 18.5 1.4l11.5-6.6c.4-.3.8-.2 1-.2.3.1.6.2.8.6l14.6 25.2c.2.4.2.7 0 1s-.1.6-.5.8l-11.6 6.7c-5.8 3.3-9 10-8 16.7a73.2 73.2 0 0 1 0 22.9c-1 6.6 2.2 13.3 8 16.7l11.6 6.7c.4.2.5.5.6.8l-.1 1-14.6 25.1c-.2.4-.5.6-.8.6h-1l-11.5-6.8a16.4 16.4 0 0 0-18.5 1.5 73 73 0 0 1-20 11.5 16.1 16.1 0 0 0-10.3 15V283c0 .8-.6 1.4-1.3 1.4h-29c-.8 0-1.4-.6-1.4-1.4v-13.5a16 16 0 0 0-10.3-15c-7.2-2.7-14-6.6-20-11.5a16.4 16.4 0 0 0-18.5-1.5l-11.5 6.7c-.4.2-.8.2-1 .1-.3 0-.6-.2-.8-.6l-14.6-25.1c-.3-.7-.1-1.5.5-1.8Z"/>
  </symbol>
  <symbol id="item-2949">
    <title>aromatherapy</title>
    <path fill="#cb97e7" d="m318 256-15-45.5h-71.5l-15 45.5a37.5 37.5 0 0 1-27 24.7l-31 7.4c-6.5 1.5-11 7.2-11 13.9v188.2c0 8 6.4 14.3 14.3 14.3h211c7.8 0 14.2-6.4 14.2-14.3V302c0-6.7-4.6-12.4-11-14l-31-7.3a37.5 37.5 0 0 1-27-24.7Z"/>
  <path fill="#bd80e1" d="m376 288-31-7.3a37.5 37.5 0 0 1-27-24.7l-15-45.5h-32.6l13.2 45.5c4 12.3 7.6 21.6 20.2 24.6l27 7.4c6.5 1.6 11 7.3 11 14v188.2c0 8-6.3 14.3-14.2 14.3h45c8 0 14.4-6.4 14.4-14.3V302c0-6.6-4.6-12.3-11-13.8Z"/>
  <path fill="#f2fbff" d="M356.9 320.8v153.6H177.6V320.8h179.3Z"/>
  <path fill="#f2fbff" d="M356.9 320.8v153.6H177.6V320.8h179.3Z"/>
  <path fill="#dff6fd" d="M341.9 320.8h15v153.6h-15V320.8Z"/>
  <path fill="#6c7fd8" d="M229.6 210.5h75.2a14.4 14.4 0 1 0 0-28.8h-75.2a14.4 14.4 0 1 0 0 28.8Z"/>
  <path fill="#4f66d0" d="M304.8 181.7h-29.6a14.4 14.4 0 1 1 0 28.8h29.6a14.4 14.4 0 1 0 0-28.8Z"/>
  <path fill="#dff6fd" d="M283.8 181.7h-31.1L213.3 26.3a15 15 0 1 1 29.2-7.4l41.2 162.8Z"/>
  <path d="M146.6 63.1v-6.5h6.5a7.5 7.5 0 0 0 0-15h-6.5v-6.5a7.5 7.5 0 0 0-15 0v6.5H125a7.5 7.5 0 0 0 0 15h6.6v6.5a7.5 7.5 0 0 0 15 0Zm31 250.2a7.5 7.5 0 0 0-7.5 7.5v153.6c0 4.1 3.4 7.5 7.5 7.5h179.3c4.1 0 7.5-3.4 7.5-7.5V320.8c0-4.2-3.4-7.5-7.5-7.5H177.6Zm171.8 153.6H185V328.3h164.3v138.6Z"/>
  <path d="M377.8 280.8a7.5 7.5 0 1 0-3.5 14.6c3 .7 5.2 3.4 5.2 6.5v188.3c0 3.8-3 6.8-6.8 6.8h-211c-3.7 0-6.7-3-6.7-6.8V302c0-3.1 2.1-5.8 5.2-6.5l31-7.5a44.8 44.8 0 0 0 32.3-29.6L237 218h60.7l13.3 40.3a45.2 45.2 0 0 0 28.7 28.6 7.5 7.5 0 0 0 4.7-14.2 30 30 0 0 1-19.1-19.1l-12.3-37a22 22 0 0 0-5-42.2l25.2-39.2 21.9-1.7a7.5 7.5 0 1 0-1.2-15l-10.5.9 11.6-18 25-4.4a7.5 7.5 0 1 0-2.7-14.8l-11.3 2 7.4-11.4a7.5 7.5 0 0 0-12.7-8.1l-6.8 10.6-2.4-10.8a7.5 7.5 0 1 0-14.6 3.2l5.5 25.4-10.2 15.9-1.8-8a7.5 7.5 0 1 0-14.6 3.4l5 22.2-27.7 43 23.2-161a7.5 7.5 0 0 0-14.9-2.2l-19.6 136.7-32-126A22.6 22.6 0 0 0 206 28l5.3 20.8a7.5 7.5 0 0 0 14.5-3.7l-5.3-20.8c-1-4 1.5-8.1 5.5-9.2 4-1 8.2 1.5 9.2 5.5L274 174.2h-15.6l-24-95a7.5 7.5 0 0 0-14.6 3.6l23.1 91.4h-1.4l-57.7-88a7.5 7.5 0 1 0-12.6 8.2l52.9 80.5a22 22 0 0 0-2.6 41.6l-12.3 37.1a29.8 29.8 0 0 1-21.5 19.8l-31 7.4a21.7 21.7 0 0 0-16.8 21.1v188.3c0 12 9.8 21.8 21.8 21.8h210.9c12 0 21.8-9.8 21.8-21.8V302c0-10-7-18.8-16.8-21.1Zm-148.2-91.6h75.2a7 7 0 0 1 0 13.8h-75.2a7 7 0 0 1 0-13.8Z"/>
  <path d="M276.3 388.5a7.5 7.5 0 0 0 10.6 0l17.4-17.3a7.5 7.5 0 1 0-10.6-10.7L276.3 378c-3 3-3 7.7 0 10.6Zm-40.8 48.3c2 0 3.8-.7 5.3-2.2l17.4-17.4a7.5 7.5 0 1 0-10.6-10.6L230.2 424a7.5 7.5 0 0 0 5.3 12.8Zm51.4-30.2a7.5 7.5 0 1 0-10.6 10.7l17.4 17.3a7.5 7.5 0 1 0 10.6-10.6l-17.4-17.4Zm-39.3-18.1a7.5 7.5 0 1 0 10.6-10.6l-17.4-17.4a7.5 7.5 0 1 0-10.6 10.7l17.4 17.3Z"/>
  <circle cx="319" cy="397.6" r="7.5"/>
  <circle cx="215.5" cy="397.6" r="7.5"/>
  <circle cx="267.2" cy="449.4" r="7.5"/>
  <circle cx="267.2" cy="345.8" r="7.5"/>
  <circle cx="161.8" cy="150.5" r="7.5"/>
  </symbol>
  <symbol id="item-2950">
    <title>anaconda</title>
    <path fill="#ea9b58" d="M419 335H93a45.5 45.5 0 0 1-45.5-45.6V286A45.5 45.5 0 0 1 93 240.4h326a45.5 45.5 0 0 1 45.5 45.5v3.5A45.5 45.5 0 0 1 419 335Z"/>
  <path fill="#f6a96c" d="M459 429.4H53A45.5 45.5 0 0 1 7.5 384v-3.5A45.5 45.5 0 0 1 53 335h406a45.5 45.5 0 0 1 45.5 45.5v3.5a45.5 45.5 0 0 1-45.5 45.5Z"/>
  <path fill="#d88a55" d="M432.5 242.4c1.3 4.3 2 8.8 2 13.5v3.5A45.5 45.5 0 0 1 389 305H63c-4.7 0-9.2-.7-13.5-2 5.8 18.6 23 32 43.5 32h326a45.5 45.5 0 0 0 45.5-45.5V286a45.5 45.5 0 0 0-32-43.4Zm40 94.6c1.3 4.2 2 8.7 2 13.4v3.5a45.5 45.5 0 0 1-45.5 45.5H23c-4.7 0-9.2-.7-13.5-2 5.8 18.6 23 32 43.5 32h406a45.5 45.5 0 0 0 45.5-45.5v-3.5a45.5 45.5 0 0 0-32-43.5Z"/>
  <path fill="#fddeb0" d="M249 88h-3.5a45.5 45.5 0 0 0-45.5 45.4v59.3a47.7 47.7 0 0 1-47.7 47.7H93A45.5 45.5 0 0 0 47.5 286v3.5A45.5 45.5 0 0 0 93 335h101.4a100 100 0 0 0 100.1-100V133.3A45.5 45.5 0 0 0 249 88Z"/>
  <path fill="#fccd7f" d="M294.5 232.2v-98.8A45.5 45.5 0 0 0 249 88h-3.5a45.5 45.5 0 0 0-45.5 45.5v59.3c0 16.4-8.3 31-21 39.5h115.5Z"/>
  <path fill="#d88a55" d="M97.5 289.4V286a45.5 45.5 0 0 1 45.5-45.5H93A45.5 45.5 0 0 0 47.5 286v3.5A45.5 45.5 0 0 0 93 335h50a45.5 45.5 0 0 1-45.5-45.5Z"/>
  <path fill="#aa693b" d="M244.6 149.5H168c0 20.6 8.4 52.7 76.7 52.7 63.7 0 76.7-32.1 76.7-52.7h-76.7Z"/>
  <path fill="#d88a55" d="m331.6 115.4-6.6-5a24 24 0 0 1-3.7-3.6l-24.9-29.9a22 22 0 0 1-5-13.9 18 18 0 0 0-16-17.9 17.5 17.5 0 0 0-19.1 17.5c0 4.6-3.7 8.3-8.3 8.3h-6.7a8.3 8.3 0 0 1-8.3-8.3 17.5 17.5 0 1 0-35 0v.4c0 5.1-1.9 10-5.1 14l-25 29.8c-1 1.3-2.3 2.5-3.6 3.5l-6.2 4.8a23.7 23.7 0 0 0 4.5 40.6l18 8.1c16.6 7.5 36 5 50.3-6.5l.4-.3a21.6 21.6 0 0 1 27 0 48.7 48.7 0 0 0 50.6 6.7l17.4-7.7a23.7 23.7 0 0 0 5.3-40.5Z"/>
  <path fill="#aa693b" d="m405.3 240.4.2 3a24.7 24.7 0 1 1-49.3-3h-27.6l-.1 3a52.3 52.3 0 1 0 104.5 0v-.8a45.6 45.6 0 0 0-14-2.2h-13.7Zm.2 132.8a52.3 52.3 0 0 0-52.1 56.2H381a24.9 24.9 0 0 1 24.4-28.7 24.7 24.7 0 0 1 24.4 28.7h27.7l.2-4a52.3 52.3 0 0 0-52.3-52.2Zm-245 56.2a52.3 52.3 0 1 0-103 0H86a24.6 24.6 0 0 1 23-33.7 24.7 24.7 0 0 1 23 33.7h28.5ZM269.4 340a24.7 24.7 0 1 1-49-5h-27.8a52 52 0 0 0 52 57.2 52.3 52.3 0 0 0 52-57.3H269c.3 1.7.5 3.3.5 5Z"/>
  <path d="M459 327.4h-3a52.8 52.8 0 0 0 16.1-38V286a53 53 0 0 0-53-53H302v-36.3h.2a54.6 54.6 0 0 0 24-30c.3-.8.4-1.7.3-2.5l2.9-1.3a31.2 31.2 0 0 0 6.8-53.3l-6.6-5.1c-1-.7-1.8-1.5-2.5-2.4l-25-29.9a14.2 14.2 0 0 1-3.2-9c0-13.2-10-24.3-22.8-25.4a25.1 25.1 0 0 0-27.3 25c0 .3-.4.7-.8.7h-6.7a.8.8 0 0 1-.8-.8 25 25 0 0 0-50 0v.4c0 3.3-1.3 6.6-3.4 9.1l-3.8 4.6a7.5 7.5 0 0 0 11.5 9.6l3.8-4.6a29.2 29.2 0 0 0 6.8-18.7v-.4a10 10 0 0 1 20.1 0c0 8.7 7 15.8 15.8 15.8h6.7c8.7 0 15.8-7.1 15.8-15.8a10 10 0 0 1 11-10c5 .4 9 5 9 10.4 0 6.8 2.5 13.5 6.9 18.7l24.9 29.8c1.4 1.8 3 3.3 4.8 4.7l6.6 5.1a16.2 16.2 0 0 1-3.7 27.8l-17.4 7.7a41 41 0 0 1-42.8-5.6 29.2 29.2 0 0 0-36.5 0l-.4.2a41 41 0 0 1-42.6 5.5l-18-8a16.2 16.2 0 0 1-3-27.9l6.3-4.8c1.7-1.4 3.3-3 4.8-4.7a7.5 7.5 0 1 0-11.5-9.6 14 14 0 0 1-2.5 2.4l-6.2 4.9A31.8 31.8 0 0 0 141 137a31.5 31.5 0 0 0 18.3 25.5l2.4 1c2.8 13 9.8 23.6 20.7 31.2 2.9 2 6 3.7 9.3 5.3a40 40 0 0 1-39.5 32.8H93a53 53 0 0 0-53 53v3.5c0 14.9 6.2 28.4 16.1 38H53a53 53 0 0 0-53 53v3.5a53 53 0 0 0 53 53h248.5a7.5 7.5 0 0 0 0-15H168.7v-1.5a59.8 59.8 0 1 0-119.5 1.3A38 38 0 0 1 15 384v-3.5c0-21 17-38 38-38h132a59.8 59.8 0 0 0 119.3 0H459c21 0 38 17 38 38v3.5a38 38 0 0 1-31.8 37.5 57.8 57.8 0 0 0-17.5-38.8c-11.2-11-26.2-17-42.2-17s-31 6-42.2 17a57.9 57.9 0 0 0-17.5 39.3h-9.3a7.5 7.5 0 0 0 0 15H459a53 53 0 0 0 53-53v-3.5a53 53 0 0 0-53-53Zm-367.2 93A17.3 17.3 0 1 1 126 422H92l-.1-1.5Zm17.2-44.8a44.8 44.8 0 0 1 44.7 46.3h-12.5v-1.5a32.3 32.3 0 1 0-64.4 1.5H64.3v-1.5c0-24.7 20-44.8 44.7-44.8Zm316.2-127.1a44.8 44.8 0 0 1-89-.6h12.6a32.3 32.3 0 0 0 63.8 0h6.4c2.1 0 4.2.2 6.2.6Zm-61-.6h33.1a17.2 17.2 0 0 1-33.1 0ZM181 172.1a56 56 0 0 0 54.6-9l.3-.2a14.1 14.1 0 0 1 17.7 0 56 56 0 0 0 52.9 9.8c-8.4 11.6-26 22-61.9 22-24 0-42-4.1-53.5-12.1-4.2-3-7.6-6.5-10-10.5Zm25 33.2c11 2.9 23.9 4.4 38.6 4.4 16.3 0 30.5-2 42.4-6.1v31.2c0 51-41.6 92.6-92.6 92.6H143c-21 0-38-17-38-38V286c0-21 17-38 38-38h9.3a55 55 0 0 0 53.7-42.6ZM93 327.4c-21 0-38-17-38-38V286c0-21 17-38 38-38h13a52.8 52.8 0 0 0-16 38v3.6c0 14.8 6.2 28.3 16 38H93Zm151.6 57.3a44.8 44.8 0 0 1-44.7-42.3h12.6a32.3 32.3 0 0 0 64.3 0h12.5a44.8 44.8 0 0 1-44.7 42.3Zm-17-42.3h34a17.2 17.2 0 0 1-34 0Zm21.5-15c28-16.6 48-45.6 52-79.5h20a59.8 59.8 0 0 0 118.5 6 38 38 0 0 1 17.4 32v3.6a38 38 0 0 1-38 38H249.1Zm156.4 53.3a44 44 0 0 1 44.7 41.2h-12.6c-1.3-16.2-15-28.7-32.1-28.7s-30.9 12.5-32.1 28.7h-12.6a43.8 43.8 0 0 1 44.7-41.2Zm-17 41.2c1.2-8 8-13.7 17-13.7s15.8 5.8 17 13.7h-34Z"/>
  <path d="M212.7 105.6c.5.3.8.9.8 1.5a7.5 7.5 0 0 0 15 0c0-5.7-3-11-7.8-14.2l-1.8-1.1a7.5 7.5 0 0 0-8 12.6l1.8 1.2Zm63.1 1.5c0-.6.3-1.2.8-1.5l1.8-1.2a7.5 7.5 0 0 0-8-12.6l-1.9 1.1a16.7 16.7 0 0 0-7.7 14.2 7.5 7.5 0 0 0 15 0Z"/>
  </symbol>
  <symbol id="item-2951">
    <title>native american woman</title>
    <path fill="#fddeb0" d="M400.7 398.4 333.2 375l-77.2-9.4-77.2 9.4-67.5 23.4A93.9 93.9 0 0 0 48 487.2v11.6c0 3.1 2.6 5.7 5.8 5.7H458c3.2 0 5.8-2.6 5.8-5.7v-11.6a94 94 0 0 0-63.2-88.8Z"/>
  <path fill="#fccd7f" d="M446.9 433.2a93.9 93.9 0 0 0-27.2-25.7 94 94 0 0 1 14.3 49.8v11.6c0 3.2-2.6 5.8-5.8 5.8H49c-.6 4-.9 8.3-.9 12.5v11.6c0 3.2 2.6 5.7 5.8 5.7H458c3.2 0 5.8-2.5 5.8-5.7v-11.6a94 94 0 0 0-17-54Z"/>
  <path fill="#80d261" d="m305.6 310.1-2.4-34.4h-94.4l-2.4 34.4a140.8 140.8 0 0 1-39.4 88.4l.7.4a156.9 156.9 0 0 0 176.7 0l.6-.4a140.8 140.8 0 0 1-39.4-88.4Z"/>
  <path fill="#aa693b" d="m296 303.5-1.8-27.8h-76.4l-1.9 27.8A113.9 113.9 0 0 1 184 375l.5.4a126.9 126.9 0 0 0 143 0l.5-.4a114 114 0 0 1-32-71.5Z"/>
  <path fill="#80d261" d="m188.7 113.5-15.4-.2a47.3 47.3 0 0 1-46.9-47.8l.2-15.3c0-2.5 2-4.4 4.4-4.4l15.4.1a47.3 47.3 0 0 1 46.9 47.8l-.2 15.4c0 2.4-2 4.4-4.4 4.4Zm173.8-6.9a47.3 47.3 0 0 0 23-41V50.1c0-2.5-2-4.4-4.5-4.4l-15.4.1c-9.5.1-18.3 3-25.7 8m0 0a47.3 47.3 0 0 0-21.2 40l.2 15.3c0 2.4 2 4.4 4.4 4.4l15.4-.2a47 47 0 0 0 23.8-6.7"/>
  <path fill="#01998d" d="m292.3 108.8 14.4-5.3a47.4 47.4 0 0 0 27.9-60.9l-5.3-14.4a4.4 4.4 0 0 0-5.7-2.6l-14.4 5.3a47.5 47.5 0 0 0-28 60.9l5.4 14.4a4.4 4.4 0 0 0 5.7 2.6Zm-72.6 0-14.4-5.3a47.4 47.4 0 0 1-27.9-60.9l5.3-14.4a4.4 4.4 0 0 1 5.7-2.6l14.4 5.3a47.5 47.5 0 0 1 28 60.9l-5.4 14.4a4.4 4.4 0 0 1-5.7 2.6Z"/>
  <path fill="#80d261" d="m259.6 110.5 17.2-17.6a47.3 47.3 0 0 0-.6-67L258.6 8.8a4.4 4.4 0 0 0-6.2 0l-17.2 17.6a47.3 47.3 0 0 0 .6 67l17.6 17.2a4.4 4.4 0 0 0 6.2 0Z"/>
  <path fill="#5b5555" d="M349.5 470.6a52.2 52.2 0 0 0 52-48c.6-6.5.9-12.6.9-17.9 0-50.1-59.1-244-59.1-244L282 236.4s0 83 41.8 159.2a211.8 211.8 0 0 1 21.8 71.5 4 4 0 0 0 3.9 3.4Zm-187 0a52.2 52.2 0 0 1-52-48c-.6-6.5-.9-12.6-.9-17.9 0-50.1 59.1-244 59.1-244l61.3 75.8s0 83-41.8 159.2a211.8 211.8 0 0 0-21.8 71.5 4 4 0 0 1-3.9 3.4Z"/>
  <path fill="#d88a55" d="M256 319c-57.2 0-104-52-104-109.3v-94c0-6.3 5-11.5 11.4-11.5h185.2c6.3 0 11.5 5.2 11.5 11.5v94c0 57.3-46.9 109.4-104.1 109.4Z"/>
  <path fill="#c57a44" d="M348.6 104.2h-16.4V202a92.4 92.4 0 0 1-92.1 92.2h-12a97 97 0 0 1-51.3-15c19 24 47.5 39.9 79.2 39.9 57.2 0 104-46.9 104-104.1v-99.3c0-6.3-5-11.5-11.4-11.5Z"/>
  <path fill="#5b5555" d="m152 184.3 6.8-3.9c27-15.3 50.6-36 69.2-60.8l4.1-5.5-80.2-4.8v75Z"/>
  <path fill="#d88a55" d="M152 230.5h-1a24.6 24.6 0 0 1 0-49.3h1v49.3Zm208.2 0h1a24.6 24.6 0 0 0 0-49.3h-1v49.3Z"/>
  <path fill="#5b5555" d="m360 184.3-6.8-3.9c-27-15.3-50.6-36-69.2-60.8l-4.1-5.5 80.2-4.8v75Z"/>
  <path fill="#4a4545" d="M332.2 111v56c6.7 4.8 13.7 9.3 21 13.4l6.9 3.9v-68.6a11 11 0 0 0-1.9-6.2l-26 1.5Z"/>
  <path fill="#8ebac5" d="M152 108.9c28.2-18.3 64.9-29.3 105-29.3s75 10.6 103 28.1v42c-28-17.5-63.9-28-103-28s-76.8 11-105 29.2v-42Z"/>
  <path fill="#7ca1b1" d="M332.2 135.6c10 4 19.3 8.7 27.9 14.1v-42c-8.6-5.4-18-10-28-14v42Z"/>
  <path d="M453 429c-11-15.7-26-27.8-43.6-35.3h-.2c-3.5-35-20.8-102.3-36.3-158a32.1 32.1 0 0 0-5.4-61.3v-62.1A54.6 54.6 0 0 0 393 65.5V50a12 12 0 0 0-11.9-11.8l-15.4.2c-8 0-15.7 1.8-22.8 5.1l-1.2-3.6-5.3-14.4a11.9 11.9 0 0 0-15.3-7l-9.4 3.5a7.5 7.5 0 0 0 5.2 14l6.5-2.4 4.3 11.5a40.1 40.1 0 0 1-5 37.1c-8.8-2.8-17.8-5-27-6.7a55 55 0 0 0-14.2-55L264 3.5a11.8 11.8 0 0 0-16.8.2L229.8 21a54 54 0 0 0-8.7 11.8c-4.7-3.8-10-6.8-15.7-9L191 18.6a12 12 0 0 0-15.3 7L170.4 40l-1.2 3.6a55 55 0 0 0-22.8-5.1l-15.3-.2a11.8 11.8 0 0 0-12 11.8l-.1 15.4c-.2 19 9.5 36.7 25.5 46.8v62.1a32.1 32.1 0 0 0-5.4 61.3 2881 2881 0 0 0-15.9 59.4 7.5 7.5 0 1 0 14.5 3.7c4-15.6 8.5-32.5 13.5-50.5A122.3 122.3 0 0 0 177 291a115 115 0 0 0 34 25.2 325 325 0 0 1-29.4 76c-10.5 19.1-18 43-22.2 70.8a45 45 0 0 1-41.5-41c-.5-6.3-.8-12.2-.8-17.3 0-12.6 4-36.5 12-71a7.5 7.5 0 0 0-14.5-3.3 535 535 0 0 0-11.8 63.3 101 101 0 0 0-62.2 93.5v11.6c0 7.3 6 13.2 13.3 13.2H458c7.3 0 13.3-6 13.3-13.2v-11.6c0-21-6.4-41-18.4-58.2Zm-254.4-37a134.5 134.5 0 0 0 114.8 0l6.5 12.4a149.7 149.7 0 0 1-127.8 0l6.5-12.4Zm131.7.1a325.4 325.4 0 0 1-29.3-75.9 115 115 0 0 0 34-25.2c11.5-12.4 20.3-27 25.8-42.7 22 79.7 34 135 34 156.4 0 5.1-.2 11-.7 17.4a45 45 0 0 1-41.5 40.9 214.7 214.7 0 0 0-22.3-70.9Zm-170.9-237a173.8 173.8 0 0 1 44.7-19c-12.3 12.7-28 26-44.7 35.8V155Zm0-17.3V113c27.5-16.7 62-25.9 97.5-25.9s68.5 8.8 95.7 24.8v25C324.6 122 291 114 256.9 114s-69.1 8.4-97.5 23.7Zm193.2 16.1v17.5c-16.8-10-32-22-45.4-36a176.1 176.1 0 0 1 45.4 18.5Zm15.1 36a17.2 17.2 0 0 1 0 31.8V190ZM345 59.6c6.2-4 13.3-6 20.7-6l12.3-.2.1 12.3A39.7 39.7 0 0 1 360.3 99c-7.3-4.2-15.1-8-23.3-11.4a55.2 55.2 0 0 0 8-28.1Zm-89.4-43.3 15.4 15a40 40 0 0 1 9.5 42.1 220.1 220.1 0 0 0-48.8.2 40 40 0 0 1 8.8-42l15-15.4Zm-71.2 29 4.3-11.5 11.5 4.2a40 40 0 0 1 15.2 10 55 55 0 0 0 1.3 27.9 209 209 0 0 0-27 6.9 40 40 0 0 1-5.3-37.6ZM134 65.6l.1-12.3 12.3.1c7.4 0 14.5 2.2 20.7 6 0 10.1 3 20.1 8.4 28.8-8 3.3-15.6 7.2-22.8 11.5A39.9 39.9 0 0 1 134 65.6ZM144.5 190v31.7a17.2 17.2 0 0 1 0-31.7Zm43.5 90.7a105.4 105.4 0 0 1-28.6-71V189c28-14.4 53.8-39 69.2-57.9a205.2 205.2 0 0 1 54.7-.2 230.3 230.3 0 0 0 66.2 56.1c1 .5 2 .8 3.1 1v21.8c0 25.7-10.4 51.6-28.6 71a93 93 0 0 1-68 30.9 93 93 0 0 1-68-30.8Zm68 45.8c10.6 0 21-1.6 31-4.8 5.2 20.2 12 39.2 20 56.8a119.8 119.8 0 0 1-101.9 0 355 355 0 0 0 20-56.8 101 101 0 0 0 31 4.8ZM456.4 497H55.6v-9.8a86 86 0 0 1 46.7-76.8c.1 4 .3 8.3.7 12.9a59.5 59.5 0 0 0 59.5 54.7c5.7 0 10.5-4.2 11.3-9.7 2.6-18.8 6.8-35.6 12.4-50.2a164.3 164.3 0 0 0 139.7 0c5.5 14.6 9.7 31.4 12.3 50.2.8 5.5 5.7 9.7 11.3 9.7a59.6 59.6 0 0 0 59.5-54.7c.4-4.6.6-8.9.7-12.9a86.4 86.4 0 0 1 46.7 76.8v9.8Z"/>
  <path d="M240.8 239.2a21.3 21.3 0 0 0 29.8 0 7.5 7.5 0 1 0-10.4-10.7 6.5 6.5 0 0 1-9 0 7.5 7.5 0 0 0-10.4 10.7Zm43.2 29.5a7.5 7.5 0 0 0-8.2-12.6c-5.7 3.7-12.5 5.6-19.8 5.6s-14.1-2-19.8-5.6a7.5 7.5 0 0 0-8.1 12.6c8 5.2 17.7 8 27.9 8s19.8-2.8 28-8Zm-68.2-72.4a7.5 7.5 0 0 0-7.5 7.5v12.7a7.5 7.5 0 0 0 15 0v-12.7c0-4.1-3.4-7.5-7.5-7.5Zm80.4 0a7.5 7.5 0 0 0-7.5 7.5v12.7a7.5 7.5 0 0 0 15 0v-12.7c0-4.1-3.4-7.5-7.5-7.5Zm-66.6-7.6a7.5 7.5 0 0 0 10.4 2 7.4 7.4 0 0 0 2-10.3c-5.2-7.8-15.2-12.6-26.2-12.6s-21 4.8-26.2 12.6a7.5 7.5 0 1 0 12.4 8.3c2.5-3.6 7.9-6 13.8-6 6 0 11.4 2.4 13.8 6Zm42.4 2.1a7.6 7.6 0 0 0 10.4-2c2.4-3.7 7.8-6 13.8-6s11.3 2.3 13.8 6a7.5 7.5 0 0 0 10.4 2c3.4-2.3 4.3-7 2-10.4-5.2-7.8-15.3-12.6-26.2-12.6s-21 4.8-26.2 12.6a7.5 7.5 0 0 0 2 10.4Z"/>
  </symbol>
  <symbol id="item-2952">
    <title>native american man</title>
    <path fill="#d88a55" d="M446.8 433.3a94 94 0 0 0-46-34.9l-46.6-16a66.2 66.2 0 0 1-34.9-28.2c-9.3-15.2-20-35.7-21.2-50.6l-2-27.8H216l-2 27.8c-1.1 14.9-11.9 35.4-21.2 50.6-8 13.1-20.3 23-34.9 28.1l-46.5 16.1A93.9 93.9 0 0 0 48 487.2v11.6c0 3.1 2.6 5.7 5.8 5.7H458c3.2 0 5.8-2.5 5.8-5.7v-11.6a94 94 0 0 0-17-54Z"/>
  <path fill="#fd6930" d="M354.2 382.3c-14.6-5-26.9-15-34.9-28-9.3-15.3-20-35.8-21.2-50.7l-2-27.8H216l-2 27.8c-1.1 14.9-11.9 35.4-21.2 50.6-8 13.1-20.3 23-34.9 28.1l-7.4 2.6 26.3 119.6H337l17.3-122.2Z"/>
  <path fill="#d88a55" d="M256 392c27 0 51.7-10 70.6-26.4-9.8-14.6-27-43-28.5-62l-2-27.8H216l-2 27.8c-1.4 19-18.7 47.4-28.5 62a107.3 107.3 0 0 0 70.6 26.3Z"/>
  <path fill="#c57a44" d="M446.8 433.3a94 94 0 0 0-27-25.8 94 94 0 0 1 14.2 49.8v11.6c0 3.2-2.6 5.8-5.8 5.8H49c-.6 4-.9 8.3-.9 12.5v11.6c0 3.1 2.6 5.7 5.8 5.7H458c3.2 0 5.8-2.5 5.8-5.7v-11.6a94 94 0 0 0-17-54Z"/>
  <path fill="#fccd7f" d="m401.6 398.8-.9-.4-50.5-17.4c-4.2 47.5-44.8 84.8-94.2 84.8s-90-37.3-94.2-84.8l-50.5 17.4-.9.4c4.4 44.1 29 82.4 64.7 105.7H337a143.5 143.5 0 0 0 64.7-105.7Z"/>
  <path fill="#e9b665" d="M370 474.6H142a146.3 146.3 0 0 0 33.2 30H337a146.1 146.1 0 0 0 33.2-30Z"/>
  <ellipse cx="256" cy="464.9" fill="#01998d" rx="30.7" ry="39.6"/>
  <path fill="#d88a55" d="M256 327c-58.7 0-106.7-53.4-106.7-112v-96.5c0-6.5 5.3-11.8 11.7-11.8h190c6.4 0 11.7 5.3 11.7 11.8v96.4c0 58.7-48 112.1-106.7 112.1Z"/>
  <path fill="#d88a55" d="M256 327c-58.7 0-106.7-53.4-106.7-112v-96.5c0-6.5 5.3-11.8 11.7-11.8h190c6.4 0 11.7 5.3 11.7 11.8v96.4c0 58.7-48 112.1-106.7 112.1Z"/>
  <path fill="#c57a44" d="M351 106.7h-12.2V198c0 58.7-48 112.1-106.7 112.1a98.5 98.5 0 0 1-45.7-11.4c18.7 17.4 43 28.3 69.6 28.3 58.7 0 106.7-53.4 106.7-112.1v-96.4c0-6.5-5.3-11.8-11.7-11.8Z"/>
  <path fill="#d88a55" d="M149.3 236.2h-1.7c-13.6 0-24.6-11-24.6-24.6v-1.3c0-13.6 11-24.6 24.6-24.6h1.7v50.5Zm213.6 0h1.7c13.5 0 24.6-11 24.6-24.6v-1.3c0-13.6-11-24.6-24.6-24.6h-1.7v50.5Z"/>
  <path fill="#80d261" d="m187 116.2-17-.2a47.3 47.3 0 0 1-46.9-47.8l.2-17c0-2.5 2-4.4 4.4-4.4l17.1.2a47.3 47.3 0 0 1 46.9 47.8l-.2 17c0 2.4-2 4.4-4.4 4.4Zm138 0 17-.2a47.3 47.3 0 0 0 46.9-47.8l-.2-17c0-2.5-2-4.4-4.4-4.4l-17.1.2a47.3 47.3 0 0 0-46.9 47.8l.2 17c0 2.4 2 4.4 4.4 4.4Z"/>
  <path fill="#01998d" d="m293 111.5 16-6a47.2 47.2 0 0 0 28-60.8l-6-16a4.4 4.4 0 0 0-5.6-2.6l-16 6c-24.5 9-37 36.2-28 60.8l6 16a4.4 4.4 0 0 0 5.7 2.5Zm-74.1 0-16-6c-24.5-9-37-36.3-28-60.8l6-16a4.4 4.4 0 0 1 5.7-2.6l16 6c24.5 9 37 36.2 28 60.8l-6 16a4.4 4.4 0 0 1-5.7 2.5Z"/>
  <path fill="#80d261" d="m259.6 113.2 18.6-19a47.3 47.3 0 0 0-.6-66.9l-19-18.6a4.4 4.4 0 0 0-6.2.1l-18.6 19a47.3 47.3 0 0 0 .6 66.9l19 18.6a4.4 4.4 0 0 0 6.2 0Z"/>
  <path fill="#5b5555" d="M351 106.7H161c-6.4 0-11.7 5.3-11.7 11.8v31a71 71 0 0 0 83 5.1 26.8 26.8 0 0 1 35 5.6 71.1 71.1 0 0 0 95.4 12.7v-54.4c0-6.5-5.3-11.8-11.7-11.8Z"/>
  <path fill="#4a4545" d="M351 106.7h-12.2v77c8.6-2 16.7-5.8 24-10.8v-54.4c0-6.5-5.4-11.8-11.8-11.8Z"/>
  <path fill="#8ebac5" d="M149.3 111.5c29-18.7 66.6-30 107.6-30s77 10.8 105.8 28.8v43c-28.7-18-65.6-28.8-105.8-28.8s-78.6 11.4-107.6 30v-43Z"/>
  <path fill="#7ca1b1" d="M338.8 140.9a176 176 0 0 1 24 12.5v-43a176 176 0 0 0-24-12.6v43Z"/>
  <path fill="#008b81" d="M285.8 474.6h-59.6c3.4 17.2 15.4 30 29.8 30s26.4-12.8 29.8-30Z"/>
  <path d="M453 429a100.7 100.7 0 0 0-49-37.3l-47.4-16.4a59 59 0 0 1-31-25 208.2 208.2 0 0 1-15.7-30.6 125.1 125.1 0 0 0 56.6-76.1 32 32 0 0 0 30.1-32v-1.3a32.1 32.1 0 0 0-26.4-31.6v-63.3a54.7 54.7 0 0 0 26.2-47.2l-.2-17.1a11.8 11.8 0 0 0-12-11.8l-17 .2c-7.8 0-15.4 1.8-22.4 5L344 42l-6-16a11.8 11.8 0 0 0-15.2-7l-16 6c-5.4 2-10.5 4.9-15 8.5a55 55 0 0 0-9-11.5l-19-18.6a11.9 11.9 0 0 0-16.7.1l-18.6 19c-3.3 3.3-6 7-8.3 11a55.1 55.1 0 0 0-15-8.5l-16-6a11.8 11.8 0 0 0-15.3 7l-6 16-.7 2.4c-7-3.2-14.6-4.9-22.3-5h-17.1a11.8 11.8 0 0 0-12 11.8l-.2 17a55.2 55.2 0 0 0 26.2 47.2v63.3a32.1 32.1 0 0 0-26.3 31.6v1.2a32 32 0 0 0 30 32 125.1 125.1 0 0 0 56.6 76.2 196 196 0 0 1-15.8 30.6 59 59 0 0 1-31 25L108 391.6A100.7 100.7 0 0 0 40.7 487v11.6c0 7.3 5.9 13.3 13.2 13.3h404.2c7.3 0 13.3-6 13.3-13.3V487c0-20.9-6.4-41-18.4-58.2Zm-118.4 68h-50.8c6.2-8.1 10.1-19 10.3-31a101.5 101.5 0 0 0 62.2-75l37.1 12.8a135.5 135.5 0 0 1-58.8 93.2ZM169.8 385.3a74 74 0 0 0 15.2-10.4 115.1 115.1 0 0 0 142 0 74 74 0 0 0 15.2 10.4 86.3 86.3 0 0 1-49.9 65.2c-5-19-19.3-32.7-36.3-32.7s-31.4 13.7-36.4 32.7a86 86 0 0 1-49.8-65.2Zm63 79.6c0-17.8 10.4-32.2 23.2-32.2s23.2 14.4 23.2 32.2S268.8 497 256 497s-23.2-14.5-23.2-32.2Zm89.1-286.7a63.7 63.7 0 0 1-48.9-22.8 34 34 0 0 0-44.7-7.1 63.7 63.7 0 0 1-60.3 4.1c8.5-4.3 17.6-8 27-11a7.5 7.5 0 0 0-4.5-14.2 193 193 0 0 0-33.7 14.3v-25.9C185 98.4 220.4 89 256.9 89s70.4 9 98.4 25.5v26a213 213 0 0 0-98.4-23.4c-11.7 0-23.4.9-34.8 2.6a7.5 7.5 0 1 0 2.3 14.8C235 132.8 246 132 257 132c35.7 0 70.4 9 98.3 25.6v11.2a63.4 63.4 0 0 1-33.3 9.4Zm48.5 16a17.2 17.2 0 0 1 11.3 16.1v1.3c0 7.4-4.7 13.7-11.3 16.1v-33.5Zm-3.1-139.8h14l.1 14a39.8 39.8 0 0 1-18 33.6c-7.6-4.5-15.7-8.6-24.2-12a55 55 0 0 0 8.2-30c6-3.6 12.8-5.5 19.9-5.6ZM312 39l13.1-4.9 5 13.1a40 40 0 0 1-5.3 37.4c-9-3-18.5-5.3-28.1-7 3-9.7 3.3-19.9 1-29.4 4-4.1 8.8-7.2 14.3-9.2Zm-72.9-6 16.5-16.8 16.8 16.4c11.4 11.2 15 28 9.3 42.8a225.5 225.5 0 0 0-51.2.2 40 40 0 0 1 8.6-42.6ZM182 47.2l4.9-13L200 39c5.4 2 10.2 5.1 14.3 9.2-2.3 9.7-2 20 1.2 29.7-9.6 1.8-19 4.2-28 7.2a40 40 0 0 1-5.5-37.9Zm-51.4 21.1.1-14 14 .1c7 .1 13.9 2 19.9 5.5a55 55 0 0 0 8.5 30.6 209 209 0 0 0-23.6 12 40.1 40.1 0 0 1-18.9-34.2Zm11.2 159.4a17.2 17.2 0 0 1-11.3-16.1v-1.3c0-7.4 4.7-13.7 11.3-16.1v33.5Zm44.3 60.2a108.3 108.3 0 0 1-29.3-73v-51.4a79 79 0 0 0 79.5-2.6 19.3 19.3 0 0 1 25.3 4 78.8 78.8 0 0 0 18 15.9 27 27 0 0 0-9 8.2 7.5 7.5 0 1 0 12.3 8.3c2.6-3.7 8.2-6.2 14.3-6.2s11.8 2.5 14.3 6.2a7.5 7.5 0 0 0 13.7-4.2c10.5-.4 20.7-3 30-7.3v29c0 26.5-10.6 53.1-29.3 73-19 20.5-43.9 31.8-69.9 31.8s-50.8-11.3-69.9-31.7Zm29.4 38.5a105.3 105.3 0 0 0 81 0 216.9 216.9 0 0 0 20.3 37.4 100.2 100.2 0 0 1-121.6 0 216.9 216.9 0 0 0 20.3-37.5ZM55.6 487.2a86 86 0 0 1 48.7-77.8c1 6 2.4 12 4.2 18a7.5 7.5 0 0 0 14.3-4.3c-1.9-6.3-3.3-12.7-4.2-19.3l37-12.8a101.2 101.2 0 0 0 62.3 75 52 52 0 0 0 10.3 31h-50.8a138.1 138.1 0 0 1-44.4-49 7.5 7.5 0 0 0-13.1 7c8.4 15.8 19.7 30 33.2 42H55.6v-9.8Zm400.8 9.9H359c26-23 43.1-53.7 48.8-87.7a86 86 0 0 1 48.7 77.8v9.8Z"/>
  <path d="M240.5 248a21.7 21.7 0 0 0 30.3 0 7.5 7.5 0 1 0-10.4-10.7 6.8 6.8 0 0 1-9.5 0 7.5 7.5 0 0 0-10.4 10.8Zm44 30.3a7.5 7.5 0 1 0-8-12.6c-6 3.8-13 5.8-20.5 5.8s-14.6-2-20.4-5.8a7.5 7.5 0 0 0-8.1 12.6c8.3 5.3 18.1 8.1 28.5 8.1s20.2-2.8 28.5-8.1Zm-69.7-72.9a7.5 7.5 0 0 0-7.5 7.5v13a7.5 7.5 0 0 0 15 0v-13c0-4.1-3.4-7.5-7.5-7.5Zm82.4 28c4.1 0 7.5-3.3 7.5-7.4v-13a7.5 7.5 0 0 0-15 0v13c0 4.1 3.4 7.4 7.5 7.4Zm-68.2-36a7.5 7.5 0 0 0 10.5 2c3.4-2.3 4.3-7 2-10.4-5.3-7.9-15.6-12.8-26.7-12.8s-21.4 5-26.7 12.8a7.5 7.5 0 1 0 12.4 8.4c2.5-3.8 8.2-6.3 14.3-6.3s11.8 2.5 14.3 6.3Z"/>
  </symbol>
  <symbol id="item-2953">
    <title>parabolic microphone</title>
    <path fill="#5f6466" d="M142.5 437h-60l30 67.5h30V437Z"/>
  <path fill="#72777a" d="M67.5 437h45v67.5h-45V437Z"/>
  <path fill="#bec3c6" d="M82.5 217.5h45v90h-45v-90Z"/>
  <path fill="#72777a" d="M142.5 437V292.5h-30l-15 15v151.3l15 15a37.5 37.5 0 0 0 30-36.8Z"/>
  <path fill="#81888c" d="M67.5 437V292.5h45v181.3a37.5 37.5 0 0 1-45-36.8Z"/>
  <path fill="#5f6466" d="M142.5 337.5h-30v30h30a15 15 0 0 0 0-30Z"/>
  <path fill="#72777a" d="M52.5 352.5a15 15 0 0 0 15 15h45a15 15 0 0 0 0-30h-45a15 15 0 0 0-15 15Z"/>
  <path fill="#edeff0" d="M7.5 187.5h45v60h-45v-60Z"/>
  <path fill="#a9aeb2" d="M37.5 172.5v90h30l30-45-30-45h-30Z"/>
  <path fill="#939aa0" d="M187.5 172.5h-45l-30 45 30 45h45v-90Z"/>
  <path fill="#d6d9db" d="M142.5 172.5h-30l-30 45 30 45h30v-90Z"/>
  <path fill="#edeff0" d="M67.5 172.5h45v90h-45v-90Z"/>
  <path fill="#72777a" d="M172.5 142.5h43.8v150h-43.8v-150Z"/>
  <path fill="#a3e3ff" d="M412.5 7.5a212 212 0 0 0-30 2.1l-90 207.9 90 207.9a212 212 0 0 0 30 2.1V7.5Z"/>
  <path fill="#d6f3ff" d="M202.5 217.5a210 210 0 0 0 180 207.9V9.6a210 210 0 0 0-180 207.9Z"/>
  <path fill="#5f6466" d="M474.5 187.5h-30v60h30a30 30 0 1 0 0-60Z"/>
  <path fill="#72777a" d="M474.5 217.5a30 30 0 0 0-30-30h-32l-30 30 30 30h32a30 30 0 0 0 30-30Z"/>
  <path fill="#66d0ff" d="M233 202.5a181.6 181.6 0 0 0 0 30h134.5v-30H233Z"/>
  <path fill="#28b8fa" d="M352.5 187.5v60h30l15-30-15-30h-30Z"/>
  <path fill="#31a2e8" d="M382.5 187.5h30v60h-30v-60Z"/>
  <path d="M474.5 180H420v-67.5a7.5 7.5 0 0 0-15 0V180h-52.5a7.5 7.5 0 0 0-7.5 7.5v7.5H233c-3.8 0-7 3-7.4 6.9a192.1 192.1 0 0 0 0 31.2 7.5 7.5 0 0 0 7.5 6.9H345v7.5c0 4.1 3.3 7.5 7.5 7.5H405v164.9c-46-1.7-90.3-19.1-125.1-49.3a7.5 7.5 0 0 0-9.9 11.3c39.5 34.2 90.1 53 142.5 53 4 0 7.5-3.3 7.5-7.4V255h54.5a37.5 37.5 0 0 0 0-75Zm-234.4 45a172.4 172.4 0 0 1 0-15H345v15H240ZM360 240v-45h45v45h-45Zm114.5 0H420v-45h54.5a22.5 22.5 0 0 1 0 45Z"/>
  <path d="M412.5 0a216 216 0 0 0-153.8 63.7A217.2 217.2 0 0 0 211 135h-38.6a7.5 7.5 0 0 0-7.5 7.5V165H37.5a7.5 7.5 0 0 0-7.5 7.5v7.5H7.5a7.5 7.5 0 0 0-7.5 7.5v60c0 4.1 3.4 7.5 7.5 7.5H30v7.5c0 4.1 3.4 7.5 7.5 7.5H75v15h-7.5a7.5 7.5 0 0 0-7.5 7.5v38.8a22.5 22.5 0 0 0 0 42.4v130.8c0 4.1 3.4 7.5 7.5 7.5h75c4.1 0 7.5-3.4 7.5-7.5V373.7a22.5 22.5 0 0 0 0-42.4v-38.8c0-4.1-3.4-7.5-7.5-7.5H135v-15h30v22.5c0 4.1 3.4 7.5 7.5 7.5h38.7a217 217 0 0 0 36.9 60 7.5 7.5 0 1 0 11.3-9.9A202.4 202.4 0 0 1 405 15.1v67.4a7.5 7.5 0 0 0 15 0v-75c0-4.1-3.4-7.5-7.5-7.5ZM30 240H15v-45h15v45Zm30 15H45v-75h15v75Zm75 242H75v-26.5a44.8 44.8 0 0 0 60 0V497Zm0-60a30 30 0 0 1-60 0v-62h60v62Zm15-84.5c0 4.1-3.4 7.5-7.5 7.5h-75a7.5 7.5 0 0 1 0-15h75c4.1 0 7.5 3.4 7.5 7.5ZM135 330H75v-30h60v30Zm-45-45v-15h30v15H90Zm45-30H75v-75h60v75Zm30 0h-15v-75h15v75Zm15 30V150h25.6a218.1 218.1 0 0 0 .1 135H180Z"/>
  </symbol>
  <symbol id="item-2954">
    <title>insulin</title>
    <path fill="#fef48b" d="m474.4 12.1 13 13 9.7 12.3c3.2 3.2 4.1 8 2.4 12.2l-12.7 24.3-32.3-17.4-20.4-35.3 28.1-11.5a11 11 0 0 1 12.2 2.4Z"/>
  <path fill="#fee45a" d="m492 79.1-12.5-4-6.5-15 14.4-35L501 38.9c3.2 3.2 4.2 8 2.5 12.1L492 79.1Z"/>
  <path fill="#575965" d="M396.8 158 347 108.3l49.7-49.6 49.6 49.6-49.6 49.7Z"/>
  <path fill="#4f4f5b" d="m385.8 147.2 49.7-49.7 19 19-49.6 49.7-19-19Z"/>
  <path fill="#dff6fd" d="m80 398.4 35 34.9-26.3 26.2c-3 3-8 3-11.1 0l-23.8-23.8a8 8 0 0 1 0-11.1L80 398.4Z"/>
  <path fill="#6e6f80" d="M326.2 454.4 312 445l-45-44.7c-3-3-3-7.7 0-10.7l14.3-14.3 8.2-2.3 2.4-8.3L417 239.6l38.3 25 28 41.2-146.5 148.6c-3 3-7.7 3-10.7 0Z"/>
  <path fill="#fef48b" d="m483.3 305.8-66.2-66.2 31.8-12.2a10 10 0 0 1 10.7 2.3l22.1 22.2 11.5 15.3a10 10 0 0 1 2.3 10.7l-12.2 28Z"/>
  <path fill="#575965" d="M487 309.5 362 434.7l-7.8 2.8-2.8 7.8-14.3 14.3c-3 3-7.8 3-10.7 0L311.8 445l151-150.9c1.4-1.5 2.8-3.2 4-5l15.2 2 5 18.3Z"/>
  <path fill="#fee45a" d="m487 309.5-20.3-20.3c1.1-1.7 2-3.5 2.8-5.4l12.2-32 15.2 15.3a10 10 0 0 1 2.3 10.6L487 309.5Z"/>
  <path fill="#6e6f80" d="M428.4 15.5 473 60l19.4 26c3 3 3 8 0 11l-29.8 27.5c-3 3-8 3-11 0l-22.8-20.3-44.5-44.6c-3.1-3-3.1-8 0-11l33-33.1c3-3 8-3 11 0Z"/>
  <path fill="#575965" d="m497.8 96-33 33a8 8 0 0 1-11.1 0l-24.9-24.8L473 60l24.8 24.8c3 3 3 8 0 11.1Z"/>
  <path fill="#f2fbff" d="m230 225.3 53 53-160.5 160c-3 3.1-8 3.1-11 0l-10.6-6.2-33.2-33.3c-3-3-3-8 0-11L230 225.3Z"/>
  <path fill="#dff6fd" d="M288 283.2 261.1 310l-9.3 2.5-1.3 8-16.7 16.7-8.4 1.6-2.2 9-16.7 16.7-8 1.3-2.6 9.3-16.6 16.6-8.4 2.2-2.2 8.4L152 419l-8 2.6-2.6 8-16 16c-3 3-8 3-11 0L100.8 432l168-168 19 19.1Z"/>
  <path fill="#fef48b" d="m348 95.8 44.6 44.6 15.1 23c3 3 3 8 0 11L299.7 287c-3 3-8 3-11 0l-24-18.6-44.7-44.6c-3-3-3-8 0-11l117-117c3-3 8-3 11 0Z"/>
  <path fill="#fee45a" d="m417.5 176.3-117 117c-3 3-8 3-11 0l-24.9-24.9 128-128 24.8 24.8c3.1 3 3.1 8 0 11.1Z"/>
  <circle cx="318.8" cy="194.5" r="24.7" fill="#f7cf52"/>
  <path d="m496.4 305.8 9.8-26.3c2.5-6.7.9-14.3-4.2-19.4l-36.7-36.7a18.4 18.4 0 0 0-19.4-4.2l-30.8 11.5a8.3 8.3 0 0 0-3 2L261.8 383a15 15 0 0 0 0 21.3l59.3 59.2a15 15 0 0 0 21.3 0l67.4-67.5a7.5 7.5 0 1 0-10.6-10.6L356.6 428l-59.3-59.3 119.9-119.8 59.3 59.3-52.3 52.2A7.5 7.5 0 1 0 435 371l27.1-27.2 19.7 19.7-99.3 99.3a58.6 58.6 0 0 0-17.3 41.7 7.5 7.5 0 0 0 15 0c0-11.8 4.6-22.8 13-31.1l107-107.4a39.6 39.6 0 0 0 0-56.4l-4-4ZM346 438.6l-14.3 14.3-59.2-59.3 14.2-14.3 59.3 59.3ZM430.5 241l20.7-7.8c1.2-.4 2.5-.1 3.4.8l36.8 36.7c.9 1 1.2 2.3.8 3.5l-7.8 20.7-54-54ZM492 352.7l-19.5-19.5 15-15 2 2.1a24.7 24.7 0 0 1 2.5 32.4Zm-207.8-55.5a15.2 15.2 0 0 0 21.7 0l117-117c6-5.9 6-15.6 0-21.6l-.5-.5 25.6-25.6.4.5a15.2 15.2 0 0 0 21.7 0l33-33a15.3 15.3 0 0 0 0-21.7L501 76l9.7-23.4c2.9-7 1.3-15-4-20.4l-27-26.7c-5.4-5.4-13.4-7-20.4-4L436 11l-2.3-2.2a15.3 15.3 0 0 0-21.7 0l-33 33a15.2 15.2 0 0 0 0 21.7l.5.5-25.6 25.5-.5-.4c-6-6-15.7-6-21.7 0L214.8 206c-6 6-6 15.7 0 21.7l.5.5-80 79.9a7.5 7.5 0 0 0 10.7 10.6l79.9-80 11 11a7.5 7.5 0 1 0 10.5-10.6l-22-22a.3.3 0 0 1 0-.5l117-117h.4l69.4 69.5c.2.1.2.4 0 .5l-116.9 117h-.5l-22.4-22.5a7.5 7.5 0 1 0-10.6 10.6l11.3 11.3-17.2 17.3-14.8-14.8a7.5 7.5 0 1 0-10.6 10.6l14.8 14.8-16.6 16.6-8.5-8.4a7.5 7.5 0 1 0-10.6 10.6l8.4 8.4-16.6 16.7-14.8-14.8a7.5 7.5 0 1 0-10.6 10.6l14.8 14.8-16.7 16.6-8.4-8.4a7.5 7.5 0 1 0-10.6 10.6l8.4 8.5-16.6 16.6-14.8-14.8a7.5 7.5 0 1 0-10.6 10.6l14.8 14.8-16 16h-.5L73 392.2v-.5l48-47.9a7.5 7.5 0 1 0-10.7-10.6l-47.9 47.9a15.2 15.2 0 0 0 0 21.7l.7.6L48.5 418c-6 6-6 15.7 0 21.7l6.6 6.6-52.9 52.9a7.5 7.5 0 0 0 10.6 10.6l53-53 6.6 6.7a15.3 15.3 0 0 0 21.7 0l14.5-14.6.6.7a15.2 15.2 0 0 0 21.7 0l152.8-152.8.5.4ZM389.6 52.5l33-33 .3-.2.2.1 19 19a7.5 7.5 0 1 0 10.6-10.6l-5.2-5.2 17.6-7.3c1.4-.6 3-.3 4 .8L496 42.8c1 1 1.4 2.7.8 4l-7.3 17.7-11.7-11.7a7.5 7.5 0 1 0-10.6 10.6l25.4 25.4.1.3v.2l-33 33-.3.2-.3-.1L389.6 53v-.5Zm22.1 95-47.2-47.3L390 74.8l47.2 47.2-25.6 25.6ZM83.4 452.8l-.2.1H83l-12-12L59.3 429l-.1-.2v-.2L73.8 414 98 438.3 83.5 453Z"/>
  <path d="M318.8 225.4a32.2 32.2 0 1 0 0-64.4 32.2 32.2 0 0 0 0 64.4Zm0-49.4a17.2 17.2 0 1 1 0 34.4 17.2 17.2 0 0 1 0-34.4Z"/>
  </symbol>
  <symbol id="item-2955">
    <title>expert</title>
    <path fill="#94bde5" d="M483.6 272.4c0 97.4-61.3 180.6-147.4 213-1.5.6-158.2.9-162-.6a227.7 227.7 0 1 1 309.4-212.4Z"/>
  <path fill="#76a0d4" d="M453.8 159.8A253.7 253.7 0 0 1 300.6 456v29.8c20.4 0 35.1-.2 35.6-.4a227.6 227.6 0 0 0 117.6-325.6Z"/>
  <path fill="#73788c" d="m338.8 311.2 6-34.8c8-32 4.8-62-7.1-94.7-14-31.6-41.6-49.2-74.6-56.5-2.5-.2-5 1.9-7.5 1.9s-4.6-2-7.1-1.9a93.7 93.7 0 0 0-78.1 55.5v.1a148 148 0 0 0-8.4 95.6l9.6 38.4a5 5 0 0 0 6.6 3.5 229.2 229.2 0 0 1 140-5.3s9-.2 14 1.7a5 5 0 0 0 6.6-3.5Z"/>
  <path fill="#5e6577" d="m350 276.3-9.6 38.2a5 5 0 0 1-6.5 3.5c-5.2-1.8-10.4-3.5-15.6-5l9.2-37.8c7.9-32.6 5-67-8.3-97.8a95.3 95.3 0 0 0-56.1-52.2 93.4 93.4 0 0 1 78.5 55.5c13.4 30 16.3 63.7 8.3 95.6Z"/>
  <path fill="#f2f2f2" d="M372.4 395.2v17.6l-44 82.5H183.6l-44-51.8v-48.3c0-11 7.8-20.6 18.6-23l60.3-13.3c3.3-.8 6.2-2.4 8.5-4.7 21 6.8 33.2 8.2 58 0a17 17 0 0 0 8.5 4.7l60.3 13.3a23.6 23.6 0 0 1 18.6 23Z"/>
  <path fill="#ffc7b6" d="M285 354.2c-19.3 14.5-38.7 14.5-58 0 3.4-3.2 5.4-7.7 5.4-12.6V305h47.2v36.4c0 5 2 9.5 5.4 12.7Z"/>
  <path fill="#e2e8f5" d="M372.4 412.8v30.7l-44 61h-50.9l-21.5-9.4-22.5 9.4h-49.9l-25.9-36a254.5 254.5 0 0 0 214.7-55.7Z"/>
  <path fill="#fbd166" d="m272.9 499.3-34.8 1.2a1 1 0 0 1-1-1l-3.6-27.3v-83.7c0-.6.5-1 1-1h43c.6 0 1 .5 1 1v75l-4.6 34.8c0 .5-.5 1-1 1Zm-93 1.7h-35.5a1 1 0 0 1-1-1l-3.8-35.8v-20.7c0-.6.5-1 1-1h43c.6 0 1 .5 1 1v29L181 500c0 .6-.5 1-1 1Z"/>
  <path fill="#f5b742" d="M278.5 463.5v40c0 .6-.5 1-1 1h-43a1 1 0 0 1-1-1v-31.3c15.4-1.5 30.5-4.5 45-8.7Zm-93.9 8.9v31.1c0 .6-.4 1-1 1h-43a1 1 0 0 1-1-1v-39.3c14.6 4 29.6 6.9 45 8.3Z"/>
  <path fill="#fce698" d="M258.7 13 269 34a3 3 0 0 0 2 1.6s0 .6.2.6l19.4 3.5a3 3 0 0 1 1.6 5.1L277 59.2a3 3 0 0 0-.9 2.7l4.5 21.3a3 3 0 0 1-4.3 3.2l-19-10.8a3 3 0 0 0-2.8 0l-19 10.6a3 3 0 0 1-4.3-3.1l1.9-18.6.2-1.2c.2-1-.2-2-.9-2.6l-16.8-16.5a3 3 0 0 1 1.6-5.1l23.3-3.4a3 3 0 0 0 2.3-1.6L253.3 13a3 3 0 0 1 5.4 0Z"/>
  <path fill="#fbd166" d="M279.5 60.6a3 3 0 0 0-.9 2.7l4 23.2a3 3 0 0 1-4.4 3.2l-20.8-11a3 3 0 0 0-2.8 0l-20.8 11a3 3 0 0 1-4.4-3.2l3.8-22A42 42 0 0 0 271 35.6l.4.1 23.3 3.4a3 3 0 0 1 1.6 5.1l-16.8 16.4Z"/>
  <path fill="#fce698" d="m366.8 42 10.4 21.1a3 3 0 0 0 1.9 1.6c.1 0 .1.6.3.6l19.3 3.5a3 3 0 0 1 1.7 5l-15.2 14.5a3 3 0 0 0-.9 2.6l4.5 21.4a3 3 0 0 1-4.3 3.2l-19-10.8a3 3 0 0 0-2.8 0l-19 10.6a3 3 0 0 1-4.3-3.2l1.9-18.5.2-1.2c.1-1-.2-2-.9-2.7l-16.8-16.4a3 3 0 0 1 1.6-5.1l23.3-3.4A3 3 0 0 0 351 63l10.4-21a3 3 0 0 1 5.4 0Z"/>
  <path fill="#fbd166" d="M387.6 89.7a3 3 0 0 0-1 2.7l4 23.2a3 3 0 0 1-4.3 3.2l-20.8-11a3 3 0 0 0-2.8 0l-20.9 11a3 3 0 0 1-4.3-3.2l3.8-22A42 42 0 0 0 379 64.7h.3l23.4 3.5a3 3 0 0 1 1.6 5l-16.8 16.5Z"/>
  <path fill="#fce698" d="M150.6 42 161 63.1a3 3 0 0 0 2 1.6s0 .6.2.6l19.4 3.5a3 3 0 0 1 1.6 5L169 88.4a3 3 0 0 0-.8 2.6l4.5 21.4a3 3 0 0 1-4.4 3.2l-19-10.8a3 3 0 0 0-2.8 0l-19 10.6a3 3 0 0 1-4.3-3.2l2-18.5.1-1.2c.2-1-.1-2-.8-2.7l-16.9-16.4a3 3 0 0 1 1.7-5.1l23.3-3.4a3 3 0 0 0 2.2-1.7l10.4-21a3 3 0 0 1 5.4 0Z"/>
  <path fill="#fbd166" d="M171.4 89.7a3 3 0 0 0-.9 2.7l4 23.2a3 3 0 0 1-4.3 3.2l-20.9-11a3 3 0 0 0-2.8 0l-20.8 11a3 3 0 0 1-4.4-3.2l3.8-22A42 42 0 0 0 163 64.7h.4l23.3 3.5a3 3 0 0 1 1.6 5l-16.8 16.5Z"/>
  <path fill="#ffdcd0" d="M196.2 243.4v-16.6c0-33.6 34.2-56.6 58.6-61.7.8-.2 1.6-.2 2.4 0 24.8 5.2 58.6 27.6 58.6 61.7V246a83.4 83.4 0 0 1-52.4 77.4 20 20 0 0 1-14.8 0 83.4 83.4 0 0 1-52.4-77.4v-2.6Z"/>
  <path fill="#f5b742" d="M371.4 504.5h-43a1 1 0 0 1-1-1v-60c0-.6.4-1 1-1h43c.5 0 1 .5 1 1v60c0 .6-.5 1-1 1Z"/>
  <path d="M428.2 110.2a7.5 7.5 0 0 0-10.9 10.4 222.7 222.7 0 0 1-37.5 338.8v-17c0-4-3.3-7.4-7.4-7.4h-45a7.5 7.5 0 0 0-7.5 7.5v62c0 4.1 3.3 7.5 7.5 7.5h45c4.1 0 7.5-3.4 7.5-7.5v-27.3a237.6 237.6 0 0 0 48.3-367ZM364.9 497h-30v-47h30v47ZM37.3 201.4A7.4 7.4 0 0 0 47 197c10.7-29 27-55 48.6-77.4a7.5 7.5 0 1 0-10.8-10.4A236.4 236.4 0 0 0 33 191.8a7.5 7.5 0 0 0 4.4 9.6Z"/>
  <path d="M364.9 395.2v14.3a7.5 7.5 0 0 0 15 0v-14.3a31 31 0 0 0-24.4-30.3L295 351.5c-4.7-1-8-5.1-8-10v-22.9l4.7-3.7a228 228 0 0 1 39.6 10.2 12.5 12.5 0 0 0 16.3-8.8l9.5-38.2c7.8-31.2 5.7-63.6-5.9-93.6a7.5 7.5 0 0 0-14 5.4 139.6 139.6 0 0 1 5.4 84.5l-8.9 35.6c-9.7-3.3-19.6-6-29.6-8a90.6 90.6 0 0 0 19.1-56v-19.2c0-36.4-33.2-60.5-59.8-67.9v-26.1a85.8 85.8 0 0 1 57.4 29A7.5 7.5 0 1 0 332 152a101 101 0 0 0-168.6 25.6v.2a156 156 0 0 0-8.8 100.4l9.6 38.4a12.5 12.5 0 0 0 16.3 8.8h.1c12.9-4.7 26.2-8.2 39.7-10.4l4.5 3.6v23c0 4.8-3.3 8.9-8 10l-60.4 13.2a31 31 0 0 0-24.4 30.4v14.3a7.5 7.5 0 0 0 15 0v-14.3c0-7.5 5.3-14.1 12.7-15.7l60.3-13.3a25 25 0 0 0 19.8-24.7v-13.8c1.9 1 3.9 1.8 5.9 2.6a27.2 27.2 0 0 0 20.4 0l6-2.6v13.8c0 12 8 22 19.7 24.7l60.3 13.3a16.2 16.2 0 0 1 12.7 15.7Zm-104.3-78.8c-3 1.2-6.3 1.2-9.2 0a75.5 75.5 0 0 1-46.5-56.8 7.5 7.5 0 0 0-14.7 2.7A90.2 90.2 0 0 0 208 302c-10 2.1-20 5-29.8 8.3l-8.9-35.7a141 141 0 0 1 7.9-90.8v-.1a86 86 0 0 1 71.3-51V159c-25.8 7.4-59.2 31.6-59.8 67 0 4.1 3.2 7.5 7.4 7.6 4.2 0 7.5-3.3 7.6-7.4.4-28 30.2-48.8 52.3-53.6 21.6 4.6 52.3 24.6 52.3 54.3V246a75.5 75.5 0 0 1-47.7 70.4Z"/>
  <path d="M278.5 380h-45a7.5 7.5 0 0 0-7.5 7.5v117c0 4.1 3.4 7.5 7.5 7.5h45c4.1 0 7.5-3.4 7.5-7.5v-43a7.5 7.5 0 0 0-15 0V497h-30V395h30v31.4a7.5 7.5 0 0 0 15 0v-38.9c0-4.1-3.4-7.5-7.5-7.5Zm-93.9 55h-45a7.5 7.5 0 0 0-7.5 7.5v16.9a222.6 222.6 0 0 1-94.4-229.8 7.5 7.5 0 1 0-14.7-3 239.2 239.2 0 0 0 27.5 167.3c19.8 34 48 62.7 81.6 83.3v27.3c0 4.1 3.4 7.5 7.5 7.5h45c4.2 0 7.5-3.4 7.5-7.5v-62c0-4.1-3.3-7.5-7.5-7.5Zm-7.5 62h-30v-47h30v47Zm48.5-432.6L221 91.2a7.5 7.5 0 0 0 10.9 8L256 86.4 280.1 99a7.5 7.5 0 0 0 11-7.9l-4.7-26.8 19.5-19a7.5 7.5 0 0 0-4.1-12.8l-27-4-12-24.4a7.5 7.5 0 0 0-13.5 0l-12 24.4-27 4a7.5 7.5 0 0 0-4.2 12.7l19.5 19Zm17.7-21.5a7.5 7.5 0 0 0 5.6-4l7.1-14.4 7 14.3a7.7 7.7 0 0 0 5.7 4.1l15.9 2.3L273 56.4a7.5 7.5 0 0 0-2 6.6l2.7 15.8-14.1-7.5a7.5 7.5 0 0 0-7 0l-14.2 7.5L241 63c.5-2.4-.4-4.9-2.1-6.6l-11.5-11.2 15.9-2.3ZM117.5 93.4l-4.6 27a7.5 7.5 0 0 0 10.9 7.8l24.1-12.7 24.2 12.7a7.5 7.5 0 0 0 10.8-7.9l-4.6-26.9 19.5-19a7.5 7.5 0 0 0-4.1-12.8l-27-3.9-12-24.4a7.5 7.5 0 0 0-13.5 0l-12 24.4-27 4A7.5 7.5 0 0 0 98 74.3l19.5 19ZM135.2 72a7.5 7.5 0 0 0 5.6-4.1l7.1-14.4L155 68c1 2.2 3.2 3.7 5.7 4l15.8 2.4-11.5 11a7.5 7.5 0 0 0-2.1 6.7l2.7 15.8-14.2-7.5a7.5 7.5 0 0 0-7 0l-14.1 7.5L133 92c.4-2.4-.4-5-2.2-6.7l-11.4-11.1 15.8-2.3Zm198.5 21.4-4.6 27a7.5 7.5 0 0 0 10.9 7.8l24-12.7 24.2 12.7a7.5 7.5 0 0 0 10.9-7.9l-4.6-26.9 19.5-19a7.5 7.5 0 0 0-4.2-12.8l-27-3.9-12-24.4a7.5 7.5 0 0 0-13.5 0l-12 24.4-27 4a7.5 7.5 0 0 0-4.1 12.7l19.5 19ZM351.4 72a7.5 7.5 0 0 0 5.6-4.1l7-14.4 7.2 14.4c1 2.2 3.2 3.7 5.6 4l15.8 2.4-11.4 11.1a7.5 7.5 0 0 0-2.2 6.7l2.7 15.8-14.1-7.5a7.5 7.5 0 0 0-7 0l-14.2 7.5 2.7-15.8c.4-2.4-.4-5-2.1-6.7l-11.5-11.1 15.8-2.3Z"/>
  </symbol>
  <symbol id="item-2956">
    <title>spy bug</title>
    <path fill="#81888c" d="m479 11.9-53.1 53L447 86.1l53-53a15 15 0 1 0-21-21.2Z"/>
  <path fill="#72777a" d="m292 304.8-21-21.2-191 191 21.2 21.1a30 30 0 0 0 42.5 0L292 347.2a30 30 0 0 0 0-42.4Z"/>
  <path fill="#81888c" d="M122.3 474.5 271 326a30 30 0 0 0 0-42.4l-63.7-63.7a30 30 0 0 0-42.4 0L16.3 368.4a30 30 0 0 0 0 42.5l63.6 63.6a30 30 0 0 0 42.4 0Z"/>
  <circle cx="186" cy="326" r="60" fill="#d6f3ff"/>
  <path d="M186 318.5a7.5 7.5 0 1 0 0 15 7.5 7.5 0 0 0 0-15Zm7.5-29a7.5 7.5 0 1 0 0 15 7.5 7.5 0 0 0 0-15Z"/>
  <circle cx="164.8" cy="304.4" r="7.5"/>
  <path d="M157 326.3a7.5 7.5 0 1 0 0 15 7.5 7.5 0 0 0 0-15Zm21.5 21.2a7.5 7.5 0 1 0 0 15 7.5 7.5 0 0 0 0-15Zm28.7-7.5a7.5 7.5 0 1 0 0 15 7.5 7.5 0 0 0 0-15Zm7.5-29a7.5 7.5 0 1 0 0 15 7.5 7.5 0 0 0 0-15ZM170 458.6l-31.8 31.8c-8.7 8.8-23 8.8-31.8 0l-84.8-84.8c-8.8-8.8-8.8-23 0-31.9l95.4-95.4a7.5 7.5 0 1 0-10.6-10.6L11 363a37.6 37.6 0 0 0 0 53l84.8 85a37.6 37.6 0 0 0 53 0l31.9-31.9a7.5 7.5 0 1 0-10.6-10.6Z"/>
  <path d="M505.4 6.6c-8.7-8.8-23-8.8-31.8 0l-53 53c-3 3-3 7.7 0 10.6l5.3 5.3-176.3 176.3-37.1-37.2a37.6 37.6 0 0 0-53 0l-31.9 31.9a7.5 7.5 0 1 0 10.6 10.6l31.9-31.9c8.7-8.7 23-8.7 31.8 0l84.8 85c8.8 8.7 8.8 23 0 31.7l-95.4 95.5a7.5 7.5 0 1 0 10.6 10.6l95.5-95.5a37.6 37.6 0 0 0 0-53l-37.2-37.1L436.5 86l5.3 5.3c2.9 3 7.6 3 10.6 0l53-53c8.8-8.8 8.8-23 0-31.8Zm-10.6 21.2-47.7 47.7L436.5 65l47.7-47.7a7.5 7.5 0 0 1 10.6 10.6Z"/>
  <path d="M233.7 278.3a67.6 67.6 0 1 0-95.4 95.6 67.6 67.6 0 0 0 95.4-95.6ZM149 363a52.6 52.6 0 1 1 74.4-74.2A52.6 52.6 0 0 1 149 363Z"/>
  </symbol>
  <symbol id="item-2957">
    <title>ceasarean</title>
     <path fill="#ffdfcf" d="M280.5 504.5c36.6-62-15-115-15-115l-83-31-32.2 55.8 23.8 90.2h106.4Z"/>
  <path fill="#ffdfcf" d="M303.4 238.6a180.6 180.6 0 0 0-39.7-43.7 65 65 0 0 1-22.3-68c9.8-4.3 19-9.5 27.4-15.4 32-23 30-71-3.3-91.8-7.5-4.6-15.6-8.7-23.7-12.2H115.3c-7.6 39.6-10.5 76.8-5.1 112.4 6.2 41-.8 82.7-19.2 119.9a179.8 179.8 0 0 0-20 83c-4.7 67.5 63.5 103.7 63.5 181.7h91.2c17-35.6 5-70.8-7.2-93.2 2 0 4.2-.4 6.2-1.2 24-9.6 45.4-21.6 62.5-37.3a105.3 105.3 0 0 0 16.1-134.2Z"/>
  <path fill="#ffcebf" d="M303.4 238.6a180.6 180.6 0 0 0-39.7-43.7 65 65 0 0 1-22.3-68c9.8-4.3 19-9.5 27.4-15.4 32-23 30-71-3.3-91.8-7.5-4.6-15.6-8.7-23.7-12.2h-26.7c8.1 3.5 16.2 7.6 23.6 12.2a55.2 55.2 0 0 1 3.4 91.8 128 128 0 0 1-11.4 7 34.7 34.7 0 0 0-17.5 35.5 65.4 65.4 0 0 0 23.8 40.9c16 12.8 29.4 27.5 40 44.3a105 105 0 0 1-17 134 202 202 0 0 1-62 36.9h-.1a5.4 5.4 0 0 0-2.9 7.4c10.9 22.5 19.4 54.6 4 87h26.7c17-35.6 5-70.8-7.2-93.2 2 0 4.2-.4 6.2-1.2 24-9.6 45.4-21.6 62.5-37.3a105.3 105.3 0 0 0 16.2-134.2Z"/>
  <path fill="#baafb8" d="m339.7 229.8 12-15-1-18.5-18.3 3-74.9 92.6a68 68 0 0 0 68.6-23.4l10-12.3c1.6-2 2.4-4.6 2.2-7.2l-.9-12a11 11 0 0 1 2.3-7.2Z"/>
  <path fill="#ad9ca9" d="m322 212 10.3-12.8 19.4 15.6-10.3 12.8-19.4-15.7Z"/>
  <path fill="#64caff" d="m350.3 210.6 11-3 13.2-16.5 24.4-23.7 29.3-33.4 3.8-20.6-2.1-14-8-6.4a29 29 0 0 0-33.4 10.4l-61 84.9a5.8 5.8 0 0 0 1 7.8l17.3 14 4.5.5Z"/>
  <path fill="#00b8ff" d="M430.4 97.7c-2.6-2-5.4-3.6-8.4-4.7a29 29 0 0 1-3 34.9l-70.2 77.6a5.8 5.8 0 0 1-8 .6l14.8 11.9c2.4 2 5.9 1.6 8-.6l70-77.6a29 29 0 0 0-3.2-42Z"/>
  <path d="M293.8 463.7c-4.1-.6-8 2.2-8.5 6.3a85.5 85.5 0 0 1-11.3 30.7 7.5 7.5 0 1 0 13 7.6 100.4 100.4 0 0 0 13-36c.7-4.2-2.1-8-6.2-8.6ZM78.6 323.3v-.6c0-18.5 2.6-36 8.2-53.2a7.5 7.5 0 0 0-14.3-4.6 186 186 0 0 0-9 57.6c-2.3 35.7 14.4 63.5 30.7 90.3 16.1 26.8 32.8 54.4 32.8 91.7a7.5 7.5 0 0 0 15 0c0-41.5-17.8-71-35-99.4-15.7-26.1-30.6-50.7-28.4-81.8Zm9-76.8a7.5 7.5 0 0 0 10-3.4 208.2 208.2 0 0 0 20-124.3c-4.9-31.8-3.2-66.7 5-109.9A7.5 7.5 0 0 0 108 6.1c-8.7 44.9-10.4 81.4-5.3 115 6 39-.4 79-18.5 115.3a7.5 7.5 0 0 0 3.4 10Zm59.9 33.2c-5-4-7.6-6.6-7.7-6.7a7.5 7.5 0 0 0-10.7 10.5c.2.2 3.2 3.3 9 7.9a7.5 7.5 0 0 0 9.4-11.7Zm33.4 21.3c-6-3-11.8-6.3-17.3-9.8a7.5 7.5 0 1 0-8 12.6 215 215 0 0 0 18.5 10.5A7.5 7.5 0 1 0 181 301Zm35.1 29a7.5 7.5 0 0 0 2-14.8c-6.4-1.7-12.8-3.8-19-6.2a7.5 7.5 0 1 0-5.3 14c6.6 2.5 13.4 4.8 20.2 6.7l2 .3Zm40 7.2h.5a7.5 7.5 0 0 0 .6-15c-6.6-.5-13.2-1.4-19.7-2.5a7.5 7.5 0 1 0-2.6 14.7c7 1.3 14 2.2 21.1 2.8Zm21.2.8 11.4-.4a7.5 7.5 0 1 0-.9-15c-3.5.2-7.1.3-10.6.3a7.5 7.5 0 0 0 0 15h.1Zm133.1-207.9c2.1 0 4.3-1 5.8-2.8l3-3.8a7.5 7.5 0 0 0-11.6-9.4l-3 3.8a7.5 7.5 0 0 0 5.7 12.2Z"/>
  <path d="M448.5 117.4A36.2 36.2 0 0 0 435.1 92a36.2 36.2 0 0 0-27.9-7.8A36.2 36.2 0 0 0 382.5 99l-12.9 17.8a7.5 7.5 0 0 0 12.2 8.8l12.8-17.9c3.5-4.8 8.7-8 14.6-8.7a21.4 21.4 0 0 1 24.3 19.7c.6 5.9-1.4 11.6-5.4 16l-69 76.4-24.6-19.8 30.1-41.9a7.5 7.5 0 0 0-12.2-8.7l-31 43.2c-3.6 5-3.3 11.7.6 16.3l-19.5 24a192 192 0 0 0-34.1-35.2 57.6 57.6 0 0 1-20.6-56.8c8.7-4 16.9-8.7 24.2-13.8a63 63 0 0 0-2.5-105c-7.5-4.6-15.8-9-24.7-12.8a7.5 7.5 0 1 0-6 13.8c8.3 3.5 16 7.5 22.7 11.7a48 48 0 0 1 1.9 80 162 162 0 0 1-48.6 22.3 7.5 7.5 0 1 0 4 14.4c4.4-1.2 8.8-2.6 13-4a72.7 72.7 0 0 0 27.2 62 176.1 176.1 0 0 1 33.8 35.5l-41.1 50.9a7.5 7.5 0 0 0 4 12 76 76 0 0 0 56.9-9 96 96 0 0 1-30.5 77 194 194 0 0 1-59.7 35.7 142 142 0 0 0-14.6-20.7 7.5 7.5 0 0 0-11.2 10c.5.5 48 55.2 22.3 109a7.5 7.5 0 1 0 13.6 6.5c12.4-26.2 12-56.2-1-87l-2-4.4a251.7 251.7 0 0 0 34.5-17c5.8 7.3 16.5 23 20.6 43.4a7.5 7.5 0 0 0 14.7-2.9 120 120 0 0 0-22.7-48.8c5.6-4 10.8-8.3 15.6-12.7 27.3-25.1 40-62 34.3-99 2-2 3.7-4 5.4-6l10-12.4c2.8-3.5 4.2-7.9 3.9-12.4l-.9-12c0-.7.2-1.4.6-2l7.5-9.3a13.2 13.2 0 0 0 16-2.8l70.2-77.6a36.2 36.2 0 0 0 9.3-27.4ZM330 237.5l.8 12c0 .8-.1 1.5-.6 2l-10 12.3a60.7 60.7 0 0 1-48.4 22.4l61.7-76.4 7.7 6.2-7.3 9.1c-2.9 3.5-4.3 8-4 12.4Z"/>
  </symbol>
  <symbol id="item-2958">
    <title>ravioli</title>
    <path fill="#f0eef0" d="m35.1 370 5.3 8.4 9.3 13.7 25.1 27.8 47.4 34.8 72.9 27.7 105.6-5.5 134.8-72.4 37-76.6 6.2-124.9-16.3-52.1L435 94.3l-45.6-42L359 30.7 342 23l-13.7-4.9A248.5 248.5 0 0 0 35.1 370Z"/>
  <path fill="#e7e2e6" d="M328.3 18.2A236.8 236.8 0 1 1 35.1 369.9 248.5 248.5 0 1 0 328.3 18.2Z"/>
  <path fill="#ff7383" d="m441.8 289.9-6.6 16.5c-2.2 5.4-3.8 11-5 16.8l-5.1 27.7a90.4 90.4 0 0 1-52.5 66l-24.8 11a93 93 0 0 1-15.4 5.2l-54.8 13a88 88 0 0 1-29.4 2l-34-3c-21.2-2-41-11.5-56-26.7L124 383.7 92.4 354a90.4 90.4 0 0 1-28.6-66v-37c0-4.2.3-8.5 1-12.7l7-49.7a91 91 0 0 1 16-39.9l19.8-27.5a90.4 90.4 0 0 1 34.1-28.7l27.5-13.3a90.4 90.4 0 0 1 44.6-8.8l37.9 2.1c7.6.5 15.2 0 22.6-1.5l30-5.9a90.4 90.4 0 0 1 107.2 79.2l1.4 13.5a89 89 0 0 0 15.8 42.1l3.2 4.8c17.4 25 21.1 57 9.8 85.2Z"/>
  <path fill="#ff546a" d="m432 204.7-3.3-4.8a90.4 90.4 0 0 1-15.7-42.1l-1.5-13.5A90.4 90.4 0 0 0 324 63.5a90.3 90.3 0 0 1 57.4 74.8l1.5 13.5c1.6 15.1 7 29.6 15.7 42.1l3.3 4.8c17.4 25 21 57 9.8 85.2l-6.6 16.5c-2.2 5.4-3.8 11-5 16.8l-5.1 27.7a90.4 90.4 0 0 1-52.5 66l-24.8 11c-5 2.1-10.1 3.9-15.4 5.1l-54.8 13.1a88 88 0 0 1-29.4 2l-27.2-2.5a90 90 0 0 0 23.3 5.4l34 3.2c9.9 1 19.8.2 29.4-2l54.8-13.2a90 90 0 0 0 15.4-5.1l24.8-11a90 90 0 0 0 52.4-66l5.3-27.7a81 81 0 0 1 4.9-16.8l6.5-16.5a90.4 90.4 0 0 0-9.7-85.2Z"/>
  <path fill="#fff0ab" d="m243.1 199.3 2.3-3.3 3.1-5 6.7-11.6v-19.2l-1.3-30.2-3.3-19.4-7.4-7.3-4-2a7.5 7.5 0 0 0-6.9 0l-9 4.6a7.5 7.5 0 0 1-6.9 0l-9-4.6a7.5 7.5 0 0 0-6.9 0L191 106c-1.9 1-4 1.1-6 .4l-.4-.1a7.5 7.5 0 0 0-9.6 9.6l.1.4c.7 2 .6 4.1-.4 6l-4.9 9.6a7.5 7.5 0 0 0 0 6.8l4.7 9a7.5 7.5 0 0 1 0 6.9l-4.7 9a7.5 7.5 0 0 0 0 6.9l5 9.5c.9 1.9 1 4 .3 6l-.2.4a7.5 7.5 0 0 0 9.7 9.7l.4-.2c2-.7 4.1-.6 6 .4l9.5 4.9a7.5 7.5 0 0 0 6.9 0l9-4.6a7.5 7.5 0 0 1 6.9 0l9 4.6a7.5 7.5 0 0 0 6.9 0l4-2Z"/>
  <path fill="#ffe270" d="M270 170.6c1-2.2 1-4.7-.1-6.8l-4.7-9.1a7.5 7.5 0 0 1 0-6.8l4.7-9.1a7.5 7.5 0 0 0 0-6.9l-5-9.5c-.9-1.9-1-4-.3-6l.2-.4a7.5 7.5 0 0 0-9.7-9.6l-.4.1c-2 .7-4.1.6-6-.4l-5.5-2.8c.2 1.5.1 3-.4 4.6l-.1.4a11 11 0 0 0 .4 7.4l4.8 11.8c1.1 2.6 1.1 5.8 0 8.4l-4.6 11.1a11.1 11.1 0 0 0 0 8.4l4.7 11.2c1 2.6 1 5.7 0 8.4l-5 12.2c-.9 2.3-1 5-.3 7.3.5 1.6.6 3.2.4 4.7l5.6-2.8c1.9-1 4-1.1 6-.4l.3.1a7.5 7.5 0 0 0 9.6-9.7c-.7-2-.6-4.1.4-6l5-9.9Z"/>
  <path fill="#fff0ab" d="m354.2 231.8.7-4 .7-5.8 1.1-13.3-8.1-17.4-14-26.8-11.2-16.2-9.7-3.5-4.6-.1c-2.4-.1-4.7 1-6.1 2.9l-6.3 8a7.5 7.5 0 0 1-6.2 2.9l-10.2-.4c-2.4 0-4.7 1-6.1 3l-6.6 8.4a7.5 7.5 0 0 1-5.3 2.9h-.4a7.5 7.5 0 0 0-4.7 12.8l.3.3a7.5 7.5 0 0 1 2.2 5.6l-.3 10.7c-.1 2.4 1 4.7 2.9 6.2l8 6.2c1.9 1.5 3 3.8 2.9 6.2l-.4 10.2c0 2.4 1 4.7 3 6.2l8.4 6.6a7.5 7.5 0 0 1 2.8 5.3v.4a7.5 7.5 0 0 0 12.9 4.6l.3-.3a7.5 7.5 0 0 1 5.6-2.2l10.7.4c2.4 0 4.7-1 6.2-3l6.2-8c1.5-1.9 3.8-3 6.2-2.8l10.2.3c2.4.1 4.7-1 6.2-2.9l2.7-3.5Z"/>
  <path fill="#ffe270" d="M366.3 194.4c.1-2.3-1-4.6-2.9-6l-8-6.4a7.5 7.5 0 0 1-3-6.2l.4-10.1c.1-2.4-1-4.7-2.8-6.2l-8.5-6.6a7.5 7.5 0 0 1-2.9-5.3v-.4a7.5 7.5 0 0 0-12.8-4.6l-.3.3a7.5 7.5 0 0 1-5.6 2.2l-6.2-.2a11 11 0 0 1 1.6 4.3v.4c.4 2.5 1.7 5 3.5 6.6l9.4 8.6a11 11 0 0 1 3.6 7.6l.5 12a11 11 0 0 0 3.6 7.7l9 8.1c2 2 3.3 4.7 3.5 7.6l.6 13.1c.2 2.5 1.2 5 2.9 6.8 1.1 1.3 1.9 2.7 2.3 4.1l3.9-5a7.5 7.5 0 0 1 5.3-2.8h.3a7.5 7.5 0 0 0 4.6-12.9 7.5 7.5 0 0 1-2.2-5.6l.3-11Z"/>
  <path fill="#fff0ab" d="m226.4 340 .7-3.8.7-5.9 1.1-13.3-8.2-17.4-13.8-26.8-11.3-16.2-9.7-3.5-4.6-.1c-2.4-.1-4.7 1-6.2 2.9l-6.2 8a7.5 7.5 0 0 1-6.2 2.9l-10.2-.4c-2.4 0-4.7 1-6.2 3l-6.5 8.4a7.5 7.5 0 0 1-5.3 2.8h-.4a7.5 7.5 0 0 0-4.7 12.9l.3.3a7.5 7.5 0 0 1 2.2 5.6l-.3 10.7c-.1 2.4 1 4.7 2.8 6.2l8 6.2c2 1.5 3 3.8 3 6.2L145 339c0 2.4 1 4.7 3 6.2l8.4 6.6a7.5 7.5 0 0 1 2.8 5.3v.4a7.5 7.5 0 0 0 12.9 4.6l.3-.3a7.5 7.5 0 0 1 5.6-2.2l10.7.4c2.4 0 4.7-1 6.2-3l6.2-8c1.5-1.9 3.8-3 6.2-2.8l10.2.3c2.4.1 4.7-1 6.2-2.9l2.7-3.5Z"/>
  <path fill="#ffe270" d="M238.5 302.7c0-2.4-1-4.6-2.9-6.1l-8-6.3a7.5 7.5 0 0 1-3-6.2l.4-10.1c.1-2.4-1-4.7-2.9-6.2l-8.4-6.6a7.5 7.5 0 0 1-3-5.3v-.4a7.5 7.5 0 0 0-12.7-4.7l-.3.3a7.5 7.5 0 0 1-5.6 2.3l-6.2-.3a11 11 0 0 1 1.6 4.3v.5c.4 2.5 1.7 4.9 3.5 6.6l9.4 8.5c2.1 2 3.4 4.8 3.6 7.7l.5 12c0 2.9 1.4 5.7 3.5 7.6l9 8.2c2 2 3.4 4.7 3.5 7.5l.7 13.2c.1 2.5 1.2 5 2.9 6.8 1 1.2 1.9 2.6 2.3 4l3.9-4.9a7.5 7.5 0 0 1 5.3-2.9h.3a7.5 7.5 0 0 0 4.6-12.8 7.5 7.5 0 0 1-2.3-5.6l.3-11Z"/>
  <path fill="#fff0ab" d="m331.1 389.2 3.3-2.2 4.8-3.4 10.5-8.3 7.2-17.9L367 329l4.2-19.3-4.1-9.4-3-3.5a7.5 7.5 0 0 0-6.4-2.5l-10.1.9c-2.4.2-4.8-.7-6.3-2.5l-6.7-7.7a7.5 7.5 0 0 0-6.4-2.6l-10.6 1a7 7 0 0 1-5.7-2l-.3-.2a7.5 7.5 0 0 0-12.6 5.3v.5c0 2-1 4-2.6 5.4l-8 7a7.5 7.5 0 0 0-2.6 6.4l.9 10.1c.2 2.4-.7 4.8-2.6 6.3l-7.6 6.7a7.5 7.5 0 0 0-2.6 6.4l1 10.6a7 7 0 0 1-2 5.7l-.2.3a7.5 7.5 0 0 0 5.3 12.6h.4c2.1 0 4.1 1 5.5 2.6l7 8c1.6 1.9 4 2.8 6.4 2.6l10.1-.9c2.4-.2 4.8.7 6.3 2.6l6.7 7.6c1.6 1.9 4 2.8 6.3 2.6l4.5-.4Z"/>
  <path fill="#ffe270" d="M366.7 372.6c1.8-1.6 2.7-4 2.5-6.3l-.9-10.2c-.2-2.4.7-4.8 2.5-6.4l7.7-6.6c1.9-1.6 2.8-4 2.6-6.4l-1-10.6c-.2-2.1.5-4.2 2-5.8l.2-.3a7.5 7.5 0 0 0-5.3-12.5h-.4c-2.2 0-4.1-1-5.5-2.6l-4-4.6a11 11 0 0 1-2.1 4l-.3.4c-1.6 2-2.5 4.5-2.4 7l.1 12.7c0 2.9-1.1 5.8-3.1 7.8l-8.5 8.6c-2 2-3.2 5-3.1 7.8l.1 12.2c0 2.8-1.1 5.7-3 7.7l-9.2 9.5a11.2 11.2 0 0 0-3 6.7 11 11 0 0 1-1.4 4.5l6.2-.6a7 7 0 0 1 5.7 2l.3.2a7.5 7.5 0 0 0 12.5-5.4c0-2.1 1-4 2.5-5.5l8.3-7.3Z"/>
  <path fill="#6ce79a" d="M139.2 230.6c-21 0-38-17-38-38 0-3.6 2.9-6.5 6.5-6.5 21 0 38 17 38 38 0 3.6-3 6.5-6.5 6.5Zm271.8-1.2a38 38 0 0 1-53.7-1.5 6.5 6.5 0 0 1 .3-9.1 38 38 0 0 1 53.7 1.5 6.5 6.5 0 0 1-.3 9.1ZM258 418.5c-21 0-38-17-38-38 0-3.6 2.9-6.5 6.5-6.5 21 0 38 17 38 38 0 3.5-3 6.5-6.5 6.5Zm19.5-212.8a38 38 0 0 1-53.7-1.5 6.5 6.5 0 0 1 .3-9.2 38 38 0 0 1 53.7 1.5 6.5 6.5 0 0 1-.3 9.2Zm41.7-52.5a38 38 0 0 1 20.2-49.7c3.3-1.4 7.1.1 8.5 3.4a38 38 0 0 1-20.2 49.8 6.5 6.5 0 0 1-8.5-3.5Zm-79.9 154.5a38 38 0 0 1 49.8 20.3 6.5 6.5 0 0 1-3.5 8.5 38 38 0 0 1-49.8-20.3 6.5 6.5 0 0 1 3.5-8.5Z"/>
  <path d="M437 75C388.7 26.6 324.4 0 256 0S123.3 26.6 75 75A254.3 254.3 0 0 0 0 256c0 53.7 16.5 105.1 47.6 148.7a7.5 7.5 0 1 0 12.2-8.7A241.3 241.3 0 0 1 256 15c132.9 0 241 108.1 241 241S388.9 497 256 497a241.6 241.6 0 0 1-178.3-78.9 7.5 7.5 0 0 0-11.1 10.1A255 255 0 0 0 256 512a254 254 0 0 0 181-75c48.4-48.3 75-112.6 75-181s-26.6-132.7-75-181Z"/>
  <path d="M212.6 141.3c.1 0 9.3-5.3 18.5 1a7.5 7.5 0 1 0 8.5-12.3c-17-11.7-34-2-34.6-1.6a7.5 7.5 0 1 0 7.6 13Zm-9.9 32.5a31.5 31.5 0 0 0 18.2 5.8c9.2 0 16-4 16.4-4.2a7.5 7.5 0 0 0-7.6-13c0 .1-9.3 5.4-18.5-1a7.5 7.5 0 1 0-8.5 12.5Zm99.3 18.5c.3-.4 6.4-8.8 17.2-7a7.5 7.5 0 1 0 2.5-14.8 33.2 33.2 0 0 0-32 13.3 7.5 7.5 0 0 0 6.1 11.7c2.4 0 4.8-1.1 6.2-3.2Zm35 9.9a7.5 7.5 0 0 0-10.5 1.9c-.2.3-6.4 8.8-17.2 7a7.5 7.5 0 1 0-2.4 14.7 33.6 33.6 0 0 0 32-13.2 7.5 7.5 0 0 0-2-10.5Zm-162.8 98.4c.3-.4 6.4-8.8 17.2-7a7.5 7.5 0 1 0 2.4-14.8 33.2 33.2 0 0 0-32 13.2 7.5 7.5 0 0 0 6.2 11.8c2.4 0 4.7-1.1 6.2-3.2Zm34.9 9.8a7.5 7.5 0 0 0-10.4 2c-.3.3-6.4 8.8-17.2 7A7.5 7.5 0 1 0 179 334a33.6 33.6 0 0 0 32-13.2 7.5 7.5 0 0 0-1.9-10.4Z"/>
  <path d="M390.6 309.1c-2.4-5.4-7.5-9-13.4-9h-.4l-7-8.2a15 15 0 0 0-12.8-5.1l-10 1-6.8-7.8a15 15 0 0 0-12.6-5l-10.7.9-.3-.3a15 15 0 0 0-16-2.7c-5.4 2.3-9 7.5-9.1 13.4v.4l-8.1 7a15 15 0 0 0-5.2 10.5c-9.6-6-21.3-8.4-32.9-6.1a15 15 0 0 0-5-7.4l-8.2-6.3.4-10.2a15 15 0 0 0-5.8-12.3l-8.4-6.6v-.4a15 15 0 0 0-9.9-12.9c-5.6-2-11.6-.7-15.8 3.6l-.3.3-10.7-.4a15 15 0 0 0-12.4 5.8l-6.2 8-10.2-.3a15 15 0 0 0-12.4 5.7l-6.6 8.5h-.4c-5.9.5-10.8 4.3-12.8 9.9a15 15 0 0 0 3.5 15.8l.3.2-.4 10.8a15 15 0 0 0 5.8 12.3l8 6.3-.3 10.2a15 15 0 0 0 5.8 12.3l8.4 6.6v.4a14.9 14.9 0 0 0 15 13.8c4 0 7.8-1.5 10.7-4.5l.3-.3 10.7.4c4.8.2 9.4-2 12.4-5.8l6.2-8 10.2.3c4.8.2 9.4-2 12.4-5.7l6.6-8.5h.3a15 15 0 0 0 6.6-2.2 45.7 45.7 0 0 0 24 9.4 15 15 0 0 0 10.7 25h.4l7 8.2a15 15 0 0 0 12.7 5.1l10.2-1 6.6 7.8a15 15 0 0 0 12.7 5l10.7-.9.2.2a14.9 14.9 0 0 0 16 2.7c5.5-2.4 9-7.5 9.1-13.5l8.3-7.3a15 15 0 0 0 5-12.6l-1-10.2 7.8-6.6a15 15 0 0 0 5-12.7l-1-10.7.4-.3a15 15 0 0 0 2.7-16Zm-166.3 21.4-6.5 8.5-10.2-.4a15 15 0 0 0-12.4 5.8l-6.2 8-10.8-.4a15 15 0 0 0-11.2 4.5l-.3.3v-.4a15 15 0 0 0-5.8-10.6l-8.4-6.6.3-10.2a15 15 0 0 0-5.8-12.4l-8-6.2.4-10.7a15 15 0 0 0-4.5-11.2l-.2-.3h.4a15 15 0 0 0 10.6-5.8l6.5-8.5 10.2.4c4.8.2 9.4-2 12.4-5.8l6.2-8 10.8.3a15 15 0 0 0 11.2-4.4l.3-.3v.4a15 15 0 0 0 5.7 10.6l8.5 6.6-.4 10.2a15 15 0 0 0 5.8 12.3l8 6.3v2.4a14 14 0 0 0-2 14.2 47 47 0 0 0 3.1 6.2 15 15 0 0 0-7.7 5.2Zm18.9-16.2c15-5.8 31.8 1.1 38.5 15.6a30.3 30.3 0 0 1-38.5-15.6Zm133.3 1a15 15 0 0 0-3.8 11.4l1 10.7-7.8 6.7a15 15 0 0 0-5 12.7l.9 10.1-8.3 7.4a15 15 0 0 0-5.1 10.9l-.2-.2a15 15 0 0 0-11.5-3.9l-10.6 1-6.7-7.7a15 15 0 0 0-12.7-5l-10.1.8-7-8a15 15 0 0 0-11-5.2h-.4l.3-.3c2.8-3 4.2-7.1 3.9-11.2l6.1-2.1A14 14 0 0 0 296 325c-.7-1.7-1.5-3.2-2.3-4.7.5-1.7.6-3.5.5-5.2l-1-10.2 8.1-7a15 15 0 0 0 5.2-10.9v-.4l.3.3a15 15 0 0 0 11.5 3.8l10.6-1 6.7 7.7a15 15 0 0 0 12.7 5.1l10.1-.9 7 8.1a15 15 0 0 0 11 5.2h.4l-.3.3Z"/>
  <path d="M322.2 309.2c-4 .7-7 4.5-6.3 8.6.6 4 4.4 6.9 8.5 6.3.4 0 10.8-1.3 16.8 7.8a7.5 7.5 0 1 0 12.5-8.3 33.2 33.2 0 0 0-31.5-14.4Zm10.3 40.8c-.4.1-10.8 1.4-16.8-7.8a7.5 7.5 0 1 0-12.5 8.3 32.6 32.6 0 0 0 31.5 14.4 7.5 7.5 0 0 0-2.2-14.9ZM153.2 224.1c0-25-20.4-45.5-45.5-45.5a14 14 0 0 0-14 14 45.5 45.5 0 0 0 45.5 45.5 14 14 0 0 0 14-14Zm-44.5-30.4c16 .5 28.9 13.4 29.4 29.4a30.5 30.5 0 0 1-29.4-29.4Zm311.8 31.4c.1-3.7-1.2-7.3-3.8-10a45.5 45.5 0 0 0-43-13.1l.1-7.4a15 15 0 0 0-5.8-12.2l-8-6.3.3-10.2a15 15 0 0 0-5.8-12.3l-5.4-4.3a45.5 45.5 0 0 0 5.7-45.3 14 14 0 0 0-18.3-7.4 45.6 45.6 0 0 0-27.8 40.6A15 15 0 0 0 297 143l-6.2 8-10.2-.3c-2.8-.1-5.6.6-8 2l-.7-1.4 4.6-9a15 15 0 0 0 0-13.8l-4.9-9.5.2-.4a15 15 0 0 0-3.5-15.8 14.9 14.9 0 0 0-15.8-3.4h-.4l-9.5-4.8a15 15 0 0 0-13.7 0l-9 4.6-9.1-4.6a15 15 0 0 0-13.7 0l-9.5 4.9-.4-.2a15 15 0 0 0-15.8 3.5 14.8 14.8 0 0 0-3.5 15.8l.2.4-.2.3a7.5 7.5 0 1 0 13.4 6.8l.1-.3a15 15 0 0 0 .7-12l-.1-.4.4.1a15 15 0 0 0 12-.7l9.5-4.8 9.1 4.6a15 15 0 0 0 13.7 0l9-4.6 9.6 4.8a15 15 0 0 0 12 .8l.4-.2-.1.4a15 15 0 0 0 .7 12l4.9 9.6-4.7 9a15 15 0 0 0 0 13.7l4.7 9.1-5 10-.3.6a46.3 46.3 0 0 0-37.6 10.5c-2.5 0-5 .5-7.3 1.7l-9 4.6-9.6-4.9a15 15 0 0 0-12-.7l-.4.1.1-.3a15 15 0 0 0-.7-12l-4.9-9.6 4.7-9a15 15 0 0 0 1.5-5.1 7.5 7.5 0 0 0-14.9-1.8l-4.6 9a15 15 0 0 0 0 13.7l4.9 9.5-.2.4a15 15 0 0 0 3.5 15.8 14.9 14.9 0 0 0 15.8 3.5l.4-.1 9.5 4.8a15 15 0 0 0 13.7 0l5-2.5a14 14 0 0 0 2.6 4 45.1 45.1 0 0 0 47.2 11.9l-.3 9a15 15 0 0 0 5.8 12.4l8.5 6.6v.4a14.8 14.8 0 0 0 15 13.8c4 0 7.7-1.6 10.6-4.5l.3-.3 10.7.4c4.8.2 9.5-2 12.4-5.8l6.3-8 10.1.3c4.8.2 9.5-2 12.4-5.8l.9-1a45.5 45.5 0 0 0 57.8-4 14 14 0 0 0 4.4-9.7Zm-79.1-114.3c5.7 15-1.2 31.9-15.7 38.6a30.5 30.5 0 0 1 15.7-38.6Zm-90.8 97.7c-7.8-.2-15-3.3-20.6-8.7a30.3 30.3 0 0 1 41.6 1.1 30.2 30.2 0 0 1-21 7.6Zm84.8 21.8A15 15 0 0 0 323 236l-6.2 8-10.7-.4a15 15 0 0 0-11.2 4.5l-.3.3v-.4a15 15 0 0 0-5.8-10.6l-8.5-6.6.4-10.2a17 17 0 0 0-1.3-6.7l3.3-2.9a13.9 13.9 0 0 0 .5-19.8 45 45 0 0 0-11-8.5l4.4-8.9a15 15 0 0 0 1.6-5.8l1.9-2.5 10.2.4c4.8.2 9.4-2 12.3-5.8l6.3-8h2a24 24 0 0 0 1.4 4 14 14 0 0 0 18.3 7.4c2.6-1.1 5-2.4 7.4-4l7.3 5.8-.3 10.2a15 15 0 0 0 5.8 12.3l8 6.3-.3 11c0 1 0 2 .3 3a45.2 45.2 0 0 0-6.4 5.1 13.9 13.9 0 0 0-4 13.7l-2.8 3.7-10.2-.4Zm28-6.8c12-10.6 30.3-10 41.7 1.2a30.5 30.5 0 0 1-41.6-1.2Zm-136.9 143a14 14 0 0 0-14 14c0 25 20.4 45.5 45.5 45.5a14 14 0 0 0 14-14 45.5 45.5 0 0 0-45.5-45.5Zm1 15c16 .5 29 13.4 29.4 29.4a30.4 30.4 0 0 1-29.4-29.4ZM147 151.3v-11a7.5 7.5 0 0 0-15 0v11a7.5 7.5 0 0 0 15 0Zm-41.7 98.5a7.5 7.5 0 0 0-10.4 2l-3.5 5.4a7.5 7.5 0 0 0 12.5 8.3l3.5-5.4a7.5 7.5 0 0 0-2-10.4Z"/>
  <path d="M248.6 260.5c1.6 0 3.2-.5 4.5-1.6 3.3-2.5 4-7.2 1.5-10.5l-3.3-4.3a7.5 7.5 0 0 0-12 9l3.3 4.4c1.5 2 3.7 3 6 3Zm54.8-157.2v-2.9a7.5 7.5 0 0 0-15 0v3a7.5 7.5 0 0 0 15 0ZM380 171a7.5 7.5 0 1 0 8.5-12.5l-7-4.7a7.5 7.5 0 1 0-8.3 12.5l6.9 4.6Zm8.3 102.4V270a7.5 7.5 0 0 0-15 0v3.3a7.5 7.5 0 0 0 15 0ZM295 397.5a7.5 7.5 0 0 0-9 12l5.4 4c1.3 1 2.9 1.4 4.5 1.4a7.5 7.5 0 0 0 4.4-13.5l-5.3-4Zm-117.6-4.8v5.5a7.5 7.5 0 0 0 15 0v-5.5a7.5 7.5 0 0 0-15 0Zm5.1-161.1a7.5 7.5 0 0 0 0-15h-2.2a7.5 7.5 0 0 0 0 15h2.2Zm-81.3 69.5a7.5 7.5 0 0 0-7.5 7.5v5.4a7.5 7.5 0 0 0 15 0v-5.4c0-4.1-3.4-7.5-7.5-7.5Z"/>
  <path d="M448 266c4.1 0 7.6-3.2 7.7-7.4.5-21-5.6-41-17.6-58.2l-3.3-4.8a83 83 0 0 1-14.4-38.6l-1.4-13.5a98 98 0 0 0-116.2-85.7l-30 5.8a82.9 82.9 0 0 1-20.7 1.4l-37.9-2.2a98.2 98.2 0 0 0-48.2 9.6l-27.6 13.3a98.1 98.1 0 0 0-37 31.1l-19.6 27.5a98.3 98.3 0 0 0-17.4 43.2l-7.1 49.7a92 92 0 0 0-1 13.9v37c0 26.9 11.3 53 31 71.4l31.5 29.6 34 34.6a98 98 0 0 0 60.7 28.8l34 3.2a99.6 99.6 0 0 0 31.9-2.3l54.8-13a97.1 97.1 0 0 0 16.7-5.7l24.7-10.9a97.9 97.9 0 0 0 56.8-71.5l5.2-27.7c1-5.3 2.5-10.5 4.5-15.4l6.6-16.5 1.2-3.2a7.5 7.5 0 0 0-14.1-5l-1 2.6-6.6 16.5c-2.3 5.9-4.1 12-5.3 18.2l-5.2 27.7c-5 27-23 49.6-48.1 60.6L344.8 421c-4.5 2-9.3 3.6-14.1 4.8l-54.8 13a82.5 82.5 0 0 1-27 2l-34-3.3a83 83 0 0 1-51.3-24.3l-34.2-34.7-.2-.3-31.7-29.7A83.2 83.2 0 0 1 71.3 288v-37c0-3.8.3-7.8.8-11.6l7.1-49.7a85 85 0 0 1 14.7-36.6l19.8-27.5A83 83 0 0 1 145 99.3L172.5 86c12.7-6.2 26.8-9 40.8-8.2l38 2.2a98 98 0 0 0 24.5-1.6l29.9-6a83.1 83.1 0 0 1 98.4 72.7l1.4 13.5a98 98 0 0 0 17 45.6l3.3 4.8a82.4 82.4 0 0 1 14.9 49.3 7.5 7.5 0 0 0 7.3 7.7Z"/>
  </symbol>
  <symbol id="item-2959">
    <title>pet groomer</title>
    <path fill="#bb5d4c" d="M210.4 237h113.4c20-9 34-29.2 34-52.6v-85a90.6 90.6 0 0 0-181.3 0v85a58 58 0 0 0 34 52.7Z"/>
  <path fill="#a44f3e" d="M267.1 8.7a87 87 0 0 0-26.2 4A90.7 90.7 0 0 1 304.4 87h13.8c8.4 0 15.1 6.8 15.1 15.2v56.2a66.2 66.2 0 0 1-39.8 60.7l-2 2.6V237h32.3c20-9 34-29.2 34-52.7v-85c0-50-40.6-90.6-90.7-90.6Z"/>
  <path fill="#dff6fd" d="M389.5 282.4H385a19.1 19.1 0 0 1-19.1-19V242a52 52 0 0 0-24.6-6H192.8a53 53 0 0 0-53 51.9h20.7a118 118 0 0 1 15-14.2c10.8-8.4 22.5-13.9 29.8-9.3 7.6 4 8.7 17 6.8 30.4a98 98 0 0 1-.7 4.7H342a10 10 0 0 1 10 10V349a70.8 70.8 0 0 1-31 126h73.4V289l-.2-4.6c-1.8-.2-3.4-1-4.7-2.1Z"/>
  <path fill="#c8effe" d="M394.2 284.6c-1.8-.3-3.4-1-4.7-2.2s-4.4 0-4.4 0a19.1 19.1 0 0 1-19.1-19V242a52 52 0 0 0-24.6-6h-41.8a53 53 0 0 1 53 53v60.3a70.8 70.8 0 0 1 0 111.8v14h41.8V289c0-1.5 0-3-.2-4.5Z"/>
  <path fill="#918291" d="M106.5 146.2h22V7.5h-11.2c-9 0-16.4 7.4-16.4 16.4v123.8a11 11 0 0 1 5.6-1.5Z"/>
  <path fill="#ffcebf" d="M132.8 145.2h-26.3c-6.9 0-12.4 5.6-12.4 12.4v65h37V201h1.7c5.4 0 9.7-4.4 9.7-9.7v-36.5c0-5.3-4.3-9.7-9.7-9.7Z"/>
  <path fill="#ffb09e" d="M132.8 145.2h-20.5c5.4 0 9.7 4.4 9.7 9.7v36.5c0 5.3-4.3 9.7-9.7 9.7-1 0-1.7.7-1.7 1.6v19.8h20.6v-21.4h1.6c5.4 0 9.7-4.4 9.7-9.7v-36.5c0-5.3-4.3-9.7-9.7-9.7Z"/>
  <path fill="#dff6fd" d="M104 274.6c5.2 4 10.2 8.9 15 14.2l.3.3h.5l2.9-.1h19.5v-62.2c0-3-2.4-5.3-5.3-5.3H93c-3 0-5.3 2.4-5.3 5.3v38.3c5.8 2 11.8 6 16.3 9.5Z"/>
  <path fill="#c8effe" d="M121.5 226.8V289h20.7v-62.2c0-3-2.4-5.3-5.3-5.3h-20.7c3 0 5.3 2.4 5.3 5.3Z"/>
  <path fill="#0593fc" d="m201.3 327.4-.2.4 3.6 7.6h104.4c16.2 0 31 5.6 43 14.8v-40.6a10 10 0 0 0-10-10H210.2c-1.7 9.4-4.8 18.9-9 27.8Z"/>
  <path fill="#0182fc" d="M342 299.6h-41a10 10 0 0 1 10 10v25.9c15.4.4 29.6 5.8 41 14.7v-40.6a10 10 0 0 0-10-10Z"/>
  <path fill="#ffb09e" d="M267.1 223.7c-8.6 0-16.8-1.7-24.3-4.7v25.6a24.3 24.3 0 1 0 48.6 0V219c-7.5 3-15.7 4.7-24.3 4.7Z"/>
  <path fill="#f89580" d="M267.6 223.7v21c0 9-5 17-12.4 21.1a24.2 24.2 0 0 0 36.2-21.2V219c-7.4 3-15.4 4.6-23.8 4.7Zm-65.7-65.2v-37.1h-8.7a27.3 27.3 0 0 0 0 54.5h11a65 65 0 0 1-2.3-17.4ZM341 121.4h-8.7v37c0 6.1-.8 12-2.4 17.5h11.2a27.3 27.3 0 0 0 0-54.5Z"/>
  <path fill="#ffcebf" d="m283.4 92-4.2 6.8c-1.8 3-5.1 4.9-8.6 4.9H216c-8.4 0-15.2 6.8-15.2 15.1v39.7a66.2 66.2 0 0 0 132.4 0v-56.2a15 15 0 0 0-15.1-15.1H292c-3.6 0-6.8 1.8-8.7 4.8Z"/>
  <path fill="#ffb09e" d="M318.1 87.1h-14c.6 1.6.9 3.2.9 4.9v76.8c0 23.2-12 43.6-30 55.4a66.2 66.2 0 0 0 58.3-65.7v-56.2c0-8.4-6.8-15.1-15.2-15.1Z"/>
  <path fill="#918291" d="M386 275v-36.5c0-5.3 4.3-9.7 9.7-9.7H421v-42.4h-55v77a19 19 0 0 0 19.1 19h4.4a9.7 9.7 0 0 1-3.5-7.4Z"/>
  <path fill="#7a6d79" d="M401 186.4h20v42.4h-20v-42.4Z"/>
  <path fill="#ffcebf" d="M395.7 284.7h1.6v15.7h37.1v-59.2c0-6.8-5.5-12.4-12.4-12.4h-26.3a9.7 9.7 0 0 0-9.7 9.7V275c0 5.4 4.3 9.7 9.7 9.7Z"/>
  <path fill="#ffb09e" d="M413.4 241.2v59.2h21v-59.2c0-6.8-5.5-12.4-12.4-12.4h-21c6.9 0 12.4 5.6 12.4 12.4Z"/>
  <path fill="#dff6fd" d="M413.6 446c15 0 27.2-12.3 27.2-27.3v-114c0-3-2.4-5.3-5.3-5.3h-44a5.3 5.3 0 0 0-5.2 5.3v114c0 15 12.2 27.2 27.2 27.2Z"/>
  <path fill="#c8effe" d="M435.5 299.4h-20.8c3 0 5.3 2.4 5.3 5.3v114c0 11.3-7 21-16.9 25.2a27.2 27.2 0 0 0 37.7-25.2v-114c0-2.9-2.4-5.3-5.3-5.3Z"/>
  <path fill="#fff3de" d="M309.1 334.4H204.3l2.9 6c6.3 13.1 5 28.5-3.5 40.3l-13 18.2a39.7 39.7 0 0 1-32.3 16.6h-36.7l-2.9-.1v29.4H92.4c-15 0-27.2 12.2-27.2 27.2a4 4 0 0 0 1.4 3.1H321a71 71 0 0 0 59-69.8 71 71 0 0 0-70.9-70.9Z"/>
  <path fill="#fe9738" d="M309.1 334.4h-61a28 28 0 0 0 43.3 30.3 7.2 7.2 0 0 1 10.5 2.5 33.5 33.5 0 0 0 61.9-6.8 70.8 70.8 0 0 0-54.7-26Z"/>
  <path fill="#fed2a4" d="M87 311.4a39.8 39.8 0 0 1 33.5-22.3 114.4 114.4 0 0 0-15.9-15.3C94 265.5 82.2 260 75 264.5c-7.7 4.1-8.7 17-6.9 30.4 1.6 11.4 5.2 23.2 10.5 34.1l8.5-17.6Z"/>
  <path fill="#ffbd86" d="M205.3 264.5c-7.3-4.6-19 1-29.8 9.3-5.6 4.4-11 9.6-15.9 15.3 14.3.8 27.3 9.3 33.6 22.3l8.4 17.6c5.3-11 9-22.7 10.6-34 1.8-13.6.7-26.4-6.9-30.5Z"/>
  <path fill="#ffe5c2" d="M157.5 288h-34.8c-15.6 0-29.8 9-36.6 23l-14 29a40.6 40.6 0 0 0 3.6 41.3l13 18.2c7.6 10.7 20 17 33 17h36.7c13.1 0 25.4-6.3 33-17l13-18.2c8.7-12 10-27.9 3.6-41.3l-14-29c-6.7-14-21-23-36.5-23Z"/>
  <path fill="#fed2a4" d="m208 340-14-29c-6.7-14-21-23-36.5-23h-31.1c15.6 0 29.8 9 36.6 23l14 29c6.4 13.4 5 29.2-3.6 41.3l-13 18.2c-7.7 10.7-20 17-33 17h31c13.1 0 25.4-6.3 33-17l13-18.2c8.7-12 10.1-28 3.7-41.3Z"/>
  <path fill="#ffe177" d="M483.8 504.5H28.2a5 5 0 0 1-5-5v-20.4a5 5 0 0 1 5-5h455.6a5 5 0 0 1 5 5v20.4a5 5 0 0 1-5 5Z"/>
  <path fill="#ffd15b" d="M483.8 474.1H429a5 5 0 0 1 5 5v20.4a5 5 0 0 1-5 5h54.8a5 5 0 0 0 5-5v-20.4a5 5 0 0 0-5-5Z"/>
  <path d="M243.5 137v-9a7.5 7.5 0 0 0-15 0v9a7.5 7.5 0 0 0 15 0Zm54.8-16.5a7.5 7.5 0 0 0-7.5 7.5v9a7.5 7.5 0 0 0 15 0v-9c0-4.1-3.4-7.5-7.5-7.5Zm-36.5 43.8a7.5 7.5 0 1 0 10.6-10.6l-5.7-5.7 6.1-7.3a7.5 7.5 0 1 0-11.4-9.7l-10.6 12.6c-2.6 3-2.4 7.3.4 10.1l10.6 10.6Zm23.2 11.5a25.6 25.6 0 0 1-36.5 0 7.5 7.5 0 1 0-10.6 10.6 40.5 40.5 0 0 0 57.6 0 7.5 7.5 0 1 0-10.6-10.7ZM132.6 383.7l7.5-6.2 7.8 6.2a7.4 7.4 0 0 0 10.5-1.1c2.6-3.3 2-8-1.2-10.6l-9-7.2 6-6.3a9.4 9.4 0 0 0-7-15.9H133a9.4 9.4 0 0 0-6.9 15.9l6 6.3-8.9 7.3a7.5 7.5 0 1 0 9.5 11.6ZM108.5 326a7.5 7.5 0 0 0-7.5 7.6v9a7.5 7.5 0 0 0 15 0v-9c0-4.2-3.3-7.5-7.5-7.5Zm63.1 24c4.1 0 7.5-3.3 7.5-7.4v-9a7.5 7.5 0 0 0-15 0v9c0 4.1 3.4 7.5 7.5 7.5Z"/>
  <path d="M483.8 466.6h-82v-15.2a34.7 34.7 0 0 0 46.5-32.7v-114c0-4.7-2.6-8.8-6.4-11v-52.5a20 20 0 0 0-13.4-18.8v-55a7.5 7.5 0 0 0-15 0V179h-3.3v-11.4a7.5 7.5 0 0 0-15 0V179h-3.3v-11.4a7.5 7.5 0 0 0-15 0V179h-3.4v-11.4c0-1.4-.4-2.7-1-3.9a34.6 34.6 0 0 0-7.3-40V99.3a98.2 98.2 0 0 0-196.1 0v24.3a34.7 34.7 0 0 0 0 50v10.7a65 65 0 0 0 17.4 44.6 60 60 0 0 0-36.8 17.6v-19.7c0-6.5-4.8-11.8-11-12.7v-6.5a17.2 17.2 0 0 0 11.3-16.2v-36.5c0-8.4-6-15.4-14-16.9v-17h15.8a7.5 7.5 0 0 0 0-15H136V94.3h15.8a7.5 7.5 0 0 0 0-15H136V68h15.8a7.5 7.5 0 0 0 0-15H136V41.5h15.8a7.5 7.5 0 0 0 0-15H136V15h15.8a7.5 7.5 0 1 0 0-15h-34.5a24 24 0 0 0-24 24v36a7.5 7.5 0 0 0 15 0V24c0-5 4.1-9 9-9h3.6v122.7h-12.5V95a7.5 7.5 0 0 0-15 0v47.7c-4.2 3.6-6.8 9-6.8 15v58a12.8 12.8 0 0 0-6.4 11.1v28.6c-3.8.1-6.8 1.2-9.1 2.6-6.7 3.7-13.9 13.3-10.5 38 1.5 10.6 4.6 21.5 9.1 31.7l-4.4 9c-1.9 4-3.2 8.1-4 12.3h-7a7.5 7.5 0 0 0 0 15H61c.4 2.7 1 5.3 1.8 8h-8.5a7.5 7.5 0 0 0 0 15h16.2l12.1 16.9c7 9.7 17.3 16.4 28.7 19v14.4H92.4a34.8 34.8 0 0 0-34.3 29.3H28.2c-6.9 0-12.5 5.6-12.5 12.5v20.4c0 6.9 5.6 12.5 12.5 12.5h455.5c7 0 12.6-5.6 12.6-12.5V479c0-6.9-5.7-12.5-12.6-12.5Zm-126 0a78.7 78.7 0 0 0 24.4-33c1.2 2.6 2.8 5.1 4.7 7.3v25.7h-29ZM433.3 307v111.8a19.8 19.8 0 0 1-39.5 0V355a7.5 7.5 0 0 0-15 0v14.5a78.8 78.8 0 0 0-19.3-24.1v-35.8c0-9.6-7.8-17.5-17.5-17.5h-2.6v-48.5h2a45 45 0 0 1 17.1 3.3v16.4c0 14.7 12 26.6 26.6 26.6h2.1c.9.5 1.8 1 2.7 1.3v.9c-6.3.8-11 6.2-11 12.6V320a7.5 7.5 0 0 0 15 0v-13h39.4Zm-92.5-148.4V129h.3a19.8 19.8 0 0 1 0 39.5h-1c.5-3.2.7-6.6.7-10Zm17.7 72.6a60 60 0 0 0-10.8-2.2 66 66 0 0 0 10.8-15.6v17.8Zm-22-47.7h4.6c3.1 0 6.2-.4 9.1-1.2v2.2c0 18.5-10 35.3-26.2 44.2h-25V225a74.2 74.2 0 0 0 37.5-41.6Zm-10.7-25a58.8 58.8 0 0 1-117.4 0v-39.6c0-4.2 3.5-7.6 7.7-7.6h54.5c6 0 11.8-3.3 15-8.5l4.2-6.8c.5-.8 1.3-1.3 2.2-1.3h26.1c4.3 0 7.7 3.5 7.7 7.7v56.2ZM284 230.3v14.4a16.8 16.8 0 0 1-33.6 0v-14.4a73.8 73.8 0 0 0 33.6 0Zm-16.8 46.2a31.8 31.8 0 0 0 31.8-31.8v-1h25.5V292H220c2-20.9-4-29.8-10.1-33.6v-15h25.4v1.1a31.8 31.8 0 0 0 31.8 31.8Zm-65.7-5.5.4.2c2.7 1.5 4.8 9.2 3 22.8-.8 5-1.9 10-3.4 15l-.6-1.2a48.3 48.3 0 0 0-25.6-23.8l5-4.2c10.8-8.4 18.5-10.4 21.2-8.8Zm16 36.2H342c1.4 0 2.5 1.2 2.5 2.5v25.8a77.9 77.9 0 0 0-35.4-8.4h-98.3c2.8-6.5 5-13.2 6.6-19.9Zm91.7 34.8c18.2 0 34.6 7.8 46.2 20a26 26 0 0 1-46.8 1.8 14.7 14.7 0 0 0-21.5-5 20.2 20.2 0 0 1-13.4 3.7c-10-.6-18.4-9-19-19V342H309Zm113-105.6a5 5 0 0 1 4.9 5V292H405v-7.2c0-4.2-3.4-7.5-7.5-7.5h-1.7c-1.2 0-2.2-1-2.2-2.2v-36.5c0-1.2 1-2.2 2.2-2.2h26.4ZM373.4 194h40v27.4h-17.8c-9.5 0-17.2 7.7-17.2 17.2V273c-3-2.1-5-5.6-5-9.6V194ZM184.1 99.3a83.2 83.2 0 0 1 166.1 0v15.8c-2.9-.8-6-1.2-9.1-1.2h-.2v-11.6a22.7 22.7 0 0 0-22.7-22.7H292c-6.1 0-11.9 3.3-15 8.5l-4.2 6.8c-.5.8-1.4 1.3-2.3 1.3H216a22.7 22.7 0 0 0-22.1 17.7h-.8c-3.1 0-6.2.4-9.1 1.2V99.3Zm-10.7 49.4c0-11 8.9-19.8 19.8-19.8h.2v29.6c0 3.4.3 6.7.7 10h-.9a19.8 19.8 0 0 1-19.8-19.8Zm10.7 33.5c2.9.8 6 1.2 9.1 1.2h4.6a74 74 0 0 0 37.6 41.6v3.6h-25.1a50.2 50.2 0 0 1-26.2-44.2v-2.2Zm8.7 61.4h2v12.2c-6.2 1-14 4.5-23.9 12a120 120 0 0 0-13.6 12.7h-7.6v-6a45.2 45.2 0 0 1 43.1-31Zm-91.2-86a5 5 0 0 1 5-4.9h26.2c1.2 0 2.2 1 2.2 2.2v36.5c0 1.2-1 2.2-2.2 2.2h-1.6a7.5 7.5 0 0 0-7.5 7.5v13h-22v-56.5Zm33.1 71.4v51.5H123a120 120 0 0 0-13.7-12.6c-5.2-4-9.8-7-14-8.9v-30h39.5Zm-56.3 42.1.4-.2c2.6-1.6 10.4.4 21.2 8.8a98 98 0 0 1 5 4.2 48.3 48.3 0 0 0-25.6 23.8l-.6 1.2c-1.5-5-2.6-10-3.3-15-1.9-13.6.2-21.3 3-22.8Zm16.4 124-7.9-11c1-1.3 1.6-3 1.6-4.7 0-4.1-3.3-7.5-7.5-7.5h-2a32.8 32.8 0 0 1-2.7-8H81a7.5 7.5 0 0 0 0-15h-4.2c.5-1.9 1.2-3.8 2-5.6l14-29a33.3 33.3 0 0 1 30-18.8h34.7c12.6 0 24.3 7.3 29.8 18.7l14 29c1 2 1.6 3.8 2.1 5.8H199a7.5 7.5 0 0 0 0 15h5a33 33 0 0 1-2.7 8H199a7.5 7.5 0 0 0-5.8 12.2l-7.8 11a33.2 33.2 0 0 1-27 13.8h-36.6a33.2 33.2 0 0 1-27-13.8ZM481.3 497H30.7v-15.4H137a7.5 7.5 0 0 0 0-15H73.4c2.4-8.2 10-14.3 19-14.3h99.3a7.5 7.5 0 0 0 0-15h-65.4V424h32.1c15.5 0 30.1-7.5 39.1-20.1l12.2-17h15.7a7.5 7.5 0 0 0 0-15h-8c.8-2.5 1.4-5.2 1.7-7.9h6.3a7.5 7.5 0 0 0 0-15h-6.6c-.5-2.4-1-4.7-1.9-7h22.6v2.3a35.5 35.5 0 0 0 56 26.7 41.1 41.1 0 0 0 69.4 4.3 63.5 63.5 0 0 1-39.8 91.4h-51.9a10 10 0 0 1 9.8-8.3h26.1a53 53 0 0 0 53-53 7.5 7.5 0 0 0-15 0 38 38 0 0 1-38 38h-26a25 25 0 0 0-25 23.2h-86a7.5 7.5 0 0 0 0 15h309.2V497Z"/>
  </symbol>
  <symbol id="item-2960">
    <title>food stamps</title>
    <path fill="#857e87" d="M490.8 162.6v186.8L290 363.8 7.5 349.4v-58.6a4 4 0 0 1 3.3-3.9c16.2-2.6 28.5-15.5 28.5-30.9S27 227.7 10.8 225.1a4 4 0 0 1-3.3-4v-58.5l262.4-19 220.9 19Z"/>
  <path fill="#ffe077" d="m497.8 133.9 2.6 28.7H7.5v-33.9a4 4 0 0 1 4-4h137l7.6 10.3 7.5-10.3H462l31.7 5.2a4 4 0 0 1 4 4Zm1.7 215.5 2.3 27.8a4 4 0 0 1-4 4l-35.7 6H163.6l-7.5-6.8-7.5 6.9H11.5a4 4 0 0 1-4-4v-33.9h492Z"/>
  <path fill="#766e7a" d="M504.5 162.6v186.8l-15.7 8.4-19.2-8.4V162.6l21.2-9.4 13.7 9.4Z"/>
  <path fill="#ffd05b" d="M504.5 128.7v33.9h-35l7.6-37.9h23.4a4 4 0 0 1 4 4Zm0 220.7v33.9a4 4 0 0 1-4 4h-23.4l-7.5-37.9h34.9Z"/>
  <ellipse cx="329.4" cy="223.2" fill="#ffd05b" rx="18.3" ry="19.1"/>
  <path fill="#bbf39b" d="M310.5 250h-29a4 4 0 0 1-4-4v-35.7c0-1 .4-2 1.2-2.8 4.7-4.8 7.8-8 12.6-13.5a4 4 0 0 1 3-1.4h16.2a4 4 0 0 1 4 4V246a4 4 0 0 1-4 4Z"/>
  <path fill="#f9f8f9" d="m397.6 233.4-33.7 80.4a2 2 0 0 1-1.9 1.2h-98.6a2 2 0 0 1-1.8-1.2l-33.7-80.4a2 2 0 0 1 1.8-2.8h166a2 2 0 0 1 1.9 2.8Z"/>
  <path d="M156 251.5c4.2 0 7.6-3.4 7.6-7.5v-24.6a7.5 7.5 0 0 0-15 0V244c0 4.1 3.3 7.5 7.5 7.5Zm-7.4 43.3a7.5 7.5 0 0 0 15 0v-24.6a7.5 7.5 0 0 0-15 0v24.6Zm321-43.3c4.1 0 7.5-3.4 7.5-7.5v-24.6a7.5 7.5 0 0 0-15 0V244c0 4.1 3.3 7.5 7.5 7.5Zm-7.6 43.3a7.5 7.5 0 0 0 15 0v-24.6a7.5 7.5 0 0 0-15 0v24.6ZM71.8 207.4h50.8a7.5 7.5 0 0 0 0-15H71.8a7.5 7.5 0 0 0 0 15Zm0 37.3h50.8a7.5 7.5 0 0 0 0-15H71.8a7.5 7.5 0 0 0 0 15Zm0 37.4h50.8a7.5 7.5 0 0 0 0-15H71.8a7.5 7.5 0 0 0 0 15Zm0 37.4h50.8a7.5 7.5 0 0 0 0-15H71.8a7.5 7.5 0 0 0 0 15Zm148.6-93.1a7.5 7.5 0 0 0-.6 7l35.4 84.5a7.5 7.5 0 0 0 6.9 4.6h16.4a7.5 7.5 0 0 0 0-15h-11.4L238 238.1h12l10.5 24.4a7.5 7.5 0 1 0 13.8-6l-7.9-18.4h92.5l-8 18.6a7.5 7.5 0 0 0 13.8 6l10.5-24.6h12.3l-29.1 69.4h-44.9a7.5 7.5 0 0 0 0 15h49.9c3 0 5.7-1.8 6.9-4.6l35.4-84.4a7.5 7.5 0 0 0-7-10.4h-17l7.1-16.8a7.5 7.5 0 0 0-13.8-6l-9.7 22.8h-10.1a25.4 25.4 0 0 0-24.6-26.6c-3 0-5.9.6-8.6 1.7v-5.6c0-4.1-3.3-7.5-7.5-7.5h-22c-2.2 0-4.3 1-5.7 2.7-5.7 6.6-8.8 9.8-14.6 15.5a7.5 7.5 0 0 0-2.2 5.3v14.5h-10l-9.6-22.4a7.5 7.5 0 1 0-13.7 6l7 16.4h-17a7.5 7.5 0 0 0-6.3 3.3Zm110.2-14.8c4.4-.2 10.3 5 9.5 11.5h-18v-5.8a9.4 9.4 0 0 1 8.5-5.8Zm-45.6.2c3.9-4 6.9-7 11-11.7h11v23h-22v-11.3Z"/>
  <path d="M504.5 117.2H7.5a7.5 7.5 0 0 0-7.5 7.5v100c0 4 3 7.2 7 7.5 14 1 24.8 11.5 24.8 23.8S21 278.8 7 279.8a7.5 7.5 0 0 0-6.9 7.5v13.2a7.5 7.5 0 1 0 15 0v-6.8c18.3-4.3 31.8-19.8 31.8-37.7S33.3 222.6 15 218.3V170h133.6v23.1a7.5 7.5 0 0 0 15 0v-23h159.2a7.5 7.5 0 0 0 0-15H163.6v-22.9H462V155H357.8a7.5 7.5 0 0 0 0 15h104.3v23.1a7.5 7.5 0 0 0 15 0v-23H497v27.7a7.5 7.5 0 0 0 15 0v-73c0-4.2-3.4-7.6-7.5-7.6Zm-356 37.8H15v-22.8h133.6v22.9Zm328.6 0v-22.8H497v22.9h-20Zm27.4 70.3a7.5 7.5 0 0 0-7.5 7.5V342h-20v-20.8a7.5 7.5 0 0 0-15 0V342H163.7v-20.8a7.5 7.5 0 0 0-15 0V342H15v-6.4a7.5 7.5 0 0 0-15 0v51.8c0 4.1 3.4 7.5 7.5 7.5h497c4.1 0 7.5-3.4 7.5-7.5V232.8c0-4.1-3.4-7.5-7.5-7.5ZM462.1 357v22.9H163.6V357H462ZM15 357h133.6v22.9H15V357Zm462 22.9V357h20v22.9h-20Z"/>
  </symbol>
  <symbol id="item-2961">
    <title>chinchila</title>
    <path fill="#918291" d="M414 356.3a177.3 177.3 0 0 1-18.5 18.6l-.9.7L413 394a14 14 0 0 1 3.5 5.6 15 15 0 0 0 16.5-24.3l-19-18.9Z"/>
  <path fill="#f3f0f3" d="M118.6 333.5a98.5 98.5 0 0 1 7.7-135.8 98.5 98.5 0 0 0-64 28.8A26.7 26.7 0 0 0 31.7 266a26.7 26.7 0 0 0-7.4 51.4A26.6 26.6 0 0 0 47 360a26.7 26.7 0 0 0 38.8 23.8 98.4 98.4 0 0 0 59.8 10.5 85.6 85.6 0 0 1-27-60.8Z"/>
  <path fill="#e2dee2" d="M118.6 333.5a98.5 98.5 0 0 1 7.7-135.8 98 98 0 0 0-42.8 12.6 98.4 98.4 0 0 0 3.6 123.2 85.5 85.5 0 0 0 26 59.9 99.3 99.3 0 0 0 32.5.9 85.7 85.7 0 0 1-27-60.8Z"/>
  <path fill="#918291" d="m370.4 160.5.2 1 1-.3a121.6 121.6 0 0 1 66.7-1.6 50.2 50.2 0 0 0 10.1-23.9c5.5-37.9-67-77.3-82.1 10.8a95 95 0 0 1 4 14Z"/>
  <path fill="#7a6d79" d="M393.3 97.2c14.7 7.1 25.6 23 23.4 38.5a50 50 0 0 1-7.5 20.1c10.2.1 20 1.4 29.1 3.8a50.2 50.2 0 0 0 10.1-23.9c3.8-26-29.1-52.7-55-38.5Z"/>
  <path fill="#cbc4cc" d="M407.8 154.8c-12.9 0-25.2 2-36.5 5.4-17.4-77.5-82.4-37.9-80.6-2.9 1.1 21.7 16.3 34 29 40.7-4.2 7.1-7 14.9-8.1 23h-83.2a110.8 110.8 0 0 0-110.8 111c0 48 38.9 86.8 86.8 86.8h118.3a15 15 0 0 0 13.8-9c12.4-4.2 24.1-9.6 35.1-16.2l20.9 20.9a15 15 0 0 0 21.2-21.2L396 375.7a177 177 0 0 0 53-80.5c32.8-11.8 55.4-37.2 55.4-66.7 0-40.7-43.3-73.7-96.7-73.7Z"/>
  <path fill="#cbc4cc" d="M407.8 154.8c-12.9 0-25.2 2-36.5 5.4-17.4-77.5-82.4-37.9-80.6-2.9 1.1 21.7 16.3 34 29 40.7-4.2 7.1-7 14.9-8.1 23h-83.2a110.8 110.8 0 0 0-110.8 111c0 48 38.9 86.8 86.8 86.8h118.3a15 15 0 0 0 13.8-9c12.4-4.2 24.1-9.6 35.1-16.2l20.9 20.9a15 15 0 0 0 21.2-21.2L396 375.7a177 177 0 0 0 53-80.5c32.8-11.8 55.4-37.2 55.4-66.7 0-40.7-43.3-73.7-96.7-73.7Z"/>
  <path fill="#b5adb6" d="M416.7 155.1c27.7 13 46.2 36.3 46.2 63 0 27.9-14.5 46.3-44 58.2a10 10 0 0 0-6 6.8c-14.1 56.5-52.9 85-93.4 105.7h2.8c8.4 0 15.5 6.9 15.4 15.2 0 2-.5 4-1.2 5.7 12.4-4.2 24.3-9.7 35.3-16.4l-.2.2 20.9 20.8a15 15 0 0 0 21.2-21.1L396 375.6v.1a177 177 0 0 0 53-80.5c32.8-11.8 55.4-37.2 55.4-66.7 0-38.4-38.6-70-87.8-73.4Z"/>
  <path fill="#f3f0f3" d="M351.3 192.4c-8.1-53.7-35.8-61.5-57-51.4a33.7 33.7 0 0 0-3.6 16.3c1.7 32.8 35.6 44.3 44.6 46.8a5 5 0 0 0 4-.5l9.7-6.1a5 5 0 0 0 2.3-5Z"/>
  <path fill="#e2dee2" d="M351.3 192.4c-8.1-53.7-35.8-61.5-57-51.4a37.2 37.2 0 0 0-2.9 8.1c18.4-1.7 37.7 11.7 44.3 55.1a5 5 0 0 0 3.6-.6l9.7-6.1a5 5 0 0 0 2.3-5Z"/>
  <path fill="#7a6d79" d="M475.1 232.2c0 7.3 6 13.3 13.4 13.3H502a57.3 57.3 0 0 0 1.8-26.7h-15.2c-7.3 0-13.3 6-13.3 13.4Z"/>
  <path d="M207 411.2h-2.6a79.5 79.5 0 0 1-79.3-79.3c0-57 46.3-103.3 103.3-103.3H245a7.5 7.5 0 0 0 0-15h-16.6c-57.8 0-106 41.6-116.3 96.4a90.7 90.7 0 0 1-8.5-28 7.5 7.5 0 0 0-15 2 106 106 0 0 0 21.5 51 93.9 93.9 0 0 0 18.3 52.6 90 90 0 0 1-39-10.5 7.5 7.5 0 0 0-7 0 19.2 19.2 0 0 1-28-17l.2-.2a7.5 7.5 0 0 0-7.8-7.5H46A19.2 19.2 0 0 1 30.5 322a7.5 7.5 0 0 0-3.3-11.4c-7.4-3-12.2-10-12.2-17.9a19 19 0 0 1 17.5-19 7.5 7.5 0 0 0 5.7-11.5A19.2 19.2 0 0 1 60 233.6c2.6.8 5.5.1 7.5-1.8 11-11 24.7-19 39.4-23.3-8 11.4-13.6 24.2-16.7 37.9a7.5 7.5 0 0 0 14.7 3.2 91 91 0 0 1 26.5-46.4 7.5 7.5 0 0 0-5.6-13 106 106 0 0 0-65.9 28A34.3 34.3 0 0 0 21.5 261 34 34 0 0 0 0 292.7a34 34 0 0 0 14.2 27.7 34.1 34.1 0 0 0 26 46.6 34.3 34.3 0 0 0 45.4 25 106.7 106.7 0 0 0 56 10.3 94 94 0 0 0 62.8 24h2.6a7.5 7.5 0 0 0 0-15Zm191-177.7h-11a7.5 7.5 0 0 0 0 15h11a7.5 7.5 0 0 0 0-15Zm-4 31.2a7.5 7.5 0 0 0 10.5 10.6l7.8-7.8a7.5 7.5 0 1 0-10.6-10.6l-7.8 7.8Zm35.6-54.3v-10.7a7.5 7.5 0 0 0-15 0v10.7a7.5 7.5 0 0 0 15 0Z"/>
  <path d="M480.7 170.4c-9-6.8-19.2-12.2-30.3-16a57.7 57.7 0 0 0 5.5-17.6c3.2-22.4-16-46.5-40.4-50.5a40.3 40.3 0 0 0-34.3 10.4 67 67 0 0 0-17.1 28c-2-2.5-4-4.7-6.2-6.7a38 38 0 0 0-31.3-9.6c-23.9 3.3-44.6 26.8-43.4 49.3 1 17.8 10 32.6 26.6 43.2a58 58 0 0 0-4.4 12.7H280a7.5 7.5 0 0 0 0 15h31.6c3.7 0 7-2.8 7.4-6.6.7-4.8 2-9.6 4.1-14.2 4.4 1.8 8 3 10.2 3.6a12.5 12.5 0 0 0 10-1.5l9.7-6c4.3-2.7 6.5-7.6 5.8-12.6-3.1-20.2-11-46.6-31-57.2a37.4 37.4 0 0 0-14.6-4.3c4.7-3.4 10-5.8 15.5-6.6 16.6-2.2 29.2 11.5 35.3 38.7a7.5 7.5 0 0 0 9.6 5.5c10.9-3.4 22.4-5 34.2-5 41.2 0 76 20.7 86.1 49h-5.4a20.9 20.9 0 0 0 0 41.7h2a80 80 0 0 1-43.9 35 7.5 7.5 0 0 0-4.6 4.9c-9.4 29.8-27 56.4-50.8 77a7.5 7.5 0 0 0-.4 11l17.6 17.5a7.5 7.5 0 0 1-10.6 10.6L377 388a7.5 7.5 0 0 0-9.1-1 168 168 0 0 1-23.2 11.6 22.5 22.5 0 0 0-21.9-17.3H310v-10.5a64.4 64.4 0 0 0-64.3-64.3H216a7.5 7.5 0 0 0 0 15h29.7a49.4 49.4 0 0 1 49.3 49.3v18c0 4 3.4 7.5 7.5 7.5h20.3a7.5 7.5 0 0 1 0 14.9H242a7.5 7.5 0 0 0 0 15h80.7c8 0 15-4.2 19-10.5 10-3.5 19.6-7.8 28.7-13l16.8 16.9a22.3 22.3 0 0 0 31.8 0c3.2-3.3 5.3-7.3 6.1-11.5a22.3 22.3 0 0 0 19.7-22.3c0-6-2.4-11.7-6.6-15.9l-13.4-13.4a184 184 0 0 0 30.4-55.6c34.6-13.8 56.8-41.9 56.8-72.4 0-22.1-11-42.7-31.3-58.1Zm-159.9-23c7.9 4.1 18.1 15.2 22.9 44.6l-7.5 4.6a75.7 75.7 0 0 1-12.9-5.2c-16-8.3-24.4-19.9-25.1-34.5a25 25 0 0 1 1.8-10.1c5-2 13-3.6 20.8.5ZM441 134.6a43 43 0 0 1-5.4 15.5 133.3 133.3 0 0 0-58.9.8c-.7-2.5-1.5-4.8-2.3-7 6-30.3 20-46 38.7-42.9 16.4 2.7 30 19 27.9 33.6Zm-13.4 245.9a7.4 7.4 0 0 1 0 10.5c-1.3 1.3-3 2-4.7 2.1a20 20 0 0 0-4-5.3l-12-12c2.8-2.6 5.5-5.2 8-8l12.7 12.7Zm61-142.6a5.9 5.9 0 0 1 0-11.7h8.4a54.8 54.8 0 0 1-1 11.7h-7.5Z"/>
  </symbol>
  <symbol id="item-2962">
    <title>rrr</title>
  </symbol>
  <symbol id="item-2963">
    <title>sss</title>
  </symbol>
  <symbol id="item-2964">
    <title>ttt</title>
  </symbol>
  <symbol id="item-2965">
    <title>uuu</title>
  </symbol>
  <symbol id="item-2966">
    <title>vvv</title>
  </symbol>
  <symbol id="item-2967">
    <title>www</title>
  </symbol>
  <symbol id="item-2968">
    <title>xxx</title>
  </symbol>
  <symbol id="item-2969">
    <title>yyy</title>
  </symbol>
  <symbol id="item-2970">
    <title>zzz</title>
  </symbol>
  <symbol id="item-2971">
    <title>aaa1</title>
  </symbol>
  <symbol id="item-2972">
    <title>bbb1</title>
  </symbol>
  <symbol id="item-2973">
    <title>ccc1</title>
  </symbol>
  <symbol id="item-2974">
    <title>ddd1</title>
  </symbol>
  <symbol id="item-2975">
    <title>eee1</title>
  </symbol>
  <symbol id="item-2976">
    <title>fff1</title>
  </symbol>
  <symbol id="item-2977">
    <title>ggg1</title>
  </symbol>
  <symbol id="item-2978">
    <title>hhh1</title>
  </symbol>
  <symbol id="item-2979">
    <title>iii1</title>
  </symbol>
  <symbol id="item-2980">
    <title>jjj1</title>
  </symbol>
  <symbol id="item-2981">
    <title>kkk1</title>
  </symbol>
  <symbol id="item-2982">
    <title>lll1</title>
  </symbol>
  <symbol id="item-2983">
    <title>mmm1</title>

  </symbol>
  <symbol id="item-2984">
    <title>nnn1</title>
  </symbol>
  <symbol id="item-2985">
    <title>ooo1</title>
  </symbol>
  <symbol id="item-2986">
    <title>ppp1</title>
  </symbol>
  <symbol id="item-2987">
    <title>qqq1</title>
  </symbol>
  <symbol id="item-2988">
    <title>rrr1</title>
  </symbol>
  <symbol id="item-2989">
    <title>sss1</title>
  </symbol>
  <symbol id="item-2990">
    <title>ttt1</title>
  </symbol>
  <symbol id="item-2991">
    <title>uuu1</title>
  </symbol>
  <symbol id="item-2992">
    <title>vvv1</title>
  </symbol>
  <symbol id="item-2993">
    <title>www1</title>
  </symbol>
  <symbol id="item-2994">
    <title>xxx1</title>
  </symbol>
  <symbol id="item-2995">
    <title>yyy1</title>
  </symbol>
  <symbol id="item-2996">
    <title>zzz1</title>
  </symbol>
  <symbol id="item-2997">
    <title>aaa2</title>
  </symbol>
  <symbol id="item-2998">
    <title>bbb2</title>
  </symbol>
  <symbol id="item-2999">
    <title>ccc2</title>
  </symbol>
  <symbol id="item-3000">
    <title>ddd2</title>
  </symbol>
  <symbol id="item-3001">
    <title>eee2</title>
  </symbol>
  <symbol id="item-3002">
    <title>fff2</title>
  </symbol>
  <symbol id="item-3003">
    <title>ggg2</title>
  </symbol>
  <symbol id="item-3004">
    <title>hhh2</title>
  </symbol>
  <symbol id="item-3005">
    <title>iii2</title>
  </symbol>
  <symbol id="item-3006">
    <title>jjj2</title>
  </symbol>
  <symbol id="item-3007">
    <title>kkk2</title>
  </symbol>
  <symbol id="item-3008">
    <title>lll2</title>
  </symbol>
  </defs>
  </svg>
