<svg xmlns="http://www.w3.org/2000/svg" viewBox="0 0 512 512">
  <defs>
    <symbol id="item-3009">
      <title>lab/research lab</title>
      <path fill="#d8ecfe" d="M49.4 120.9h306.1v344.8H49.4V121Z" />
      <path fill="#cde2ff" d="M236.7 229.3H126.6a23.7 23.7 0 0 1-20.7-35.2l40.7-73.2h70l40.8 73.2a23.7 23.7 0 0 1-20.7 35.2ZM333 120.9h22.5v344.8H333V121Z" />
      <path fill="#b3dafe" d="M384.5 82.7v29.5c0 4.8-3.9 8.7-8.7 8.7H32.4a8.7 8.7 0 0 1-8.7-8.7V82.7c0-4.8 4-8.7 8.7-8.7h343.4c4.8 0 8.7 3.9 8.7 8.7Z" />
      <path fill="#8ac9fe" d="M216.7 120.9h-70.1l1.9-3.4c2.6-4.7 4-9.9 4-15.2V74h58.3v28.3a31 31 0 0 0 4 15.2l1.9 3.4ZM375.8 74h-22.5c4.8 0 8.7 3.9 8.7 8.7v29.5c0 4.8-3.9 8.7-8.7 8.7h22.5c4.8 0 8.7-4 8.7-8.7V82.7c0-4.8-3.9-8.7-8.7-8.7Z" />
      <path fill="#b3dafe" d="M463.8 465.7H355.5V326h108.3v139.7Z" />
      <path fill="#8ac9fe" d="M441.3 326h22.4v139.7h-22.4V326Z" />
      <path fill="#b3dafe" d="M355.5 290.3h122.6c5.6 0 10.2 4.6 10.2 10.2v15.3c0 5.6-4.6 10.2-10.2 10.2H355.5v-35.7Z" />
      <path fill="#8ac9fe" d="M478 290.3h-22.4c5.6 0 10.2 4.6 10.2 10.2v15.3c0 5.6-4.6 10.2-10.2 10.2H478c5.6 0 10.2-4.6 10.2-10.2v-15.3c0-5.6-4.6-10.2-10.2-10.2Z" />
      <path fill="#8d9ca8" d="M478 465.7H34c-5.7 0-10.3 4.6-10.3 10.2v18.4c0 5.6 4.6 10.2 10.2 10.2h444.2c5.6 0 10.2-4.6 10.2-10.2V476c0-5.6-4.6-10.2-10.2-10.2Z" />
      <path fill="#7a8c98" d="M478 465.7h-22.4c5.6 0 10.2 4.6 10.2 10.2v18.4c0 5.6-4.6 10.2-10.2 10.2H478c5.6 0 10.2-4.6 10.2-10.2V476c0-5.6-4.6-10.2-10.2-10.2Z" />
      <path fill="#af66da" d="M355.5 290.3h108.3v-1.8A72.7 72.7 0 0 0 391 216h-35.6v74.4Z" />
      <path fill="#9857bd" d="M391 215.9h-22.4a72.7 72.7 0 0 1 72.6 72.6v1.8h22.6v-1.8A72.7 72.7 0 0 0 391 216Z" />
      <path fill="#f7f9fa" d="M244.5 7.5h-80.7a7.8 7.8 0 0 0-7.8 7.8v17.9c0 4.3 3.5 7.8 7.8 7.8h80.7c4.3 0 7.8-3.5 7.8-7.8V15.3c0-4.3-3.5-7.8-7.8-7.8Z" />
      <path fill="#e8edf2" d="M244.5 7.5H222c4.3 0 7.8 3.5 7.8 7.8v17.9c0 4.3-3.5 7.8-7.8 7.8h22.5c4.3 0 7.8-3.5 7.8-7.8V15.3c0-4.3-3.5-7.8-7.8-7.8Z" />
      <path fill="#f7f9fa" d="m279.9 194.1-42.6-76.6a31 31 0 0 1-4-15.2V41H175v61.3a30 30 0 0 1-4 15.2L128.4 194a23.7 23.7 0 0 0 20.7 35.2h110.2c18 0 29.5-19.4 20.7-35.2Z" />
      <path fill="#e8edf2" d="m279.9 194.1-42.6-76.6a31 31 0 0 1-4-15.2V41h-22.5v61.3a31 31 0 0 0 4 15.2l42.6 76.6a23.7 23.7 0 0 1-20.7 35.2h22.5c18 0 29.5-19.4 20.7-35.2Z" />
      <path fill="#d9b1ee" d="m159.8 199.3 30-54c1.7-3 5-4.9 8.4-4.9H210c3.5 0 6.8 2 8.5 5l30 53.9h-88.7Z" />
      <path fill="#cb97e7" d="M218.5 145.4c-1.7-3-5-5-8.5-5h-11.8c-2 0-3.8.6-5.3 1.7 1.2.8 2.3 2 3 3.3l30 53.9h22.6l-30-54Z" />
      <path fill="#60b7ff" d="M263 465.7H144.4v-98.3c0-7.5 6-13.6 13.6-13.6h91.4c7.5 0 13.6 6.1 13.6 13.6v98.3Z" />
      <path fill="#26a6fe" d="M249.4 353.8h-22.5c7.5 0 13.7 6.1 13.7 13.7v98.2H263v-98.2c0-7.6-6.2-13.7-13.7-13.7Z" />
      <path fill="#f7f9fa" d="M313.5 306.8H97a5 5 0 0 1-5-5v-25.3a5 5 0 0 1 5-5h216.5a5 5 0 0 1 5 5v25.3a5 5 0 0 1-5 5Z" />
      <path fill="#e8edf2" d="M313.5 271.6H291a5 5 0 0 1 5 5v25.2a5 5 0 0 1-5 5h22.5a5 5 0 0 0 5-5v-25.2a5 5 0 0 0-5-5Z" />
      <path d="M478 333.4c9.8 0 17.8-7.9 17.8-17.6v-15.3c0-9.7-8-17.7-17.7-17.7h-7a80.2 80.2 0 0 0-80-74.4 7.5 7.5 0 0 0 0 15c34 0 62 26.2 65 59.4H363V128.4h12.8c9 0 16.2-7.3 16.2-16.2V82.7c0-9-7.2-16.2-16.2-16.2H268.4a7.5 7.5 0 0 0 0 15h107.4c.7 0 1.2.5 1.2 1.2v29.5c0 .6-.5 1.2-1.2 1.2H243.6a23.7 23.7 0 0 1-2.8-11v-54h3.7c8.4 0 15.3-6.9 15.3-15.3V15.3C259.8 7 252.9 0 244.5 0h-80.7c-8.4 0-15.3 6.9-15.3 15.3v17.9c0 8.4 6.9 15.3 15.3 15.3h3.6v18h-135c-8.9 0-16.2 7.3-16.2 16.2v29.5c0 9 7.3 16.2 16.2 16.2H42v329.8h-8c-9.7 0-17.7 8-17.7 17.7v18.4c0 9.8 8 17.7 17.7 17.7h444.2c9.8 0 17.7-8 17.7-17.7V476c0-9.7-8-17.7-17.7-17.7h-6.8V333.4h6.8Zm0-35.6c1.6 0 2.8 1.2 2.8 2.7v15.2c0 1.5-1.2 2.7-2.7 2.7H363v-20.6h115ZM163.6 33.2V15.3c0-.2.1-.3.3-.3h80.7c.1 0 .3.1.3.3v17.9c0 .2-.2.3-.3.3h-80.7a.3.3 0 0 1-.3-.3ZM226 48.5v53.8c0 6.6 1.6 13 4.8 18.8l42.6 76.7a16 16 0 0 1-.1 16c-3 5-8.2 8-14 8H149.1c-5.8 0-11-3-14-8s-3-11-.2-16l42.6-76.7a38.8 38.8 0 0 0 5-18.8V48.5h43.4ZM31.2 112.2V82.7c0-.7.6-1.2 1.2-1.2h135v20.8c0 3.9-1 7.7-2.7 11H32.4c-.6 0-1.2-.5-1.2-1.1ZM57 128.4h99.4l-34.5 62c-5.4 9.8-5.3 21.4.4 31s15.7 15.4 26.8 15.4h110.2a31 31 0 0 0 27.2-46.4l-34.5-62h96v329.8h-77.5v-90.8c0-11.6-9.4-21.1-21.1-21.1H158a21.2 21.2 0 0 0-21.1 21.1v90.8h-80V128.4Zm146.8 304.5a7.5 7.5 0 0 0-7.5 7.6v17.7H152v-90.8a6 6 0 0 1 6.1-6.1h38.2v43.5a7.5 7.5 0 0 0 15 0v-43.5h38.2a6 6 0 0 1 6.1 6.1v90.8h-44.3v-17.8c0-4-3.3-7.5-7.5-7.5Zm277 43v18.4c0 1.5-1.1 2.7-2.6 2.7H33.9a2.7 2.7 0 0 1-2.7-2.7v-18.4c0-1.5 1.2-2.7 2.7-2.7h444.2c1.5 0 2.7 1.2 2.7 2.7Zm-24.5-17.7H363V333.4h93.3v124.8Z" />
      <path d="M153.3 203.1a7.5 7.5 0 0 0 6.5 3.7h88.6a7.5 7.5 0 0 0 6.6-11.2l-30-53.9c-3-5.4-8.8-8.8-15-8.8h-11.8c-6.2 0-12 3.4-15 8.8l-30 54a7.5 7.5 0 0 0 .1 7.4Zm43-54c.4-.8 1.2-1.2 2-1.2H210c.8 0 1.5.4 2 1.1l23.7 42.8h-63.1l23.8-42.8ZM97 314.3h216.5c6.8 0 12.4-5.6 12.4-12.5v-25.3c0-6.8-5.5-12.4-12.4-12.4H97c-6.9 0-12.5 5.6-12.5 12.4v25.3c0 7 5.6 12.5 12.5 12.5Zm214-15h-99.8v-20.2H311v20.2ZM99.4 279.1h96.7v20.2H99.5v-20.2ZM92 364.5h17.6a7.5 7.5 0 0 0 0-15H92a7.5 7.5 0 0 0 0 15Zm17.7 23.8H92a7.5 7.5 0 0 0 0 15h17.6a7.5 7.5 0 0 0 0-15Zm0 38.9H92a7.5 7.5 0 0 0 0 15h17.6a7.5 7.5 0 0 0 0-15Zm208.7-77.7h-17.6a7.5 7.5 0 0 0 0 15h17.6a7.5 7.5 0 0 0 0-15Zm0 38.8h-17.6a7.5 7.5 0 0 0 0 15h17.6a7.5 7.5 0 0 0 0-15Zm0 38.9h-17.6a7.5 7.5 0 0 0 0 15h17.6a7.5 7.5 0 0 0 0-15Zm85.2-62.7h17.6a7.5 7.5 0 0 0 0-15h-17.6a7.5 7.5 0 0 0 0 15Zm0 38.8h17.6a7.5 7.5 0 0 0 0-15h-17.6a7.5 7.5 0 0 0 0 15Zm0 38.9h17.6a7.5 7.5 0 0 0 0-15h-17.6a7.5 7.5 0 0 0 0 15Z" />
    </symbol>
    <symbol id="item-3010">
      <title>tv station</title>
      <path fill="#eef5f6" d="M235.9 77h18.7v129.2h-18.7V76.9Z" />
      <path fill="#deecf1" d="M249.6 77h15v129.2h-15V76.9Z" />
      <path fill="#685e68" d="m299.7 165.2-30-1h-67.1a5 5 0 0 0-5 5v33.4h106v-33.4c0-2.7-1.2-4-4-4Z" />
      <path fill="#433f43" d="M304.7 169.2v33.4h-30v-33.4a5 5 0 0 0-5-5h30a5 5 0 0 1 5 5Z" />
      <circle cx="301.4" cy="43.3" r="13" fill="#ffe177" />
      <path fill="#b3dafe" d="M303.3 109.2c1.5 1.5.4 3-1.2 4.3a46 46 0 0 1-13.1 8.6A51 51 0 0 1 222.5 56c2-5.1 6-10 9.7-14.3 1.4-1.6 2.8-.7 4.3.8l66.8 66.8Z" />
      <path fill="#8ac9fe" d="m236.5 41.4 66.8 66.8c1.5 1.5 1.5 4-.1 5.3a50.8 50.8 0 0 1-14.2 8.6l-66.4-66.4c2-5 4.9-9.8 8.6-14.1a3.6 3.6 0 0 1 5.3-.2Z" />
      <path fill="#ffe177" d="m389 204.2-48.3-10H123v266h266v-256Z" />
      <path fill="#ffc344" d="M370.5 194.2v131.5h-8.9a5 5 0 0 0-5 5l-10 127h-20v-137a5 5 0 0 1 5-5h9V194.2h30Z" />
      <path fill="#b3dafe" d="M456.1 56.2v263.3h-95.6v-47.1l10-6.8-10-8.2v-35.9l10-7.5-10-7.8v-35.6l10-7.5-10-7.5v-35.8l10-8.7-10-6.3V56.2h95.6Z" />
      <path fill="#8ac9fe" d="M466.1 56.2v48.6l-10 8.1 10 6.9v35.8l-10 4.2 10 10.8v35.9l-10 6 10 9v35.9l-10 7.5 10 7.5v47.1h-30V56.2h30Z" />
      <path fill="#ffe177" d="m475 60.4-30 1h-93.4a5 5 0 0 1-5-5V38.3a5 5 0 0 1 5-5H445l30 1c2.8 0 4 1.2 4 4v18.1c0 2.8-1.2 4-4 4Z" />
      <path fill="#ffc344" d="M480 38.3v18.1a5 5 0 0 1-5 5h-30a5 5 0 0 0 5-5V38.3a5 5 0 0 0-5-5h30a5 5 0 0 1 5 5Z" />
      <path fill="#b3dafe" d="M221.6 398.5h58.7v59.2h-58.7v-59.2Z" />
      <path fill="#8ac9fe" d="M271.6 398.5h18.8v59.2h-18.8v-59.2Z" />
      <path fill="#eef5f6" d="m292.8 405.4-29.3 1h-44.3a5 5 0 0 1-5-5v-18.2a5 5 0 0 1 5-5h43.6l30 1c2.7 0 4 1.3 4 4v18.2c0 2.8-1.3 4-4 4Z" />
      <path fill="#deecf1" d="M297.8 383.2v18.2a5 5 0 0 1-5 5h-30a5 5 0 0 0 5-5v-18.2a5 5 0 0 0-5-5h30a5 5 0 0 1 5 5Z" />
      <path fill="#eef5f6" d="M479 457.7H346.6v-137a5 5 0 0 1 5-5H445l30 1c2.8 0 4 1.3 4 4v137Z" />
      <path fill="#deecf1" d="M480 320.7v137h-30v-137a5 5 0 0 0-5-5h30a5 5 0 0 1 5 5Z" />
      <path fill="#b3dafe" d="M141.5 56.2v263.3H45.9v-47.1l10-6.8-10-8.2v-35.9l10-7.5-10-7.8v-35.6l10-7.5-10-7.5v-35.8l10-8.7-10-6.3V56.2h95.6Z" />
      <path fill="#8ac9fe" d="M151.5 56.2v48.6l-10 8.1 10 6.9v35.8l-10 4.2 10 10.8v35.9l-10 6 10 9v35.9l-10 7.5 10 7.5v47.1h-30V56.2h30Z" />
      <path fill="#ffe177" d="m160.4 60.4-30 1H37a5 5 0 0 1-5-5V38.3a5 5 0 0 1 5-5h93.3l30 1c2.8 0 4 1.2 4 4v18.1c0 2.8-1.2 4-4 4Z" />
      <path fill="#ffc344" d="M165.4 38.3v18.1a5 5 0 0 1-5 5h-30a5 5 0 0 0 5-5V38.3a5 5 0 0 0-5-5h30a5 5 0 0 1 5 5Z" />
      <path fill="#eef5f6" d="M164.4 457.7H32v-137a5 5 0 0 1 5-5h93.4l30 1c2.7 0 4 1.3 4 4v137Z" />
      <path fill="#deecf1" d="M165.4 320.7v137h-30v-137a5 5 0 0 0-5-5h30a5 5 0 0 1 5 5Z" />
      <path fill="#685e68" d="m488 480.6-29.6 1H24a16.4 16.4 0 1 1 0-32.9h434.2l30 1c9 0 15.4 6.4 15.4 15.5s-6.4 15.4-15.4 15.4Z" />
      <path fill="#433f43" d="M504.5 465.2a16.4 16.4 0 0 1-16.4 16.4h-30a16.4 16.4 0 0 0 16.4-16.4c0-9.1-7.4-16.5-16.4-16.5h30c9 0 16.4 7.4 16.4 16.5Z" />
      <path d="M270.4 301a8.4 8.4 0 0 0 8 5.7c3.6 0 6.8-2.3 8-5.8l13.4-40.4a7.5 7.5 0 1 0-14.3-4.7l-7.3 22-7.7-22.2a7.5 7.5 0 0 0-14.2 5l14.1 40.5Zm-51-35.4h3.8v33.6a7.5 7.5 0 0 0 15 0v-33.6h3.9a7.5 7.5 0 0 0 0-15h-22.7a7.5 7.5 0 0 0 0 15Z" />
      <path d="M488 441.2h-.5v-48.1a7.5 7.5 0 0 0-15 0v48.1H354.1v-118h118.4v37.2a7.5 7.5 0 0 0 15 0v-39.7c0-6.9-5.6-12.5-12.5-12.5h-1.4V69h1.4c6.9 0 12.5-5.6 12.5-12.5V38.3c0-7-5.6-12.5-12.5-12.5H351.6c-6.9 0-12.5 5.6-12.5 12.5v18.1c0 6.9 5.6 12.5 12.5 12.5h1.4v117.8h-40.8v-17.5c0-6.9-5.6-12.5-12.5-12.5H272v-23.5c12.8-.4 25.6-5 36-14 4.8-4.1 5-11.8.5-16.3l-28-28.1L293.2 62a20.5 20.5 0 0 0 22.6-33.2c-7.9-7.9-21-7.9-29 0-5.8 5.9-7.5 15-4.2 22.7l-12.8 12.7L242 36a11.3 11.3 0 0 0-16.4.6 58.7 58.7 0 0 0 2.9 79.3v40.7h-25.8c-7 0-12.5 5.6-12.5 12.5v17.5H159V68.9h1.4c7 0 12.5-5.6 12.5-12.5V38.3c0-7-5.6-12.5-12.5-12.5H37c-6.9 0-12.5 5.6-12.5 12.5v18.1c0 6.9 5.6 12.5 12.5 12.5h1.4v239.3H37c-6.9 0-12.5 5.7-12.5 12.5V366a7.5 7.5 0 0 0 15 0v-42.7h118.4v118H39.5v-42.6a7.5 7.5 0 0 0-15 0v42.6h-.6a24 24 0 0 0 0 48h464.2a24 24 0 0 0 0-48ZM297.7 39.4a5.4 5.4 0 0 1 7.7 0 5.5 5.5 0 1 1-7.7 0ZM368 170.6h37.8v35.9H368v-35.9Zm52.8 0h37.8v35.9h-37.8v-35.9ZM368 221.5h37.8v35.9H368v-35.9Zm52.8 0h37.8v35.9h-37.8v-35.9Zm37.8-65.9h-37.8v-35.8h37.8v35.8Zm-52.8 0H368v-35.8h37.8v35.8ZM368 272.4h37.8v35.8H368v-35.8Zm52.8 35.8v-35.8h37.8v35.8h-37.8Zm37.8-203.4h-37.8v-36h37.8v36Zm-85-36a7.5 7.5 0 0 0 0-15H354v-13h118.4v13h-66.3a7.5 7.5 0 0 0-.4 15v36H368v-36h5.6Zm-139.3-19L264.6 80l30.4 30.3a43.7 43.7 0 0 1-55.8-4.9 43.7 43.7 0 0 1-4.9-55.8Zm9.1 77.1c4.4 2.2 9 3.8 13.7 4.9v24.9h-13.7v-29.8Zm-38.3 44.8h92v15h-92v-15Zm-98.9-1H144v35.8h-37.8v-35.9Zm-15 35.8H53.4v-35.9h37.8v35.9Zm52.8-50.9h-37.8v-35.8H144v35.8Zm-52.8 0H53.4v-35.8h37.8v35.8Zm-37.8 65.9h37.8v35.9H53.4v-35.9Zm52.8 0H144v35.9h-37.8v-35.9Zm37.8 50.9v35.8h-37.8v-35.8H144Zm0-167.6h-37.8V68.9H144v35.9Zm-104.5-64h118.4v13.1H39.5V40.7Zm51.7 28.1v35.9H53.4V68.9h37.8ZM53.4 272.4h37.8v35.8H53.4v-35.8Zm107 35.8H159V201.7h194v106.5h-1.4c-6.9 0-12.5 5.7-12.5 12.5v120.5H298v-28.4c4.3-2 7.3-6.3 7.3-11.4v-18.2c0-6.8-5.6-12.5-12.5-12.5h-73.5c-6.8 0-12.5 5.7-12.5 12.5v18.2c0 5 3 9.5 7.4 11.4v28.4H173V320.7c0-6.8-5.6-12.5-12.5-12.5Zm103.1 133V414h19.4v27.3h-19.4Zm-34.4 0V414h19.4v27.3h-19.4Zm61.2-42.3h-68.6v-13.2h68.6V399ZM488 456.2c4.9 0 8.9 4 8.9 9s-4 9-9 9H24c-5 0-9-4-9-9s4-9 9-9h464Z" />
    </symbol>
    <symbol id="item-3011">
      <title>hallway</title>
      <path fill="#f5f5f5" d="M170.7 128 8.5 8.5v495l162.2-170.7V128Zm170.6 0L503.5 8.5v495L341.3 332.8V128Z" />
      <path fill="#cfd8dc" d="M477.9 27.4v449.1l25.6 27V8.5l-25.6 18.9Z" />
      <path fill="#f5f5f5" d="M8.5 8.5h495L341.3 128H170.7L8.5 8.5Z" />
      <path fill="#cfd8dc" d="M477.9 8.5 315.7 128h25.6L503.5 8.5h-25.6Z" />
      <path fill="sienna" d="M8.5 503.5h495L341.3 332.8H170.7L8.5 503.5Z" />
      <path fill="#783e22" d="M341.3 332.8h-25.6L478 503.5h25.6L341.3 332.8Z" />
      <path fill="#ff9801" d="m55.6 503.5 129.7-136.6h141.4l129.7 136.6H55.6Z" />
      <path fill="#f57c00" d="M456.4 503.5 326.7 366.9H301l129.7 136.6h25.6Z" />
      <path fill="#9e9e9e" d="M170.7 128h170.6v204.8H170.7V128Z" />
      <path fill="#707070" d="M315.7 128h25.6v204.8h-25.6V128Z" />
      <path fill="#ffdc00" d="M221.9 179.2H290c4.7 0 8.6 3.8 8.6 8.5v145.1h-85.4v-145c0-4.8 3.9-8.6 8.6-8.6Z" />
      <path fill="#fec108" d="M290.1 179.2h-25.6c4.7 0 8.6 3.8 8.6 8.5v145.1h25.6v-145c0-4.8-3.9-8.6-8.6-8.6Z" />
      <path fill="#ffdc00" d="M119.5 386.7V176.5c0-3.5-2.2-6.7-5.4-8l-68.3-27.3a8.5 8.5 0 0 0-11.7 8v327.3l85.4-89.8Zm358.4 89.8V149.2a8.5 8.5 0 0 0-11.7-8l-68.3 27.3a8.5 8.5 0 0 0-5.4 8v210.2l85.4 89.8Z" />
      <path fill="#fec108" d="M466.2 141.2 452 147c.2.7.3 1.5.3 2.3v300.3l25.6 27V149.2a8.5 8.5 0 0 0-11.7-8Z" />
      <ellipse cx="256" cy="34.1" fill="#ffdc00" rx="34.1" ry="25.6" />
      <path d="M117.3 160.6 49 133.3a17 17 0 0 0-23.4 15.9v324L2.4 497.5A8.6 8.6 0 0 0 8.5 512h495a8.5 8.5 0 0 0 6.1-14.4L486.4 473V149a17 17 0 0 0-23.4-15.8l-68.3 27.3a17 17 0 0 0-10.7 15.9v188.8l-34.1-36v-197l158.6-117a8.5 8.5 0 0 0-10-13.6l-160 117.8h-165L13.6 1.7A8.5 8.5 0 0 0 3.5 15.4l158.6 117v197l-34 36v-189a17 17 0 0 0-10.8-15.8Zm-74.6-11.4 68.2 27.3v99.8l-12.3 6.2a8.5 8.5 0 1 0 7.6 15.2l4.7-2.3v87.9l-68.2 71.8v-306Zm32.8 345.7L189 375.5h134l113.5 119.4h-361Zm384.6 0L332.9 361.1a8.5 8.5 0 0 0-6.2-2.7H185.3c-2.3 0-4.6 1-6.2 2.7L52 494.9H28.4l146-153.6h163.3L483.6 495H460ZM290 256h-8.5a8.5 8.5 0 0 0 0 17h8.5v51.3h-68V187.7h68V256Zm111-79.5 68.2-27.3v144.2l-4.7-2.4a8.5 8.5 0 1 0-7.6 15.3l12.3 6.2v142.7L401 383.3V176.5Zm-222-40h153.7v187.8h-25.6V187.7a17 17 0 0 0-17-17h-68.4a17 17 0 0 0-17 17v136.6h-25.6V136.5Z" />
      <path d="M256 68.3c23.5 0 42.7-15.3 42.7-34.2S279.5 0 256 0s-42.7 15.3-42.7 34.1 19.2 34.2 42.7 34.2Zm0-51.2c13.9 0 25.6 7.8 25.6 17S269.9 51.2 256 51.2s-25.6-7.8-25.6-17S242.1 17 256 17Z" />
    </symbol>
    <symbol id="item-3012">
      <title>alley</title>
      <path fill="#fcc394" d="M158 501.1v-43.6h21.8V414h21.7V0H5.5v501.1H158Z" />
      <path fill="#64a6f0" d="M5.5 21.8h130.7v109H5.4v-109Zm0 305H158v32.7H5.4v-32.7Z" />
      <path fill="#f8fafd" d="M136.2 207c0 12 9.7 21.7 21.8 21.8v98H5.4V207a21.8 21.8 0 1 0 43.6 0 21.8 21.8 0 1 0 43.6 0 21.8 21.8 0 1 0 43.6 0Z" />
      <path fill="#5ce0bf" d="m136.2 163.4 43.5 43.6a21.8 21.8 0 1 1-43.5 0 21.8 21.8 0 1 1-43.6 0 21.8 21.8 0 1 1-43.6 0 21.8 21.8 0 1 1-43.6 0v-43.6h130.7Z" />
      <path fill="#87d7f5" d="M201.5 0H267v239.7h-65.4V0Z" />
      <path fill="#ffca6b" d="M397.6 0h109v501.1h-109V0Z" />
      <path fill="#f8fafd" d="M441.2 21.8h65.4v87.1h-65.4V21.8Z" />
      <path fill="#c1cad4" d="M441.2 21.8h65.4v21.8h-65.4V21.8Z" />
      <path fill="#f8fafd" d="M441.2 152.5h65.4v87.2h-65.4v-87.2Zm0 130.7h65.4v87.2h-65.4v-87.2Z" />
      <path fill="#c1cad4" d="M441.2 152.5h65.4v21.8h-65.4v-21.8Zm0 130.7h65.4V305h-65.4v-21.8Z" />
      <path fill="#f3b55e" d="M266.9 239.7h43.6v43.5h21.7v43.6H354v43.6h43.6V0H267v239.7Z" />
      <path fill="#64a6f0" d="M310.5 0v163.4l43.6 32.7V0h-43.6Z" />
      <path fill="#5597e6" d="M5.5 21.8h130.7v32.7H5.4V21.8Z" />
      <path fill="#5ce0bf" d="M354 152.5v43.6l-43.5-32.7v-43.6l43.5 32.7ZM38.1 392.2c12 0 21.8 31.6 21.8 43.6a21.8 21.8 0 0 1-43.6 0c0-12 9.9-43.6 21.8-43.6Zm54.5 0c12 0 21.8 31.6 21.8 43.6a21.8 21.8 0 0 1-43.6 0c0-12 9.8-43.6 21.8-43.6Z" />
      <path fill="#d6b3ad" d="M397.6 457.5v43.6H158v-43.6h239.6Zm0-87.1V414h-196v-43.6h196Zm-65.3-87.2v43.6H201.5v-43.6h130.8Z" />
      <path fill="#f2cac1" d="M397.6 414v43.5H179.7V414h218ZM354 326.8v43.6H201.5v-43.6H354Zm-43.5-87.1v43.5h-109v-43.5h109Z" />
      <path d="M408.5 457.5V0h-21.8v359.5H365v-32.7a11 11 0 0 0-10.9-10.9h-10.9v-32.7c0-6-4.8-10.8-10.8-10.8h-11v-32.7c0-6-4.8-11-10.8-11h-32.7V0H256v228.8h-43.6V0h-21.8v403h-10.8c-6 0-11 5-11 11v32.6H158c-6 0-11 5-11 11v32.6h-43.5v-23.8a32.7 32.7 0 0 0 21.8-30.7c0-12.6-10.2-54.4-32.7-54.4-13.1 0-22 14.3-27.2 28.7-5.2-14.4-14-28.7-27.2-28.7-22.5 0-32.7 41.8-32.7 54.4 0 13.9 8.8 26.1 21.8 30.7v23.8H5.4V512h501.2v-21.8h-98v-32.7ZM92.6 404a68 68 0 0 1 10.9 31.7 10.9 10.9 0 1 1-21.8 0c1-11.3 4.7-22.2 10.9-31.7Zm-54.5 0c6.3 9.5 10 20.4 11 31.7a10.9 10.9 0 1 1-21.9 0c1-11.3 4.7-22.2 11-31.7Zm11 62.4a32.7 32.7 0 0 0 16.3-12.7c3.9 6 9.6 10.4 16.3 12.7v23.8H49v-23.8Zm337.6-85.1V403H212.4v-21.8h174.3Zm-43.6-43.6v21.8H212.4v-21.8h130.7Zm-21.8-43.6V316H212.4v-21.8h109Zm-21.7-21.8h-87.2v-21.8h87.2v21.8Zm-109 152.5h196.1v21.8h-196v-21.8Zm-21.8 65.4v-21.8h217.9v21.8H168.8Z" />
      <path d="M506.6 32.7V10.9h-65.4a11 11 0 0 0-10.9 10.9v87.1c0 6 4.9 11 10.9 11h65.4V98H452V32.7h54.5Zm-76.3 119.8v87.2a11 11 0 0 0 10.9 10.9h65.4v-21.8H452v-65.4h54.5v-21.8h-65.4a11 11 0 0 0-10.9 10.9Zm0 130.7v87.2a11 11 0 0 0 10.9 10.9h65.4v-21.8H452V294h54.5v-21.8h-65.4c-6 0-10.9 5-10.9 11ZM143.9 155.7a11 11 0 0 0-7.7-3.2H5.4v21.8h126.3l36.5 36.5A10.9 10.9 0 0 1 147 207a10.9 10.9 0 1 0-21.8 0 10.9 10.9 0 0 1-21.8 0 10.9 10.9 0 0 0-21.8 0 10.9 10.9 0 0 1-21.8 0 10.9 10.9 0 0 0-21.7 0c0 6-5 10.9-11 10.9H5.5v21.7h21.8c8 0 15.8-3 21.8-8.3a33 33 0 0 0 43.6 0 33 33 0 0 0 43.6 0c3.2 2.8 6.9 5 10.9 6.4v78.2H5.4v21.8h141.7v10.9H5.4v21.8H158c6 0 10.8-5 10.8-11V237.7a32.7 32.7 0 0 0 21.8-30.6c0-3-1.1-5.7-3.2-7.7L144 155.7Zm3.1-25v-109c0-6-4.8-10.8-10.8-10.8H5.4v21.8h119.9v87.1H5.5v21.8h130.7c6 0 10.9-4.8 10.9-10.9Z" />
      <path d="m84.9 297.3 21.8-21.8L122 291l-21.8 21.8-15.4-15.4Zm-43.6 0 54.5-54.5 15.4 15.4-54.5 54.5-15.4-15.4Zm306.2-92.5a11 11 0 0 0 17.4-8.7V0h-21.7v130.7l-21.8-16.3V0h-21.8v163.4c0 3.4 1.6 6.7 4.3 8.7l43.6 32.7Zm-4.4-46.8v16.3L321.4 158v-16.4L343 158Z" />
    </symbol>
    <symbol id="item-3013">
      <title>deforestation</title>
      <path fill="#cf9e76" d="M476.4 255.2a69 69 0 0 1-47-65.3h-99a68.7 68.7 0 0 1-47 65.2l-2.6.9H479l-2.6-.8Zm-220.4-24V289c0 21.6 8.3 41.2 21.8 56a49.4 49.4 0 0 1-30 10.1H132a36 36 0 0 0-20 6.3c-4 2.6-7.7 6.1-11.1 10.2H8.3c45.5 0 82.5-37 82.5-82.6v-57.8c0 13.7 37 24.8 82.6 24.8s82.6-11 82.6-24.8Z" />
      <path fill="#d3a06c" d="M454.2 355.1c27.3 0 49.5 33.3 49.5 74.3s-22.2 74.3-49.5 74.3h-322c27.3 0 49.5-33.2 49.5-74.3s-22.2-74.3-49.6-74.3h115.6a49.4 49.4 0 0 0 49.6-49.6c0 9.1 13 16.6 28.9 16.6s28.9-7.5 28.9-16.6v33c0 9.2 7.4 16.6 16.5 16.6h82.6Z" />
      <ellipse cx="326.2" cy="305.6" fill="#b27946" rx="28.9" ry="16.5" />
      <path fill="#b27946" d="M101 371.6c3.4-4.1 7.1-7.6 11.2-10.2a36 36 0 0 1 20-6.3c27.3 0 49.5 33.3 49.5 74.3s-22.2 74.3-49.6 74.3-49.5-33.2-49.5-74.3a92 92 0 0 1 18.4-57.8Z" />
      <path fill="#dfb28b" d="M256 231.2c0 13.7-37 24.8-82.6 24.8s-82.6-11-82.6-24.8c0-12 28.4-22 66.1-24.3a266 266 0 0 1 33 0c37.8 2.4 66.1 12.3 66.1 24.3Z" />
      <path fill="#b4dd7f" d="m190 99.1-33-24.8v57.8a24.7 24.7 0 1 1-46.8-11.3 32.9 32.9 0 0 1-2.6-58.5c-.2-1.5-.2-3-.2-4.5a49.6 49.6 0 0 1 88-31 33 33 0 0 1 44 31c.1 1.5-.2 3-.3 4.4a32.8 32.8 0 0 1-2.4 58.6 24.7 24.7 0 1 1-46.7 11.3v-33Z" />
      <path fill="#cf9e76" d="M190 132.1V207a266 266 0 0 0-33.1 0V74.3l33 24.8v33Z" />
      <path d="M132.1 396.4c-13.9 0-24.7 14.5-24.7 33 0 7.6 1.9 15 5.3 20.8l14.2-8.5c-2-3.3-3-7.6-3-12.3 0-10 4.9-16.5 8.2-16.5s8.3 6.4 8.3 16.5h16.5c0-18.5-10.9-33-24.8-33Zm74.3 16.5h41.3v16.5h-41.3V413Zm57.9 0h66v16.5h-66V413Zm49.5 49.5h66V479h-66v-16.6Zm0-82.5H446v16.5H314v-16.5Zm99.1 33h66v16.5h-66V413Z" />
      <path d="M264.3 264.3H512v-16.6h-31.7l-1.3-.4a60.4 60.4 0 0 1-41.3-57.4v-8.2H322v8.2a60.5 60.5 0 0 1-41.4 57.4l-1.3.4h-15.1v-16.5c0-18.4-31-28.7-66.1-31.9v-38.7a32.7 32.7 0 0 0 49.6-28.5c0-2.6-.4-5.1-1-7.6 10.8-7.7 17.5-20.2 17.5-33.7s-6.2-25-16.6-32.8v-.2a41.3 41.3 0 0 0-49.5-40.4A57.9 57.9 0 0 0 99 57.8v.2c-10.3 7.7-16.5 20-16.5 32.8s6.6 26 17.4 33.7a33 33 0 0 0 48.6 36.1v38.7c-35 3.3-66 13.5-66 32v16.5H0v16.5h82.6V289c0 41-33.4 74.3-74.3 74.3H0v16.5h8.3A91 91 0 0 0 99 289v-37.8c17.6 8.8 46.6 13 74.3 13s56.8-4.2 74.3-13V289a91 91 0 0 0 17.7 53.8 41 41 0 0 1-17.7 4h-49.5v-16.5h-16.5V347H132l-4.5.3c1-3.3 1.9-6.6 2.6-10l4.7-1.1a40 40 0 0 0 30.3-38.8h-16.6c0 10.3-6.7 19.3-16.5 22.3v-38.8h-16.5v39a72 72 0 0 1-9.8 35.9c-18.8 13.5-31.5 41-31.5 73.7 0 46.3 25.4 82.6 57.8 82.6h322c32.5 0 57.9-36.3 57.9-82.6S486.6 347 454.2 347h-82.6a8.3 8.3 0 0 1-8.3-8.3v-33c0-14.2-16-24.8-37.1-24.8S289 291.4 289 305.6c0 10.4-4 19.9-10.5 27.2a74 74 0 0 1-14.3-43.7v-24.8Zm183.2-16.6h-22.6a76.2 76.2 0 0 1-18.4-34.8l-16.1 3.6a92.6 92.6 0 0 0 13.6 31.2h-48a92 92 0 0 0 15.5-49.5h50.1c2 19.5 11.6 37 25.9 49.5ZM338 198.2h17c-.5 18.5-7.5 36-20 49.5h-22.7a76.7 76.7 0 0 0 25.8-49.5ZM90.8 429.4c0-35.8 19-66 41.3-66s41.3 30.2 41.3 66-18.9 66-41.3 66-41.3-30.2-41.3-66Zm235.4-132.1c13.4 0 20.6 5.8 20.6 8.2s-7.2 8.3-20.6 8.3-20.7-5.9-20.7-8.3 7.3-8.2 20.7-8.2Zm-24 27.3a49.7 49.7 0 0 0 24 5.7c7.8 0 14.8-1.4 20.6-4v12.3a24.8 24.8 0 0 0 24.8 24.7h82.6c22.4 0 41.3 30.3 41.3 66.1s-19 66-41.3 66h-287c13.8-14.9 22.7-38.6 22.7-66s-8.9-51.1-22.8-66h80.6a57.9 57.9 0 0 0 54.5-38.8Zm-137-246.9 14-14L167.7 52 157 62.6 146.2 52l-11.7 11.6 14.1 14.1v54.4a16.5 16.5 0 0 1-33 0c0-2.5.6-5 2-7.5l3.9-7.7-7.9-3.6a24.8 24.8 0 0 1-14.5-22.5c0-8.9 4.7-16.9 12.6-21.4l4.6-2.6-.5-5.3-.2-3.7a41.3 41.3 0 0 1 73.5-25.9l3.6 4.6 5.5-2a24.8 24.8 0 0 1 33 23.2l-.2 2.5-.9 6.4 4.9 2.7a24.8 24.8 0 0 1 12.7 21.5c0 9.6-5.7 18.5-14.5 22.5l-7.9 3.6 4 7.7a16 16 0 0 1 1.9 7.5 16.5 16.5 0 0 1-33 0v-29.6l14-14.1-11.6-11.7-19 19v102.6a285.4 285.4 0 0 0-16.5 0V77.7Zm8.2 170c-48.2 0-73-12-74.3-16.3 1.3-4.7 26-16.7 74.3-16.7s72.6 11.9 74.3 16.5c-1.7 4.7-26.4 16.6-74.3 16.6Z" />
      <path d="M214.7 280.8h16.5v49.5h-16.5v-49.5Z" />
    </symbol>
    <symbol id="item-3014">
      <title>ferry</title>
      <path fill="#cbe2ff" d="M46.4 216.9h181c.5 0 1-.4 1.1-1l6.5-24H55.5a3 3 0 0 0-3 2.2l-6 22.8Z" />
      <path fill="#dd636e" d="M7.5 311.5V358c0 3.1 2.5 5.7 5.7 5.7h12c.4 0 .9.3 1 .8l9.6 35.9c2.1 8 9.4 13.5 17.6 13.5h349.7a74.6 74.6 0 0 0 64.6-37.3l36.7-63.6a1 1 0 0 0-1-1.5H7.6Z" />
      <path fill="#da4a54" d="M503.5 311.5h-49.8l-26 45A74.6 74.6 0 0 1 363 394H34l1.7 6.5c2.1 8 9.4 13.5 17.6 13.5H403a74.6 74.6 0 0 0 64.6-37.3l36.7-63.6a1 1 0 0 0-1-1.5Z" />
      <path fill="#407093" d="M396.4 337.6H89.1c-2 0-3.8 1.3-4.3 3.2l-7.2 22.9H408l-7.1-23a4.5 4.5 0 0 0-4.3-3Z" />
      <path fill="#f1f4f6" d="M53.1 311.5H473l-33.4-57.7c-.5-.9.2-2 1.1-2h6.6c.7 0 1.2-.5 1.2-1.2v-32.4c0-.7-.5-1.3-1.2-1.3H419c-.5 0-.9-.2-1.1-.6l-28.2-48.8c-.2-.4-.6-.6-1-.6h-146c-.6 0-1.1.4-1.3 1l-12.9 48c-.1.6-.6 1-1.2 1H39.4c-.7 0-1.3.6-1.3 1.3v32.4c0 .7.6 1.3 1.3 1.3h12.5c.7 0 1.2.6 1.2 1.3v58.3Z" />
      <path fill="#dfeaef" d="M439.6 253.8c-.5-.9.2-2 1.1-2h6.6c.7 0 1.2-.5 1.2-1.2v-32.4c0-.7-.5-1.3-1.2-1.3H419c-.5 0-.9-.2-1.1-.6l-28.2-48.8c-.2-.4-.6-.6-1-.6H361l16.3 28.2a3.7 3.7 0 0 0 3.2 1.8H397c6.3 0 11.5 5.1 11.5 11.4v20c0 2-1.7 3.6-3.7 3.6-2.8 0-4.6 3-3.2 5.5l11.3 19.5a23 23 0 0 1-20 34.6H53v20h420l-33.3-57.7Z" />
      <path fill="#dd636e" d="m144.6 191.9-11-75.2a6 6 0 0 0-5.8-5H126a47 47 0 0 1-12.2-1.5L69.6 98.3c-3-.8-6 1-6.7 3.9L59 116.4c-.8 3 1 6 3.8 6.7l35.3 9.5a6 6 0 0 1 4.5 6.8L95 192h49.6Z" />
      <path fill="#da4a54" d="m180.6 116.4-3.9-14.2c-.7-3-3.7-4.7-6.7-3.9l-49 13.2 5 .3h2c2.8 0 5.2 2 5.6 4.9l2.6 17.3 40.6-10.9a5.4 5.4 0 0 0 3.8-6.7Z" />
      <circle cx="272.3" cy="129.6" r="12.9" fill="#dd636e" />
      <path d="M13.2 371.2h7l8.4 31a25.8 25.8 0 0 0 24.8 19.2h349.7a82.3 82.3 0 0 0 71-41l36.8-63.6a8.5 8.5 0 0 0-7.4-12.8h-26.2L451 258.5c3-1.4 5-4.4 5-7.9v-32.4c0-4.9-3.9-8.8-8.7-8.8h-24.6l-26.4-45.6a8.8 8.8 0 0 0-7.6-4.4h-27v-29.8a7.5 7.5 0 0 0-15 0v29.8h-10v-54.5a7.5 7.5 0 0 0-15 0v54.5h-41.9v-10.8a20.4 20.4 0 1 0-15 0v10.8h-22.1c-4 0-7.5 2.7-8.5 6.5l-5 18.5h-78.1l-.6-3.7a7.5 7.5 0 1 0-14.8 2.1l.2 1.6h-32.2l6.5-43.9c1-6.9-3.3-13.4-10-15.2l-33.3-9 2.7-10.2 42.3 11.3a53.3 53.3 0 0 0 14.1 1.9h.4l4 28a7.5 7.5 0 1 0 15-2.2l-1-5.6 34.2-9.2a13 13 0 0 0 9.2-15.9l-3.8-14.2a13 13 0 0 0-15.9-9.2l-47.7 13-4.6-1-44.3-11.8a13 13 0 0 0-15.9 9.1l-3.8 14.3a12.9 12.9 0 0 0 9.2 15.9l34.2 9.1-6.6 44.9H55.5c-4.8 0-9 3.2-10.2 7.8l-4.6 17.2h-1.3c-4.8 0-8.8 4-8.8 8.8v32.4c0 4.9 4 8.8 8.8 8.8h6.2v5a7.5 7.5 0 0 0 15 0v-5h30.1a7.5 7.5 0 0 0 0-15h-45v-20h181.6c4 0 7.4-2.7 8.5-6.5l11.6-43.5h137.7l5.8 10H274.1a7.5 7.5 0 0 0 0 15h125.5l5.7 10H274a7.5 7.5 0 0 0 0 15h167v20H169.8a7.5 7.5 0 0 0 0 15h264.4l8.7 15h-273a7.5 7.5 0 0 0 0 15h281.6L460 304h-22.2a7.5 7.5 0 0 0 0 15h54.5l-31.1 53.8a67.3 67.3 0 0 1-58.1 33.6H53.4c-4.8 0-9.1-3.3-10.4-8l-7.2-27.2h385.1a7.5 7.5 0 0 0 0-15h-7.5l-5.5-17.6a12 12 0 0 0-11.5-8.5H89.1a12 12 0 0 0-11.5 8.5L72 356.2H15V319h387.8a7.5 7.5 0 0 0 0-15H60.6v-4.5a7.5 7.5 0 0 0-15 0v4.5H7.5a7.5 7.5 0 0 0-7.5 7.5V358c0 7.3 6 13.2 13.2 13.2Zm259-247a5.4 5.4 0 1 1 0 10.8 5.4 5.4 0 0 1 0-10.8ZM170 106.1l2.8 10.3-30.5 8.2-1.3-9-.4-1.6 29.4-8Zm-75 93.3h6.8v10H85.4v-10H95Zm21.8 0h16.4v10h-16.4v-10Zm31.4 0h16.4v10h-16.4v-10Zm31.4 0h16.5v10h-16.5v-10Zm-120.7 0h11.5v10H56.2l2.7-10Zm152.2 10v-10h14.1l-2.7 10h-11.4ZM327 356.2h-21.7v-11H327v11Zm15-11h21.7v11H342v-11Zm-51.7 11h-21.7v-11h21.7v11Zm-36.7 0h-21.7v-11h21.7v11Zm-36.7 0h-21.7v-11h21.7v11Zm-36.7 0h-21.7v-11h21.7v11Zm-36.7 0h-21.7v-11h21.7v11Zm254.2 0h-19v-11h15.6l3.4 11Zm-306.4-11h15.5v11h-19l3.5-11Z" />
      <circle cx="85.1" cy="388.7" r="7.5" />
      <circle cx="121.8" cy="388.7" r="7.5" />
      <circle cx="158.5" cy="388.7" r="7.5" />
      <circle cx="195.2" cy="388.7" r="7.5" />
      <circle cx="231.9" cy="388.7" r="7.5" />
      <circle cx="268.6" cy="388.7" r="7.5" />
      <circle cx="305.3" cy="388.7" r="7.5" />
      <circle cx="342" cy="388.7" r="7.5" />
      <circle cx="378.7" cy="388.7" r="7.5" />
    </symbol>
    <symbol id="item-3015">
      <title>parking garage</title>
      <path fill="#edebed" d="M20.5 132.5h471v372h-471v-372Z" />
      <path fill="#dbd9dc" d="M437.5 132.5h54v372h-54v-372Z" />
      <path fill="#6f6571" d="M112 65.5h392.5v68H112v-68Z" />
      <path fill="#5c525f" d="M460.5 65.5h44v68h-44v-68Z" />
      <path fill="#7fabd5" d="M7.5 18.1c0-5.9 4.8-10.6 10.6-10.6H123c5.8 0 10.6 4.8 10.6 10.6V123c0 5.8-4.8 10.6-10.6 10.6H18c-5.9 0-10.6-4.8-10.6-10.6V18Z" />
      <path fill="#c7dcf6" d="M20.5 326.5v178h144.8V327.2l-144.8-.7Z" />
      <path fill="#6f6571" d="M20.5 294.5h471v36h-471v-36Z" />
      <path fill="#5c525f" d="M437.5 294.5h54v36h-54v-36Z" />
      <path fill="#fecf89" d="M134.5 29.5h357v36h-357v-36Z" />
      <path fill="#f7c272" d="M447.5 29.5h44v36h-44v-36Z" />
      <path fill="#6f6571" d="M310.5 428.5h36v76h-36v-76Z" />
      <path fill="#c7dcf6" d="M300.5 210.5v-24.3c0-11.4 9.3-20.7 20.7-20.7h69.6c11.4 0 20.7 9.3 20.7 20.7v24.3" />
      <path fill="#b7b2b8" d="M406 268.5H306c-13 0-23.5-10.5-23.5-23.5v-11c0-13 10.5-23.5 23.5-23.5h100c13 0 23.5 10.5 23.5 23.5v11c0 13-10.5 23.5-23.5 23.5Z" />
      <path fill="#c7dcf6" d="M100.5 210.5v-24.3c0-11.4 9.3-20.7 20.7-20.7h69.6c11.4 0 20.7 9.3 20.7 20.7v24.3h-111Z" />
      <path fill="#b7b2b8" d="M206 268.5H106c-13 0-23.5-10.5-23.5-23.5v-11c0-13 10.5-23.5 23.5-23.5h100c13 0 23.5 10.5 23.5 23.5v11c0 13-10.5 23.5-23.5 23.5Z" />
      <path d="M504.5 58H499V29.5c0-4.1-3.4-7.5-7.5-7.5H141v-3.9c0-10-8.1-18.1-18.1-18.1H18A18 18 0 0 0 0 18.1V68c0 9.7 15 9.7 15 0V18.1c0-1.7 1.4-3.1 3.1-3.1H123a3 3 0 0 1 3 3.1V123a3 3 0 0 1-3 3H18a3.1 3.1 0 0 1-3.1-3v-14c0-9.6-15-9.6-15 0v14a18 18 0 0 0 13 17.3v364.3c0 4.1 3.4 7.5 7.5 7.5H60c9.7 0 9.7-15 0-15H28V338h129.8v159H105c-9.7 0-9.7 15 0 15h386.5c4.1 0 7.5-3.4 7.5-7.5V141h5.5c4.1 0 7.5-3.4 7.5-7.5v-68c0-4.1-3.4-7.5-7.5-7.5ZM142 37h342v21H142V37Zm-1 85.9V73h356v53H140.7c.2-1 .3-2 .3-3.1ZM484 287h-80.5v-11h2.5c17 0 31-14 31-31v-11a31 31 0 0 0-14.2-26h8.3c9.7 0 9.7-15 0-15H419v-6.8a28.3 28.3 0 0 0-28.2-28.2h-69.6a28.3 28.3 0 0 0-28.2 28.2v6.8h-12.1c-9.7 0-9.7 15 0 15h8.3a31 31 0 0 0-14.2 26v11c0 17 14 31 31 31h2.5v11h-105v-11h2.5c17 0 31-14 31-31v-11a31 31 0 0 0-14.1-26h8.2c9.7 0 9.7-15 0-15H219v-6.8a28.3 28.3 0 0 0-28.2-28.2h-69.6A28.3 28.3 0 0 0 93 186.2v6.8H80.9c-9.7 0-9.7 15 0 15h8.3A31 31 0 0 0 75 234v11c0 17 14 31 31 31h2.5v11H28V142h456v145Zm-80-84h-96v-16.8c0-7.3 6-13.2 13.2-13.2h69.6c7.3 0 13.2 6 13.2 13.2V203Zm-114 31a16 16 0 0 1 16-16h100a16 16 0 0 1 16 16v11a16 16 0 0 1-16 16H306a16 16 0 0 1-16-16v-11Zm33.5 42h65v11h-65v-11ZM204 203h-96v-16.8c0-7.3 6-13.2 13.2-13.2h69.6c7.3 0 13.2 6 13.2 13.2V203ZM90 234a16 16 0 0 1 16-16h100a16 16 0 0 1 16 16v11a16 16 0 0 1-16 16H106a16 16 0 0 1-16-16v-11Zm33.5 42h65v11h-65v-11ZM318 497v-61h21v61h-21Zm36 0v-41.8l102.5-43.8c8.8-3.8 3-17.6-6-13.8L354 438.8v-10.3c0-4.1-3.4-7.5-7.5-7.5h-36a7.5 7.5 0 0 0-7.5 7.5V441h-99.5c-9.7 0-9.7 15 0 15H303v41H172.8V338H409c9.7 0 9.7-15 0-15H28v-21h456v21h-31c-9.7 0-9.7 15 0 15h31v159H354Z" />
      <path d="M58.3 103.6V84.1h12a27.2 27.2 0 1 0 0-54.3H50.8a7.5 7.5 0 0 0-7.5 7.5v66.2c0 9.7 15 9.7 15 0ZM82.7 57c0 6.7-5.5 12.1-12.4 12.1h-12V45h12c6.9 0 12.4 5.4 12.4 12.1Zm382.8 36h-294c-9.7 0-9.7 15 0 15h294c9.7 0 9.7-15 0-15ZM314.8 247c9.6 0 9.6-15 0-15s-9.7 15 0 15Zm82.5 0c9.6 0 9.6-15 0-15s-9.7 15 0 15Zm-282.5 0c9.6 0 9.6-15 0-15s-9.7 15 0 15Zm82.5 0c9.6 0 9.6-15 0-15s-9.7 15 0 15Z" />
    </symbol>
    <symbol id="item-3016">
      <title>art gallery</title>
      <path fill="#68d9fc" d="M32.5 402.4h94V248.2h-104v50.2l10 13.9v90Z" />
      <path fill="#5ecdef" d="M151.3 265.3H22.5a15 15 0 1 1 0-30h128.8a15 15 0 1 1 0 30Z" />
      <path fill="#787d87" d="M145.4 220.3V321H439V106L145.4 220.4Z" />
      <path fill="#6a6d7a" d="M451.6 101.2V321h-47.4V119.6l47.4-18.4Z" />
      <path fill="#eaf4f4" d="m413.9 251 2.7-77.6a4 4 0 0 0-5.5-3.8l-7-3-107.4 41.8L414 251.1Z" />
      <path fill="#d9e8e8" d="M423.5 165v89.6l-19.3-7v-81l13.9-5.4a4 4 0 0 1 5.4 3.7Z" />
      <path fill="#6a6d7a" d="M145.4 235.3a15 15 0 0 1-5.5-29l264.3-102.8 42.2-12.2c7.8-3 11.7-1 14.7 6.8 3 7.7.2 9.8-7.5 12.8l-49.4 24.9-253.3 98.5a15 15 0 0 1-5.5 1Z" />
      <path fill="#5b5e6b" d="m457 115.2-5.4 2-47.4 18.6v-32.3l30-11.7 12-4.7a15 15 0 0 1 10.9 28Z" />
      <path fill="#9fe1fc" d="M115.7 134.8v275.6H477v-135L115.7 134.7Z" />
      <path fill="#68d9fc" d="M489.5 410.4h-50.6V272.6h25.3c1.8.7 23.4 19.8 25.2 19.8v118Z" />
      <path fill="#68d9fc" d="M487 289.8a15 15 0 0 1-5.4-1L439 276.7l-328.6-128a15 15 0 0 1 10.9-28L439 244.4l53.7 26.7c7.7 3 10.3 5 7.3 12.8-2.3 6-6.8 5.9-12.8 5.9Z" />
      <path fill="#5ecdef" d="M503.5 285.6a15 15 0 0 1-19.5 8.6l-45-17.5v-32.3l56 21.8a15 15 0 0 1 8.5 19.4Z" />
      <path fill="#eaf4f4" d="M151.3 198.1a4 4 0 0 0-5.5 3.8v147.4l5.6 7-5.6 8v42.3h306.6v-83l-13.5-11.5-50.4-20-7.6 5.4-7.4-11.3L310 261l-9 4.7-6-10.7-63.4-25-7.6 5.3-7.4-11.3-65.4-26Z" />
      <path fill="#d9e8e8" d="M459.4 322.9v26.4l-7 7.5 7 7.5v42.3h-20.5v-94.5l18 7a4 4 0 0 1 2.5 3.8Z" />
      <path fill="#eaf4f4" d="M81.9 401H22.5v-66l6.6-8.3-6.6-6.6v-21.7H79a3 3 0 0 1 3 3v18.7l-7.4 7.4 7.4 7.6V401Z" />
      <path fill="#787d87" d="m498.5 398.1-39.1-3.2H10.5a3 3 0 0 0-3 3v25a3 3 0 0 0 3 3h437l52.2-1.9a3 3 0 0 0 3-3l-1.2-19.9a3 3 0 0 0-3-3Z" />
      <path fill="#6a6d7a" d="M504.5 398v24.9a3 3 0 0 1-3 3h-61.6c10.7 0 19.5-8.7 19.5-19.5V395h42.1a3 3 0 0 1 3 3Z" />
      <path d="M504.5 386.9H497v-85.5c6-2.2 11-6.9 13.5-13a22.6 22.6 0 0 0-12.9-29.2l-38.5-15v-39.7a7.5 7.5 0 0 0-15 0v33.8l-13-5V159a7.5 7.5 0 0 0-10.3-7l-99.2 38.6-19-7.4 141.5-55v41.2a7.5 7.5 0 0 0 15 0v-47l.7-.3A22.4 22.4 0 0 0 472.6 93a22.6 22.6 0 0 0-29.2-12.8l-203 79-39.2-15.3a7.5 7.5 0 0 0-5.4 14l296.4 115.3a7.6 7.6 0 0 1-2.7 14.5c-1 0-1.9-.1-2.8-.5L113 141.8a7.5 7.5 0 0 1-4.3-9.8 7.5 7.5 0 0 1 9.8-4.2L163 145a7.5 7.5 0 0 0 5.5-14l-44.7-17.3a22.6 22.6 0 0 0-16.3 42l.6.2v32.5h-97a7.5 7.5 0 0 0 0 15H15V229a22.6 22.6 0 0 0 0 42.5V387H7.5a7.5 7.5 0 0 0-7.5 7.5V426c0 4.1 3.4 7.5 7.5 7.5h90.7a7.5 7.5 0 0 0 0-15H15V402h482v16.5H133.2a7.5 7.5 0 0 0 0 15h371.3c4.1 0 7.5-3.4 7.5-7.5v-31.5c0-4.1-3.4-7.5-7.5-7.5ZM416 170v57.4l-73.7-28.7L416 170Zm33-75.9a7.6 7.6 0 0 1 5.4 14L282 175.3l-20.8-8 187.8-73Zm32.4 207c.2.2.4.2.7.3V387H467v-66.7c0-3.1-2-5.9-4.8-7L148.6 189a7.5 7.5 0 0 0-10.3 7v190.9h-15v-225l358 139.3Zm-178.7 8.4c4.1 0 7.5-3.4 7.5-7.5v-32.9l63.4 25.1v55.1H310V337a7.5 7.5 0 0 0-15 0v12.3h-63.4V238l63.4 25.1V302c0 4.1 3.4 7.5 7.5 7.5ZM452 349.3h-63.4v-49.1l63.4 25v24.1Zm-235.2 0h-63.4V207l63.4 25.1v117.2Zm-63.4 15h63.4V387h-63.4v-22.6Zm78.4 0h63.4V387h-63.4v-22.6Zm78.4 0h63.4V387H310v-22.6Zm78.4 0H452V387h-63.4v-22.6ZM30 306h44.4v14.2H30V306Zm44.4 29.2V387H59.7v-51.8h14.7Zm7.5-44.2H30v-18h78.2v114H89.4v-88.5c0-4.1-3.4-7.5-7.5-7.5Zm26.4-63.1H76.7v-24.4h31.6v24.3Zm-46.6-24.4v24.3H30v-24.3h31.6Zm-39.1 39.3h85.7v15.1H22.5a7.5 7.5 0 0 1 0-15Zm7.5 92.4h14.6V387H30.1v-51.8Z" />
    </symbol>
    <symbol id="item-3017">
      <title>mansion's garden</title>
      <path fill="#45bf64" d="M8 402.3h496.3v102.4H8V402.3Z" />
      <path fill="#41b55e" d="M464.4 402.3h40v102.4h-40V402.3Z" />
      <path fill="#298b65" d="M7.7 130.6c13.6 0 25.3 8 30.5 19.7a54 54 0 0 1 88.6 7.1l41.7 52.6h180s19.5-24.1 36.7-52.6c19.2-31.8 64.8-37.1 88.6-7.1a33.5 33.5 0 0 1 30.5-19.7v247.8H8l-.2-247.8Z" />
      <path fill="#21825e" d="M473.8 150.3a59 59 0 0 0-9.4-9.3v237.4h40V130.6a33.5 33.5 0 0 0-30.6 19.7Z" />
      <path fill="#ffeede" d="M281 504.7v-64.5a30 30 0 0 1 30-30h193.3v-39h-138L256 358.4 144.4 371H7.7v39h193.4a30 30 0 0 1 30 30v64.6H281Z" />
      <path fill="#d4d4d4" d="M364.8 371.1H147.2A53.2 53.2 0 0 1 94 318h324a53.2 53.2 0 0 1-53.2 53.2Z" />
      <path fill="#bfbfbf" d="M378 318a53.2 53.2 0 0 1-53 53h40a53.2 53.2 0 0 0 53-53h-40Z" />
      <path fill="#f2f2f2" d="M280 161.8h-48a32.3 32.3 0 0 1-32.3-32.3h112.7a32.3 32.3 0 0 1-32.4 32.3Z" />
      <path fill="#e6e6e6" d="M272.4 129.5a32.3 32.3 0 0 1-32.4 32.3h40a32.3 32.3 0 0 0 32.3-32.3h-40Z" />
      <path fill="#d4d4d4" d="M176.7 229.8h158.7v59.6H176.7v-59.6Z" />
      <path fill="#bfbfbf" d="M295.4 229.8h40v59.6h-40v-59.6Z" />
      <path fill="#d4d4d4" d="M229.2 161.8h53.6v39.4h-53.6v-39.4Z" />
      <path fill="#bfbfbf" d="M253 161.8h29.8v39.4H253v-39.4Z" />
      <path fill="#f2f2f2" d="M346.7 229.8H165.3c-18.4 0-18.7-28.8 0-28.8h181.4c18.4 0 18.7 28.8 0 28.8Z" />
      <path fill="#e6e6e6" d="M346.7 201h-40a14.4 14.4 0 0 1 0 28.8h40c18.4 0 18.7-28.8 0-28.8Z" />
      <path fill="#f2f2f2" d="M428.6 318H83.4c-18.4 0-18.7-28.8 0-28.8h345.2c18.4 0 18.7 28.7 0 28.7Z" />
      <path fill="#e6e6e6" d="M428.6 289.2h-40a14.4 14.4 0 0 1 0 28.8h40c18.6 0 18.6-28.8 0-28.8Z" />
      <path fill="#ffe2c7" d="M464.4 371.1h40v39.1h-40v-39Z" />
      <path d="m186 480.4-12 11.9v-13c.1-9.5-14.9-10-15 0v13l-11.7-11.7c-6.8-6.9-17.4 3.7-10.6 10.6l11.7 11.7a25.5 25.5 0 0 0 17.7 7.5h.9c6.4-.1 12.7-2.6 17.6-7.5l11.9-11.8c6.8-6.9-3.8-17.5-10.6-10.7Zm-134.5 0-11.8 11.9v-13c.1-9.5-14.9-10-15 0v13L13 480.6c-6.9-6.9-17.5 3.7-10.6 10.6l11.7 11.7a25.9 25.9 0 0 0 36.2 0L62.1 491c6.9-6.9-3.7-17.5-10.6-10.7Zm68.4-32.1L108 460.1v-13c.1-9.4-14.9-10-15 0v13l-11.7-11.7c-6.8-6.8-17.4 3.8-10.6 10.7l11.7 11.6a25.9 25.9 0 0 0 36.2 0l11.9-11.8c6.8-6.8-3.8-17.4-10.7-10.6Zm389.7 32.1a7.5 7.5 0 0 0-10.6 0l-11.8 11.9v-13c0-9.5-15-10-15 0v13l-11.7-11.7c-6.9-6.9-17.5 3.7-10.6 10.6l11.7 11.7a25.9 25.9 0 0 0 36.2 0l11.8-11.8c3-3 3-7.7 0-10.7Zm-145 0-11.8 11.9v-13c0-9.5-15-10-15 0v13L326 480.6c-6.9-6.9-17.5 3.7-10.6 10.6l11.7 11.7a25.9 25.9 0 0 0 36.2 0l11.8-11.8c6.8-6.9-3.8-17.5-10.6-10.7Zm68.4-32.1-12 11.8v-13c0-9.4-15-10-15 0v13l-11.7-11.7c-6.9-6.8-17.5 3.8-10.6 10.7l11.7 11.6a25.9 25.9 0 0 0 36.2 0l11.8-11.8c6.9-6.8-3.7-17.4-10.6-10.6ZM311.9 173c0 4.1 3.3 7.5 7.4 7.5h31a32 32 0 0 1 31.8 31.9V261a7.5 7.5 0 0 0 15 0v-48.6a47 47 0 0 0-46.9-47h-30.9a7.5 7.5 0 0 0-7.5 7.6Zm-27.3-71.3c0 4.1 3.3 7.4 7.5 7.4h23c10.2 0 18.4 8.3 18.4 18.4v20.6c0 9.7 15 9.7 15 0v-20.6c0-18.4-15-33.3-33.3-33.3H292a7.5 7.5 0 0 0-7.5 7.4Zm-113.3 53.9c4.2 0 7.5-3.4 7.5-7.5v-20.6c0-10.1 8.3-18.3 18.4-18.3h23c9.8 0 9.8-15 0-15h-23c-18.4 0-33.4 15-33.4 33.3v20.6c0 4.1 3.4 7.5 7.5 7.5Zm-55.4 56.7V261a7.5 7.5 0 0 0 15 0v-48.7a32 32 0 0 1 31.9-31.9h30.9a7.5 7.5 0 0 0 0-15h-31a47 47 0 0 0-46.8 47ZM229.2 68.7c4.2 0 7.5-3.3 7.5-7.5v-9c0-7.7 11.8-7.7 11.8 0v49c0 9.7 15 9.7 15 0v-81c0-7.6 11.8-7.6 11.8 0v9c0 9.7 15 9.7 15 0v-9c0-26.9-41.8-27-41.8 0v12a21 21 0 0 0-26.8 20v9c0 4.2 3.4 7.5 7.5 7.5Z" />
      <path d="M7.7 378.6h496.6c9.7 0 9.7-15 0-15h-99.6c11-9.5 18.4-23 20.3-38.2h3.6c28.2 0 28.2-43.7 0-43.7h-85.8v-44.5h4c28.1 0 28.1-43.7 0-43.7h-56.5V168a40 40 0 0 0 29.5-38.5c0-4.2-3.3-7.5-7.5-7.5H199.7a7.5 7.5 0 0 0-7.5 7.5c0 18.4 12.5 34 29.5 38.5v25.5h-56.4c-28.2 0-28.3 43.7 0 43.7h3.9v44.5H83.4c-28.2 0-28.2 43.7 0 43.7H87a60.6 60.6 0 0 0 20.3 38.2H7.7c-9.7 0-9.7 15 0 15ZM208.3 137h95.4a24.9 24.9 0 0 1-23.7 17.3h-48a25 25 0 0 1-23.7-17.3Zm28.4 32.3h38.6v24.2h-38.6v-24.2Zm-52.5 68h19.1c9.7 0 9.7-15 0-15h-38c-9 0-9-13.9 0-13.9h181.4c9 0 9 13.9 0 13.9h-104c-9.8 0-9.8 15 0 15h85.2v44.4H184.2v-44.5Zm-82 88.1h225.7c9.7 0 9.7-15 0-15H83.4c-7.7 0-8.3-13.7 1.4-13.7h343.5c8.6 0 10.2 13.8.3 13.8H370c-9.7 0-9.7 15 0 15h40a45.8 45.8 0 0 1-45 38.1H147.1a45.8 45.8 0 0 1-45-38.2ZM7.7 417.7h34.6c9.7 0 9.7-15 0-15H7.7c-9.7 0-9.7 15 0 15Zm193.3-15H84c-9.7 0-9.7 15 0 15h117c12.5 0 22.6 10 22.6 22.5v64.5c0 9.7 15 9.7 15 0v-64.5a37.5 37.5 0 0 0-37.5-37.5Zm310.8 7.5c0-4.1-3.4-7.5-7.5-7.5H311a37.5 37.5 0 0 0-37.4 37.5v64.5c0 9.7 15 9.7 15 0v-64.5c0-12.4 10-22.5 22.4-22.5h193.4c4.2 0 7.5-3.4 7.5-7.5ZM381.5 164c3.5 1.9 8.3.5 10.2-3a45.9 45.9 0 0 1 76.3-6 7.6 7.6 0 0 0 12.7-1.5c4.2-9.3 13.5-15.4 23.7-15.4s9.7-15 0-15a41 41 0 0 0-31.7 15.1 60.9 60.9 0 0 0-94 15.7c-2 3.6-.7 8.1 3 10.2ZM7.7 138a26 26 0 0 1 23.7 15.4c2.3 5 9.3 5.9 12.7 1.6a46 46 0 0 1 76.2 6.1c4.6 8.2 17.8 1.1 13-7.3a60.8 60.8 0 0 0-94-15.7 41 41 0 0 0-31.6-15c-9.7 0-9.7 15 0 15Z" />
    </symbol>
    <symbol id="item-3018">
      <title>wine cellar</title>
      <path fill="#407093" fill-rule="evenodd" d="M12.4 482.6h487.3c2.6 0 4.8-2.2 4.8-4.8V431c0-2.6-2.2-4.8-4.8-4.8H12.4a4.9 4.9 0 0 0-4.9 4.8v46.6a5 5 0 0 0 4.9 4.9Z" />
      <path fill="#365e7d" fill-rule="evenodd" d="M475.4 482.6h24.3c2.6 0 4.8-2.2 4.8-4.8V431c0-2.6-2.2-4.8-4.8-4.8h-24.3c2.7 0 4.9 2.2 4.9 4.8v46.6a5 5 0 0 1-5 4.9Z" />
      <path fill="#845c47" fill-rule="evenodd" d="M149.7 426.3c58.5 0 106.3-47.8 106.3-106.4s-47.8-106.3-106.3-106.3S43.3 261.4 43.3 320c0 58.5 47.8 106.3 106.4 106.3Zm212.7 0c58.5 0 106.3-47.8 106.3-106.4s-47.8-106.3-106.3-106.3C303.8 213.6 256 261.4 256 320s47.8 106.3 106.4 106.3Z" />
      <path fill="#845c47" fill-rule="evenodd" d="M255.5 29.4a106.3 106.3 0 1 1 0 212.6 106.3 106.3 0 0 1 0-212.6Z" />
      <path fill="#7a5440" fill-rule="evenodd" d="M255.5 29.4a106.3 106.3 0 1 1-12.1 212 106.3 106.3 0 0 0 0-211.3c4-.5 8-.7 12.1-.7Zm106.9 184.2a106.3 106.3 0 1 1-12.2 212 106.3 106.3 0 0 0 0-211.3c4-.4 8-.7 12.2-.7Zm-212.7 0a106.3 106.3 0 1 1-12.2 212 106.3 106.3 0 0 0 0-211.3c4-.4 8-.7 12.2-.7Z" />
      <path fill="#b78b7a" fill-rule="evenodd" d="M149.7 397a77.2 77.2 0 0 0 0-154.1c-42.4 0-77.1 34.6-77.1 77s34.6 77.2 77 77.2Z" />
      <path fill="#aa7a63" fill-rule="evenodd" d="M123.9 392.6c-9-3.2-17.2-8-24.3-14V261.3c7.1-6 15.3-10.8 24.3-14v145.3Zm78.6-128.8a76.9 76.9 0 0 1 0 112.3V263.8Zm-51.4-21c8.5.2 16.7 1.8 24.3 4.5v145.3a77.5 77.5 0 0 1-24.3 4.4V243Z" />
      <path fill="#b78b7a" fill-rule="evenodd" d="M255.5 212.8c42.5 0 77.1-34.6 77.1-77s-34.6-77.1-77-77.1-77.2 34.6-77.2 77 34.7 77.1 77.1 77.1ZM362.4 397a77.2 77.2 0 0 0 0-154.1 77.2 77.2 0 0 0-77.1 77 77.3 77.3 0 0 0 77 77.2Z" />
      <path fill="#aa7a63" fill-rule="evenodd" d="M336.6 392.6c-9-3.2-17.2-8-24.3-14V261.3c7.1-6 15.3-10.9 24.3-14v145.3Zm78.6-128.8a76.8 76.8 0 0 1 0 112.3V263.8Zm-51.3-21a78 78 0 0 1 24.2 4.5v145.3A76.7 76.7 0 0 1 364 397V242.9Zm-134.1-34.4c-9-3.2-17.2-8-24.3-14V77.1c7-6 15.3-10.8 24.2-14v145.3Zm78.5-128.8a76.9 76.9 0 0 1 0 112.3V79.6Zm-51.3-21c8.5.2 16.7 1.8 24.3 4.5v145.3a77.5 77.5 0 0 1-24.3 4.4V58.7Z" />
      <path d="M15 475h482v-41.2H15V475Zm339.8-121.4a7.5 7.5 0 0 1 15 0v12.1a7.5 7.5 0 1 1-15 0v-12.1ZM248 169.4a7.5 7.5 0 0 1 15 0v12.1a7.5 7.5 0 1 1-15 0v-12.1ZM142.2 353.6a7.5 7.5 0 0 1 15 0v12.1a7.5 7.5 0 1 1-15 0v-12.1Zm253.4-94.8v122.3a69.5 69.5 0 0 0 0-122.3Zm-15 128.3V252.8a69 69 0 0 0-36.5 0v134.3a70.7 70.7 0 0 0 36.5 0Zm-51.5-6V258.8a69.4 69.4 0 0 0 0 122.3ZM288.8 74.6v122.3a69.5 69.5 0 0 0 0-122.3Zm-15 128.3V68.6a69 69 0 0 0-36.6 0v134.3a70.7 70.7 0 0 0 36.6 0Zm-51.6-6V74.6a69.4 69.4 0 0 0 0 122.3Zm-39.3 62V381a69.5 69.5 0 0 0 0-122.3ZM168 387V252.8a69 69 0 0 0-36.5 0v134.3a70.7 70.7 0 0 0 36.5 0Zm-51.5-6V258.8a69.4 69.4 0 0 0 0 122.3Zm246-145.7a84.3 84.3 0 0 1 84.5 84.5 84.3 84.3 0 0 1-84.6 84.6 84.3 84.3 0 0 1-84.6-84.6 84.3 84.3 0 0 1 84.6-84.5ZM255.4 51a84.3 84.3 0 0 1 84.6 84.6 84.3 84.3 0 0 1-84.6 84.6 84.3 84.3 0 0 1-84.6-84.6A84.3 84.3 0 0 1 255.4 51ZM149.7 235.4a84.3 84.3 0 0 1 84.6 84.5 84.3 84.3 0 0 1-84.6 84.6A84.3 84.3 0 0 1 65 320a84.3 84.3 0 0 1 84.6-84.5Zm60.6-187.6a7.5 7.5 0 1 1-6.9-13.3 114.6 114.6 0 0 1 52.1-12.6 113.6 113.6 0 0 1 113.9 113.8c0 27.3-9.6 52.4-25.6 72a114.8 114.8 0 0 1 99 31.8A113.6 113.6 0 0 1 419 418.8h85.6c4.2 0 7.5 3.4 7.5 7.5v56.3c0 4.2-3.3 7.5-7.5 7.5H7.5a7.5 7.5 0 0 1-7.5-7.5v-56.3c0-4.1 3.4-7.5 7.5-7.5h85.6a114 114 0 0 1-43.4-153.3 7.5 7.5 0 0 1 13.1 7.1 99.4 99.4 0 0 0-12 47.4 98.5 98.5 0 0 0 98.9 98.8 98.5 98.5 0 0 0 98.8-98.8 98.5 98.5 0 0 0-98.8-98.9 98.6 98.6 0 0 0-67.5 26.7 7.5 7.5 0 0 1-10.2-11 114.5 114.5 0 0 1 95-29.3 113.3 113.3 0 0 1-16.9-114.8c5.7-13.8 14-26.3 24.2-36.7A7.5 7.5 0 1 1 185 66.5a98.9 98.9 0 0 0 17 152.3 98.4 98.4 0 0 0 123.5-13.2 98.6 98.6 0 0 0-.1-139.7 98.5 98.5 0 0 0-115-18.1ZM274.1 248a115 115 0 0 1-36 .1 114 114 0 0 1 17.9 31 113.4 113.4 0 0 1 18-31.1Zm31.7 170.7a114.8 114.8 0 0 1-49.8-58.1 113.4 113.4 0 0 1-49.8 58.1h99.6ZM432.2 250a98.5 98.5 0 0 0-139.7 0 98.5 98.5 0 0 0 0 139.8 98.5 98.5 0 0 0 139.7 0 98.6 98.6 0 0 0 0-139.8Z" />
    </symbol>
    <symbol id="item-3019">
      <title>stalker</title>
      <path fill="#ffbd86" d="M480.3 401.9H307.5a24.2 24.2 0 1 0 0 48.4h172.8a24.2 24.2 0 1 0 0-48.4Z" />
      <path fill="#fed2a4" d="M319 327.4v97.2a74.9 74.9 0 1 0 149.7 0v-97.2H319Z" />
      <path fill="#918291" d="M394.6 264.5c-55.7-.4-101 44.7-101 100.4v5c0 2.6 2 4.7 4.6 4.7h36.3a73.3 73.3 0 0 0 59.4-30.2 73.2 73.2 0 0 0 59.3 30.2h36.3c2.6 0 4.7-2 4.7-4.6v-4c0-55.3-44.3-101.2-99.6-101.6Z" />
      <path fill="#7a6d79" d="M394.6 264.5c-3.7 0-7.3.2-10.9.5A101.3 101.3 0 0 1 474 366.1v3.9c0 2.5-2.1 4.6-4.7 4.6h20.2c2.6 0 4.7-2 4.7-4.6v-4c0-55.3-44.3-101.2-99.6-101.6Z" />
      <path fill="#ffcebf" d="m78.6 159.4 29 24.4 27.4-32.5-29.1-24.5c-8.4-7-21-6-28 2.5l-1.8 2c-7 8.4-6 21 2.5 28Z" />
      <path fill="#ffbd86" d="m222 279.7-29.1-24.4 27.3-32.6 29 24.5a20 20 0 0 1 2.5 28l-1.7 2a20 20 0 0 1-28 2.5Z" />
      <path fill="#fed2a4" d="m143 109-57.7 68.7a76.7 76.7 0 1 0 117.5 98.6l57.7-68.7a54.7 54.7 0 0 0-6.7-77.1L220 102.2a54.7 54.7 0 0 0-77 6.7Z" />
      <path fill="#ffbd86" d="m253.7 130.5-15.5-13a54.7 54.7 0 0 1 6.8 77l-57.7 68.8a76.7 76.7 0 0 1-100 15.4 76.7 76.7 0 0 0 115.4-2.4l57.8-68.7a54.7 54.7 0 0 0-6.8-77.1Z" />
      <path fill="#7a8c98" d="m96 165 42.2-50.4 117.6 98.7-42.3 50.4L96 165Z" />
      <path fill="#596c76" d="m198 250.6 42.3-50.4 15.5 13-42.3 50.4-15.5-13Z" />
      <path fill="#978ecb" d="m156 84.8-7.4 8.7 126 105.8 7.4-8.7a47.9 47.9 0 0 0-5.9-67.5l-52.7-44.2a47.9 47.9 0 0 0-67.5 5.9Z" />
      <path fill="#8379c1" d="m276.1 123.1-15.5-13a47.9 47.9 0 0 1 5.9 67.5l-7.3 8.7 15.5 13 7.3-8.7a47.9 47.9 0 0 0-5.9-67.5Z" />
      <path fill="#aca6d6" d="m117.7 81.8 5.2-6.2a12 12 0 0 1 16.8-1.4l155.6 130.5a12 12 0 0 1 1.5 16.9l-5.2 6.1a12 12 0 0 1-16.8 1.5L119.2 98.6a12 12 0 0 1-1.5-16.8Z" />
      <path fill="#978ecb" d="m295.3 204.7-15.5-13a12 12 0 0 1 1.5 16.8l-5.2 6.2a12 12 0 0 1-16.8 1.5l15.5 13a12 12 0 0 0 16.8-1.5l5.2-6.1a12 12 0 0 0-1.5-16.9Z" />
      <path fill="#dff6fd" d="M7.5 17.6v476.8a5 5 0 0 0 5 5h133.3a5 5 0 0 0 5-5V17.6a5 5 0 0 0-5-5.1H12.5a5 5 0 0 0-5 5Z" />
      <path fill="#c8effe" d="M145.8 12.5h-20.2a5 5 0 0 1 5 5v477a5 5 0 0 1-5 5h20.2a5 5 0 0 0 5-5v-477a5 5 0 0 0-5-5Z" />
      <path fill="#fed2a4" d="M118.4 364.7v24.2c0 11.7 9.5 21.2 21.2 21.2h27.5c5.7 0 10.2-4.6 10.2-10.2v-46.2c0-5.6-4.5-10.2-10.2-10.2h-27.5a21.2 21.2 0 0 0-21.2 21.2Z" />
      <path fill="#ffbd86" d="M167.1 343.5H147c5.7 0 10.2 4.6 10.2 10.2v46.2c0 5.6-4.5 10.2-10.2 10.2h20.2c5.7 0 10.2-4.6 10.2-10.2v-46.2c0-5.6-4.5-10.2-10.2-10.2Z" />
      <path d="M210.3 211a7.6 7.6 0 0 0-10.7.9l-1.3 1.6a7.6 7.6 0 1 0 11.6 9.8l1.4-1.7c2.6-3.2 2.2-8-1-10.6Z" />
      <path d="M270 235a19.4 19.4 0 0 0 27.4-2.4l5.2-6.2a19.6 19.6 0 0 0-2.4-27.5l-9.2-7.7a55 55 0 0 0-10-73.9l-10-8.3a7.6 7.6 0 0 0-9.7 11.6l10 8.3a40 40 0 0 1 8 52.5L165.4 86a40 40 0 0 1 53.2-1.2L234.2 98a7.6 7.6 0 0 0 9.7-11.6L228.3 73a55 55 0 0 0-69.8-1.2V17.6c0-7-5.7-12.6-12.6-12.6H12.6C5.6 5 0 10.7 0 17.6v476.8c0 7 5.7 12.6 12.6 12.6H146c7 0 12.6-5.7 12.6-12.6v-76.8h8.7c9.8 0 17.7-8 17.7-17.7v-46.2c0-9.8-8-17.8-17.7-17.8h-8.7V310a83.5 83.5 0 0 0 50.1-28.8l1.4-1.7 7.1 6a27.3 27.3 0 0 0 38.7-3.4l1.7-2c9.8-11.6 8.2-29-3.4-38.7l-7-6 9.6-11.5 13.2 11Zm-57.4 18-54.1-45.5v-66l86.6 72.7-32.5 38.7Zm78.4-36.3-5.2 6.1a4.4 4.4 0 0 1-6.2.6L158.5 121.7V99.8l132 110.7a4.4 4.4 0 0 1 .4 6.2Zm-121.2 137v46.2c0 1.4-1.2 2.6-2.6 2.6h-27.6c-7.5 0-13.6-6.1-13.6-13.7v-24.1c0-7.5 6.1-13.7 13.6-13.7h27.6c1.4 0 2.6 1.2 2.6 2.6Zm-30.2-17.8a28.8 28.8 0 0 0-28.7 28.8v24.2a28.8 28.8 0 0 0 28.7 28.7h3.8V492H15V20h128.3v316h-3.8Zm18.9-41.3v-67.3l44.3 37.2-5.8 7a67.6 67.6 0 0 1-38.5 23Zm86-41.7a12.4 12.4 0 0 1 1.4 17.4l-1.7 2a12.2 12.2 0 0 1-17.4 1.5l-7-5.9 17.5-20.9 7.1 6Zm97.7-101.2c0 4.2 3.4 7.6 7.6 7.6h21a7.6 7.6 0 0 0 0-15.2h-21a7.6 7.6 0 0 0-7.6 7.6Zm-5.2 41.7 16 13.5a7.6 7.6 0 0 0 10.6-1c2.7-3.2 2.3-8-1-10.6l-16-13.5a7.6 7.6 0 0 0-9.7 11.6Zm4.8-70.1c1.7 0 3.4-.5 4.8-1.7l16-13.5a7.6 7.6 0 0 0-9.7-11.6L337 110a7.6 7.6 0 0 0 4.9 13.4Zm31.4 283.6v-5.7a7.6 7.6 0 0 0-15.2 0v5.7a7.6 7.6 0 0 0 15.2 0Zm48.8-13.3a7.6 7.6 0 0 0-7.5 7.6v5.7a7.6 7.6 0 0 0 15.1 0v-5.7c0-4.2-3.4-7.6-7.6-7.6Zm-14.9 47.1c-3.4 1.2-8.2 1.8-13.3 1.8s-9.9-.6-13.3-1.8a7.6 7.6 0 1 0-5 14.3c5 1.7 11.5 2.7 18.3 2.7s13.3-1 18.3-2.7a7.6 7.6 0 1 0-5-14.3Z" />
      <path d="M480.2 394.2h-4v-12h13.3c6.7 0 12.2-5.5 12.2-12.3-.4-2.2 4.5-45.6-31.9-81.6a107.3 107.3 0 0 0-158 7 7.6 7.6 0 0 0 11.6 9.8 92.2 92.2 0 0 1 69.7-33h.7a92 92 0 0 1 65.3 27 92 92 0 0 1 27.4 65.7v2.2h-33.4a66 66 0 0 1-53.2-27 7.6 7.6 0 0 0-12.2 0 65.8 65.8 0 0 1-53.2 27H301c0-1-.8-16 5.8-33.7a7.6 7.6 0 0 0-14.2-5.2c-7.9 21.3-6.7 40.2-6.8 41.8 0 6.8 5.5 12.3 12.2 12.3h13.3v12h-4a31.8 31.8 0 0 0 0 63.7h11c13.4 30.3 43.6 49.1 75.4 49.1s62-18.8 75.4-49.1h11a31.8 31.8 0 0 0 0-63.7Zm-172.8 48.5a16.7 16.7 0 0 1 0-33.3h4v15.2c0 6.1.7 12.2 2 18.1h-6Zm86.4 49.2a67.6 67.6 0 0 1-67.3-67.3v-42.4h8a81 81 0 0 0 59.3-26 81 81 0 0 0 59.3 26h8v42.4a67.6 67.6 0 0 1-67.3 67.3Zm86.4-49.2h-6c1.4-5.9 2-12 2-18.1v-15.2h4a16.7 16.7 0 0 1 0 33.3Z" />
    </symbol>
    <symbol id="item-3020">
      <title>aaa</title>
    </symbol>
    <symbol id="item-3021">
      <title>aaa</title>
    </symbol>
    <symbol id="item-3022">
      <title>aaa</title>
    </symbol>
    <symbol id="item-3023">
      <title>aaa</title>
    </symbol>
    <symbol id="item-3024">
      <title>aaa</title>
    </symbol>
    <symbol id="item-3025">
      <title>aaa</title>
    </symbol>
    <symbol id="item-3026">
      <title>aaa</title>
    </symbol>
    <symbol id="item-3027">
      <title>aaa</title>
    </symbol>
    <symbol id="item-3028">
      <title>aaa</title>
    </symbol>
    <symbol id="item-3029">
      <title>aaa</title>
    </symbol>
    <symbol id="item-3030">
      <title>aaa</title>
    </symbol>
    <symbol id="item-3031">
      <title>aaa</title>
    </symbol>
    <symbol id="item-3032">
      <title>aaa</title>
    </symbol>
    <symbol id="item-3033">
      <title>aaa</title>
    </symbol>
    <symbol id="item-3034">
      <title>aaa</title>
    </symbol>
    <symbol id="item-3035">
      <title>aaa</title>
    </symbol>
    <symbol id="item-3036">
      <title>aaa</title>
    </symbol>
    <symbol id="item-3037">
      <title>aaa</title>
    </symbol>
    <symbol id="item-3038">
      <title>aaa</title>
    </symbol>
    <symbol id="item-3039">
      <title>aaa</title>
    </symbol>
    <symbol id="item-3040">
      <title>aaa</title>
    </symbol>
    <symbol id="item-3041">
      <title>aaa</title>
    </symbol>
    <symbol id="item-3042">
      <title>aaa</title>
    </symbol>
    <symbol id="item-3043">
      <title>aaa</title>
    </symbol>
    <symbol id="item-3044">
      <title>aaa</title>
    </symbol>
    <symbol id="item-3045">
      <title>aaa</title>
    </symbol>
    <symbol id="item-3046">
      <title>aaa</title>
    </symbol>
    <symbol id="item-3047">
      <title>aaa</title>
    </symbol>
    <symbol id="item-3048">
      <title>aaa</title>
    </symbol>
    <symbol id="item-3049">
      <title>aaa</title>
    </symbol>
    <symbol id="item-3050">
      <title>aaa</title>
    </symbol>
    <symbol id="item-3051">
      <title>aaa</title>
    </symbol>
    <symbol id="item-3052">
      <title>aaa</title>
    </symbol>
    <symbol id="item-3053">
      <title>aaa</title>
    </symbol>
    <symbol id="item-3054">
      <title>aaa</title>
    </symbol>
    <symbol id="item-3055">
      <title>aaa</title>
    </symbol>
    <symbol id="item-3056">
      <title>aaa</title>
    </symbol>
    <symbol id="item-3057">
      <title>aaa</title>
    </symbol>
    <symbol id="item-3058">
      <title>aaa</title>
    </symbol>
    <symbol id="item-3059">
      <title>aaa</title>
    </symbol>
    <symbol id="item-3060">
      <title>aaa</title>
    </symbol>
    <symbol id="item-3061">
      <title>aaa</title>
    </symbol>
    <symbol id="item-3062">
      <title>aaa</title>
    </symbol>
    <symbol id="item-3063">
      <title>aaa</title>
    </symbol>
    <symbol id="item-3064">
      <title>aaa</title>
    </symbol>
    <symbol id="item-3065">
      <title>aaa</title>
    </symbol>
    <symbol id="item-3066">
      <title>aaa</title>
    </symbol>
    <symbol id="item-3067">
      <title>aaa</title>
    </symbol>
    <symbol id="item-3068">
      <title>aaa</title>
    </symbol>
    <symbol id="item-3069">
      <title>aaa</title>
    </symbol>
    <symbol id="item-3070">
      <title>aaa</title>
    </symbol>
    <symbol id="item-3071">
      <title>aaa</title>
    </symbol>
    <symbol id="item-3072">
      <title>aaa</title>
    </symbol>
    <symbol id="item-3073">
      <title>aaa</title>
    </symbol>
    <symbol id="item-3074">
      <title>aaa</title>
    </symbol>
    <symbol id="item-3075">
      <title>aaa</title>
    </symbol>
    <symbol id="item-3076">
      <title>aaa</title>
    </symbol>
  </defs>
</svg>
