<?xml version="1.0" encoding="utf-8"?>
<!-- Generator: Adobe Illustrator 28.0.0, SVG Export Plug-In . SVG Version: 6.00 Build 0)  -->
<svg version="1.1" id="Layer_1" xmlns="http://www.w3.org/2000/svg" xmlns:xlink="http://www.w3.org/1999/xlink" x="0px" y="0px"
	 viewBox="0 0 170.8 170.8" style="enable-background:new 0 0 170.8 170.8;" xml:space="preserve">
<style type="text/css">
	.st0{fill:#5048A5;}
	.st1{fill:#6CADBB;}
	.st2{fill:#F2E178;}
	.st3{fill:#F4AA8D;}
</style>
<path class="st0" d="M46.5,124l44.4-44.4l44.4,44.4l-44.5,44.4c-3.3,3.3-8.6,3.3-11.8,0l-32.5-32.6C43.3,132.6,43.3,127.3,46.5,124
	L46.5,124z"/>
<path class="st1" d="M123.5,124L79.1,79.6l44.4-44.5l44.4,44.4c3.3,3.3,3.3,8.6,0,11.8l0,0l-32.6,32.6
	C132.1,127.3,126.8,127.3,123.5,124L123.5,124z"/>
<path class="st2" d="M123.5,47L79.1,91.4L34.6,47L79.1,2.6c3.3-3.3,8.6-3.3,11.8,0l32.6,32.5C126.8,38.4,126.8,43.7,123.5,47
	L123.5,47z"/>
<path class="st3" d="M85,85.5L46.5,124c-3.3,3.3-8.6,3.3-11.8,0l0,0L2.1,91.4c-3.3-3.3-3.3-8.6,0-11.8l0,0L34.6,47
	c3.3-3.3,8.6-3.3,11.9,0L85,85.5z"/>
<g>
	<path d="M89.6,44.4v11.3H72.5v42.4H61.1V55.8H43V44.4H89.6z"/>
	<path d="M117.3,44.5c8.2,0,18.9,3.3,18.7,17.5l-0.1,17.8c0,13-11,18.4-19.9,18.4H95V44.5H117.3z M126.6,64.7
		c0-6.7-2.9-9.7-11.1-9.7h-8.7v31.5h9.4c5.3,0,10.4-1.8,10.4-8.5C126.6,78,126.6,64.7,126.6,64.7z"/>
</g>
<g>
	<path d="M42.4,113.9c1.7,1.1,3.7,2,6.1,2c1.7,0,3.2-0.4,3.4-1.6c0.2-1.5-2.1-2.1-3-2.3c-2.4-0.6-3.9-1.1-4.4-1.4
		c-1.4-0.8-2.1-1.9-2.1-3.4c0-3.1,3.3-4.7,6.2-4.7c2,0,4,0.5,5.6,1.7v3.2c-1.3-1.1-3.2-2.1-5-2c-1.5,0.2-2.5,0.6-2.5,1.8
		c0,1.1,2.4,1.9,3.3,2.1c3.1,0.9,5.4,1.6,5.3,5.1c-0.1,3.5-3.9,4.9-6.8,4.9c-2.1,0-4.4-0.6-6.2-1.8V113.9z"/>
	<path d="M64.1,113.1h-3.3v6.2h-3.7v-16.8h6.9c2.2,0,5.9,0.6,5.9,5.8C70,111.9,67.6,113.1,64.1,113.1z M63.8,111
		c1.8,0,2.9-0.8,2.9-2.7c0-1.8-0.8-2.7-2.6-2.7h-3.1v5.4H63.8z"/>
	<path d="M81,119.3c0.4-0.8,0.5-1.5,0.5-3.2c0-2.3-0.4-3.4-2.9-3.4H76v6.6h-4v-16.8h8c4.4,0,5.1,3.3,5.1,4.7c0,1.8-0.8,3.4-2.5,4
		c1.4,0.6,2.4,1.1,2.4,4.3v3.8H81z M79,109.9c1.8,0,2.7-0.6,2.7-2.3c0-0.9-0.4-2.2-2.4-2.2H76v4.5H79z"/>
	<path d="M87.2,119.3v-16.8h3.4v16.8H87.2z"/>
	<path d="M106.9,102.5v3.5h-5.3v13.2H98v-13.2h-5.6v-3.5H106.9z"/>
	<path d="M112.5,105.2v4.1h6.3v2.3h-6.3v5.2h7.6v2.5h-11.4v-16.8h11.4v2.7H112.5z"/>
	<path d="M122.1,113.9c1.7,1.1,3.7,2,6.1,2c1.7,0,3.2-0.4,3.4-1.6c0.2-1.5-2.1-2.1-3-2.3c-2.4-0.6-3.9-1.1-4.4-1.4
		c-1.4-0.8-2.1-1.9-2.1-3.4c0-3.1,3.3-4.7,6.2-4.7c2,0,4,0.5,5.6,1.7v3.2c-1.3-1.1-3.2-2.1-5-2c-1.5,0.2-2.5,0.6-2.5,1.8
		c0,1.1,2.4,1.9,3.3,2.1c3.1,0.9,5.4,1.6,5.3,5.1c-0.1,3.5-3.9,4.9-6.8,4.9c-2.1,0-4.4-0.6-6.2-1.8V113.9z"/>
</g>
</svg>
