<svg xmlns="http://www.w3.org/2000/svg" xml:space="preserve" viewBox="0 0 170.8 170.8">
  <path fill="#5048a5" d="m46.5 124 44.4-44.4 44.4 44.4-44.5 44.4c-3.3 3.3-8.6 3.3-11.8 0l-32.5-32.6c-3.2-3.2-3.2-8.5 0-11.8z"/>
  <path fill="#6cadbb" d="M123.5 124 79.1 79.6l44.4-44.5 44.4 44.4c3.3 3.3 3.3 8.6 0 11.8l-32.6 32.6c-3.2 3.4-8.5 3.4-11.8.1z"/>
  <path fill="#f2e178" d="M123.5 47 79.1 91.4 34.6 47 79.1 2.6c3.3-3.3 8.6-3.3 11.8 0l32.6 32.5c3.3 3.3 3.3 8.6 0 11.9z"/>
  <path fill="#f4aa8d" d="M85 85.5 46.5 124c-3.3 3.3-8.6 3.3-11.8 0L2.1 91.4c-3.3-3.3-3.3-8.6 0-11.8L34.6 47c3.3-3.3 8.6-3.3 11.9 0L85 85.5z"/>
  <path d="M89.6 44.4v11.3H72.5v42.4H61.1V55.8H43V44.4h46.6zM117.3 44.5c8.2 0 18.9 3.3 18.7 17.5l-.1 17.8c0 13-11 18.4-19.9 18.4H95V44.5h22.3zm9.3 20.2c0-6.7-2.9-9.7-11.1-9.7h-8.7v31.5h9.4c5.3 0 10.4-1.8 10.4-8.5V64.7zM42.4 113.9c1.7 1.1 3.7 2 6.1 2 1.7 0 3.2-.4 3.4-1.6.2-1.5-2.1-2.1-3-2.3-2.4-.6-3.9-1.1-4.4-1.4-1.4-.8-2.1-1.9-2.1-3.4 0-3.1 3.3-4.7 6.2-4.7 2 0 4 .5 5.6 1.7v3.2c-1.3-1.1-3.2-2.1-5-2-1.5.2-2.5.6-2.5 1.8 0 1.1 2.4 1.9 3.3 2.1 3.1.9 5.4 1.6 5.3 5.1-.1 3.5-3.9 4.9-6.8 4.9-2.1 0-4.4-.6-6.2-1.8v-3.6zM64.1 113.1h-3.3v6.2h-3.7v-16.8H64c2.2 0 5.9.6 5.9 5.8.1 3.6-2.3 4.8-5.8 4.8zm-.3-2.1c1.8 0 2.9-.8 2.9-2.7 0-1.8-.8-2.7-2.6-2.7H61v5.4h2.8zM81 119.3c.4-.8.5-1.5.5-3.2 0-2.3-.4-3.4-2.9-3.4H76v6.6h-4v-16.8h8c4.4 0 5.1 3.3 5.1 4.7 0 1.8-.8 3.4-2.5 4 1.4.6 2.4 1.1 2.4 4.3v3.8h-4zm-2-9.4c1.8 0 2.7-.6 2.7-2.3 0-.9-.4-2.2-2.4-2.2H76v4.5h3zM87.2 119.3v-16.8h3.4v16.8h-3.4zM106.9 102.5v3.5h-5.3v13.2H98V106h-5.6v-3.5h14.5zM112.5 105.2v4.1h6.3v2.3h-6.3v5.2h7.6v2.5h-11.4v-16.8h11.4v2.7h-7.6zM122.1 113.9c1.7 1.1 3.7 2 6.1 2 1.7 0 3.2-.4 3.4-1.6.2-1.5-2.1-2.1-3-2.3-2.4-.6-3.9-1.1-4.4-1.4-1.4-.8-2.1-1.9-2.1-3.4 0-3.1 3.3-4.7 6.2-4.7 2 0 4 .5 5.6 1.7v3.2c-1.3-1.1-3.2-2.1-5-2-1.5.2-2.5.6-2.5 1.8 0 1.1 2.4 1.9 3.3 2.1 3.1.9 5.4 1.6 5.3 5.1-.1 3.5-3.9 4.9-6.8 4.9-2.1 0-4.4-.6-6.2-1.8v-3.6z"/>
</svg>
